<svg width="71" height="29" viewBox="0 0 71 29" fill="none" xmlns="http://www.w3.org/2000/svg">
<path d="M34.1036 14.249V22.3974H31.5186V2.27455H38.3744C39.1928 2.25745 40.0064 2.40259 40.7684 2.70159C41.5303 3.00059 42.2255 3.44753 42.8139 4.01661C43.4081 4.55114 43.8811 5.20669 44.201 5.93919C44.5208 6.6717 44.6802 7.46418 44.6683 8.26339C44.6853 9.06687 44.5284 9.86454 44.2083 10.6017C43.8883 11.3389 43.4126 11.9981 42.8139 12.5343C41.615 13.6774 40.1352 14.2485 38.3744 14.2474H34.1036V14.249ZM34.1036 4.75197V11.7764H38.4386C38.9139 11.7905 39.3869 11.7052 39.8273 11.5261C40.2677 11.3469 40.6659 11.0778 40.9963 10.736C41.3251 10.4164 41.5864 10.0341 41.7648 9.61174C41.9433 9.18939 42.0352 8.73554 42.0352 8.27704C42.0352 7.81854 41.9433 7.36469 41.7648 6.94233C41.5864 6.51998 41.3251 6.13769 40.9963 5.81808C40.67 5.46904 40.2732 5.19334 39.8323 5.00926C39.3913 4.82519 38.9163 4.73694 38.4386 4.75036H34.1036V4.75197Z" fill="#5F6368"/>
<path d="M50.625 8.17993C52.5356 8.17993 54.0438 8.69051 55.1495 9.71166C56.2552 10.7328 56.8075 12.1329 56.8065 13.9119V22.3974H54.3339V20.4868H54.2215C53.1511 22.0602 51.7275 22.847 49.9506 22.847C48.4339 22.847 47.1649 22.3974 46.1438 21.4983C45.6537 21.0856 45.2619 20.5688 44.9969 19.9855C44.7319 19.4022 44.6004 18.7671 44.612 18.1266C44.612 16.7019 45.1504 15.5688 46.2273 14.7275C47.3041 13.8862 48.7416 13.4645 50.5399 13.4623C52.0748 13.4623 53.3389 13.7433 54.3323 14.3053V13.7144C54.3352 13.2777 54.2409 12.8458 54.0562 12.4501C53.8715 12.0544 53.6011 11.7047 53.2646 11.4264C52.581 10.8097 51.6901 10.4732 50.7695 10.484C49.3255 10.484 48.1829 11.093 47.3415 12.3111L45.0648 10.8773C46.3172 9.07906 48.1706 8.17993 50.625 8.17993ZM47.2805 18.1827C47.2788 18.5117 47.3557 18.8364 47.5048 19.1296C47.654 19.4229 47.871 19.6762 48.1379 19.8686C48.7096 20.3183 49.4192 20.5566 50.1465 20.543C51.2373 20.5411 52.2829 20.107 53.0542 19.3356C53.9105 18.5296 54.3387 17.5839 54.3387 16.4985C53.5327 15.8562 52.4088 15.5351 50.967 15.5351C49.9169 15.5351 49.0413 15.7883 48.3402 16.2946C47.6321 16.8084 47.2805 17.4329 47.2805 18.1827Z" fill="#5F6368"/>
<path d="M71 8.62939L62.3684 28.4664H59.6999L62.9031 21.5255L57.2273 8.62939H60.0371L64.1394 18.5198H64.1955L68.1854 8.62939H71Z" fill="#5F6368"/>
<path d="M23.6577 12.4924C23.6587 11.7046 23.592 10.9182 23.4586 10.1418H12.5566V14.5941H18.8008C18.673 15.3052 18.4026 15.9831 18.0058 16.5869C17.609 17.1906 17.094 17.7078 16.4919 18.1072V20.9972H20.2185C22.4005 18.9854 23.6577 16.0103 23.6577 12.4924Z" fill="#4285F4"/>
<path d="M12.5565 23.7894C15.6762 23.7894 18.3029 22.765 20.2184 20.9989L16.4918 18.1088C15.4546 18.8121 14.1188 19.2135 12.5565 19.2135C9.54124 19.2135 6.98193 17.1808 6.06675 14.4417H2.22778V17.42C3.18996 19.3346 4.66535 20.9442 6.48924 22.0689C8.31313 23.1936 10.4137 23.7893 12.5565 23.7894Z" fill="#34A853"/>
<path d="M6.06675 14.4417C5.58292 13.0064 5.58292 11.452 6.06675 10.0167V7.03833H2.22779C1.41837 8.64898 0.996826 10.4266 0.996826 12.2292C0.996826 14.0318 1.41837 15.8094 2.22779 17.4201L6.06675 14.4417Z" fill="#FBBC04"/>
<path d="M12.5565 5.2449C14.2051 5.21797 15.7981 5.84085 16.9912 6.97893L20.2907 3.67945C18.1984 1.71433 15.4267 0.635448 12.5565 0.668971C10.4137 0.669069 8.31313 1.26473 6.48924 2.38946C4.66535 3.51419 3.18996 5.12371 2.22778 7.03834L6.06675 10.0167C6.98193 7.27757 9.54124 5.2449 12.5565 5.2449Z" fill="#EA4335"/>
</svg>
