<svg width="121" height="44" viewBox="0 0 121 44" fill="none" xmlns="http://www.w3.org/2000/svg">
<path d="M56.7526 21.4469V34.3149H52.3213V2.5368H64.0738C65.4767 2.50981 66.8714 2.73901 68.1776 3.21119C69.4838 3.68337 70.6755 4.38918 71.6841 5.28788C72.7028 6.13201 73.5135 7.16725 74.0619 8.32403C74.6102 9.4808 74.8834 10.7323 74.863 11.9944C74.8922 13.2633 74.6232 14.5229 74.0745 15.6871C73.5258 16.8512 72.7104 17.8923 71.6841 18.739C69.629 20.5443 67.0922 21.4461 64.0738 21.4444H56.7526V21.4469ZM56.7526 6.44916V17.5422H64.1839C64.9986 17.5644 65.8094 17.4298 66.5644 17.1469C67.3193 16.864 68.0019 16.439 68.5684 15.8992C69.132 15.3944 69.5799 14.7907 69.8858 14.1237C70.1917 13.4567 70.3493 12.74 70.3493 12.016C70.3493 11.2919 70.1917 10.5752 69.8858 9.90819C69.5799 9.24121 69.132 8.6375 68.5684 8.13276C68.009 7.58155 67.3288 7.14617 66.5729 6.85548C65.817 6.56479 65.0027 6.42542 64.1839 6.44662H56.7526V6.44916Z" fill="#5F6368"/>
<path d="M85.0741 11.8625C88.3494 11.8625 90.9348 12.6689 92.8303 14.2815C94.7257 15.8941 95.6725 18.1051 95.6707 20.9145V34.3149H91.4321V31.2975H91.2394C89.4045 33.7824 86.9641 35.0248 83.9182 35.0248C81.3181 35.0248 79.1428 34.3149 77.3923 32.8949C76.5523 32.2432 75.8806 31.4271 75.4264 30.5059C74.9721 29.5848 74.7467 28.5819 74.7666 27.5703C74.7666 25.3204 75.6895 23.5312 77.5355 22.2025C79.3814 20.8739 81.8456 20.2079 84.9283 20.2045C87.5595 20.2045 89.7265 20.6482 91.4293 21.5357V20.6026C91.4343 19.913 91.2727 19.231 90.9561 18.606C90.6395 17.9811 90.176 17.4289 89.599 16.9894C88.4272 16.0155 86.9 15.484 85.3219 15.5011C82.8466 15.5011 80.8878 16.4629 79.4456 18.3865L75.5428 16.1223C77.6896 13.2825 80.8667 11.8625 85.0741 11.8625ZM79.341 27.659C79.338 28.1786 79.4699 28.6912 79.7255 29.1543C79.9812 29.6174 80.3532 30.0176 80.8107 30.3214C81.7908 31.0316 83.0072 31.4078 84.2539 31.3863C86.1239 31.3834 87.9163 30.6977 89.2385 29.4796C90.7064 28.2067 91.4403 26.7133 91.4403 24.9992C90.0587 23.985 88.132 23.4779 85.6604 23.4779C83.8604 23.4779 82.3594 23.8777 81.1575 24.6772C79.9438 25.4886 79.341 26.4749 79.341 27.659Z" fill="#5F6368"/>
<path d="M120.002 12.5723L105.205 43.899H100.631L106.122 32.9378L96.3921 12.5723H101.209L108.241 28.1913H108.337L115.177 12.5723H120.002Z" fill="#5F6368"/>
<path d="M38.8459 18.6727C38.8476 17.4287 38.7334 16.1868 38.5046 14.9607H19.8162V21.9918H30.5201C30.301 23.1147 29.8374 24.1852 29.1572 25.1387C28.477 26.0921 27.5942 26.9089 26.5622 27.5396V32.1036H32.9504C36.6908 28.9265 38.8459 24.2281 38.8459 18.6727Z" fill="#4285F4"/>
<path d="M19.816 36.513C25.1638 36.513 29.6666 34.8953 32.9502 32.1062L26.562 27.5422C24.784 28.6527 22.494 29.2866 19.816 29.2866C14.6471 29.2866 10.2598 26.0766 8.69098 21.751H2.11011V26.4544C3.7595 29.478 6.28866 32.0198 9.41523 33.796C12.5418 35.5721 16.1427 36.5128 19.816 36.513Z" fill="#34A853"/>
<path d="M8.69102 21.7512C7.86163 19.4846 7.86163 17.0299 8.69102 14.7633V10.0598H2.11015C0.722623 12.6034 0 15.4106 0 18.2573C0 21.1039 0.722623 23.9111 2.11015 26.4547L8.69102 21.7512Z" fill="#FBBC04"/>
<path d="M19.816 7.22752C22.6421 7.18499 25.3728 8.16865 27.418 9.96591L33.0741 4.75536C29.4875 1.65203 24.7361 -0.0517422 19.816 0.00119776C16.1427 0.00135199 12.5418 0.942026 9.41523 2.7182C6.28866 4.49437 3.7595 7.03614 2.11011 10.0597L8.69098 14.7632C10.2598 10.4375 14.6471 7.22752 19.816 7.22752Z" fill="#EA4335"/>
</svg>
