<svg width="74" height="32" viewBox="0 0 74 32" fill="none" xmlns="http://www.w3.org/2000/svg">
<path d="M29.9034 30.7479C29.7625 30.3619 29.5071 30.0987 29.3222 29.7566C28.8731 29.1688 28.3447 28.66 27.8164 28.1511C27.6315 28.0897 27.5522 27.9143 27.3761 27.8441C27.2617 27.695 27.0767 27.616 26.927 27.5019C26.6276 27.2739 26.3018 27.0808 25.9672 26.8878C25.3332 26.4843 24.5495 26.2299 23.7746 25.9667C22.9381 25.7649 22.0575 25.6158 21.1417 25.4929C20.2347 25.3614 19.3278 25.2385 18.6409 24.8788C18.2447 24.7648 17.9541 24.5455 17.6106 24.37C17.2936 24.1595 16.9502 23.984 16.6861 23.7208C16.3602 23.5278 16.1577 23.2032 15.9023 22.94C15.8143 22.7646 15.6646 22.6593 15.5942 22.4663C15.5061 22.4312 15.4797 22.3259 15.4268 22.2645C15.3652 22.1943 15.3652 22.054 15.2595 22.0276C15.2067 22.3873 15.2243 22.8172 15.2595 23.1857C15.3036 23.3436 15.3212 23.5366 15.3652 23.6945C15.3916 23.8349 15.5237 24.063 15.4709 24.1682C12.7235 24.0279 10.7158 23.1593 8.97229 22.0189C8.10934 21.4486 7.36966 20.7556 6.68282 20.0099C6.38343 19.5975 6.05762 19.2027 5.79345 18.7466C5.52047 18.2991 5.29153 17.7903 5.04497 17.3166C4.63991 16.2901 4.26126 15.2374 4.12037 13.9478C3.93545 12.7459 3.97948 11.2106 4.25246 10.0964C4.34932 9.48234 4.55185 8.96474 4.72796 8.42959C4.84244 8.18395 4.96572 7.9383 5.07138 7.68389C5.22108 7.47334 5.30033 7.18383 5.48525 6.9996C5.98717 6.06089 6.73565 5.35906 7.50175 4.68354C8.32948 4.07821 9.27169 3.58693 10.4076 3.28865C11.4995 3.04301 12.9877 2.99914 14.1676 3.25356C16.5628 3.74484 18.3679 4.81514 19.8825 6.18372C21.4147 7.52598 22.5947 9.22792 23.4048 11.2983C24.2413 13.2635 24.5319 16.3252 23.7834 18.5536C23.4752 18.3781 23.167 18.2114 22.8588 18.0447C22.489 17.9394 22.128 17.8166 21.6965 17.7728C21.1769 17.764 20.6662 17.7728 20.3316 17.9394C21.0096 17.8693 21.5556 18.0535 21.9783 18.2114C22.2248 18.3079 22.3657 18.3693 22.5594 18.4834C22.9381 18.7027 23.2727 18.9045 23.5545 19.2028C24.3558 19.9046 24.9282 20.8345 25.2011 22.0627C25.2011 22.0978 25.2452 22.089 25.2363 22.0276C25.2716 22.0189 25.2892 21.9925 25.3068 21.9575C25.3508 21.9048 25.4037 21.8522 25.4477 21.7908C25.5357 21.6855 25.6238 21.5802 25.6854 21.4486C25.8704 21.2293 26.0201 20.9837 26.1609 20.7292C26.4868 20.2555 26.7333 19.7116 27.0151 19.194C27.4994 18.0886 27.8957 16.8955 28.1422 15.5444C28.6353 12.5441 28.0454 9.70166 27.0151 7.60493C25.9584 5.49065 24.4791 3.79748 22.5682 2.5254C20.6398 1.2621 18.3855 0.332169 15.286 0.24444C15.2683 0.183029 15.2419 0.253213 15.1803 0.24444C13.5424 0.191802 12.2216 0.419899 10.9095 0.75327C10.3019 0.955048 9.66794 1.13051 9.13079 1.40247C8.5144 1.60424 8.02128 1.93762 7.45772 2.18326C7.25519 2.37626 6.94699 2.47277 6.73565 2.657C6.46268 2.78859 6.26015 2.99914 5.98717 3.13074C5.54689 3.51674 5.08019 3.85889 4.64871 4.25367C4.22604 4.63968 3.8562 5.07833 3.45114 5.48188C3.3895 5.62225 3.28383 5.71875 3.17817 5.82403C3.10772 5.95562 3.01967 6.06967 2.90519 6.16617C2.86116 6.32408 2.72027 6.38549 2.66744 6.54341C2.55297 6.63114 2.52655 6.80659 2.39446 6.88555C2.27999 7.16629 2.07746 7.36806 1.94537 7.63125C1.78687 7.88567 1.66359 8.1664 1.50509 8.41204C1.25853 8.98228 0.994363 9.53498 0.791833 10.1491C0.580497 10.7456 0.404384 11.3773 0.281105 12.0616C0.14902 12.702 0.0257404 13.5354 0.0433518 14.2109C-0.0447049 14.4566 0.0257404 14.9128 0.0433518 15.2023C0.0433518 15.2549 0.00812912 15.2725 0.00812912 15.3076C0.00812912 15.6322 0.0961857 16.0269 0.113797 16.2287C0.184242 16.9744 0.316327 17.6675 0.527663 18.2728C0.659748 18.9483 0.941529 19.4747 1.14406 20.08C1.45226 20.5889 1.66359 21.1942 2.03343 21.6504C2.30641 22.1855 2.69386 22.6067 3.06369 23.0453C3.45995 23.4664 3.8562 23.8963 4.33171 24.2384C5.20347 24.9929 6.22493 25.5982 7.34325 26.1158C9.43019 27.1247 12.5474 27.7827 15.3476 27.616C16.0609 27.5195 16.7829 27.4318 17.4345 27.2738C18.0333 27.0545 18.729 26.9229 19.451 26.8352C21.0977 26.7299 22.5242 26.8791 23.7922 27.2475C25.0778 27.5897 26.1874 28.1073 27.1472 28.7828C27.6579 29.0811 28.0806 29.4671 28.5121 29.8355C28.9523 30.2128 29.3046 30.6777 29.7096 31.0989C29.7625 31.2568 29.8681 31.3708 29.9474 31.5112C30.053 31.6252 30.0002 31.8884 30.2556 31.8533C30.4141 31.6954 30.2292 31.4673 30.2204 31.2743C30.0619 31.1076 30.0266 30.8883 29.9034 30.7479Z" fill="#FCB316"/>
<path d="M23.5104 21.4136C23.4752 21.4136 23.4664 21.4399 23.44 21.4487C23.3784 21.5803 23.4048 21.7908 23.44 21.9224C23.6249 22.2996 23.6866 22.7909 24.0916 22.9488C24.2853 22.8874 24.2677 22.6067 24.2589 22.3347C24.1709 22.0014 24.0476 21.7031 23.8451 21.4838C23.7042 21.4311 23.6073 21.3434 23.5104 21.4136ZM21.1153 22.3698C21.1153 22.3523 21.0889 22.3347 21.0801 22.3698C20.7455 22.326 20.631 22.5102 20.4637 22.6418C20.1731 23.405 20.6398 24.1507 21.4587 24.142C21.7845 24.063 21.9871 23.8524 22.0399 23.4928C21.9959 22.8523 21.7229 22.44 21.1153 22.3698Z" fill="#FCB316"/>
<path d="M40.8575 19.9397C40.9896 20.4923 41.2713 20.8871 41.5884 21.2556C41.9054 21.6241 42.2752 21.9311 42.7243 22.1592C43.147 22.4224 43.6048 22.6417 44.1332 22.7909C44.3886 22.8786 44.6351 22.9839 44.9521 23.019C45.1723 23.1418 45.4364 23.2032 45.454 23.519C45.4452 23.8962 45.1899 24.0366 44.8641 24.1068C44.5382 24.0366 44.1332 24.0454 43.8602 23.9226C43.1734 23.8436 42.6186 23.6243 42.0374 23.4225C40.9279 22.9926 39.9945 22.3698 39.2196 21.6065C39.0611 21.3433 38.841 21.1328 38.6737 20.8784C38.5064 20.6239 38.3919 20.3169 38.2158 20.0625C36.8597 19.887 35.9351 19.2729 35.125 18.5623C34.3765 17.7113 33.7777 16.6937 33.5312 15.3426C33.2406 14.0442 33.3286 12.4213 33.6721 11.1667C34.4205 8.73662 35.988 7.1224 38.9467 6.90308C39.7656 6.92939 40.4788 7.0259 41.1305 7.27154C41.7909 7.50841 42.4161 7.94706 42.9092 8.40325C42.9532 8.43834 42.9708 8.44711 42.9973 8.49098C43.1029 8.64012 43.3583 8.85067 43.4992 9.0349C43.5256 9.06999 43.5168 9.1314 43.5432 9.17527C43.596 9.25422 43.6753 9.28931 43.7281 9.3595C43.7545 9.40336 43.7457 9.456 43.7722 9.49109C43.8074 9.54373 43.8514 9.62269 43.9042 9.71919C43.9219 9.75428 43.9835 9.7806 43.9923 9.80692C44.0715 9.95606 44.1068 10.1403 44.1772 10.307C44.2477 10.4824 44.3445 10.6316 44.4062 10.807C44.5823 11.3246 44.6967 11.9387 44.7672 12.5704C44.9433 14.3952 44.5823 16.0269 43.9042 17.2376C43.5872 17.8692 43.147 18.3868 42.6274 18.8255C42.1519 19.3255 41.5003 19.6238 40.8575 19.9397ZM38.6737 8.5173C38.2774 8.54361 38.0397 8.72785 37.7139 8.83312C37.5025 9.02613 37.2384 9.17527 37.0799 9.42091C36.8157 9.57005 36.7452 9.90342 36.5339 10.0964C36.3578 10.5351 36.1905 11.0264 36.076 11.5966C35.9703 12.1581 35.8999 12.7897 35.8911 13.4126C35.8823 14.9742 36.2169 16.527 36.8421 17.4481C37.2119 17.8956 37.661 18.264 38.207 18.536C38.524 18.5623 38.7705 18.6676 39.114 18.6764C39.3077 18.6062 39.6247 18.6764 39.748 18.536C40.0297 18.5535 40.0914 18.3693 40.3379 18.3518C40.47 18.2202 40.6109 18.1149 40.7958 18.0359C40.9631 17.8517 41.1216 17.6675 41.2978 17.492C41.3858 17.3604 41.4387 17.1762 41.5707 17.0797C42.3632 15.5707 42.4513 12.8073 41.9318 11.0527C41.738 10.4122 41.4651 9.89465 41.1569 9.46477C40.8223 9.12263 40.426 8.83312 39.9769 8.60503C39.6159 8.52607 39.2725 8.42957 38.797 8.47343C38.7705 8.47343 38.7441 8.4822 38.7529 8.5173C38.7353 8.5173 38.7089 8.5173 38.6737 8.5173ZM48.2807 7.24522C48.9939 7.27154 49.8305 7.18381 50.4645 7.28909C50.6053 7.50841 50.5525 7.7716 50.5525 8.01724C50.6053 11.3422 50.5525 14.9128 50.5525 18.3079C50.5525 18.5798 50.5613 18.8606 50.5525 19.1238C50.5437 19.3519 50.6053 19.5975 50.4645 19.8081C50.1475 19.887 49.6896 19.8519 49.2845 19.8519C48.853 19.8519 48.4304 19.9133 48.1486 19.7642C48.0693 15.7462 48.0693 11.4124 48.1486 7.38559C48.1662 7.3154 48.2102 7.27154 48.2807 7.24522ZM53.7402 7.24522H55.8799C56.0737 7.50841 56.1353 7.90319 56.1969 8.2892C56.8398 10.7281 57.4738 13.1757 58.0637 15.676C58.2046 15.6936 58.1606 15.5269 58.2046 15.4479C58.2663 15.3865 58.2311 15.2374 58.2927 15.176C58.3191 14.9742 58.4424 14.8689 58.4336 14.632C58.5921 14.325 58.6449 13.9039 58.7946 13.5881C58.9795 12.8511 59.2261 12.1668 59.4374 11.4562C59.64 10.7193 59.9129 10.0526 60.0714 9.28054C60.3708 8.65766 60.4413 7.80669 60.8023 7.24522H61.7093C62.0351 7.85933 62.1584 8.67521 62.4402 9.33318C62.6251 10.0701 62.8804 10.7368 63.0742 11.465C63.5233 12.8774 63.99 14.2723 64.395 15.7286C64.5799 15.4567 64.5799 15.0005 64.712 14.6847C64.7913 14.325 64.8617 13.9565 64.985 13.6407C65.3372 12.2019 65.6718 10.7544 66.0769 9.37704C66.2266 8.65766 66.3763 7.92074 66.6228 7.28909C67.1512 7.21013 67.9613 7.21013 68.4896 7.28909C68.5337 7.82423 68.2871 8.40325 68.1286 8.87699C68.0406 9.456 67.8292 9.90342 67.7147 10.4649C67.3889 11.4913 67.1424 12.5792 66.8078 13.5968C66.5524 14.6847 66.209 15.6848 65.9448 16.7726C65.7687 17.2727 65.6454 17.8254 65.4869 18.3605C65.3108 18.8518 65.2492 19.4571 64.985 19.8607H63.7082C63.3824 19.2905 63.2679 18.5184 62.9773 17.9131C62.3433 15.9129 61.6388 13.9916 61.0224 11.9738C60.8111 12.1932 60.8111 12.6406 60.6614 12.9213C60.5645 13.2635 60.4677 13.6056 60.3444 13.9214C60.1683 14.6145 59.9041 15.2023 59.7544 15.9129C59.4991 16.5358 59.3141 17.2288 59.1204 17.9131C58.8563 18.5097 58.7594 19.2729 58.4336 19.8168C58.099 19.9221 57.5706 19.8344 57.1568 19.8607C56.8398 19.501 56.8045 18.8518 56.6108 18.3605C56.4611 17.8517 56.3554 17.2902 56.1617 16.8165C55.9152 15.7111 55.5453 14.7373 55.2988 13.6407C54.973 12.623 54.6912 11.5615 54.3918 10.5088C54.2245 10.0087 54.1012 9.47355 53.9339 8.96472C53.8546 8.42079 53.4848 7.92951 53.6169 7.33295C53.6345 7.28909 53.6873 7.26277 53.7402 7.24522ZM71.7125 7.24522C72.4258 7.27154 73.2535 7.18381 73.8963 7.28909C74.0548 7.76282 73.9844 8.27165 73.9844 8.78048V18.2991C73.9844 18.8167 74.046 19.3168 73.8963 19.7993C73.4032 19.8519 72.6811 19.8782 72.0736 19.8432C71.8974 19.8344 71.6861 19.887 71.5716 19.7554C71.4131 19.2817 71.4836 18.7816 71.4836 18.2553V8.83312C71.4836 8.26288 71.4307 7.71019 71.5716 7.33295C71.6068 7.28909 71.6597 7.26277 71.7125 7.24522Z" fill="#0269B3"/>
</svg>
