<svg width="126" height="52" viewBox="0 0 126 52" fill="none" xmlns="http://www.w3.org/2000/svg">
<path d="M51.0124 49.6287C50.7744 49.0087 50.3431 48.5859 50.0307 48.0363C49.2721 47.0922 48.3796 46.2749 47.4872 45.4575C47.1748 45.3589 47.0409 45.0771 46.7435 44.9643C46.5501 44.7248 46.2377 44.5979 45.9849 44.4147C45.4791 44.0484 44.9288 43.7383 44.3635 43.4283C43.2926 42.7801 41.9688 42.3714 40.6598 41.9487C39.2467 41.6246 37.7593 41.385 36.2124 41.1877C34.6803 40.9763 33.1482 40.7791 31.988 40.2013C31.3187 40.0181 30.8278 39.6658 30.2477 39.384C29.7122 39.0458 29.1321 38.7639 28.6859 38.3412C28.1355 38.0312 27.7934 37.5098 27.3621 37.087C27.2133 36.8052 26.9605 36.6361 26.8415 36.326C26.6927 36.2697 26.6481 36.1006 26.5589 36.0019C26.4547 35.8892 26.4547 35.6637 26.2762 35.6214C26.187 36.1992 26.2167 36.8897 26.2762 37.4816C26.3506 37.7352 26.3804 38.0452 26.4547 38.2989C26.4994 38.5244 26.7225 38.8908 26.6332 39.0599C21.9924 38.8344 18.601 37.4393 15.6559 35.6074C14.1982 34.6914 12.9488 33.5781 11.7885 32.3803C11.2828 31.718 10.7325 31.0839 10.2862 30.3511C9.82512 29.6324 9.43839 28.8151 9.02191 28.0541C8.33768 26.4054 7.69808 24.7144 7.46009 22.6429C7.14773 20.7123 7.2221 18.2462 7.68321 16.4566C7.84683 15.4701 8.18894 14.6387 8.48643 13.7791C8.67979 13.3846 8.88804 12.99 9.06653 12.5813C9.31939 12.2431 9.45326 11.7781 9.76563 11.4822C10.6135 9.97433 11.8778 8.84698 13.1719 7.76191C14.5701 6.78958 16.1616 6.00043 18.0804 5.52131C19.9249 5.12674 22.4386 5.05628 24.4318 5.46495C28.4777 6.25409 31.5269 7.97329 34.0853 10.1716C36.6735 12.3277 38.6666 15.0615 40.0351 18.3871C41.4482 21.5437 41.939 26.4618 40.6747 30.0411C40.1541 29.7592 39.6335 29.4915 39.1129 29.2238C38.4882 29.0547 37.8783 28.8574 37.1495 28.7869C36.2719 28.7728 35.4091 28.7869 34.8439 29.0547C35.9892 28.9419 36.9115 29.2379 37.6254 29.4915C38.0419 29.6465 38.2799 29.7452 38.6071 29.9284C39.2467 30.2806 39.812 30.6048 40.288 31.0839C41.6415 32.2112 42.6084 33.705 43.0695 35.6778C43.0695 35.7342 43.1438 35.7201 43.129 35.6214C43.1885 35.6074 43.2182 35.5651 43.248 35.5087C43.3223 35.4242 43.4116 35.3396 43.486 35.241C43.6347 35.0719 43.7835 34.9028 43.8876 34.6914C44.1999 34.3391 44.4528 33.9445 44.6908 33.5359C45.2411 32.7749 45.6576 31.9012 46.1336 31.0698C46.9517 29.2942 47.6211 27.3777 48.0375 25.2076C48.8705 20.3882 47.8739 15.8224 46.1336 12.4545C44.3487 9.05836 41.8498 6.33864 38.622 4.29532C35.3645 2.2661 31.5567 0.772368 26.3209 0.631449C26.2911 0.532807 26.2465 0.645541 26.1424 0.631449C23.3757 0.546898 21.1446 0.913286 18.9283 1.44878C17.9019 1.77289 16.831 2.05472 15.9236 2.49157C14.8824 2.81568 14.0495 3.35117 13.0975 3.74574C12.7554 4.05576 12.2348 4.21077 11.8778 4.5067C11.4167 4.71808 11.0746 5.05628 10.6135 5.26766C9.86975 5.8877 9.0814 6.43728 8.35256 7.07141C7.63858 7.69145 7.01386 8.39604 6.32963 9.04427C6.22551 9.26974 6.04702 9.42475 5.86853 9.59385C5.74953 9.80523 5.60079 9.98842 5.40742 10.1434C5.33305 10.3971 5.09506 10.4957 5.00581 10.7494C4.81244 10.8903 4.76782 11.1721 4.5447 11.299C4.35133 11.7499 4.00922 12.074 3.78611 12.4968C3.51837 12.9054 3.31012 13.3564 3.04238 13.7509C2.6259 14.6669 2.17967 15.5547 1.83756 16.5411C1.48057 17.4994 1.18308 18.514 0.974839 19.6131C0.751722 20.6418 0.54348 21.9806 0.573229 23.0656C0.424485 23.4602 0.54348 24.193 0.573229 24.658C0.573229 24.7426 0.513732 24.7707 0.513732 24.8271C0.513732 25.3485 0.662476 25.9826 0.692225 26.3068C0.81122 27.5046 1.03434 28.6178 1.39132 29.5901C1.61444 30.6752 2.09042 31.5207 2.43253 32.4931C2.95314 33.3104 3.31012 34.2827 3.93485 35.0155C4.39596 35.8751 5.05043 36.5515 5.67516 37.2561C6.34451 37.9325 7.01386 38.623 7.81708 39.1726C9.28965 40.3845 11.0151 41.3568 12.9041 42.1882C16.4294 43.8088 21.6949 44.8657 26.425 44.5979C27.6298 44.4429 28.8495 44.302 29.9502 44.0484C30.9617 43.6961 32.1368 43.4847 33.3565 43.3438C36.138 43.1747 38.5476 43.4142 40.6896 44.0061C42.8612 44.5557 44.7354 45.3871 46.3567 46.4722C47.2194 46.9513 47.9334 47.5713 48.6623 48.1632C49.406 48.7691 50.001 49.516 50.6852 50.1924C50.7744 50.446 50.9529 50.6292 51.0868 50.8547C51.2653 51.0379 51.176 51.4607 51.6074 51.4043C51.8751 51.1506 51.5628 50.7843 51.5479 50.4742C51.2802 50.2065 51.2207 49.8542 51.0124 49.6287Z" fill="#FCB316"/>
<path d="M40.2135 34.635C40.154 34.635 40.1391 34.6772 40.0945 34.6913C39.9904 34.9027 40.035 35.2409 40.0945 35.4523C40.4068 36.0582 40.511 36.8474 41.1952 37.101C41.5224 37.0024 41.4927 36.5515 41.4778 36.1146C41.3291 35.5791 41.1208 35.1 40.7787 34.7477C40.5407 34.6632 40.3771 34.5222 40.2135 34.635ZM36.1676 36.171C36.1676 36.1428 36.123 36.1146 36.1081 36.171C35.5429 36.1005 35.3495 36.3964 35.0669 36.6078C34.5761 37.8338 35.3644 39.0316 36.7477 39.0175C37.2981 38.8907 37.6402 38.5525 37.7294 37.9747C37.6551 36.946 37.194 36.2837 36.1676 36.171Z" fill="#FCB316"/>
<path d="M69.5161 32.2676C69.7392 33.1554 70.2152 33.7895 70.7506 34.3814C71.2861 34.9732 71.9108 35.4664 72.6694 35.8328C73.3834 36.2556 74.1569 36.6079 75.0493 36.8474C75.4807 36.9884 75.8972 37.1575 76.4327 37.2138C76.8045 37.4111 77.2508 37.5098 77.2805 38.0171C77.2656 38.623 76.8343 38.8485 76.2839 38.9612C75.7336 38.8485 75.0493 38.8626 74.5882 38.6653C73.428 38.5385 72.4909 38.1862 71.5092 37.862C69.635 37.1715 68.0584 36.171 66.7494 34.945C66.4817 34.5223 66.1098 34.1841 65.8272 33.7754C65.5446 33.3668 65.3512 32.8735 65.0537 32.4649C62.7631 32.183 61.2012 31.1966 59.8328 30.0552C58.5685 28.6883 57.557 27.0536 57.1405 24.8835C56.6497 22.7979 56.7984 20.1909 57.3785 18.1758C58.6428 14.2723 61.2905 11.6794 66.2883 11.3271C67.6716 11.3694 68.8765 11.5244 69.9772 11.919C71.0927 12.2995 72.1488 13.0041 72.9818 13.7368C73.0562 13.7932 73.0859 13.8073 73.1305 13.8778C73.309 14.1173 73.7404 14.4555 73.9784 14.7515C74.023 14.8078 74.0081 14.9065 74.0528 14.9769C74.142 15.1038 74.2759 15.1601 74.3651 15.2729C74.4097 15.3433 74.3949 15.4279 74.4395 15.4842C74.499 15.5688 74.5734 15.6956 74.6626 15.8506C74.6924 15.907 74.7965 15.9493 74.8113 15.9915C74.9452 16.2311 75.0047 16.527 75.1237 16.7948C75.2427 17.0766 75.4063 17.3162 75.5104 17.598C75.8079 18.4294 76.0013 19.4159 76.1203 20.4305C76.4178 23.3616 75.8079 25.9826 74.6626 27.9273C74.1271 28.9419 73.3834 29.7733 72.5058 30.4779C71.7026 31.2812 70.6019 31.7603 69.5161 32.2676ZM65.8272 13.92C65.1578 13.9623 64.7562 14.2582 64.2059 14.4273C63.8489 14.7374 63.4027 14.9769 63.1349 15.3715C62.6887 15.6111 62.5697 16.1466 62.2127 16.4566C61.9152 17.1612 61.6326 17.9503 61.4392 18.8663C61.2607 19.7682 61.1417 20.7828 61.1269 21.7833C61.112 24.2916 61.6772 26.7859 62.7333 28.2655C63.358 28.9842 64.1166 29.5761 65.0388 30.0129C65.5743 30.0552 65.9908 30.2243 66.5709 30.2384C66.8982 30.1256 67.4336 30.2384 67.6419 30.0129C68.1179 30.0411 68.222 29.7452 68.6385 29.717C68.8616 29.5056 69.0996 29.3365 69.4119 29.2097C69.6945 28.9137 69.9623 28.6178 70.2598 28.336C70.4085 28.1246 70.4978 27.8287 70.7209 27.6737C72.0596 25.2499 72.2083 20.8109 71.3307 17.9926C71.0035 16.9639 70.5424 16.1325 70.0218 15.442C69.4566 14.8924 68.7872 14.4273 68.0286 14.061C67.4188 13.9341 66.8387 13.7791 66.0354 13.8496C65.9908 13.8496 65.9462 13.8637 65.9611 13.92C65.9313 13.92 65.8867 13.92 65.8272 13.92ZM82.0552 11.8767C83.26 11.919 84.6731 11.7781 85.7441 11.9472C85.982 12.2995 85.8928 12.7222 85.8928 13.1168C85.982 18.4576 85.8928 24.193 85.8928 29.6465C85.8928 30.0834 85.9077 30.5343 85.8928 30.9571C85.8779 31.3234 85.982 31.718 85.7441 32.0562C85.2086 32.183 84.4351 32.1267 83.7509 32.1267C83.022 32.1267 82.3081 32.2253 81.8321 31.9858C81.6982 25.5317 81.6982 18.5703 81.8321 12.1022C81.8618 11.9895 81.9362 11.919 82.0552 11.8767ZM91.2773 11.8767H94.8918C95.2191 12.2995 95.3232 12.9336 95.4273 13.5537C96.5131 17.4712 97.5841 21.4028 98.5807 25.419C98.8187 25.4472 98.7443 25.1794 98.8187 25.0526C98.9228 24.9539 98.8633 24.7144 98.9674 24.6157C99.012 24.2916 99.2203 24.1225 99.2054 23.742C99.4732 23.2488 99.5624 22.5724 99.8153 22.0651C100.128 20.8814 100.544 19.7822 100.901 18.6408C101.243 17.4571 101.704 16.3861 101.972 15.146C102.478 14.1455 102.597 12.7786 103.207 11.8767H104.739C105.289 12.8632 105.497 14.1737 105.973 15.2306C106.286 16.4143 106.717 17.4853 107.044 18.6549C107.803 20.9237 108.591 23.1643 109.275 25.5035C109.588 25.0667 109.588 24.3339 109.811 23.8266C109.945 23.2488 110.064 22.657 110.272 22.1497C110.867 19.8386 111.432 17.5135 112.116 15.301C112.369 14.1455 112.622 12.9618 113.039 11.9472C113.931 11.8204 115.3 11.8204 116.192 11.9472C116.266 12.8068 115.85 13.7369 115.582 14.4978C115.433 15.4279 115.076 16.1466 114.883 17.0484C114.333 18.6972 113.916 20.4446 113.351 22.0792C112.92 23.8266 112.34 25.4331 111.893 27.1804C111.596 27.9837 111.388 28.8715 111.12 29.7311C110.822 30.5202 110.718 31.4925 110.272 32.1408H108.115C107.565 31.2248 107.371 29.9847 106.881 29.0124C105.81 25.7995 104.62 22.7133 103.578 19.4722C103.222 19.8245 103.222 20.5432 102.969 20.9941C102.805 21.5437 102.641 22.0933 102.433 22.6006C102.136 23.7139 101.689 24.658 101.437 25.7995C101.005 26.8 100.693 27.9132 100.366 29.0124C99.9194 29.9706 99.7558 31.1966 99.2054 32.0703C98.6402 32.2394 97.7477 32.0985 97.0486 32.1408C96.5131 31.563 96.4536 30.5202 96.1264 29.7311C95.8735 28.9137 95.695 28.0119 95.3678 27.2509C94.9513 25.4753 94.3266 23.9111 93.9101 22.1497C93.3598 20.515 92.8838 18.8099 92.378 17.1189C92.0954 16.3157 91.8872 15.4561 91.6046 14.6387C91.4707 13.765 90.846 12.9759 91.0691 12.0176C91.0988 11.9472 91.1881 11.9049 91.2773 11.8767ZM121.636 11.8767C122.841 11.919 124.239 11.7781 125.325 11.9472C125.593 12.7081 125.474 13.5255 125.474 14.3428V29.6324C125.474 30.4638 125.578 31.2671 125.325 32.0421C124.492 32.1267 123.272 32.169 122.246 32.1126C121.948 32.0985 121.591 32.183 121.398 31.9717C121.13 31.2107 121.249 30.4075 121.249 29.562V14.4273C121.249 13.5114 121.16 12.6236 121.398 12.0176C121.458 11.9472 121.547 11.9049 121.636 11.8767Z" fill="#0269B3"/>
</svg>
