<svg width="196" height="32" viewBox="0 0 196 32" fill="none" xmlns="http://www.w3.org/2000/svg">
<path d="M27.2037 6.52284C27.9252 7.47482 28.5359 8.50906 29.0236 9.60481L15.1896 20.0132L9.40798 16.3141V11.8639L15.1896 15.563L27.2037 6.52284Z" fill="#21A038"/>
<path d="M3.50859 16C3.50859 15.8003 3.51336 15.602 3.5229 15.4047L0.0190824 15.2295C0.00715655 15.4851 4.23421e-06 15.7432 4.23421e-06 16.0036C-0.00148654 18.0386 0.390692 20.0538 1.15405 21.9337C1.91741 23.8137 3.03691 25.5212 4.44834 26.9585L6.93369 24.4231C5.84722 23.3186 4.98531 22.0059 4.39752 20.5604C3.80972 19.1149 3.50763 17.565 3.50859 16Z" fill="url(#paint0_linear_818_10271)"/>
<path d="M15.1879 4.08008C15.3834 4.08008 15.5778 4.08739 15.771 4.09712L15.9463 0.519747C15.6951 0.507575 15.4423 0.501489 15.1879 0.501489C13.1931 0.499007 11.2176 0.898704 9.37463 1.67763C7.53167 2.45656 5.85763 3.59938 4.44861 5.04046L6.93396 7.57712C8.01609 6.46785 9.30239 5.58784 10.7189 4.98769C12.1354 4.38755 13.6541 4.07909 15.1879 4.08008Z" fill="url(#paint1_linear_818_10271)"/>
<path d="M15.1894 27.9201C14.9938 27.9201 14.7994 27.9201 14.605 27.9043L14.4297 31.4805C14.6817 31.4935 14.935 31.5 15.1894 31.5C17.1833 31.5021 19.1579 31.1021 20.9998 30.323C22.8418 29.5438 24.5148 28.4008 25.9227 26.9598L23.4421 24.4244C22.3598 25.533 21.0736 26.4126 19.6574 27.0125C18.2412 27.6124 16.7228 27.9209 15.1894 27.9201Z" fill="url(#paint2_linear_818_10271)"/>
<path d="M21.7701 6.16004L24.7229 3.93863C22.024 1.70805 18.6551 0.493808 15.1822 0.500024V4.07983C17.5339 4.07685 19.8309 4.80221 21.7701 6.16004Z" fill="url(#paint3_linear_818_10271)"/>
<path d="M30.3736 16.0002C30.3755 15.069 30.2957 14.1393 30.1351 13.2225L26.8662 15.6813C26.8662 15.7873 26.8662 15.8931 26.8662 16.0002C26.8671 17.6657 26.525 19.3128 25.8623 20.8347C25.1995 22.3566 24.2308 23.7194 23.0189 24.8347L25.3767 27.4944C26.9522 26.0427 28.2111 24.2694 29.0719 22.2893C29.9328 20.3092 30.3763 18.1665 30.3736 16.0002Z" fill="#21A038"/>
<path d="M15.1878 27.92C13.5558 27.9206 11.942 27.5714 10.4507 26.8949C8.95942 26.2185 7.62394 25.2299 6.53076 23.9933L3.92616 26.3985C5.34827 28.0068 7.08569 29.2919 9.02575 30.1708C10.9658 31.0495 13.0652 31.5023 15.1878 31.4998V27.92Z" fill="url(#paint4_linear_818_10271)"/>
<path d="M7.35588 7.16563L4.99933 4.50603C3.42341 5.9574 2.16399 7.73064 1.30273 9.71076C0.441489 11.6909 -0.00234805 13.8336 9.34169e-06 16.0001L3.50859 16C3.50786 14.3346 3.84998 12.6876 4.51273 11.1657C5.1755 9.64386 6.14413 8.28105 7.35588 7.16563Z" fill="url(#paint5_linear_818_10271)"/>
<path d="M87.6411 9.36418L91.9865 6.13367H77.4433V25.5463H91.9865V22.3158H81.5931V17.3432H90.4591V14.1127H81.5931V9.36418H87.6411Z" fill="#21A038"/>
<path d="M67.6561 13.6964H62.607V9.36316H70.6652L75.0079 6.12283H58.4597V25.5354H67.122C71.9785 25.5354 74.7657 23.3143 74.7657 19.4406C74.7657 15.7348 72.2412 13.6964 67.6561 13.6964ZM66.9352 22.3039H62.607V16.9249H66.9352C69.5619 16.9249 70.7935 17.8263 70.7935 19.6145C70.7935 21.4025 69.4831 22.3039 66.9352 22.3039Z" fill="#21A038"/>
<path d="M102.675 6.1312H94.7582V25.5437H98.9074V20.0445H102.675C107.725 20.0445 110.85 17.3626 110.85 13.0775C110.85 8.79244 107.725 6.1312 102.675 6.1312ZM102.587 16.8115H98.9074V9.36418H102.587C105.244 9.36418 106.71 10.6874 106.71 13.0893C106.71 15.4912 105.244 16.8115 102.587 16.8115Z" fill="#21A038"/>
<path d="M52.2342 20.9624C51.1623 21.5481 49.9614 21.8514 48.7426 21.8442C45.0946 21.8442 42.4482 19.2161 42.4482 15.5973C42.4482 11.9784 45.0946 9.34472 48.7426 9.34472C50.0581 9.32217 51.3464 9.72471 52.4191 10.4936L55.3216 8.3366L55.1253 8.19587C53.4322 6.69376 51.1699 5.89819 48.5805 5.89819C45.7718 5.89819 43.2251 6.85172 41.4067 8.58648C40.4873 9.47968 39.7602 10.5545 39.2706 11.744C38.781 12.9334 38.5395 14.2118 38.5612 15.4996C38.5417 16.8005 38.7822 18.092 39.2681 19.2971C39.7541 20.5021 40.4756 21.5959 41.3897 22.5134C43.2165 24.317 45.7576 25.3107 48.5463 25.3107C51.4602 25.3107 54.007 24.2854 55.7314 22.4186L53.1334 20.4656L52.2342 20.9624Z" fill="#21A038"/>
<path d="M127.306 13.6964H122.259V9.36316H133.105V6.12283H118.109V25.5354H126.76C131.616 25.5354 134.403 23.3143 134.403 19.4406C134.415 15.7348 131.891 13.6964 127.306 13.6964ZM126.585 22.3039H122.259V16.9249H126.585C129.211 16.9249 130.442 17.8263 130.442 19.6145C130.442 21.4025 129.144 22.3039 126.585 22.3039Z" fill="#21A038"/>
<path d="M181.578 25.5074H177.371V6.09475H181.578V14.2482H183.868L190.051 6.09475H194.818L187.484 15.3295L196 25.5074H190.418L184.159 17.8726H181.578V25.5074Z" fill="#21A038"/>
<path d="M149.684 21.8184H140.785L139.276 25.5881H134.8L143.146 6.17554H147.622L155.833 25.5881H151.192L149.684 21.8184ZM148.29 18.301L145.261 10.7616L142.214 18.301H148.29Z" fill="#21A038"/>
<path d="M161.497 6.17554V14.2819H170.202V6.17554H174.539V25.5881H170.202V17.9389H161.497V25.5881H157.16V6.17554H161.497Z" fill="#21A038"/>
<defs>
<linearGradient id="paint0_linear_818_10271" x1="145.803" y1="30.3194" x2="144.7" y2="-3.11115" gradientUnits="userSpaceOnUse">
<stop offset="0.14" stop-color="#F1E813"/>
<stop offset="0.3" stop-color="#E6E418"/>
<stop offset="0.58" stop-color="#C9DA26"/>
<stop offset="0.89" stop-color="#A2CC39"/>
</linearGradient>
<linearGradient id="paint1_linear_818_10271" x1="17.077" y1="23.1594" x2="79.0448" y2="-66.8657" gradientUnits="userSpaceOnUse">
<stop offset="0.06" stop-color="#0FA7DF"/>
<stop offset="0.54" stop-color="#0098F8"/>
<stop offset="0.92" stop-color="#0290EA"/>
</linearGradient>
<linearGradient id="paint2_linear_818_10271" x1="-3.94484" y1="22.0339" x2="110.917" y2="-76.9267" gradientUnits="userSpaceOnUse">
<stop offset="0.12" stop-color="#A2CC39"/>
<stop offset="0.28" stop-color="#86C239"/>
<stop offset="0.87" stop-color="#219F38"/>
</linearGradient>
<linearGradient id="paint3_linear_818_10271" x1="-14.9928" y1="7.06676" x2="78.9509" y2="113.608" gradientUnits="userSpaceOnUse">
<stop offset="0.06" stop-color="#0290EA"/>
<stop offset="0.79" stop-color="#0C89CA"/>
</linearGradient>
<linearGradient id="paint4_linear_818_10271" x1="15.3179" y1="8.63327" x2="76.2638" y2="102.685" gradientUnits="userSpaceOnUse">
<stop offset="0.13" stop-color="#F1E813"/>
<stop offset="0.3" stop-color="#EAE616"/>
<stop offset="0.53" stop-color="#D8DF1F"/>
<stop offset="0.8" stop-color="#BAD52D"/>
<stop offset="0.98" stop-color="#A2CC39"/>
</linearGradient>
<linearGradient id="paint5_linear_818_10271" x1="34.8276" y1="32.6687" x2="36.1868" y2="-1.55459" gradientUnits="userSpaceOnUse">
<stop offset="0.07" stop-color="#A2CC39"/>
<stop offset="0.26" stop-color="#81C45E"/>
<stop offset="0.92" stop-color="#0FA7DF"/>
</linearGradient>
</defs>
</svg>
