<svg width="110" height="18" viewBox="0 0 110 18" fill="none" xmlns="http://www.w3.org/2000/svg">
<path d="M15.2674 3.49713C15.6723 4.04989 16.0151 4.65042 16.2888 5.28666L8.52477 11.3302L5.27999 9.18238V6.59841L8.52477 8.74626L15.2674 3.49713Z" fill="#21A038"/>
<path d="M1.9691 9C1.9691 8.88405 1.97178 8.76888 1.97714 8.65436L0.0107095 8.5526C0.00401643 8.70102 2.37634e-06 8.85087 2.37634e-06 9.0021C-0.000834284 10.1837 0.219266 11.3538 0.647682 12.4454C1.07609 13.537 1.70439 14.5285 2.49652 15.363L3.89136 13.8908C3.2816 13.2495 2.79788 12.4873 2.46799 11.648C2.13811 10.8086 1.96857 9.90873 1.9691 9Z" fill="url(#paint0_linear_1436_8029)"/>
<path d="M8.52381 2.07876C8.63356 2.07876 8.74263 2.083 8.85106 2.08865L8.94945 0.0114658C8.80849 0.0043982 8.66657 0.000864797 8.52381 0.000864797C7.40428 -0.000576833 6.29558 0.231506 5.26127 0.683786C4.22696 1.13607 3.28745 1.79964 2.49667 2.6364L3.89151 4.1093C4.49883 3.46521 5.22073 2.95423 6.01571 2.60576C6.81069 2.25729 7.66302 2.07818 8.52381 2.07876Z" fill="url(#paint1_linear_1436_8029)"/>
<path d="M8.52464 15.9214C8.41489 15.9214 8.30577 15.9214 8.19671 15.9122L8.09832 17.9887C8.23975 17.9962 8.38188 18 8.52464 18C9.6437 18.0012 10.7519 17.769 11.7856 17.3166C12.8194 16.8642 13.7583 16.2005 14.5485 15.3637L13.1563 13.8916C12.5489 14.5353 11.827 15.046 11.0322 15.3943C10.2374 15.7427 9.38522 15.9218 8.52464 15.9214Z" fill="url(#paint2_linear_1436_8029)"/>
<path d="M12.2179 3.28648L13.8751 1.99663C12.3604 0.70145 10.4697 -0.00359527 8.52063 1.37872e-05V2.07861C9.84043 2.07688 11.1296 2.49806 12.2179 3.28648Z" fill="url(#paint3_linear_1436_8029)"/>
<path d="M17.0464 9.00013C17.0475 8.45939 17.0027 7.9196 16.9125 7.38729L15.078 8.81495C15.078 8.87647 15.078 8.93794 15.078 9.00013C15.0785 9.96718 14.8865 10.9236 14.5146 11.8072C14.1426 12.6909 13.5989 13.4822 12.9188 14.1298L14.242 15.6741C15.1262 14.8312 15.8328 13.8016 16.3159 12.6519C16.799 11.5021 17.0479 10.258 17.0464 9.00013Z" fill="#21A038"/>
<path d="M8.52374 15.9213C7.60787 15.9216 6.70214 15.7189 5.86517 15.3261C5.02824 14.9333 4.27874 14.3593 3.66522 13.6413L2.20346 15.0378C3.00158 15.9717 3.97666 16.7179 5.06547 17.2282C6.15428 17.7384 7.33249 18.0014 8.52374 17.9999V15.9213Z" fill="url(#paint4_linear_1436_8029)"/>
<path d="M4.1283 3.87037L2.80574 2.32608C1.9213 3.16881 1.21448 4.19844 0.731125 5.34818C0.247774 6.49792 -0.00131778 7.74211 5.24279e-06 9.00006L1.9691 9C1.9687 8.033 2.1607 7.07668 2.53266 6.19299C2.90462 5.30934 3.44823 4.51803 4.1283 3.87037Z" fill="url(#paint5_linear_1436_8029)"/>
<path d="M49.1863 5.14694L51.6251 3.27116H43.4631V14.543H51.6251V12.6672H45.792V9.77992H50.7679V7.90414H45.792V5.14694H49.1863Z" fill="#21A038"/>
<path d="M37.9702 7.66243H35.1366V5.14635H39.659L42.0963 3.26487H32.809V14.5367H37.6705C40.3961 14.5367 41.9603 13.247 41.9603 10.9978C41.9603 8.84603 40.5435 7.66243 37.9702 7.66243ZM37.5657 12.6603H35.1366V9.53705H37.5657C39.0399 9.53705 39.7311 10.0605 39.7311 11.0987C39.7311 12.1369 38.9956 12.6603 37.5657 12.6603Z" fill="#21A038"/>
<path d="M57.6235 3.26973H53.1806V14.5415H55.5092V11.3484H57.6235C60.4581 11.3484 62.2115 9.79122 62.2115 7.30306C62.2115 4.81497 60.4581 3.26973 57.6235 3.26973ZM57.5743 9.47121H55.5092V5.14695H57.5743C59.0653 5.14695 59.8882 5.91529 59.8882 7.30993C59.8882 8.70458 59.0653 9.47121 57.5743 9.47121Z" fill="#21A038"/>
<path d="M29.3151 11.8814C28.7135 12.2215 28.0396 12.3976 27.3555 12.3934C25.3082 12.3934 23.823 10.8674 23.823 8.76619C23.823 6.6649 25.3082 5.13564 27.3555 5.13564C28.0939 5.12255 28.8168 5.35628 29.4189 5.80273L31.0478 4.55029L30.9376 4.46857C29.9874 3.59638 28.7178 3.13443 27.2645 3.13443C25.6883 3.13443 24.259 3.6881 23.2385 4.69538C22.7225 5.21401 22.3144 5.83812 22.0396 6.52875C21.7649 7.21939 21.6293 7.9617 21.6415 8.70946C21.6306 9.46481 21.7655 10.2147 22.0382 10.9144C22.311 11.6141 22.7159 12.2493 23.2289 12.782C24.2542 13.8292 25.6803 14.4062 27.2454 14.4062C28.8807 14.4062 30.31 13.8109 31.2778 12.7269L29.8198 11.5929L29.3151 11.8814Z" fill="#21A038"/>
<path d="M71.4471 7.66243H68.6146V5.14635H74.7015V3.26487H66.2854V14.5367H71.1407C73.866 14.5367 75.4304 13.247 75.4304 10.9978C75.4368 8.84603 74.0202 7.66243 71.4471 7.66243ZM71.0425 12.6603H68.6146V9.53705H71.0425C72.5166 9.53705 73.2074 10.0605 73.2074 11.0987C73.2074 12.1369 72.4786 12.6603 71.0425 12.6603Z" fill="#21A038"/>
<path d="M101.906 14.5204H99.5452V3.24856H101.906V7.9828H103.191L106.661 3.24856H109.337L105.221 8.61071L110 14.5204H106.868L103.355 10.0873H101.906V14.5204Z" fill="#21A038"/>
<path d="M84.0061 12.3784H79.0119L78.1653 14.5673H75.6528L80.337 3.29547H82.8489L87.4571 14.5673H84.8528L84.0061 12.3784ZM83.2239 10.3361L81.5238 5.95832L79.8142 10.3361H83.2239Z" fill="#21A038"/>
<path d="M90.6361 3.29547V8.00239H95.5215V3.29547H97.9558V14.5673H95.5215V10.1258H90.6361V14.5673H88.2018V3.29547H90.6361Z" fill="#21A038"/>
<defs>
<linearGradient id="paint0_linear_1436_8029" x1="81.8284" y1="17.3145" x2="81.1655" y2="-2.09531" gradientUnits="userSpaceOnUse">
<stop offset="0.14" stop-color="#F1E813"/>
<stop offset="0.3" stop-color="#E6E418"/>
<stop offset="0.58" stop-color="#C9DA26"/>
<stop offset="0.89" stop-color="#A2CC39"/>
</linearGradient>
<linearGradient id="paint1_linear_1436_8029" x1="9.58404" y1="13.1571" x2="45.9865" y2="-37.9586" gradientUnits="userSpaceOnUse">
<stop offset="0.06" stop-color="#0FA7DF"/>
<stop offset="0.54" stop-color="#0098F8"/>
<stop offset="0.92" stop-color="#0290EA"/>
</linearGradient>
<linearGradient id="paint2_linear_1436_8029" x1="-2.21394" y1="12.5036" x2="64.1076" y2="-42.7256" gradientUnits="userSpaceOnUse">
<stop offset="0.12" stop-color="#A2CC39"/>
<stop offset="0.28" stop-color="#86C239"/>
<stop offset="0.87" stop-color="#219F38"/>
</linearGradient>
<linearGradient id="paint3_linear_1436_8029" x1="-8.4143" y1="3.81296" x2="46.3351" y2="63.8272" gradientUnits="userSpaceOnUse">
<stop offset="0.06" stop-color="#0290EA"/>
<stop offset="0.79" stop-color="#0C89CA"/>
</linearGradient>
<linearGradient id="paint4_linear_1436_8029" x1="8.59678" y1="4.72254" x2="44.4625" y2="58.2191" gradientUnits="userSpaceOnUse">
<stop offset="0.13" stop-color="#F1E813"/>
<stop offset="0.3" stop-color="#EAE616"/>
<stop offset="0.53" stop-color="#D8DF1F"/>
<stop offset="0.8" stop-color="#BAD52D"/>
<stop offset="0.98" stop-color="#A2CC39"/>
</linearGradient>
<linearGradient id="paint5_linear_1436_8029" x1="19.5461" y1="18.6786" x2="20.3625" y2="-1.19079" gradientUnits="userSpaceOnUse">
<stop offset="0.07" stop-color="#A2CC39"/>
<stop offset="0.26" stop-color="#81C45E"/>
<stop offset="0.92" stop-color="#0FA7DF"/>
</linearGradient>
</defs>
</svg>
