<svg width="143" height="46" viewBox="0 0 143 46" fill="none" xmlns="http://www.w3.org/2000/svg">
<path fill-rule="evenodd" clip-rule="evenodd" d="M56.2852 16.6388H61.6471V33.0859H65.4714V16.6405H70.6516V13.4322H56.2852V16.6388ZM108.518 19.3629H104.32L99.388 25.2186V13.8533L95.7368 15.1778V33.0859H99.388V26.3762L104.205 33.0859H108.547L103.128 25.7045L108.518 19.3629ZM118.518 27.8729C118.384 28.3809 118.187 28.8275 117.939 29.2111C117.682 29.5981 117.368 29.8998 116.991 30.1129C116.595 30.3333 116.148 30.4451 115.695 30.4368C114.704 30.4368 113.946 30.0652 113.422 29.3253C112.897 28.5838 112.633 27.5354 112.633 26.1801C112.633 24.98 112.889 23.981 113.391 23.1951C113.9 22.4041 114.636 22.0104 115.607 22.0104C116.636 22.0104 117.413 22.4024 117.935 23.1798C118.462 23.9606 118.722 24.98 118.722 26.2398C118.722 26.8194 118.654 27.3649 118.52 27.8729H118.518ZM120.539 20.9688C119.944 20.344 119.218 19.8579 118.412 19.5453C117.546 19.2091 116.624 19.0413 115.695 19.051C114.765 19.0411 113.841 19.2089 112.975 19.5453C112.169 19.8583 111.44 20.3383 110.835 20.9534C110.24 21.5637 109.774 22.3172 109.447 23.2071C109.121 24.0986 108.955 25.1112 108.955 26.2398C108.955 27.3274 109.114 28.3144 109.435 29.1975C109.75 30.0822 110.198 30.834 110.779 31.4528C111.356 32.0733 112.054 32.5507 112.875 32.8899C113.752 33.238 114.69 33.4101 115.635 33.3962C116.565 33.4054 117.488 33.2382 118.355 32.9035C119.163 32.5879 119.893 32.1023 120.495 31.4801C121.095 30.8579 121.561 30.1027 121.899 29.2111C122.236 28.3195 122.406 27.3069 122.406 26.1801C122.406 25.0942 122.241 24.1038 121.911 23.2224C121.613 22.3855 121.146 21.618 120.539 20.9671V20.9688ZM74.3354 13.4305C73.7097 13.4305 73.1869 13.6419 72.7652 14.051C72.5631 14.2463 72.4031 14.4805 72.2949 14.7393C72.1868 14.9981 72.1327 15.276 72.1361 15.5563C72.1361 16.1239 72.3504 16.6115 72.7652 17.0309C73.1886 17.4434 73.7097 17.6514 74.3354 17.6514C74.9216 17.6514 75.429 17.4434 75.8576 17.0309C76.0623 16.8432 76.2255 16.6151 76.3368 16.3612C76.4481 16.1074 76.5049 15.8332 76.5038 15.5563C76.5038 14.9681 76.2895 14.4687 75.8576 14.051C75.6579 13.8523 75.4205 13.6952 75.1592 13.5886C74.8979 13.4821 74.6178 13.4283 74.3354 13.4305ZM72.4789 33.0859H76.1593V19.3288H72.4789V33.0859ZM87.5431 19.201C84.869 19.0015 83.3554 20.4676 83.3554 20.4676V19.3322H79.675V33.0842H83.3554V24.8913C83.3554 23.4986 84.5176 22.3683 85.9506 22.3683C87.382 22.3683 88.5442 23.4986 88.5442 24.8913V33.0859H92.2228V24.9476C92.2228 20.6346 89.7235 19.3612 87.5431 19.201ZM125.906 19.0493V19.305H123.7V22.1246H125.906V33.0859H129.587V22.1246H131.786V19.305H129.59V19.0169C129.59 17.1195 130.476 16.1853 132.214 16.4598L132.787 13.6129C127.19 12.9446 125.906 15.9279 125.906 19.051V19.0493ZM135.403 19.0493V19.305H133.197V22.1246H135.403V33.0859H139.085V22.1246H141.284V19.305H139.087V19.0169C139.087 17.1195 139.974 16.1853 141.709 16.4598L142.285 13.6129C136.687 12.9446 135.403 15.9279 135.403 19.051" fill="#1A1919"/>
<path d="M50.3664 21.5999L50.9886 19.4845L48.8109 19.5467C48.6242 19.5467 47.3176 19.4845 46.011 18.5512H46.3221C47.6287 18.5512 48.9353 17.7423 49.4331 16.6223L50.3664 14.5691C49.1842 14.5691 48.1265 14.4446 48.1265 14.4446C48.1265 14.4446 47.2554 14.3202 46.3221 13.3247C45.6377 12.6403 44.7666 12.2669 43.8333 12.2669C43.3978 12.2669 43.0866 12.3292 42.7755 12.4536C42.8378 12.2669 42.9 12.1425 42.9 11.9558C43.2111 10.027 41.9667 8.53374 41.9667 8.53374L40.349 6.5427L39.3534 8.90706C39.3534 8.90706 39.1046 9.46704 38.669 9.71592C38.5446 9.0315 38.1713 8.22264 37.4869 7.476C36.118 6.04494 34.5003 5.85828 33.6292 5.85828C33.2559 5.85828 32.9448 5.9205 32.8826 5.9205L30.8915 6.29382C31.016 5.85828 31.2649 5.11164 31.7004 4.42722L32.7581 2.74728L29.9582 3.05838L29.0872 1.19178L27.4072 2.06286L25.8517 0.56958L24.3584 2.12508L22.6785 1.254L21.8074 3.1206L19.0697 2.8095L20.1275 4.48944C20.563 5.17386 20.8119 5.9205 20.9363 6.35604L19.0697 5.98272H19.0075C18.8831 5.98272 18.6342 5.9205 18.1987 5.9205C17.3276 5.9205 15.7099 6.10716 14.341 7.53822C13.5944 8.28486 13.2833 9.09372 13.1588 9.77814C12.7233 9.52926 12.4744 8.96928 12.4744 8.96928L11.4789 6.60492L9.79896 8.65818C9.6123 8.90706 8.61678 10.2759 8.86566 12.0181C8.86566 12.2047 8.92788 12.3292 8.9901 12.5158C8.679 12.3914 8.30568 12.3292 7.93236 12.3292C6.99906 12.3292 6.12798 12.7025 5.44356 13.3869C4.44804 14.3824 3.63918 14.5069 3.63918 14.5069C3.63918 14.5069 2.7681 14.6935 1.39926 14.6313L2.33256 16.6846C2.83032 17.8045 4.13694 18.6134 5.44356 18.6134H5.75466C4.44804 19.5467 3.14142 19.6089 2.95476 19.6089L0.714844 19.4845L1.39926 21.5999C1.71036 22.6577 2.83032 24.462 5.00802 24.6487C4.75914 25.6442 4.26138 26.702 3.14142 27.1997L1.5237 27.8841L2.39478 29.4396C2.89254 30.2485 4.07472 31.244 5.75466 31.244C6.12798 31.244 6.5013 31.1818 6.8124 31.1196C6.87462 31.4929 6.99906 31.8662 7.1235 32.2395C7.62126 33.7328 7.18572 34.7906 7.18572 34.7906L6.37686 36.4705L8.18124 36.9683C8.18124 36.9683 8.74122 37.1549 9.42564 37.1549C9.73674 37.1549 10.0478 37.0927 10.2967 37.0305C10.4834 36.9683 10.7323 36.906 10.9189 36.8438C11.1678 37.2794 11.4167 37.6527 11.79 37.9638C12.9722 39.146 14.5899 39.7682 16.6432 39.7682H18.1364L15.0877 41.0126L17.3898 42.1325C18.2609 42.5681 19.2564 43.0036 20.2519 43.3769L19.9408 44.1858L20.7497 44.5591C20.8119 44.6213 22.3674 45.3057 24.9184 45.4302H26.785C29.336 45.3057 30.8915 44.6213 30.9538 44.5591L31.7626 44.1858L31.4515 43.3769C32.5093 43.0036 33.567 42.5058 34.3759 42.0703L36.678 40.9503L33.6292 39.7059H35.1225C37.1758 39.7059 38.8557 39.0837 39.9756 37.9016C40.2867 37.5905 40.5979 37.1549 40.8467 36.7816C41.0334 36.8438 41.2201 36.906 41.4689 36.9683C41.7178 37.0305 42.0289 37.0927 42.34 37.0927C43.0244 37.0927 43.5844 36.9683 43.5844 36.9683L45.3888 36.4705L44.5799 34.7906C44.5799 34.7283 44.1444 33.7328 44.6421 32.2395C44.7666 31.8662 44.891 31.4929 44.9532 31.1196C45.2643 31.1818 45.6377 31.244 46.011 31.244C48.1887 31.244 49.1842 29.7507 49.3709 29.3774L50.2419 27.8219L48.6242 27.1375C47.5043 26.6397 46.9443 25.582 46.7576 24.5865C48.8731 24.462 50.0553 22.6577 50.3664 21.5999ZM25.8517 6.97824C24.1096 6.97824 22.8029 7.53822 22.5541 8.22264L25.8517 9.52926L29.1494 8.22264C28.9005 7.53822 27.5939 6.97824 25.8517 6.97824ZM25.9139 41.6348H25.8517C24.794 41.6348 23.3629 41.4481 22.6785 41.1992L21.8074 43.5014C22.3674 43.688 24.234 44.0613 25.8517 44.0613C27.4694 44.0613 29.3983 43.688 29.896 43.5014L29.0872 41.1992C28.4027 41.4481 26.9717 41.6348 25.9139 41.6348Z" fill="white"/>
<path d="M32.256 39.3945C31.6338 39.7678 30.2649 40.2656 29.4561 40.5145L30.1405 42.3811C31.3849 42.0077 32.4426 41.6344 33.3137 41.1989L31.8204 40.7634L32.256 39.3945ZM19.5009 39.3945L19.9364 40.7634L18.5054 41.2611C19.3765 41.6967 20.372 42.07 21.6786 42.4433L22.363 40.5767C21.4919 40.2656 20.1231 39.7678 19.5009 39.3945ZM25.8473 4.80021C27.154 4.80021 28.4606 5.11131 29.4561 5.67129C29.5183 5.36019 29.6427 4.98687 29.8294 4.61355L29.0828 4.73799L28.8961 4.36467L28.3983 3.30693L27.465 3.80469L27.0917 3.99135L26.8428 3.68025L25.8473 2.68473L24.914 3.68025L24.6029 3.92913L24.2296 3.74247L23.2963 3.24471L22.7986 4.30245L22.6119 4.67577L21.8653 4.55133C22.0519 4.92465 22.1764 5.29797 22.2386 5.60907C23.2963 5.11131 24.5407 4.80021 25.8473 4.80021ZM45.8199 16.9953C46.0066 17.0575 46.131 17.0575 46.3177 17.0575C47.0643 17.0575 47.7488 16.5598 47.9976 16.062C47.9976 16.062 46.6288 15.9998 45.1977 14.5065C44.7622 14.0088 44.2644 13.8843 43.8289 13.8843C43.1445 13.8843 42.7089 14.2576 42.7089 14.2576C44.5133 15.1287 44.8244 16.622 45.8199 16.9953ZM5.37696 17.0575C5.56362 17.0575 5.75028 17.0575 5.87472 16.9953C6.87024 16.6842 7.24356 15.1287 8.98571 14.1954C8.98571 14.1954 8.48796 13.8221 7.86576 13.8221C7.43022 13.8221 6.93246 13.9465 6.49692 14.4443C5.06586 15.9376 3.69702 15.9998 3.69702 15.9998C3.9459 16.5598 4.63032 17.0575 5.37696 17.0575ZM46.3177 23.0929H46.3799C48.2465 23.0929 48.8687 21.1018 48.8687 21.1018H48.8065C48.4954 21.1018 45.6955 21.0396 43.7667 18.5508C42.4601 16.9331 41.4645 15.502 39.3491 14.9421L39.1624 14.8798L39.1002 14.6932C39.038 14.3821 39.2868 14.071 39.7224 13.7599C42.5845 11.8933 40.6557 9.52892 40.6557 9.52892C40.6557 9.52892 39.8468 11.4577 38.0424 11.4577H37.918C37.7313 11.4577 37.4825 11.4577 37.2958 11.3955L36.9847 11.3333C36.9847 11.3333 37.4825 9.90224 36.2381 8.59562C35.3048 7.6001 34.1226 7.47567 33.5004 7.47567C33.1893 7.47567 32.9404 7.53788 32.9404 7.53788C33.5626 8.34674 33.9981 9.71558 33.3137 10.5867C32.6915 11.3333 31.136 11.3333 31.136 12.4533C31.136 12.8888 31.5716 13.4488 32.3182 13.9465C34.6203 15.3776 36.9225 17.3064 37.8558 19.9197C39.038 23.1551 37.7313 25.2706 35.8025 26.515C35.8025 26.515 36.4247 27.075 37.2958 27.1372H37.7936C39.6602 27.1372 40.5935 26.2661 40.5935 26.2661C40.5935 26.2661 40.4068 27.4483 39.4735 28.5682C38.6024 29.5638 37.4202 30.186 35.6781 30.186C35.6781 30.186 35.6159 30.9948 36.4247 31.7415C36.9225 32.177 38.1047 32.3637 38.1047 32.3637C38.1047 32.3637 35.927 32.7992 35.6781 35.9724C35.5536 37.7146 35.1181 38.3368 35.1181 38.3368H35.1803C40.2201 38.3368 40.0957 34.0436 40.0957 34.0436C40.0957 34.0436 40.469 35.3502 41.8379 35.6613C42.0245 35.7235 42.2112 35.7235 42.3356 35.7235C42.7712 35.7235 43.2067 35.5991 43.2067 35.5991C43.2067 35.5991 42.4601 34.0436 43.2067 31.8659C43.8289 30.0615 43.7045 28.7549 43.7045 28.7549C43.7045 28.7549 44.3889 29.7504 46.0688 29.8126C47.4377 29.8126 48.0599 28.7549 48.0599 28.7549C44.7 27.3861 45.0111 22.844 45.0111 22.844C45.0111 22.844 45.4466 23.0929 46.3177 23.0929ZM45.3222 27.7594C43.9533 27.075 43.0823 25.3328 42.8956 24.6484C42.6467 28.1949 40.9668 30.6215 38.9135 32.9859C37.8558 34.2303 37.4825 35.4124 37.4825 35.4124C37.4825 35.4124 37.6691 34.0436 38.6024 32.9859C40.469 30.7459 42.2734 27.8838 42.3978 24.6484C42.4601 22.3462 41.9001 20.5419 40.9668 18.9864C41.4645 20.5419 41.4023 22.5329 39.6602 24.3373C39.6602 24.3373 43.0823 20.2308 38.2913 15.9376C36.3625 14.3199 34.247 13.3243 33.1893 12.6399C37.1091 13.9465 39.038 12.5155 39.038 12.5155C37.7936 13.5732 36.1758 13.5732 35.1803 13.4488C35.4292 13.5732 35.7403 13.6977 36.0514 13.8843C39.3491 15.6887 42.3356 18.6753 42.8334 22.7196V22.6573C43.58 26.7639 45.3222 27.7594 45.3222 27.7594ZM13.6522 32.2392C13.6522 32.2392 14.8344 32.1148 15.3322 31.617C16.141 30.9326 16.0788 30.0615 16.0788 30.0615C14.3366 30.0615 13.1545 29.4393 12.2834 28.4438C11.3501 27.3238 11.1634 26.1417 11.1634 26.1417C11.1634 26.1417 12.0967 27.0127 13.9633 27.0127H14.4611C15.3322 26.9505 15.9544 26.3905 15.9544 26.3905C14.0255 25.1461 12.7189 23.0307 13.9011 19.7952C14.8344 17.182 17.1365 15.2532 19.4387 13.8221C20.1853 13.3243 20.6209 12.8266 20.6209 12.3288C20.6209 11.2711 19.0654 11.2089 18.4432 10.4622C17.6965 9.59114 18.1943 8.2223 18.8165 7.41344C18.8165 7.41344 18.6298 7.35122 18.2565 7.35122C17.5721 7.35122 16.4521 7.53788 15.5188 8.47118C14.2744 9.7778 14.7722 11.2089 14.7722 11.2089L14.3989 11.3955C14.2122 11.4577 14.0255 11.4577 13.7767 11.4577H13.6522C11.8478 11.4577 11.039 9.52892 11.039 9.52892C11.039 9.52892 9.11016 11.8933 11.9723 13.7599C12.47 14.071 12.6567 14.3821 12.5945 14.6932L12.5323 14.9421L12.3456 15.0043C10.2923 15.5643 9.2346 16.9953 7.92798 18.613C5.99916 21.1018 3.26148 21.1641 2.88816 21.1641C2.88816 21.1641 3.51036 23.1551 5.37696 23.1551H5.43918C6.31026 23.1551 6.7458 22.7818 6.7458 22.7818C6.7458 22.7818 7.0569 27.2616 3.69702 28.6927C3.69702 28.6927 4.31922 29.7504 5.68806 29.7504C7.368 29.7504 8.05242 28.6927 8.05242 28.6927C8.05242 28.6927 7.92798 29.9993 8.55018 31.8037C9.29681 33.9814 8.55018 35.5369 8.55018 35.5369C8.55018 35.5369 8.9235 35.6613 9.42126 35.6613C9.60791 35.6613 9.79457 35.6613 9.91901 35.5991C11.3501 35.288 11.6612 33.9814 11.6612 33.9814C11.6612 33.9814 11.5367 38.2746 16.5766 38.2746H16.6388C16.6388 38.2746 16.2032 37.6524 16.0788 35.9102C15.8299 32.737 13.6522 32.2392 13.6522 32.2392ZM12.8434 33.0481C10.8523 30.6837 9.11016 28.2571 8.86128 24.7106C8.67462 25.3328 7.80354 27.1372 6.4347 27.8216C6.4347 27.8216 8.17686 26.7639 8.9235 22.7818V22.844C9.42126 18.7375 12.4078 15.8131 15.7055 14.0088C16.0166 13.8221 16.2655 13.6977 16.5766 13.5732C15.581 13.7599 13.9633 13.7599 12.7189 12.6399C12.7189 12.6399 14.6477 14.071 18.5676 12.7644C17.5099 13.4488 15.3944 14.4443 13.4656 16.062C8.6124 20.293 12.0967 24.4617 12.0967 24.4617C10.3546 22.6573 10.2923 20.7285 10.7901 19.1108C9.8568 20.6041 9.29681 22.4707 9.35903 24.7728C9.48347 27.946 11.2879 30.7459 13.1545 33.0481C14.0878 34.168 14.2744 35.4747 14.2744 35.4747C14.2744 35.4747 13.9011 34.2925 12.8434 33.0481Z" fill="white"/>
<path d="M22.1862 16.498C22.2484 16.5602 22.3729 16.6846 22.4351 16.8091L22.4973 16.8713C22.5595 16.9957 22.6218 17.058 22.684 17.1824C22.684 17.1824 22.684 17.2446 22.7462 17.2446C22.8084 17.3691 22.9329 17.4935 22.9951 17.6179C23.7417 18.8623 24.8617 19.609 25.9194 19.609C26.9772 19.609 28.0971 18.8623 28.8438 17.6179C28.906 17.4935 29.0304 17.3691 29.0926 17.2446C29.0926 17.2446 29.0926 17.1824 29.1549 17.1824C29.2171 17.058 29.2793 16.9957 29.4037 16.8713L29.466 16.8091C29.5282 16.6846 29.6526 16.6224 29.7148 16.498L29.7771 16.4358C30.1504 16.0624 30.5859 15.7513 31.1459 15.6269L30.7726 15.5025L29.7771 14.8803L28.7193 14.2581L25.9194 15.8136L23.1195 14.2581L22.0618 14.8803L21.0663 15.5025L20.8174 15.6269C21.3151 15.8136 21.7507 16.0624 22.1862 16.498C22.124 16.498 22.124 16.498 22.1862 16.498ZM24.7372 16.3735H27.1016V17.1824C26.8527 16.8713 26.2927 16.9335 26.2927 16.9335V18.1157C26.2927 18.1157 26.2927 18.6757 26.5416 18.9246H25.4217C25.6083 18.6757 25.6705 18.1157 25.6705 18.1157V16.9335C25.6705 16.9335 25.1106 16.8713 24.8617 17.1824V16.3735H24.7372ZM25.6705 14.818V10.0271L22.6218 8.96936L23.4306 13.5736L25.6705 14.818ZM24.9861 11.2093V11.9559L24.8617 11.8937C24.8617 11.8937 24.6128 11.8315 24.2395 11.5204C23.6173 11.0226 23.6173 10.5871 23.6173 10.5871L24.9861 11.2093ZM28.346 13.6359L29.1549 9.03158L26.1061 10.0893V14.8803L28.346 13.6359ZM26.7905 11.2093L28.1593 10.6493C28.1593 10.6493 28.1593 11.0848 27.5371 11.5826C27.1638 11.8937 26.9772 11.9559 26.9149 11.9559L26.7905 12.0181V11.2093ZM21.3774 25.831C21.6885 25.9554 21.9996 25.9554 22.1862 25.9554V25.8932C22.1862 25.831 22.2484 25.7687 22.2484 25.7065C22.3107 25.4576 22.3107 25.1466 22.3107 24.9599C22.1862 24.8977 21.9996 24.7732 21.9373 24.5243C21.8129 24.2755 21.6885 24.151 21.4396 24.151C21.1285 24.151 20.8174 24.3377 20.6929 24.3999C20.5685 25.1465 21.004 25.7065 21.3774 25.831ZM28.0349 23.3422C27.4749 23.9644 26.355 25.0221 26.2927 25.0843L26.2305 25.1465L22.7462 25.0843C22.7462 25.4577 22.684 25.7065 22.6218 25.9554V26.0798L26.7905 26.8265C27.226 26.5154 28.4082 25.6443 28.8438 25.3332C28.5327 24.8354 28.4704 24.2755 28.5327 23.8399C28.346 23.6533 28.2216 23.4666 28.0349 23.3422Z" fill="white"/>
<path d="M28.5274 19.1109C27.7186 19.9198 26.9719 20.2309 26.2875 20.2931H25.5409C25.4164 20.2931 25.292 20.2931 25.1676 20.2309C25.1053 20.4175 25.0431 20.7908 25.2298 21.1642C25.3542 21.4753 25.6653 21.7241 26.1009 21.9108L26.2253 21.973V22.1597C26.2253 22.2219 26.2875 23.2174 27.3453 23.5285C27.5319 23.3419 27.7186 23.1552 27.7808 23.0308C27.5319 22.4708 27.6564 21.973 28.0297 21.6619C28.0297 21.7241 27.843 23.0308 28.963 23.5285L29.1496 23.5907L29.0874 23.7774C29.0874 23.8396 28.7141 25.1462 30.0207 25.5818L30.2696 25.644L30.1452 25.8929C30.1452 25.9551 29.6474 27.1373 30.8296 27.7595H33.4428V25.7062C32.5095 25.5818 32.1362 24.8351 32.0118 24.3374C31.5762 24.2752 31.2651 24.0885 31.0162 23.7774C30.4563 23.093 30.954 22.4086 30.954 22.3463C30.954 22.3463 30.954 23.0308 31.3896 23.4663C31.5762 23.653 31.8251 23.8396 32.2606 23.8396H32.4473V24.0263C32.4473 24.0885 32.5717 25.0218 33.4428 25.1462V20.9775C33.4428 20.3553 33.6295 19.6709 33.8784 19.0487H28.5274V19.1109ZM21.5588 21.0397L21.4966 23.7152L21.8077 23.7774L22.5543 21.2264L22.181 20.4175L21.5588 21.0397ZM29.7718 33.2971H29.8341C30.2696 33.4215 30.394 35.1014 31.2029 35.2259H31.3896C31.6384 35.2259 31.7629 35.1014 31.8873 34.977C31.8873 34.977 31.4518 34.3548 31.2029 33.9193C30.7674 33.3593 30.4563 32.6749 29.7096 32.6749H29.6474C29.3985 32.6749 29.2741 32.7993 29.2741 32.7993C28.963 32.6126 28.7141 32.5504 28.403 32.5504C27.9052 32.5504 27.5941 32.7371 27.4075 32.7371L25.7275 32.5504C25.4787 32.5504 25.2298 32.2393 25.1676 32.1771V31.9904C25.1053 30.6216 24.0476 29.9994 23.6743 29.9994C23.6743 29.9994 23.7365 29.7505 23.6121 29.6261L23.2387 30.0616L21.9943 29.4394L22.8654 30.4349L22.1188 31.2438C22.0566 31.3682 22.0566 31.4927 22.0566 31.4927L22.3677 31.8038L22.741 31.5549H23.301C23.4876 31.5549 23.6121 31.4927 23.6121 31.3682C23.5498 31.866 23.1143 32.7371 23.4254 33.4837L23.6743 33.9815L22.181 33.7948L21.4966 34.977C21.3099 35.3503 21.2477 35.7859 21.4344 36.0347L21.6832 36.3458C21.6832 36.3458 22.0566 35.9725 22.1188 35.7236L21.9943 35.5992C21.8699 35.4748 21.8699 35.4125 21.9321 35.2881L22.3677 34.5415L24.1098 34.977L24.172 34.7903C24.2965 34.6037 24.4831 34.5415 24.6698 34.5415H24.9187C25.2298 34.6037 25.7898 34.6659 26.2875 34.6659C26.8475 34.6659 27.4697 34.5415 27.7808 34.2304C28.403 35.1637 29.7096 35.3503 29.5852 35.7859L29.2741 37.4036C29.523 37.4036 29.7096 37.4036 29.8963 37.3414L30.2074 35.6614C30.2696 35.4748 30.2696 35.2259 30.2696 35.2259C30.1452 35.1014 29.8341 34.8526 29.6474 34.4792C29.3985 34.0437 29.523 33.7948 29.3363 33.2348C29.523 33.4215 29.5852 33.2971 29.7718 33.2971ZM23.1765 30.9327C23.1143 30.9327 23.0521 30.8705 23.0521 30.746C23.0521 30.6838 23.1143 30.6216 23.2387 30.6216C23.301 30.6216 23.3632 30.6838 23.3632 30.8083C23.301 30.8705 23.2387 30.9327 23.1765 30.9327Z" fill="white"/>
<path d="M20.751 34.7914C20.751 34.7914 21.3109 34.5425 21.3732 34.3559L21.3109 34.1692C21.2487 34.0448 21.2487 33.9203 21.3732 33.8581L21.9954 33.4226L23.0531 33.6092C23.0531 33.6092 22.8664 33.3603 22.8664 33.0492L21.8709 32.8626L20.9376 33.4226C20.5021 33.7337 20.5021 34.2314 20.6265 34.5425L20.751 34.7914ZM28.2174 37.5291H28.8396C28.8396 37.5291 29.3995 35.9736 29.3995 35.9114C29.0884 35.7869 28.4662 35.4136 28.2174 35.2892C28.404 35.538 28.7773 35.7869 28.7151 36.0358L28.2174 37.5291Z" fill="white"/>
<path d="M33.3229 28.1942H18.3901V33.794C18.3901 36.0961 20.07 37.5272 22.4966 37.5272C24.5498 37.5272 25.1098 37.5894 25.8565 38.336C26.3542 37.8383 26.7898 37.5894 27.7231 37.5272V37.465L28.2208 36.0339C28.2208 35.9717 27.412 35.1006 27.412 35.1006C27.1009 35.225 26.852 35.225 26.4164 35.225C25.9809 35.225 25.4831 35.1628 24.9232 35.1006H24.7365C24.6743 35.1006 24.6743 35.1006 24.6743 35.1628L24.6121 35.2873L24.4254 35.5984L24.1143 35.5361L22.6832 35.225L22.4966 35.4739V35.5361L22.6832 35.7228L22.621 35.9717C22.4966 36.2828 22.1855 36.6561 22.061 36.7805L21.6877 37.1539L21.3766 36.7183L21.1277 36.4072C20.8789 36.0961 20.8166 35.6606 20.9411 35.225L20.5678 35.4117L20.2567 34.7895C20.0078 34.2917 20.1322 33.6073 20.6922 33.1718L21.8744 32.5496L22.9943 32.7362C22.9943 32.6118 23.0566 32.2385 23.1188 32.1763H23.0566L22.4344 32.4251L21.8122 31.9896C21.8122 31.9896 21.5633 31.7407 21.8122 31.5541L22.3721 30.683L20.8789 28.8164L23.181 29.7497L23.3054 29.563L23.6165 29.1897L23.9899 29.5008C24.1143 29.6252 24.1765 29.6875 24.1765 29.8119C24.7987 30.0608 25.9187 30.8074 26.0431 31.9896H25.6076C25.6698 32.114 25.732 32.114 25.7942 32.114L27.412 32.3007C27.4742 32.3007 27.4742 32.3007 27.5364 32.2385C27.7231 32.1763 28.0342 32.0518 28.4075 32.0518C28.7186 32.0518 28.9675 32.1141 29.2786 32.2385C29.403 32.1763 29.5274 32.1763 29.6519 32.1763H29.7141C30.5852 32.1763 31.0207 32.8607 31.394 33.3584C31.4563 33.4207 31.5185 33.5451 31.5807 33.6073C31.8918 34.0429 32.2651 34.6651 32.3273 34.7273L32.514 35.0384L32.2651 35.2873C32.0785 35.4739 31.8296 35.7228 31.394 35.7228H31.0829C31.0207 35.7228 30.8963 35.6606 30.8341 35.6606C30.8341 35.7228 30.8341 35.8472 30.7718 35.9095L30.4607 37.4027C32.2029 36.9672 33.2606 35.6606 33.2606 33.794L33.3229 28.1942ZM18.3901 27.7587H30.0252C29.4652 27.1365 29.4652 26.3898 29.5897 25.8921C29.403 25.8298 29.2786 25.7054 29.1541 25.581C28.7186 25.8921 27.2875 26.9498 26.9764 27.1987L26.9142 27.2609L22.3721 26.452H21.8744C21.8122 26.6387 21.6255 26.8254 21.4388 26.8254H21.3766C21.2522 26.8254 21.1277 26.7631 21.0655 26.6387C21.0033 26.5143 20.9411 26.452 21.0033 26.3276V26.2032C20.5055 25.8921 20.07 25.1454 20.3189 24.3366V24.2743L20.3811 24.2121C20.3811 24.2121 20.4433 24.1499 20.5678 24.0877L20.2567 24.0255C20.1322 24.0255 20.07 23.901 20.07 23.7766C20.07 23.6521 20.1944 23.5899 20.3189 23.5899L21.1277 23.7144L21.19 20.9145L22.3721 19.6701L23.1188 21.2256L22.3721 23.901L23.0566 24.0255C23.181 24.0255 23.2432 24.1499 23.2432 24.2743C23.2432 24.3988 23.1188 24.461 22.9943 24.461H22.9321L22.3721 24.3988V24.461C22.4344 24.5854 22.5588 24.6477 22.621 24.7099L26.1053 24.7721L26.9764 23.901C26.1053 23.5899 25.7942 22.8433 25.732 22.3455C25.2343 22.1589 24.9232 21.8478 24.7365 21.4122C24.4876 20.9145 24.6121 20.4167 24.6743 20.1678C24.2387 19.9812 23.741 19.6701 23.2432 19.1723H18.0167C18.2656 19.7945 18.4523 20.4167 18.4523 21.1011V27.7587H18.3901Z" fill="#FCE527"/>
<path d="M23.1776 30.6225C23.1154 30.6225 22.991 30.6847 22.991 30.7469C22.991 30.8092 23.0532 30.9336 23.1154 30.9336C23.1776 30.9336 23.3021 30.8714 23.3021 30.8092C23.3643 30.6847 23.3021 30.6225 23.1776 30.6225ZM33.3195 40.8266L32.4484 40.4533L32.6973 39.5822L32.9462 38.5867C32.9462 38.5867 31.4529 39.3955 29.2752 40.0177C28.653 40.2044 28.2175 40.2666 28.2175 40.2666V41.0132C28.2175 41.0132 27.0975 41.1999 25.9153 41.1999C24.7331 41.1999 23.6132 41.0132 23.6132 41.0132V40.3288C23.6132 40.3288 23.1776 40.2666 22.5554 40.0799C20.3777 39.4577 18.8845 38.6489 18.8845 38.6489L19.1333 39.6444L19.3822 40.5155L18.5111 40.8266L17.5778 41.1999C18.6978 41.7599 20.1911 42.5065 21.5599 42.8798L21.2488 43.7509C21.2488 43.7509 22.991 44.5598 25.9775 44.5598C28.9019 44.5598 30.7063 43.7509 30.7063 43.7509L30.3952 42.8798C31.764 42.5065 33.3195 41.6977 34.3772 41.1999L33.3195 40.8266ZM18.5111 41.1999L19.9422 40.7021L19.5067 39.3333C20.1289 39.7066 21.4977 40.2044 22.3066 40.4533L21.6221 42.3199C20.3777 42.071 19.3822 41.6354 18.5111 41.1999ZM25.8531 44.062C24.2354 44.062 22.3066 43.6887 21.8088 43.502L22.6177 41.1999C23.3021 41.3866 24.7331 41.6354 25.7909 41.6354H25.8531C26.9108 41.6354 28.3419 41.4488 29.0263 41.1999L29.9596 43.502C29.3996 43.6887 27.533 44.062 25.8531 44.062ZM30.1463 42.3821L29.4619 40.5155C30.2707 40.2666 31.6396 39.7066 32.324 39.3955L31.8262 40.7644L33.2573 41.2621C32.3862 41.6354 31.3907 42.071 30.1463 42.3821Z" fill="black"/>
<path d="M25.851 5.35925C27.5932 5.35925 29.0242 5.91923 29.7709 6.54143C29.7709 6.54143 30.0198 5.17259 30.7664 3.92819L29.3353 4.11485L28.5887 2.55935L27.1576 3.30599L25.7888 1.93715L24.42 3.30599L23.1133 2.55935L22.3667 4.11485L20.9356 3.92819C21.7445 5.17259 21.9312 6.54143 21.9312 6.54143C22.74 5.91923 24.1089 5.35925 25.851 5.35925ZM22.3045 4.67483L22.6778 4.73705L22.8645 4.36373L23.3622 3.30599L24.2955 3.80375L24.6688 3.99041L24.9177 3.67931L25.9132 2.68379L26.8465 3.67931L27.1576 3.92819L27.531 3.74153L28.4643 3.24377L28.962 4.30151L29.1487 4.67483L29.8953 4.55039C29.7087 4.92371 29.5842 5.29703 29.522 5.60813C28.5265 5.04815 27.2821 4.73705 25.9132 4.73705C24.6066 4.73705 23.3 5.04815 22.3667 5.60813C22.3045 5.29703 22.18 4.92371 21.9934 4.55039L22.3045 4.67483ZM46.3836 23.7141C48.6235 23.7141 49.4324 21.412 49.4324 21.2876L49.6813 20.4787H48.8102C48.4991 20.4787 46.0103 20.4165 44.2681 18.1766L44.1437 17.9899C42.9615 16.4966 41.9038 15.1278 39.9127 14.5056C39.975 14.4434 40.0372 14.3811 40.1616 14.3189C41.2194 13.6345 41.7793 12.8257 41.966 11.8301C42.2149 10.3991 41.2816 9.21689 41.2194 9.15467L40.5972 8.34581L40.2238 9.27911C40.2238 9.34133 39.5394 10.8346 38.1706 10.8346H37.7973C37.8595 10.1502 37.735 9.15467 36.8017 8.22137C35.6818 7.03919 34.3129 6.91475 33.6285 6.91475C33.2552 6.91475 33.0063 6.97697 32.9441 6.97697L32.0108 7.16363L32.5708 7.91027C33.0063 8.53247 33.4419 9.59021 32.9441 10.2124C32.7574 10.3991 32.4463 10.5235 32.1352 10.7102C31.513 11.0213 30.642 11.3946 30.642 12.4523C30.642 13.1368 31.1397 13.8212 32.1352 14.4434C34.9351 16.1855 36.6773 18.0521 37.4239 20.1054C38.6061 23.2164 37.0506 25.0208 35.6196 25.9541L34.9351 26.3896L35.4951 26.9496C35.5573 27.0118 36.304 27.634 37.2995 27.7584H37.8595C38.5439 27.7584 39.1039 27.634 39.5394 27.5096C39.415 27.7584 39.2283 27.9451 39.0417 28.194C38.1706 29.1895 37.1751 29.625 35.6818 29.625H35.1218L35.0596 30.185C35.0596 30.3095 34.9974 31.305 35.9929 32.1761C36.1173 32.3005 36.304 32.4249 36.4906 32.4872C35.8062 33.1094 35.184 34.1049 35.0596 35.9093C34.9351 37.4025 34.624 37.9625 34.5618 37.9625L33.9396 38.8958H35.0596C36.864 38.8958 38.295 38.3981 39.2283 37.4025C39.7883 36.8426 40.0994 36.1581 40.3483 35.5359C40.6594 35.7848 41.0949 36.0337 41.5927 36.1581C41.7793 36.2204 42.0282 36.2204 42.2771 36.2204C42.7749 36.2204 43.2104 36.0959 43.2726 36.0959L43.957 35.9093L43.6459 35.2248C43.6459 35.1626 43.0237 33.856 43.6459 31.9894C43.8948 31.1805 44.0815 30.4339 44.1437 29.8739C44.5792 30.1228 45.2014 30.3095 45.9481 30.3095C47.6902 30.3095 48.4369 29.0028 48.4991 28.9406L48.8724 28.3184L48.2502 28.0695C46.197 27.1985 45.6992 24.8963 45.637 23.6519C45.8236 23.7141 46.0103 23.7141 46.2592 23.7141H46.3836ZM48.0636 28.6295C48.0636 28.6295 47.4414 29.6873 46.0725 29.6873C44.3926 29.6873 43.7082 28.6295 43.7082 28.6295C43.7082 28.6295 43.8326 29.9361 43.2104 31.7405C42.4638 33.9182 43.2104 35.4737 43.2104 35.4737C43.2104 35.4737 42.8371 35.5982 42.3393 35.5982C42.1527 35.5982 41.966 35.5982 41.8416 35.5359C40.4105 35.2248 40.0994 33.9182 40.0994 33.9182C40.0994 33.9182 40.2238 38.2114 35.184 38.2114H35.1218C35.1218 38.2114 35.5573 37.5892 35.6818 35.847C35.9307 32.6738 38.1084 32.2383 38.1084 32.2383C38.1084 32.2383 36.9262 32.1138 36.4284 31.6161C35.6196 30.9317 35.6818 30.0606 35.6818 30.0606C37.4239 30.0606 38.6061 29.4384 39.4772 28.4429C40.4105 27.3229 40.5972 26.1407 40.5972 26.1407C40.5972 26.1407 39.6639 27.0118 37.7973 27.0118H37.2995C36.4284 26.9496 35.8062 26.3896 35.8062 26.3896C37.735 25.1452 39.0417 23.0297 37.8595 19.7943C36.9262 17.181 34.624 15.2522 32.3219 13.8212C31.6375 13.3856 31.2019 12.8257 31.2019 12.3901C31.2019 11.3324 32.7574 11.2702 33.3796 10.5235C34.1263 9.65243 33.6285 8.28359 33.0063 7.47473C33.0063 7.47473 33.193 7.41251 33.5663 7.41251C34.2507 7.41251 35.3707 7.59917 36.304 8.53247C37.5484 9.83909 37.0506 11.2702 37.0506 11.2702L37.3617 11.3324C37.5484 11.3946 37.735 11.3946 37.9839 11.3946H38.1084C39.9127 11.3946 40.7216 9.46577 40.7216 9.46577C40.7216 9.46577 42.6504 11.8301 39.7883 13.6967C39.2905 14.0078 39.1039 14.3189 39.1661 14.63L39.2283 14.8167L39.415 14.8789C41.4682 15.4389 42.526 16.8699 43.8326 18.4877C45.7614 20.9765 48.4991 21.0387 48.8724 21.0387H48.9346C48.9346 21.0387 48.3124 23.0297 46.4458 23.0297H46.3836C45.5125 23.0297 45.077 22.6564 45.077 22.6564C45.077 22.6564 44.7037 27.2607 48.0636 28.6295ZM42.4638 14.7545C43.3348 15.19 43.7704 15.8122 44.2059 16.3722C44.6415 16.8699 45.0148 17.3677 45.637 17.6166C45.8859 17.6788 46.0725 17.741 46.3214 17.741C47.2547 17.741 48.188 17.181 48.5613 16.3722L48.9346 15.5633L48.0636 15.5011C48.0013 15.5011 46.8814 15.3767 45.637 14.1323C45.1392 13.6345 44.517 13.3234 43.8326 13.3234C43.0237 13.3234 42.4015 13.759 42.3393 13.759L41.5927 14.2567L42.4638 14.7545ZM43.8948 13.8212C44.3304 13.8212 44.8281 13.9456 45.2637 14.4434C46.6947 15.9366 48.0636 15.9989 48.0636 15.9989C47.8147 16.5588 47.1303 16.9944 46.3836 16.9944C46.197 16.9944 46.0103 16.9944 45.8859 16.9322C44.8903 16.6211 44.517 15.0656 42.7749 14.1323C42.7126 14.1945 43.2104 13.8212 43.8948 13.8212ZM42.8371 22.7186C42.3393 18.6743 39.3528 15.6878 36.0551 13.8834C35.744 13.6967 35.4951 13.5723 35.184 13.4479C36.1795 13.6345 37.7973 13.6345 39.0417 12.5146C39.0417 12.5146 37.1128 13.9456 33.193 12.639C34.2507 13.3234 36.3662 14.3189 38.295 15.9366C43.1482 20.1676 39.6639 24.3363 39.6639 24.3363C41.406 22.532 41.4682 20.6031 40.9705 18.9854C41.9038 20.4787 42.4638 22.3453 42.4015 24.6474C42.2771 27.8829 40.4727 30.745 38.6061 32.9849C37.6728 34.1049 37.4862 35.4115 37.4862 35.4115C37.4862 35.4115 37.8595 34.2293 38.9172 32.9849C40.9083 30.6206 42.6504 28.194 42.8993 24.6474C43.086 25.2696 43.957 27.074 45.3259 27.7584C45.3259 27.7584 43.5837 26.7629 42.8371 22.7186Z" fill="black"/>
<path d="M17.1404 37.9013C17.1404 37.9013 16.7671 37.3413 16.7049 35.8481C16.5804 34.0437 15.896 33.0482 15.2116 32.426C15.3982 32.3637 15.5849 32.2393 15.7093 32.1149C16.7049 31.2438 16.6426 30.186 16.6426 30.1238L16.5804 29.5638H16.0204C14.5272 29.5638 13.4694 29.0661 12.6606 28.1328C12.4739 27.8839 12.2872 27.6972 12.1628 27.4484C12.5983 27.5728 13.2205 27.6972 13.8427 27.6972H14.4027C15.4605 27.635 16.1449 27.0128 16.2071 26.8884L16.7671 26.3284L16.0827 25.8929C14.5894 24.9596 13.0961 23.1552 14.2783 20.0442C15.0249 17.9909 16.7671 16.1243 19.567 14.3822C20.5003 13.76 21.0603 13.0755 21.0603 12.3911C21.0603 11.3334 20.1892 10.9601 19.567 10.649C19.2559 10.5245 18.9448 10.3379 18.7581 10.1512C18.2604 9.59123 18.6959 8.47127 19.1314 7.84907L19.6914 7.10243L18.7581 6.91577C18.7581 6.91577 18.5092 6.85355 18.0737 6.85355C17.3893 6.85355 16.0204 7.04021 14.9005 8.16017C13.9672 9.09347 13.8427 10.1512 13.905 10.7734H13.5316C12.1628 10.7734 11.4784 9.28013 11.4784 9.21791L11.1051 8.28461L10.4829 9.09347C10.4206 9.15569 9.48734 10.2756 9.73622 11.7689C9.86066 12.7644 10.4829 13.5733 11.5406 14.2577C11.665 14.3199 11.7273 14.3822 11.7895 14.4444C9.79844 15.0666 8.7407 16.4976 7.55852 17.9287L7.37186 18.1154C5.69193 20.4797 3.20313 20.5419 2.89203 20.5419H2.02095L2.26983 21.3508C2.26983 21.4752 3.07869 23.7774 5.31861 23.7774H5.44305C5.69193 23.7774 5.87859 23.7152 6.06525 23.7152C5.94081 24.9596 5.50527 27.2617 3.45201 28.1328L2.82981 28.3817L3.20313 29.0039C3.20313 29.0039 3.94977 30.3105 5.69193 30.3105C6.43856 30.3105 7.06076 30.1238 7.4963 29.8749C7.55852 30.4349 7.68296 31.1816 7.99406 31.9904C8.61626 33.857 8.05628 35.2259 7.99406 35.2259L7.68296 35.9103L8.36738 36.0969C8.4296 36.0969 8.86514 36.2214 9.3629 36.2214C9.61178 36.2214 9.79844 36.2214 10.0473 36.1592C10.6073 36.0347 10.9806 35.7858 11.2917 35.537C11.4784 36.0969 11.7895 36.7814 12.4117 37.4036C13.4072 38.3991 14.776 38.8968 16.5804 38.8968H17.7004L17.1404 37.9013ZM16.5804 38.2124C11.5406 38.2124 11.665 33.9192 11.665 33.9192C11.665 33.9192 11.2917 35.2259 9.92288 35.537C9.73622 35.5992 9.54956 35.5992 9.42512 35.5992C8.98958 35.5992 8.55404 35.4747 8.55404 35.4747C8.55404 35.4747 9.30068 33.9192 8.55404 31.7415C7.93184 29.9372 8.05628 28.6305 8.05628 28.6305C8.05628 28.6305 7.37186 29.6261 5.69193 29.6883C4.32309 29.6883 3.70089 28.6305 3.70089 28.6305C7.06076 27.2617 6.74966 22.7196 6.74966 22.7196C6.74966 22.7196 6.31412 23.0307 5.44305 23.093H5.38083C3.51423 23.093 2.89203 21.1019 2.89203 21.1019H2.95425C3.26535 21.1019 6.06525 21.0397 7.99406 18.5509C9.30068 16.9332 10.2962 15.5021 12.4117 14.9421L12.5983 14.8799L12.6606 14.6933C12.7228 14.3822 12.4739 14.0711 12.0384 13.76C9.17624 11.8934 11.1051 9.52901 11.1051 9.52901C11.1051 9.52901 11.9139 11.4578 13.7183 11.4578H13.8427C14.0294 11.4578 14.2783 11.4578 14.4649 11.3956L14.776 11.3334C14.776 11.3334 14.2783 9.90233 15.5227 8.59571C16.456 7.60019 17.6382 7.47575 18.2604 7.47575C18.5715 7.47575 18.8203 7.53797 18.8203 7.53797C18.1981 8.34683 17.7626 9.71567 18.447 10.5867C19.0692 11.3334 20.6247 11.3334 20.6247 12.4533C20.6247 12.8889 20.1892 13.4489 19.4425 13.9466C17.1404 15.3777 14.8383 17.3065 13.905 19.9197C12.7228 23.1552 14.0294 25.2707 15.9582 26.5151C15.9582 26.5151 15.336 27.075 14.4649 27.1373H13.9672C12.1006 27.1373 11.1673 26.2662 11.1673 26.2662C11.1673 26.2662 11.3539 27.4484 12.2872 28.5683C13.1583 29.5638 14.3405 30.186 16.0827 30.186C16.0827 30.186 16.1449 30.9949 15.336 31.7415C14.8383 32.1771 13.6561 32.3637 13.6561 32.3637C13.6561 32.3637 15.8338 32.7993 16.0827 35.9725C16.2071 37.6524 16.6426 38.2124 16.5804 38.2124ZM5.38083 17.6798C5.6297 17.6798 5.87859 17.6176 6.06525 17.5554C6.68744 17.3687 7.12298 16.871 7.4963 16.311C7.93184 15.751 8.4296 15.191 9.23846 14.6933L10.1095 14.2577L9.30068 13.6977C9.23846 13.6355 8.61626 13.2622 7.8074 13.2622C7.12298 13.2622 6.50078 13.5111 6.00303 14.0711C4.75863 15.3777 3.63867 15.4399 3.57645 15.4399L2.76759 15.5021L3.14091 16.311C3.51423 17.0576 4.44753 17.6798 5.38083 17.6798ZM6.50078 14.5066C6.93632 14.0088 7.43408 13.8844 7.86962 13.8844C8.49182 13.8844 8.98958 14.2577 8.98958 14.2577C7.24743 15.191 6.8741 16.6843 5.87858 17.0576C5.69193 17.1198 5.56748 17.1198 5.38083 17.1198C4.63419 17.1198 3.94977 16.6221 3.70089 16.1243C3.70089 16.0621 5.06973 15.9377 6.50078 14.5066ZM9.3629 24.6485C9.23846 22.3463 9.86066 20.5419 10.794 18.9864C10.2962 20.5419 10.3584 22.533 12.1006 24.3374C12.1006 24.3374 8.67848 20.2308 13.4694 15.9377C15.3982 14.3199 17.5137 13.3244 18.5715 12.64C14.6516 13.9466 12.7228 12.5156 12.7228 12.5156C13.9672 13.5733 15.5849 13.5733 16.5804 13.4489C16.3315 13.5733 16.0204 13.6977 15.7093 13.8844C12.4117 15.6888 9.42512 18.6753 8.92736 22.7196V22.6574C8.18072 26.7017 6.43856 27.6972 6.43856 27.6972C7.8074 27.0128 8.67848 25.2707 8.86514 24.5862C9.11402 28.1328 10.794 30.5594 12.8472 32.9237C13.905 34.1681 14.2783 35.3503 14.2783 35.3503C14.2783 35.3503 14.0916 33.9815 13.1583 32.9237C11.2917 30.746 9.48734 27.9461 9.3629 24.6485Z" fill="black"/>
<path d="M24.7372 16.3735L24.7366 17.1827C25.0477 16.8716 25.5454 16.9338 25.5454 16.9338V18.116C25.5454 18.116 25.5454 18.676 25.2965 18.9248H26.4165C26.2298 18.676 26.1676 18.116 26.1676 18.116V16.9338C26.1676 16.9338 26.7276 16.8716 26.9765 17.1827V16.3738L24.7372 16.3735ZM24.2388 11.5829C24.6121 11.894 24.861 11.9562 24.861 11.9562L24.9854 12.0184V11.2718L23.6166 10.7118C23.6166 10.6496 23.6166 11.0851 24.2388 11.5829ZM27.5371 11.5826C28.1593 11.0848 28.1593 10.6493 28.1593 10.6493L26.7905 11.2093L26.7898 11.9562L26.9143 11.894C26.9143 11.894 27.1638 11.8315 27.5371 11.5826Z" fill="black"/>
<path d="M30.0204 8.4714C30.0204 7.28922 28.0916 6.2937 25.9139 6.2937C23.7362 6.2937 21.8074 7.35144 21.8074 8.4714L21.8696 8.7825L22.7407 13.7601L21.8696 14.2579L19.5675 15.5023C19.5675 15.5023 19.0697 15.7511 18.8208 15.9378C17.9497 16.56 17.7631 17.3689 18.2609 17.7422C18.3853 17.0578 18.9453 16.3111 20.003 16.3111C20.7496 16.3111 21.3096 16.6844 21.8074 17.3066C21.9318 17.4311 22.0563 17.6177 22.1185 17.8044L22.4918 18.3644H16.7054C17.1409 19.2355 17.5142 20.1065 17.5142 21.1021V33.8572C17.5142 36.9682 19.8786 38.3992 22.4918 38.3992C24.4828 38.3992 24.7317 38.337 25.8517 39.3947C26.9716 38.2748 27.2205 38.3992 29.2116 38.3992C31.7626 38.3992 34.1892 36.9059 34.1892 33.8572V21.0398C34.1892 20.0443 34.5625 19.1732 34.998 18.3022H29.2116L29.5849 17.7422C29.7093 17.5555 29.8338 17.4311 29.896 17.2444C30.3315 16.6844 30.9537 16.2489 31.7004 16.2489C32.7581 16.2489 33.3181 16.9955 33.4425 17.68C33.9403 17.3066 33.7536 16.4356 32.8825 15.8756C32.6337 15.6889 32.1359 15.44 32.1359 15.44L29.0871 13.6979L29.9582 8.72027L30.0204 8.4714ZM22.6162 9.03137L25.665 10.0891V14.8801L23.4251 13.6357L22.6162 9.03137ZM23.2384 19.111C23.7362 19.6088 24.234 19.9199 24.6695 20.1065C24.6073 20.3554 24.5451 20.8532 24.7317 21.3509C24.9184 21.7243 25.2295 22.0354 25.7272 22.2842C25.7895 22.782 26.1006 23.5286 26.9716 23.8397L26.1006 24.7108L22.6162 24.6486C22.554 24.5864 22.4296 24.5242 22.3674 24.3997V24.3375L22.9273 24.3997H22.9896C23.114 24.3997 23.1762 24.3375 23.2384 24.2131C23.2384 24.0886 23.1762 23.9642 23.0518 23.9642L22.3674 23.8397L23.114 21.1643L22.3674 19.6088L21.1852 20.8532L21.123 23.6531L20.3141 23.5286C20.1897 23.5286 20.0652 23.5909 20.0652 23.7153C20.0652 23.8397 20.1274 23.9642 20.2519 23.9642L20.563 24.0264C20.4385 24.0886 20.3763 24.1508 20.3763 24.1508L20.2519 24.2131V24.2753C20.0652 25.0841 20.5008 25.7686 20.9363 26.1419V26.2663C20.9363 26.3908 20.9363 26.5152 20.9985 26.5774C21.0607 26.7019 21.1852 26.7641 21.3096 26.7641H21.3718C21.5585 26.7641 21.7452 26.6396 21.8074 26.3908H22.3051L26.8472 27.1996L26.9094 27.1374C27.2827 26.8885 28.6516 25.893 29.0871 25.5197C29.2116 25.6441 29.336 25.7063 29.5227 25.8308C29.3982 26.3285 29.336 27.0752 29.9582 27.6974H18.3853V21.0398C18.3853 20.4176 18.1986 19.7332 17.9498 19.111H23.2384ZM28.8382 25.2708C28.4027 25.5819 27.2205 26.453 26.785 26.7641L22.6162 26.0174V25.893C22.6785 25.7063 22.7407 25.3952 22.7407 25.0219L26.225 25.0841L26.2872 25.0219C26.3494 24.9597 27.4694 23.902 28.0294 23.2798C28.1538 23.4664 28.3405 23.5909 28.5271 23.7775C28.5271 24.2131 28.5271 24.773 28.8382 25.2708ZM21.9318 24.5242C22.0563 24.7108 22.1807 24.8353 22.3051 24.9597C22.3051 25.1464 22.3051 25.4575 22.2429 25.7063C22.2429 25.7686 22.2429 25.8308 22.1807 25.893V25.9552C21.994 25.9552 21.6207 25.9552 21.3718 25.8308C21.0607 25.7063 20.563 25.0841 20.6874 24.4619C20.8119 24.3997 21.1852 24.2131 21.4341 24.2131C21.6829 24.2131 21.8074 24.2753 21.9318 24.5242ZM21.4966 23.7152L21.5588 21.0397L22.181 20.4175L22.5543 21.2264L21.8077 23.7774L21.4966 23.7152ZM28.8382 37.5281H28.216L28.7138 36.0349C28.776 35.8482 28.4027 35.5371 28.216 35.2882C28.4649 35.4126 29.0871 35.786 29.3982 35.9104C29.336 35.9726 28.8382 37.5281 28.8382 37.5281ZM30.3937 35.786L30.0826 37.4659C29.896 37.4659 29.6471 37.5281 29.4604 37.5281L29.7715 35.9104C29.896 35.4126 28.5894 35.2882 27.9672 34.3549C27.6561 34.7282 27.0961 34.7905 26.4739 34.7905C25.9139 34.7905 25.4161 34.7282 25.105 34.666H24.8562C24.6695 34.666 24.4828 34.7282 24.3584 34.9149L24.234 35.1016L22.4918 34.6038L22.0563 35.3504C21.994 35.4749 21.9941 35.5371 22.1185 35.6615L22.2429 35.786C22.1807 36.0348 21.8074 36.4082 21.8074 36.4082L21.5585 36.0971C21.3718 35.8482 21.3718 35.4127 21.6207 35.0393L22.3051 33.8572L23.7984 34.0438L23.5495 33.5461C23.2384 32.8616 23.7362 31.9906 23.7362 31.4306C23.7362 31.555 23.5495 31.6172 23.4251 31.6172H22.8651L22.4918 31.8661L22.1807 31.555C22.1185 31.4928 22.1185 31.3684 22.2429 31.3061L22.9896 30.4973L22.1185 29.5018L23.3629 30.124L23.7362 29.6884C23.8606 29.8128 23.7984 30.0617 23.7984 30.0617C24.1717 30.0617 25.2295 30.6839 25.2917 32.0528V32.2394C25.3539 32.3639 25.6028 32.6128 25.8517 32.6128L27.5316 32.7994C27.7183 32.7994 28.0916 32.6128 28.5271 32.6128C28.776 32.6128 29.0871 32.675 29.3982 32.8616C29.3982 32.8616 29.5227 32.7372 29.7715 32.7372H29.8338C30.5804 32.7372 30.8915 33.4216 31.327 33.9816C31.6381 34.4171 32.0115 35.0393 32.0115 35.0393C31.887 35.226 31.7004 35.2882 31.5137 35.2882H31.327C30.5182 35.1638 30.3937 33.4838 29.9582 33.3594H29.896C29.7715 33.3594 29.7093 33.4838 29.7093 33.4838C29.896 34.0438 29.7715 34.2927 30.0204 34.7282C30.2071 35.0393 30.5182 35.2882 30.6426 35.4749C30.456 35.3504 30.3937 35.5993 30.3937 35.786ZM21.3096 34.2305L21.3718 34.4171C21.3096 34.6038 20.7496 34.8527 20.7496 34.8527L20.6252 34.5416C20.5008 34.2305 20.5008 33.7327 20.9363 33.4216L21.8696 32.8616L22.8651 33.0483C22.8651 33.3594 23.0518 33.6083 23.0518 33.6083L21.994 33.4216L21.3718 33.8572C21.3096 33.9194 21.3096 34.106 21.3096 34.2305ZM30.5182 37.4037L30.8293 35.9104C30.8293 35.8482 30.8915 35.7238 30.8915 35.6615C30.9537 35.7238 31.0782 35.7238 31.1404 35.7238H31.4515C31.887 35.7238 32.1359 35.4749 32.3226 35.2882L32.5714 35.0393L32.3848 34.7282C32.3848 34.7282 31.9492 34.0438 31.6381 33.6083C31.5759 33.546 31.5137 33.4216 31.4515 33.3594C31.0782 32.8616 30.6426 32.1772 29.7715 32.1772H29.7093C29.5849 32.1772 29.4604 32.2394 29.336 32.2394C29.0871 32.115 28.776 32.0528 28.4649 32.0528C28.0916 32.0528 27.7805 32.1772 27.5938 32.2394C27.5316 32.3017 27.4694 32.3017 27.4072 32.3017L25.7895 32.115C25.7895 32.115 25.7272 32.0528 25.6028 31.9906L25.9761 31.8661C25.8517 30.6839 24.7317 29.9373 24.1095 29.6884C24.1095 29.564 24.0473 29.4395 23.9229 29.3773L23.5495 29.0662L23.2384 29.4395L23.114 29.564L20.8119 28.6307L22.3051 30.4973L21.7452 31.3684C21.5585 31.6172 21.7452 31.8039 21.7452 31.8039L22.3674 32.2394L22.9896 31.9906H23.0518C23.0518 32.115 22.9896 32.4883 22.9273 32.5505L21.8696 32.4261L20.6874 33.0483C20.0652 33.4838 20.003 34.2305 20.2519 34.666L20.563 35.2882L20.9363 35.1016C20.8119 35.5371 20.8741 36.0349 21.123 36.2837L21.3718 36.5948L21.6829 37.0304L22.0563 36.6571C22.1807 36.5326 22.4918 36.1593 22.6162 35.8482L22.6785 35.5993L22.4918 35.4127V35.3504L22.6785 35.0393L24.1095 35.3504L24.4206 35.4127L24.6073 35.1016L24.6695 34.9771C24.6695 34.9149 24.6695 34.9149 24.7317 34.9149H24.9184C25.4784 35.0393 25.9761 35.0393 26.4117 35.0393C26.8472 35.0393 27.0961 35.0393 27.4072 34.9149C27.4072 34.9149 28.1538 35.786 28.216 35.8482L27.7183 37.2793V37.3415C26.8472 37.4037 26.4117 37.5904 25.8517 38.1503C25.105 37.4037 24.5451 37.3415 22.4918 37.3415C20.0652 37.3415 18.3853 35.9104 18.3853 33.6083V28.0085H33.3181V33.6083C33.3181 35.6615 32.2603 36.9682 30.5182 37.4037ZM33.7536 19.111C33.5047 19.7332 33.3181 20.3554 33.3181 21.0398V25.2086C32.447 25.0841 32.3226 24.0886 32.3226 24.0886V23.902H32.1359C31.7626 23.8397 31.5137 23.7153 31.2648 23.5286C30.8293 23.0931 30.8293 22.4087 30.8293 22.4087C30.8293 22.4709 30.3315 23.0931 30.8915 23.8397C31.1404 24.1508 31.4515 24.3375 31.887 24.3997C32.0115 24.8975 32.3848 25.6441 33.3181 25.7686V27.8218H30.7048C29.5227 27.1374 30.0204 26.0174 30.0204 25.9552L30.1449 25.7063L29.9582 25.5197C28.6516 25.0219 29.0249 23.7775 29.0249 23.7153L29.0871 23.5286L28.9005 23.4664C27.8427 22.9687 27.9672 21.662 27.9672 21.5998C27.6561 21.8487 27.5316 22.4087 27.7183 22.9687C27.5938 23.0931 27.4072 23.2798 27.2827 23.4664C26.225 23.1553 26.225 22.0976 26.225 22.0976V21.9109L26.1006 21.8487C25.665 21.662 25.3539 21.4754 25.2295 21.1021C25.0428 20.7287 25.105 20.3554 25.1673 20.1688C25.2917 20.1688 25.4161 20.231 25.5406 20.231H26.2872C26.9716 20.1688 27.7186 19.8575 28.5274 19.0487L33.7536 19.0488V19.111ZM29.7093 14.8801L30.7048 15.5023L30.9537 15.6267C30.3937 15.8134 29.9582 16.0622 29.5849 16.4356L29.5227 16.4978C29.4604 16.56 29.336 16.6844 29.2738 16.8089C29.2738 16.8089 29.2738 16.8711 29.2116 16.8711C29.1493 16.9955 29.0871 17.0578 28.9627 17.1822C28.9627 17.1822 28.9627 17.2444 28.9005 17.2444C28.8382 17.3689 28.7138 17.4933 28.6516 17.6177C27.9049 18.8621 26.785 19.6088 25.7272 19.6088C24.6695 19.6088 23.5495 18.8621 22.8029 17.6177C22.7407 17.4933 22.6162 17.3689 22.554 17.2444L22.4918 17.1822C22.4296 17.0578 22.3674 16.9955 22.3051 16.8711L22.2429 16.8089C22.1807 16.6844 22.0563 16.6222 21.994 16.4978L21.9318 16.4356C21.5585 16.0622 21.123 15.7511 20.563 15.6267L20.8119 15.5023L21.8074 14.8801L22.8651 14.2579L25.665 15.8134L28.4649 14.2579L29.7093 14.8801ZM28.3405 13.6357L26.1006 14.8178V10.0269L29.1493 8.96916L28.3405 13.6357ZM25.8517 9.52926L22.5541 8.22264C22.8652 7.53822 24.1096 6.97824 25.8517 6.97824C27.5939 6.97824 28.9005 7.53822 29.1494 8.22264L25.8517 9.52926Z" fill="black"/>
</svg>
