<svg width="95" height="31" viewBox="0 0 95 31" fill="none" xmlns="http://www.w3.org/2000/svg">
<path fill-rule="evenodd" clip-rule="evenodd" d="M37.0663 11.1874H40.6428V22.1579H43.1937V11.1885H46.649V9.04856H37.0663V11.1874ZM71.9062 13.0045H69.1061L65.8166 16.9103V9.32942L63.3812 10.2129V22.1579H65.8166V17.6824L69.0295 22.1579H71.9257L68.3115 17.2344L71.9062 13.0045ZM78.5767 18.6807C78.4875 19.0196 78.356 19.3175 78.1903 19.5734C78.0187 19.8315 77.8095 20.0327 77.558 20.1749C77.2942 20.3219 76.9959 20.3965 76.6936 20.3909C76.0327 20.3909 75.5273 20.143 75.1774 19.6495C74.8276 19.1549 74.6515 18.4556 74.6515 17.5516C74.6515 16.7511 74.8219 16.0848 75.1569 15.5606C75.4965 15.033 75.987 14.7703 76.6353 14.7703C77.3213 14.7703 77.8392 15.0319 78.188 15.5504C78.539 16.0712 78.7128 16.7511 78.7128 17.5914C78.7128 17.978 78.667 18.3419 78.5779 18.6807H78.5767ZM79.9248 14.0756C79.528 13.6589 79.0435 13.3346 78.5058 13.1261C77.9285 12.9019 77.3133 12.7899 76.6936 12.7964C76.0731 12.7898 75.4571 12.9017 74.879 13.1261C74.3417 13.3349 73.8553 13.6551 73.4521 14.0653C73.0553 14.4724 72.7443 14.975 72.5259 15.5686C72.3087 16.1633 72.1978 16.8387 72.1978 17.5914C72.1978 18.3169 72.3041 18.9753 72.5179 19.5643C72.7283 20.1544 73.0267 20.6559 73.4144 21.0686C73.7997 21.4825 74.265 21.8009 74.8127 22.0272C75.3979 22.2594 76.0235 22.3741 76.6535 22.3649C77.2739 22.371 77.8897 22.2595 78.4681 22.0363C79.007 21.8257 79.4937 21.5018 79.895 21.0868C80.2952 20.6718 80.6062 20.168 80.8315 19.5734C81.0567 18.9787 81.1699 18.3032 81.1699 17.5516C81.1699 16.8273 81.0601 16.1667 80.8395 15.5788C80.6409 15.0206 80.3296 14.5087 79.9248 14.0744V14.0756ZM49.1061 9.04742C48.6888 9.04742 48.34 9.18842 48.0588 9.46132C47.9239 9.59159 47.8172 9.74779 47.7451 9.92041C47.6729 10.093 47.6369 10.2784 47.6391 10.4654C47.6391 10.844 47.7821 11.1692 48.0588 11.4489C48.3412 11.7241 48.6888 11.8628 49.1061 11.8628C49.4971 11.8628 49.8356 11.7241 50.1214 11.4489C50.258 11.3237 50.3669 11.1716 50.4411 11.0023C50.5153 10.8329 50.5532 10.6501 50.5525 10.4654C50.5525 10.0731 50.4095 9.7399 50.1214 9.46132C49.9882 9.3288 49.8299 9.22396 49.6556 9.1529C49.4813 9.08184 49.2945 9.04599 49.1061 9.04742ZM47.8678 22.1579H50.3226V12.9817H47.8678V22.1579ZM57.9158 12.8964C56.1322 12.7634 55.1226 13.7413 55.1226 13.7413V12.984H52.6677V22.1568H55.1226V16.692C55.1226 15.763 55.8978 15.0091 56.8536 15.0091C57.8084 15.0091 58.5836 15.763 58.5836 16.692V22.1579H61.0373V16.7295C61.0373 13.8527 59.3702 13.0033 57.9158 12.8964ZM83.5047 12.7952V12.9658H82.0332V14.8465H83.5047V22.1579H85.9595V14.8465H87.4265V12.9658H85.9618V12.7736C85.9618 11.5081 86.5529 10.8849 87.7123 11.068L88.0942 9.16909C84.3611 8.72336 83.5047 10.7132 83.5047 12.7964V12.7952ZM89.839 12.7952V12.9658H88.3675V14.8465H89.839V22.1579H92.295V14.8465H93.762V12.9658H92.2961V12.7736C92.2961 11.5081 92.8884 10.8849 94.0455 11.068L94.4297 9.16909C90.6954 8.72336 89.839 10.7132 89.839 12.7964" fill="#1A1919"/>
<path d="M33.1184 14.4966L33.5334 13.0855L32.0808 13.127C31.9563 13.127 31.0848 13.0855 30.2133 12.463H30.4208C31.2923 12.463 32.1638 11.9235 32.4959 11.1764L33.1184 9.80688C32.3298 9.80688 31.6243 9.72388 31.6243 9.72388C31.6243 9.72388 31.0433 9.64088 30.4208 8.97685C29.9643 8.52033 29.3832 8.27132 28.7607 8.27132C28.4702 8.27132 28.2627 8.31282 28.0552 8.39582C28.0967 8.27132 28.1382 8.18831 28.1382 8.06381C28.3457 6.77726 27.5156 5.78122 27.5156 5.78122L26.4366 4.45316L25.7726 6.03023C25.7726 6.03023 25.6066 6.40374 25.3161 6.56975C25.2331 6.11323 24.984 5.57371 24.5275 5.07569C23.6145 4.12115 22.5354 3.99664 21.9544 3.99664C21.7054 3.99664 21.4979 4.03814 21.4564 4.03814L20.1283 4.28715C20.2113 3.99664 20.3773 3.49862 20.6679 3.0421L21.3734 1.92155L19.5058 2.12906L18.9248 0.884011L17.8042 1.46504L16.7667 0.468994L15.7707 1.50654L14.6501 0.925513L14.0691 2.17056L12.243 1.96306L12.9485 3.0836C13.2391 3.54012 13.4051 4.03814 13.4881 4.32865L12.243 4.07964H12.2015C12.1185 4.07964 11.9525 4.03814 11.662 4.03814C11.081 4.03814 10.0019 4.16265 9.08888 5.11719C8.59086 5.61521 8.38335 6.15473 8.30035 6.61125C8.00983 6.44524 7.84383 6.07173 7.84383 6.07173L7.1798 4.49466L6.05925 5.86422C5.93475 6.03023 5.27072 6.94326 5.43673 8.10531C5.43673 8.22982 5.47823 8.31282 5.51973 8.43733C5.31222 8.35432 5.06321 8.31282 4.8142 8.31282C4.19167 8.31282 3.61065 8.56183 3.15413 9.01835C2.4901 9.68238 1.95058 9.76538 1.95058 9.76538C1.95058 9.76538 1.36956 9.88989 0.456519 9.84838L1.07904 11.2179C1.41106 11.965 2.2826 12.5045 3.15413 12.5045H3.36164C2.4901 13.127 1.61857 13.1685 1.49406 13.1685L0 13.0855L0.456519 14.4966C0.664028 15.2021 1.41106 16.4057 2.86362 16.5302C2.69761 17.1942 2.3656 17.8997 1.61857 18.2317L0.539522 18.6883L1.12055 19.7258C1.45256 20.2653 2.24109 20.9293 3.36164 20.9293C3.61065 20.9293 3.85966 20.8878 4.06717 20.8463C4.10867 21.0954 4.19167 21.3444 4.27468 21.5934C4.60669 22.5894 4.31618 23.2949 4.31618 23.2949L3.77666 24.4155L4.98021 24.7475C4.98021 24.7475 5.35372 24.872 5.81024 24.872C6.01775 24.872 6.22526 24.8305 6.39127 24.789C6.51577 24.7475 6.68178 24.706 6.80628 24.6645C6.97229 24.955 7.1383 25.204 7.38731 25.4115C8.17584 26.2001 9.25489 26.6151 10.6244 26.6151H11.6205L9.5869 27.4451L11.1225 28.1921C11.7035 28.4827 12.3675 28.7732 13.0315 29.0222L12.824 29.5617L13.3636 29.8107C13.4051 29.8522 14.4426 30.3087 16.1442 30.3917H17.3892C19.0908 30.3087 20.1283 29.8522 20.1698 29.8107L20.7094 29.5617L20.5019 29.0222C21.2074 28.7732 21.9129 28.4412 22.4524 28.1506L23.988 27.4036L21.9544 26.5736H22.9505C24.32 26.5736 25.4406 26.1586 26.1876 25.37C26.3951 25.1625 26.6026 24.872 26.7686 24.623C26.8931 24.6645 27.0176 24.706 27.1836 24.7475C27.3496 24.789 27.5571 24.8305 27.7647 24.8305C28.2212 24.8305 28.5947 24.7475 28.5947 24.7475L29.7982 24.4155L29.2587 23.2949C29.2587 23.2534 28.9682 22.5894 29.3002 21.5934C29.3832 21.3444 29.4662 21.0954 29.5077 20.8463C29.7152 20.8878 29.9643 20.9293 30.2133 20.9293C31.6658 20.9293 32.3298 19.9333 32.4544 19.6843L33.0354 18.6467L31.9563 18.1902C31.2093 17.8582 30.8358 17.1527 30.7113 16.4887C32.1223 16.4057 32.9109 15.2021 33.1184 14.4966ZM16.7667 4.74367C15.6047 4.74367 14.7331 5.11719 14.5671 5.57371L16.7667 6.44524L18.9663 5.57371C18.8003 5.11719 17.9287 4.74367 16.7667 4.74367ZM16.8082 27.8601H16.7667C16.0612 27.8601 15.1066 27.7356 14.6501 27.5696L14.0691 29.1052C14.4426 29.2297 15.6877 29.4787 16.7667 29.4787C17.8457 29.4787 19.1323 29.2297 19.4643 29.1052L18.9248 27.5696C18.4683 27.7356 17.5137 27.8601 16.8082 27.8601Z" fill="white"/>
<path d="M21.0385 26.3659C20.6234 26.6149 19.7104 26.9469 19.1709 27.1129L19.6274 28.3579C20.4574 28.1089 21.163 27.8599 21.744 27.5694L20.7479 27.2789L21.0385 26.3659ZM12.5306 26.3659L12.8211 27.2789L11.8666 27.6109C12.4476 27.9014 13.1116 28.1504 13.9832 28.3994L14.4397 27.1544C13.8587 26.9469 12.9456 26.6149 12.5306 26.3659ZM16.7638 3.29089C17.6353 3.29089 18.5068 3.4984 19.1709 3.87191C19.2124 3.66441 19.2954 3.4154 19.4199 3.16638L18.9219 3.24939L18.7974 3.00038L18.4653 2.29485L17.8428 2.62686L17.5938 2.75137L17.4278 2.54386L16.7638 1.87983L16.1412 2.54386L15.9337 2.70987L15.6847 2.58536L15.0622 2.25335L14.7302 2.95888L14.6057 3.20789L14.1077 3.12488C14.2322 3.37389 14.3152 3.6229 14.3567 3.83041C15.0622 3.4984 15.8922 3.29089 16.7638 3.29089ZM30.0858 11.4252C30.2103 11.4667 30.2933 11.4667 30.4178 11.4667C30.9159 11.4667 31.3724 11.1347 31.5384 10.8027C31.5384 10.8027 30.6254 10.7612 29.6708 9.76516C29.3803 9.43315 29.0483 9.35014 28.7578 9.35014C28.3013 9.35014 28.0107 9.59915 28.0107 9.59915C29.2143 10.1802 29.4218 11.1762 30.0858 11.4252ZM3.1097 11.4667C3.23421 11.4667 3.35871 11.4667 3.44172 11.4252C4.10575 11.2177 4.35476 10.1802 5.5168 9.55765C5.5168 9.55765 5.18479 9.30864 4.76977 9.30864C4.47926 9.30864 4.14725 9.39164 3.85674 9.72366C2.9022 10.7197 1.98916 10.7612 1.98916 10.7612C2.15516 11.1347 2.61168 11.4667 3.1097 11.4667ZM30.4178 15.4924H30.4593C31.7044 15.4924 32.1194 14.1643 32.1194 14.1643H32.0779C31.8704 14.1643 30.0028 14.1228 28.7163 12.4628C27.8447 11.3837 27.1807 10.4292 25.7697 10.0557L25.6451 10.0142L25.6036 9.88967C25.5621 9.68216 25.7281 9.47465 26.0187 9.26714C27.9277 8.02209 26.6412 6.44502 26.6412 6.44502C26.6412 6.44502 26.1017 7.73158 24.8981 7.73158H24.8151C24.6906 7.73158 24.5246 7.73157 24.4001 7.69007L24.1926 7.64857C24.1926 7.64857 24.5246 6.69403 23.6946 5.82249C23.072 5.15847 22.2835 5.07546 21.8685 5.07546C21.661 5.07546 21.495 5.11697 21.495 5.11697C21.91 5.65649 22.2005 6.56953 21.744 7.15055C21.329 7.64857 20.2914 7.64857 20.2914 8.3956C20.2914 8.68612 20.5819 9.05963 21.08 9.39164C22.6155 10.3462 24.1511 11.6327 24.7736 13.3758C25.5621 15.5339 24.6906 16.945 23.4041 17.775C23.4041 17.775 23.8191 18.1485 24.4001 18.19H24.7321C25.9772 18.19 26.5997 17.609 26.5997 17.609C26.5997 17.609 26.4752 18.3975 25.8527 19.1446C25.2716 19.8086 24.4831 20.2236 23.321 20.2236C23.321 20.2236 23.2795 20.7631 23.8191 21.2611C24.1511 21.5516 24.9396 21.6762 24.9396 21.6762C24.9396 21.6762 23.4871 21.9667 23.321 24.0833C23.238 25.2453 22.9475 25.6603 22.9475 25.6603H22.989C26.3507 25.6603 26.2677 22.7967 26.2677 22.7967C26.2677 22.7967 26.5167 23.6682 27.4297 23.8757C27.5542 23.9172 27.6787 23.9172 27.7617 23.9172C28.0522 23.9172 28.3428 23.8342 28.3428 23.8342C28.3428 23.8342 27.8447 22.7967 28.3428 21.3441C28.7578 20.1406 28.6748 19.2691 28.6748 19.2691C28.6748 19.2691 29.1313 19.9331 30.2518 19.9746C31.1649 19.9746 31.5799 19.2691 31.5799 19.2691C29.3388 18.356 29.5463 15.3264 29.5463 15.3264C29.5463 15.3264 29.8368 15.4924 30.4178 15.4924ZM29.7538 18.605C28.8408 18.1485 28.2598 16.9865 28.1353 16.5299C27.9692 18.8955 26.8487 20.5141 25.4791 22.0912C24.7736 22.9212 24.5246 23.7097 24.5246 23.7097C24.5246 23.7097 24.6491 22.7967 25.2716 22.0912C26.5167 20.5971 27.7202 18.688 27.8032 16.5299C27.8447 14.9944 27.4712 13.7908 26.8487 12.7533C27.1807 13.7908 27.1392 15.1189 25.9772 16.3224C25.9772 16.3224 28.2598 13.5833 25.0641 10.7197C23.7776 9.64065 22.3665 8.97663 21.661 8.52011C24.2756 9.39164 25.5621 8.4371 25.5621 8.4371C24.7321 9.14263 23.6531 9.14263 22.989 9.05963C23.155 9.14263 23.3625 9.22564 23.5701 9.35014C25.7696 10.5537 27.7617 12.5458 28.0937 15.2434V15.2019C28.5918 17.941 29.7538 18.605 29.7538 18.605ZM8.62943 21.5932C8.62943 21.5932 9.41797 21.5101 9.74998 21.1781C10.2895 20.7216 10.248 20.1406 10.248 20.1406C9.08595 20.1406 8.29742 19.7256 7.7164 19.0615C7.09387 18.3145 6.96937 17.526 6.96937 17.526C6.96937 17.526 7.59189 18.107 8.83694 18.107H9.16896C9.74998 18.0655 10.165 17.692 10.165 17.692C8.87845 16.862 8.00691 15.4509 8.79544 13.2928C9.41797 11.5497 10.9535 10.2632 12.4891 9.30864C12.9871 8.97663 13.2776 8.64461 13.2776 8.3126C13.2776 7.60707 12.2401 7.56557 11.8251 7.06755C11.327 6.48652 11.6591 5.57348 12.0741 5.03396C12.0741 5.03396 11.9496 4.99246 11.7006 4.99246C11.244 4.99246 10.497 5.11697 9.87449 5.73949C9.04445 6.61103 9.37647 7.56557 9.37647 7.56557L9.12746 7.69007C9.00295 7.73157 8.87844 7.73158 8.71244 7.73158H8.62943C7.42588 7.73158 6.88636 6.44502 6.88636 6.44502C6.88636 6.44502 5.59981 8.02209 7.50889 9.26714C7.8409 9.47465 7.96541 9.68216 7.9239 9.88967L7.8824 10.0557L7.7579 10.0972C6.38834 10.4707 5.68281 11.4252 4.81128 12.5043C3.52472 14.1643 1.69865 14.2058 1.44963 14.2058C1.44963 14.2058 1.86465 15.5339 3.1097 15.5339H3.15121C3.73223 15.5339 4.02274 15.2849 4.02274 15.2849C4.02274 15.2849 4.23025 18.273 1.98916 19.2276C1.98916 19.2276 2.40417 19.9331 3.31721 19.9331C4.43776 19.9331 4.89428 19.2276 4.89428 19.2276C4.89428 19.2276 4.81128 20.0991 5.22629 21.3026C5.72431 22.7552 5.22629 23.7927 5.22629 23.7927C5.22629 23.7927 5.4753 23.8757 5.80732 23.8757C5.93182 23.8757 6.05633 23.8757 6.13933 23.8342C7.09387 23.6267 7.30138 22.7552 7.30138 22.7552C7.30138 22.7552 7.21838 25.6188 10.58 25.6188H10.6215C10.6215 25.6188 10.331 25.2038 10.248 24.0418C10.082 21.9252 8.62943 21.5932 8.62943 21.5932ZM8.08991 22.1327C6.76186 20.5556 5.59981 18.937 5.4338 16.5714C5.3093 16.9865 4.72827 18.19 3.81523 18.6465C3.81523 18.6465 4.97728 17.941 5.4753 15.2849V15.3264C5.80732 12.5873 7.7994 10.6367 9.99899 9.43315C10.2065 9.30864 10.3725 9.22564 10.58 9.14263C9.91599 9.26714 8.83694 9.26714 8.00691 8.52011C8.00691 8.52011 9.29346 9.47465 11.9081 8.60311C11.2025 9.05963 9.79148 9.72366 8.50493 10.8027C5.26779 13.6248 7.59189 16.4054 7.59189 16.4054C6.42984 15.2019 6.38834 13.9153 6.72036 12.8363C6.09783 13.8323 5.72431 15.0774 5.76581 16.6129C5.84882 18.7295 7.05237 20.5971 8.29742 22.1327C8.91995 22.8797 9.04445 23.7512 9.04445 23.7512C9.04445 23.7512 8.79544 22.9627 8.08991 22.1327Z" fill="white"/>
<path d="M14.3218 11.0935C14.3633 11.135 14.4463 11.218 14.4878 11.301L14.5293 11.3425C14.5708 11.4255 14.6123 11.467 14.6538 11.55C14.6538 11.55 14.6538 11.5915 14.6953 11.5915C14.7368 11.6745 14.8198 11.7575 14.8613 11.8405C15.3593 12.6706 16.1063 13.1686 16.8119 13.1686C17.5174 13.1686 18.2644 12.6706 18.7624 11.8405C18.8039 11.7575 18.8869 11.6745 18.9284 11.5915C18.9284 11.5915 18.9284 11.55 18.9699 11.55C19.0114 11.467 19.0529 11.4255 19.136 11.3425L19.1775 11.301C19.219 11.218 19.302 11.1765 19.3435 11.0935L19.385 11.052C19.634 10.803 19.9245 10.5955 20.298 10.5125L20.049 10.4295L19.385 10.0144L18.6794 9.59943L16.8119 10.637L14.9443 9.59943L14.2387 10.0144L13.5747 10.4295L13.4087 10.5125C13.7407 10.637 14.0312 10.803 14.3218 11.0935C14.2803 11.0935 14.2803 11.0935 14.3218 11.0935ZM16.0233 11.0105H17.6004V11.55C17.4344 11.3425 17.0609 11.384 17.0609 11.384V12.1725C17.0609 12.1725 17.0609 12.5461 17.2269 12.7121H16.4798C16.6043 12.5461 16.6458 12.1725 16.6458 12.1725V11.384C16.6458 11.384 16.2723 11.3425 16.1063 11.55V11.0105H16.0233ZM16.6458 9.97294V6.77731L14.6123 6.07178L15.1518 9.14291L16.6458 9.97294ZM16.1893 7.56584V8.06386L16.1063 8.02236C16.1063 8.02236 15.9403 7.98086 15.6913 7.77335C15.2763 7.44134 15.2763 7.15083 15.2763 7.15083L16.1893 7.56584ZM18.4304 9.18441L18.9699 6.11328L16.9364 6.81881V10.0144L18.4304 9.18441ZM17.3929 7.56584L18.3059 7.19233C18.3059 7.19233 18.3059 7.48284 17.8909 7.81485C17.6419 8.02236 17.5174 8.06386 17.4759 8.06386L17.3929 8.10536V7.56584ZM13.7822 17.3187C13.9897 17.4018 14.1972 17.4018 14.3218 17.4018V17.3603C14.3218 17.3187 14.3633 17.2772 14.3633 17.2357C14.4048 17.0697 14.4048 16.8622 14.4048 16.7377C14.3218 16.6962 14.1972 16.6132 14.1557 16.4472C14.0727 16.2812 13.9897 16.1982 13.8237 16.1982C13.6162 16.1982 13.4087 16.3227 13.3257 16.3642C13.2427 16.8622 13.5332 17.2357 13.7822 17.3187ZM18.2229 15.6587C17.8494 16.0737 17.1024 16.7792 17.0609 16.8207L17.0194 16.8622L14.6953 16.8207C14.6953 17.0697 14.6538 17.2357 14.6123 17.4018V17.4848L17.3929 17.9828C17.6834 17.7753 18.4719 17.1942 18.7624 16.9867C18.5549 16.6547 18.5134 16.2812 18.5549 15.9907C18.4304 15.8662 18.3474 15.7417 18.2229 15.6587Z" fill="white"/>
<path d="M18.5515 12.8364C18.0119 13.3759 17.5139 13.5834 17.0574 13.6249H16.5594C16.4764 13.6249 16.3934 13.6249 16.3104 13.5834C16.2689 13.7079 16.2274 13.9569 16.3519 14.2059C16.4349 14.4134 16.6424 14.5794 16.9329 14.7039L17.0159 14.7454V14.8699C17.0159 14.9114 17.0574 15.5755 17.7629 15.783C17.8874 15.6585 18.0119 15.534 18.0534 15.451C17.8874 15.0775 17.9704 14.7454 18.2194 14.5379C18.2194 14.5794 18.0949 15.451 18.842 15.783L18.9665 15.8245L18.925 15.949C18.925 15.9905 18.676 16.862 19.5475 17.1525L19.7135 17.194L19.6305 17.36C19.6305 17.4016 19.2985 18.1901 20.087 18.6051H21.8301V17.2355C21.2076 17.1525 20.9585 16.6545 20.8755 16.3225C20.585 16.281 20.3775 16.1565 20.2115 15.949C19.838 15.4925 20.17 15.036 20.17 14.9944C20.17 14.9944 20.17 15.451 20.4605 15.7415C20.585 15.866 20.751 15.9905 21.0416 15.9905H21.1661V16.115C21.1661 16.1565 21.2491 16.779 21.8301 16.862V14.0814C21.8301 13.6664 21.9546 13.2099 22.1206 12.7949H18.5515V12.8364ZM13.9033 14.1229L13.8618 15.9075L14.0693 15.949L14.5673 14.2474L14.3183 13.7079L13.9033 14.1229ZM19.3815 22.2988H19.423C19.7135 22.3818 19.7965 23.5023 20.336 23.5853H20.4605C20.6265 23.5853 20.7095 23.5023 20.7925 23.4193C20.7925 23.4193 20.502 23.0043 20.336 22.7138C20.0455 22.3403 19.838 21.8837 19.34 21.8837H19.2985C19.1325 21.8837 19.0495 21.9667 19.0495 21.9667C18.842 21.8422 18.676 21.8007 18.4684 21.8007C18.1364 21.8007 17.9289 21.9252 17.8044 21.9252L16.6839 21.8007C16.5179 21.8007 16.3519 21.5932 16.3104 21.5517V21.4272C16.2689 20.5142 15.5633 20.0992 15.3143 20.0992C15.3143 20.0992 15.3558 19.9332 15.2728 19.8502L15.0238 20.1407L14.1938 19.7256L14.7748 20.3897L14.2768 20.9292C14.2353 21.0122 14.2353 21.0952 14.2353 21.0952L14.4428 21.3027L14.6918 21.1367H15.0653C15.1898 21.1367 15.2728 21.0952 15.2728 21.0122C15.2313 21.3442 14.9408 21.9252 15.1483 22.4233L15.3143 22.7553L14.3183 22.6308L13.8618 23.4193C13.7373 23.6683 13.6957 23.9588 13.8203 24.1248L13.9863 24.3323C13.9863 24.3323 14.2353 24.0833 14.2768 23.9173L14.1938 23.8343C14.1108 23.7513 14.1108 23.7098 14.1523 23.6268L14.4428 23.1288L15.6048 23.4193L15.6463 23.2948C15.7293 23.1703 15.8538 23.1288 15.9783 23.1288H16.1444C16.3519 23.1703 16.7254 23.2118 17.0574 23.2118C17.4309 23.2118 17.8459 23.1288 18.0534 22.9213C18.4684 23.5438 19.34 23.6683 19.257 23.9588L19.0495 25.0379C19.2155 25.0379 19.34 25.0379 19.4645 24.9964L19.672 23.8758C19.7135 23.7513 19.7135 23.5853 19.7135 23.5853C19.6305 23.5023 19.423 23.3363 19.2985 23.0873C19.1325 22.7968 19.2155 22.6308 19.091 22.2573C19.2155 22.3818 19.257 22.2988 19.3815 22.2988ZM14.9823 20.7217C14.9408 20.7217 14.8993 20.6802 14.8993 20.5972C14.8993 20.5557 14.9408 20.5142 15.0238 20.5142C15.0653 20.5142 15.1068 20.5557 15.1068 20.6387C15.0653 20.6802 15.0238 20.7217 14.9823 20.7217Z" fill="white"/>
<path d="M13.3644 23.2955C13.3644 23.2955 13.7379 23.1295 13.7794 23.005L13.7379 22.8805C13.6964 22.7975 13.6964 22.7145 13.7794 22.673L14.1944 22.3825L14.9 22.507C14.9 22.507 14.7755 22.341 14.7755 22.1335L14.1114 22.0089L13.4889 22.3825C13.1984 22.59 13.1984 22.922 13.2814 23.1295L13.3644 23.2955ZM18.3446 25.1216H18.7596C18.7596 25.1216 19.1331 24.084 19.1331 24.0425C18.9256 23.9595 18.5106 23.7105 18.3446 23.6275C18.4691 23.7935 18.7181 23.9595 18.6766 24.1255L18.3446 25.1216Z" fill="white"/>
<path d="M21.7501 18.8951H11.7897V22.6302C11.7897 24.1658 12.9102 25.1203 14.5288 25.1203C15.8983 25.1203 16.2718 25.1618 16.7699 25.6598C17.1019 25.3278 17.3924 25.1618 18.0149 25.1203V25.0788L18.3469 24.1243C18.3469 24.0828 17.8074 23.5017 17.8074 23.5017C17.5999 23.5848 17.4339 23.5848 17.1434 23.5848C16.8529 23.5848 16.5209 23.5432 16.1473 23.5017H16.0228C15.9813 23.5017 15.9813 23.5017 15.9813 23.5432L15.9398 23.6263L15.8153 23.8338L15.6078 23.7923L14.6533 23.5848L14.5288 23.7508V23.7923L14.6533 23.9168L14.6118 24.0828C14.5288 24.2903 14.3213 24.5393 14.2383 24.6223L13.9892 24.8713L13.7817 24.5808L13.6157 24.3733C13.4497 24.1658 13.4082 23.8753 13.4912 23.5848L13.2422 23.7093L13.0347 23.2942C12.8687 22.9622 12.9517 22.5057 13.3252 22.2152L14.1138 21.8002L14.8608 21.9247C14.8608 21.8417 14.9023 21.5927 14.9438 21.5512H14.9023L14.4873 21.7172L14.0723 21.4267C14.0723 21.4267 13.9062 21.2607 14.0723 21.1361L14.4458 20.5551L13.4497 19.3101L14.9853 19.9326L15.0683 19.8081L15.2758 19.5591L15.5248 19.7666C15.6078 19.8496 15.6493 19.8911 15.6493 19.9741C16.0643 20.1401 16.8114 20.6381 16.8944 21.4267H16.6039C16.6454 21.5097 16.6869 21.5097 16.7284 21.5097L17.8074 21.6342C17.8489 21.6342 17.8489 21.6342 17.8904 21.5927C18.0149 21.5512 18.2224 21.4682 18.4714 21.4682C18.6789 21.4682 18.845 21.5097 19.0525 21.5927C19.1355 21.5512 19.2185 21.5512 19.3015 21.5512H19.343C19.924 21.5512 20.2145 22.0077 20.4635 22.3397C20.505 22.3812 20.5465 22.4642 20.588 22.5057C20.7955 22.7962 21.0445 23.2112 21.086 23.2527L21.2105 23.4602L21.0445 23.6263C20.92 23.7508 20.754 23.9168 20.4635 23.9168H20.256C20.2145 23.9168 20.1315 23.8753 20.09 23.8753C20.09 23.9168 20.09 23.9998 20.0485 24.0413L19.841 25.0373C21.003 24.7468 21.7086 23.8753 21.7086 22.6302L21.7501 18.8951ZM11.7897 18.6045H19.5505C19.177 18.1895 19.177 17.6915 19.26 17.3595C19.1355 17.318 19.0525 17.235 18.9695 17.152C18.6789 17.3595 17.7244 18.065 17.5169 18.231L17.4754 18.2725L14.4458 17.733H14.1138C14.0723 17.8575 13.9477 17.982 13.8232 17.982H13.7817C13.6987 17.982 13.6157 17.9405 13.5742 17.8575C13.5327 17.7745 13.4912 17.733 13.5327 17.65V17.567C13.2007 17.3595 12.9102 16.8615 13.0762 16.3219V16.2804L13.1177 16.2389C13.1177 16.2389 13.1592 16.1974 13.2422 16.1559L13.0347 16.1144C12.9517 16.1144 12.9102 16.0314 12.9102 15.9484C12.9102 15.8654 12.9932 15.8239 13.0762 15.8239L13.6157 15.9069L13.6572 14.0394L14.4458 13.2093L14.9438 14.2469L14.4458 16.0314L14.9023 16.1144C14.9853 16.1144 15.0268 16.1974 15.0268 16.2804C15.0268 16.3634 14.9438 16.405 14.8608 16.405H14.8193L14.4458 16.3634V16.405C14.4873 16.488 14.5703 16.5295 14.6118 16.571L16.9359 16.6125L17.5169 16.0314C16.9359 15.8239 16.7284 15.3259 16.6869 14.9939C16.3548 14.8694 16.1473 14.6619 16.0228 14.3714C15.8568 14.0394 15.9398 13.7073 15.9813 13.5413C15.6908 13.4168 15.3588 13.2093 15.0268 12.8773H11.5406C11.7067 13.2923 11.8312 13.7073 11.8312 14.1639V18.6045H11.7897Z" fill="#FCE527"/>
<path d="M14.9831 20.5148C14.9415 20.5148 14.8585 20.5563 14.8585 20.5978C14.8585 20.6393 14.9 20.7223 14.9416 20.7223C14.9831 20.7223 15.0661 20.6808 15.0661 20.6393C15.1076 20.5563 15.0661 20.5148 14.9831 20.5148ZM21.7478 27.3211L21.1668 27.0721L21.3328 26.491L21.4988 25.827C21.4988 25.827 20.5028 26.3665 19.0502 26.7815C18.6352 26.906 18.3447 26.9476 18.3447 26.9476V27.4456C18.3447 27.4456 17.5977 27.5701 16.8091 27.5701C16.0206 27.5701 15.2736 27.4456 15.2736 27.4456V26.9891C15.2736 26.9891 14.9831 26.9475 14.568 26.823C13.1155 26.408 12.1194 25.8685 12.1194 25.8685L12.2854 26.5325L12.4514 27.1136L11.8704 27.3211L11.2479 27.5701C11.9949 27.9436 12.991 28.4416 13.904 28.6906L13.6965 29.2716C13.6965 29.2716 14.8585 29.8112 16.8506 29.8112C18.8012 29.8112 20.0048 29.2716 20.0048 29.2716L19.7973 28.6906C20.7103 28.4416 21.7478 27.9021 22.4534 27.5701L21.7478 27.3211ZM11.8704 27.5701L12.825 27.2381L12.5345 26.325C12.9495 26.574 13.8625 26.906 14.402 27.0721L13.9455 28.3171C13.1155 28.1511 12.4514 27.8606 11.8704 27.5701ZM16.7676 29.4792C15.6886 29.4792 14.402 29.2301 14.07 29.1056L14.6095 27.5701C15.0661 27.6946 16.0206 27.8606 16.7261 27.8606H16.7676C17.4732 27.8606 18.4277 27.7361 18.8842 27.5701L19.5067 29.1056C19.1332 29.2301 17.8882 29.4792 16.7676 29.4792ZM19.6312 28.3586L19.1747 27.1136C19.7142 26.9475 20.6273 26.574 21.0838 26.3665L20.7518 27.2796L21.7063 27.6116C21.1253 27.8606 20.4613 28.1511 19.6312 28.3586Z" fill="black"/>
<path d="M16.7662 3.66378C17.9283 3.66378 18.8828 4.0373 19.3808 4.45232C19.3808 4.45232 19.5469 3.53928 20.0449 2.70924L19.0903 2.83375L18.5923 1.79621L17.6378 2.29423L16.7247 1.38119L15.8117 2.29423L14.9402 1.79621L14.4421 2.83375L13.4876 2.70924C14.0271 3.53928 14.1516 4.45232 14.1516 4.45232C14.6912 4.0373 15.6042 3.66378 16.7662 3.66378ZM14.4006 3.20726L14.6496 3.24877L14.7742 2.99976L15.1062 2.29423L15.7287 2.62624L15.9777 2.75075L16.1437 2.54324L16.8077 1.87921L17.4303 2.54324L17.6378 2.70924L17.8868 2.58474L18.5093 2.25272L18.8413 2.95825L18.9658 3.20726L19.4639 3.12426C19.3393 3.37327 19.2563 3.62228 19.2148 3.82979C18.5508 3.45627 17.7208 3.24877 16.8077 3.24877C15.9362 3.24877 15.0647 3.45627 14.4421 3.82979C14.4006 3.62228 14.3176 3.37327 14.1931 3.12426L14.4006 3.20726ZM30.4618 15.9068C31.9559 15.9068 32.4954 14.3712 32.4954 14.2882L32.6614 13.7487H32.0804C31.8729 13.7487 30.2128 13.7072 29.0507 12.2131L28.9677 12.0886C28.1792 11.0926 27.4737 10.1796 26.1456 9.76454C26.1871 9.72304 26.2286 9.68153 26.3116 9.64003C27.0172 9.18351 27.3907 8.64399 27.5152 7.97996C27.6812 7.02542 27.0587 6.23689 27.0172 6.19539L26.6021 5.65587L26.3531 6.27839C26.3531 6.31989 25.8966 7.31594 24.9836 7.31594H24.7346C24.7761 6.85942 24.6931 6.19539 24.0705 5.57286C23.3235 4.78433 22.4105 4.70133 21.954 4.70133C21.7049 4.70133 21.5389 4.74283 21.4974 4.74283L20.8749 4.86733L21.2484 5.36535C21.5389 5.78037 21.8294 6.4859 21.4974 6.90092C21.3729 7.02542 21.1654 7.10843 20.9579 7.23293C20.5429 7.44044 19.9619 7.68945 19.9619 8.39498C19.9619 8.8515 20.2939 9.30802 20.9579 9.72303C22.8255 10.8851 23.9875 12.1301 24.4856 13.4997C25.2741 15.5748 24.2365 16.7783 23.282 17.4009L22.8255 17.6914L23.199 18.0649C23.2405 18.1064 23.7385 18.5214 24.4026 18.6044H24.7761C25.2326 18.6044 25.6061 18.5214 25.8966 18.4384C25.8136 18.6044 25.6891 18.7289 25.5646 18.8949C24.9836 19.5589 24.3196 19.8495 23.3235 19.8495H22.95L22.9085 20.223C22.9085 20.306 22.867 20.97 23.531 21.551C23.614 21.634 23.7385 21.717 23.863 21.7585C23.4065 22.1736 22.9915 22.8376 22.9085 24.0411C22.8255 25.0372 22.618 25.4107 22.5765 25.4107L22.1615 26.0332H22.9085C24.112 26.0332 25.0666 25.7012 25.6891 25.0372C26.0626 24.6637 26.2701 24.2071 26.4361 23.7921C26.6437 23.9581 26.9342 24.1241 27.2662 24.2071C27.3907 24.2486 27.5567 24.2486 27.7227 24.2486C28.0547 24.2486 28.3452 24.1656 28.3867 24.1656L28.8432 24.0411L28.6357 23.5846C28.6357 23.5431 28.2207 22.6716 28.6357 21.4265C28.8017 20.887 28.9262 20.389 28.9677 20.0155C29.2583 20.1815 29.6733 20.306 30.1713 20.306C31.3333 20.306 31.8314 19.4344 31.8729 19.3929L32.1219 18.9779L31.7069 18.8119C30.3373 18.2309 30.0053 16.6953 29.9638 15.8653C30.0883 15.9068 30.2128 15.9068 30.3788 15.9068H30.4618ZM31.5824 19.1854C31.5824 19.1854 31.1673 19.891 30.2543 19.891C29.1338 19.891 28.6772 19.1854 28.6772 19.1854C28.6772 19.1854 28.7602 20.057 28.3452 21.2605C27.8472 22.7131 28.3452 23.7506 28.3452 23.7506C28.3452 23.7506 28.0962 23.8336 27.7642 23.8336C27.6397 23.8336 27.5152 23.8336 27.4322 23.7921C26.4776 23.5846 26.2701 22.7131 26.2701 22.7131C26.2701 22.7131 26.3531 25.5767 22.9915 25.5767H22.95C22.95 25.5767 23.2405 25.1617 23.3235 23.9996C23.4895 21.883 24.9421 21.5925 24.9421 21.5925C24.9421 21.5925 24.1535 21.5095 23.8215 21.1775C23.282 20.721 23.3235 20.14 23.3235 20.14C24.4856 20.14 25.2741 19.725 25.8551 19.0609C26.4776 18.3139 26.6021 17.5254 26.6021 17.5254C26.6021 17.5254 25.9796 18.1064 24.7346 18.1064H24.4026C23.8215 18.0649 23.4065 17.6914 23.4065 17.6914C24.6931 16.8613 25.5646 15.4503 24.7761 13.2922C24.1535 11.5491 22.618 10.2626 21.0824 9.30802C20.6259 9.01751 20.3354 8.64399 20.3354 8.35348C20.3354 7.64795 21.3729 7.60645 21.7879 7.10843C22.286 6.5274 21.954 5.61437 21.5389 5.07484C21.5389 5.07484 21.6634 5.03334 21.9125 5.03334C22.369 5.03334 23.116 5.15785 23.7385 5.78037C24.5686 6.65191 24.2365 7.60645 24.2365 7.60645L24.4441 7.64795C24.5686 7.68945 24.6931 7.68945 24.8591 7.68945H24.9421C26.1456 7.68945 26.6852 6.4029 26.6852 6.4029C26.6852 6.4029 27.9717 7.97996 26.0626 9.22501C25.7306 9.43252 25.6061 9.64003 25.6476 9.84754L25.6891 9.97205L25.8136 10.0135C27.1832 10.3871 27.8887 11.3416 28.7602 12.4206C30.0468 14.0807 31.8729 14.1222 32.1219 14.1222H32.1634C32.1634 14.1222 31.7484 15.4503 30.5033 15.4503H30.4618C29.8808 15.4503 29.5903 15.2013 29.5903 15.2013C29.5903 15.2013 29.3413 18.2724 31.5824 19.1854ZM27.8472 9.93054C28.4282 10.2211 28.7187 10.6361 29.0092 11.0096C29.2998 11.3416 29.5488 11.6736 29.9638 11.8396C30.1298 11.8811 30.2543 11.9226 30.4203 11.9226C31.0428 11.9226 31.6654 11.5491 31.9144 11.0096L32.1634 10.4701L31.5824 10.4286C31.5409 10.4286 30.7938 10.3456 29.9638 9.51553C29.6318 9.18351 29.2168 8.976 28.7602 8.976C28.2207 8.976 27.8057 9.26652 27.7642 9.26652L27.2662 9.59853L27.8472 9.93054ZM28.8017 9.30802C29.0923 9.30802 29.4243 9.39102 29.7148 9.72303C30.6693 10.7191 31.5824 10.7606 31.5824 10.7606C31.4163 11.1341 30.9598 11.4246 30.4618 11.4246C30.3373 11.4246 30.2128 11.4246 30.1298 11.3831C29.4658 11.1756 29.2168 10.1381 28.0547 9.51553C28.0132 9.55703 28.3452 9.30802 28.8017 9.30802ZM28.0962 15.2428C27.7642 12.5452 25.7721 10.5531 23.5725 9.34952C23.365 9.22501 23.199 9.14201 22.9915 9.05901C23.6555 9.18351 24.7346 9.18351 25.5646 8.43648C25.5646 8.43648 24.2781 9.39102 21.6634 8.51949C22.369 8.976 23.78 9.64003 25.0666 10.7191C28.3037 13.5412 25.9796 16.3218 25.9796 16.3218C27.1417 15.1183 27.1832 13.8317 26.8512 12.7527C27.4737 13.7487 27.8472 14.9938 27.8057 16.5293C27.7227 18.6874 26.5191 20.5965 25.2741 22.0905C24.6516 22.8376 24.5271 23.7091 24.5271 23.7091C24.5271 23.7091 24.7761 22.9206 25.4816 22.0905C26.8097 20.5135 27.9717 18.8949 28.1377 16.5293C28.2622 16.9443 28.8432 18.1479 29.7563 18.6044C29.7563 18.6044 28.5942 17.9404 28.0962 15.2428Z" fill="black"/>
<path d="M10.9561 25.3699C10.9561 25.3699 10.7071 24.9964 10.6656 24.0003C10.5826 22.7968 10.1261 22.1327 9.66956 21.7177C9.79406 21.6762 9.91857 21.5932 10.0016 21.5102C10.6656 20.9292 10.6241 20.2237 10.6241 20.1822L10.5826 19.8086H10.2091C9.21304 19.8086 8.50751 19.4766 7.96799 18.8541C7.84348 18.6881 7.71898 18.5636 7.63597 18.3976C7.92649 18.4806 8.3415 18.5636 8.75652 18.5636H9.13003C9.83556 18.5221 10.2921 18.1071 10.3336 18.0241L10.7071 17.6505L10.2506 17.36C9.25454 16.7375 8.2585 15.534 9.04703 13.4589C9.54505 12.0893 10.7071 10.8443 12.5747 9.68221C13.1972 9.26719 13.5707 8.81068 13.5707 8.35416C13.5707 7.64863 12.9897 7.39962 12.5747 7.19211C12.3672 7.10911 12.1597 6.9846 12.0352 6.86009C11.7031 6.48658 11.9937 5.73955 12.2842 5.32453L12.6577 4.82651L12.0352 4.702C12.0352 4.702 11.8691 4.6605 11.5786 4.6605C11.1221 4.6605 10.2091 4.78501 9.46205 5.53204C8.83952 6.15456 8.75652 6.86009 8.79802 7.27511H8.54901C7.63597 7.27511 7.17945 6.27907 7.17945 6.23757L6.93044 5.61504L6.51543 6.15456C6.47393 6.19607 5.8514 6.9431 6.01741 7.93914C6.10041 8.60317 6.51543 9.14269 7.22096 9.59921C7.30396 9.64071 7.34546 9.68221 7.38696 9.72371C6.05891 10.1387 5.35338 11.0933 4.56485 12.0478L4.44034 12.1723C3.31979 13.7494 1.65972 13.7909 1.45222 13.7909H0.871192L1.0372 14.3304C1.0372 14.4134 1.57672 15.949 3.07078 15.949H3.15379C3.31979 15.949 3.4443 15.9075 3.5688 15.9075C3.4858 16.7375 3.19529 18.2731 1.82573 18.8541L1.41071 19.0201L1.65972 19.4351C1.65972 19.4351 2.15775 20.3067 3.31979 20.3067C3.81781 20.3067 4.23283 20.1822 4.52334 20.0161C4.56485 20.3897 4.64785 20.8877 4.85536 21.4272C5.27037 22.6723 4.89686 23.5853 4.85536 23.5853L4.64785 24.0418L5.10437 24.1663C5.14587 24.1663 5.43638 24.2493 5.76839 24.2493C5.9344 24.2493 6.05891 24.2493 6.22491 24.2078C6.59843 24.1248 6.84744 23.9588 7.05495 23.7928C7.17945 24.1663 7.38696 24.6228 7.80198 25.0379C8.46601 25.7019 9.37905 26.0339 10.5826 26.0339H11.3296L10.9561 25.3699ZM10.5826 25.5774C7.22096 25.5774 7.30396 22.7138 7.30396 22.7138C7.30396 22.7138 7.05495 23.5853 6.14191 23.7928C6.01741 23.8343 5.8929 23.8343 5.8099 23.8343C5.51938 23.8343 5.22887 23.7513 5.22887 23.7513C5.22887 23.7513 5.72689 22.7138 5.22887 21.2612C4.81386 20.0576 4.89686 19.1861 4.89686 19.1861C4.89686 19.1861 4.44034 19.8501 3.31979 19.8916C2.40676 19.8916 1.99174 19.1861 1.99174 19.1861C4.23283 18.2731 4.02532 15.2434 4.02532 15.2434C4.02532 15.2434 3.73481 15.451 3.15379 15.4925H3.11228C1.86723 15.4925 1.45222 14.1644 1.45222 14.1644H1.49372C1.70123 14.1644 3.5688 14.1229 4.85536 12.4628C5.72689 11.3838 6.39092 10.4292 7.80198 10.0557L7.92649 10.0142L7.96799 9.88972C8.00949 9.68221 7.84348 9.4747 7.55297 9.26719C5.64389 8.02214 6.93044 6.44508 6.93044 6.44508C6.93044 6.44508 7.46997 7.73163 8.67352 7.73163H8.75652C8.88102 7.73163 9.04703 7.73163 9.17154 7.69013L9.37905 7.64863C9.37905 7.64863 9.04703 6.69409 9.87707 5.82255C10.4996 5.15852 11.2881 5.07552 11.7031 5.07552C11.9107 5.07552 12.0767 5.11702 12.0767 5.11702C11.6616 5.65654 11.3711 6.56958 11.8276 7.15061C12.2427 7.64863 13.2802 7.64863 13.2802 8.39566C13.2802 8.68617 12.9897 9.05969 12.4917 9.3917C10.9561 10.3462 9.42055 11.6328 8.79802 13.3759C8.00949 15.534 8.88102 16.945 10.1676 17.7751C10.1676 17.7751 9.75256 18.1486 9.17154 18.1901H8.83952C7.59447 18.1901 6.97195 17.609 6.97195 17.609C6.97195 17.609 7.09645 18.3976 7.71898 19.1446C8.3 19.8086 9.08853 20.2237 10.2506 20.2237C10.2506 20.2237 10.2921 20.7632 9.75256 21.2612C9.42055 21.5517 8.63201 21.6762 8.63201 21.6762C8.63201 21.6762 10.0846 21.9667 10.2506 24.0833C10.3336 25.2039 10.6241 25.5774 10.5826 25.5774ZM3.11228 11.8818C3.27829 11.8818 3.4443 11.8403 3.5688 11.7988C3.98382 11.6743 4.27433 11.3423 4.52334 10.9688C4.81386 10.5953 5.14587 10.2217 5.68539 9.88972L6.26642 9.59921L5.72689 9.22569C5.68539 9.18419 5.27037 8.93518 4.73085 8.93518C4.27433 8.93518 3.85932 9.10119 3.5273 9.4747C2.69727 10.3462 1.95024 10.3877 1.90873 10.3877L1.36921 10.4292L1.61822 10.9688C1.86723 11.4668 2.48976 11.8818 3.11228 11.8818ZM3.85932 9.76522C4.14983 9.4332 4.48184 9.3502 4.77235 9.3502C5.18737 9.3502 5.51939 9.59921 5.51939 9.59921C4.35734 10.2217 4.10833 11.2178 3.4443 11.4668C3.31979 11.5083 3.23679 11.5083 3.11228 11.5083C2.61426 11.5083 2.15775 11.1763 1.99174 10.8443C1.99174 10.8028 2.90478 10.7198 3.85932 9.76522ZM5.76839 16.53C5.68539 14.9944 6.10041 13.7909 6.72293 12.7533C6.39092 13.7909 6.43242 15.1189 7.59447 16.3225C7.59447 16.3225 5.31188 13.5834 8.50751 10.7198C9.79406 9.64071 11.2051 8.97668 11.9107 8.52016C9.29604 9.3917 8.00949 8.43716 8.00949 8.43716C8.83952 9.14269 9.91857 9.14269 10.5826 9.05969C10.4166 9.14269 10.2091 9.22569 10.0016 9.3502C7.80198 10.5537 5.8099 12.5458 5.47788 15.2434V15.2019C4.97986 17.8996 3.81781 18.5636 3.81781 18.5636C4.73085 18.1071 5.31188 16.945 5.43638 16.4885C5.60239 18.8541 6.72293 20.4727 8.09249 22.0497C8.79802 22.8798 9.04703 23.6683 9.04703 23.6683C9.04703 23.6683 8.92253 22.7553 8.3 22.0497C7.05495 20.5972 5.8514 18.7296 5.76839 16.53Z" fill="black"/>
<path d="M16.0233 11.0105L16.0229 11.5502C16.2304 11.3427 16.5624 11.3842 16.5624 11.3842V12.1727C16.5624 12.1727 16.5624 12.5462 16.3964 12.7122H17.1434C17.0189 12.5462 16.9774 12.1727 16.9774 12.1727V11.3842C16.9774 11.3842 17.3509 11.3427 17.5169 11.5502V11.0107L16.0233 11.0105ZM15.6909 7.81504C15.9399 8.02255 16.1059 8.06405 16.1059 8.06405L16.1889 8.10555V7.60753L15.2758 7.23401C15.2758 7.19251 15.2758 7.48303 15.6909 7.81504ZM17.8909 7.81485C18.3059 7.48284 18.3059 7.19233 18.3059 7.19233L17.3929 7.56584L17.3924 8.06405L17.4754 8.02255C17.4754 8.02255 17.6419 7.98086 17.8909 7.81485Z" fill="black"/>
<path d="M19.5473 5.73963C19.5473 4.9511 18.2607 4.28707 16.8082 4.28707C15.3556 4.28707 14.0691 4.9926 14.0691 5.73963L14.1106 5.94714L14.6916 9.26728L14.1106 9.59929L12.575 10.4293C12.575 10.4293 12.243 10.5953 12.077 10.7198C11.496 11.1349 11.3715 11.6744 11.7035 11.9234C11.7865 11.4669 12.16 10.9689 12.8655 10.9689C13.3635 10.9689 13.7371 11.2179 14.0691 11.6329C14.1521 11.7159 14.2351 11.8404 14.2766 11.9649L14.5256 12.3384H10.6659C10.9564 12.9194 11.2054 13.5005 11.2054 14.1645V22.6723C11.2054 24.7474 12.7825 25.702 14.5256 25.702C15.8536 25.702 16.0196 25.6605 16.7667 26.366C17.5137 25.619 17.6797 25.702 19.0078 25.702C20.7093 25.702 22.3279 24.7059 22.3279 22.6723V14.123C22.3279 13.459 22.5769 12.8779 22.8674 12.2969H19.0078L19.2568 11.9234C19.3398 11.7989 19.4228 11.7159 19.4643 11.5914C19.7548 11.2179 20.1698 10.9273 20.6678 10.9273C21.3734 10.9273 21.7469 11.4254 21.8299 11.8819C22.1619 11.6329 22.0374 11.0519 21.4564 10.6783C21.2904 10.5538 20.9584 10.3878 20.9584 10.3878L18.9248 9.22578L19.5058 5.90564L19.5473 5.73963ZM14.6086 6.11315L16.6422 6.81868V10.0143L15.1481 9.18428L14.6086 6.11315ZM15.0236 12.8364C15.3556 13.1684 15.6876 13.376 15.9781 13.5005C15.9366 13.6665 15.8951 13.9985 16.0196 14.3305C16.1442 14.5795 16.3517 14.787 16.6837 14.953C16.7252 15.285 16.9327 15.7831 17.5137 15.9906L16.9327 16.5716L14.6086 16.5301C14.5671 16.4886 14.4841 16.4471 14.4426 16.3641V16.3226L14.8161 16.3641H14.8576C14.9406 16.3641 14.9821 16.3226 15.0236 16.2396C15.0236 16.1566 14.9821 16.0736 14.8991 16.0736L14.4426 15.9906L14.9406 14.206L14.4426 13.1684L13.6541 13.9985L13.6125 15.8661L13.073 15.7831C12.99 15.7831 12.907 15.8246 12.907 15.9076C12.907 15.9906 12.9485 16.0736 13.0315 16.0736L13.239 16.1151C13.156 16.1566 13.1145 16.1981 13.1145 16.1981L13.0315 16.2396V16.2811C12.907 16.8206 13.1975 17.2771 13.488 17.5261V17.6091C13.488 17.6921 13.488 17.7751 13.5295 17.8166C13.571 17.8996 13.654 17.9411 13.7371 17.9411H13.7786C13.9031 17.9411 14.0276 17.8581 14.0691 17.6921H14.4011L17.4307 18.2317L17.4722 18.1902C17.7212 18.0241 18.6343 17.3601 18.9248 17.1111C19.0078 17.1941 19.0908 17.2356 19.2153 17.3186C19.1323 17.6506 19.0908 18.1487 19.5058 18.5637H11.7865V14.123C11.7865 13.708 11.662 13.2514 11.496 12.8364H15.0236ZM18.7588 16.9451C18.4683 17.1526 17.6797 17.7336 17.3892 17.9411L14.6086 17.4431V17.3601C14.6501 17.2356 14.6916 17.0281 14.6916 16.7791L17.0157 16.8206L17.0572 16.7791C17.0987 16.7376 17.8457 16.0321 18.2192 15.617C18.3022 15.7416 18.4268 15.8246 18.5513 15.9491C18.5513 16.2396 18.5513 16.6131 18.7588 16.9451ZM14.1521 16.4471C14.2351 16.5716 14.3181 16.6546 14.4011 16.7376C14.4011 16.8621 14.4011 17.0696 14.3596 17.2356C14.3596 17.2771 14.3596 17.3186 14.3181 17.3601V17.4016C14.1936 17.4016 13.9446 17.4016 13.7786 17.3186C13.571 17.2356 13.239 16.8206 13.322 16.4056C13.405 16.3641 13.6541 16.2396 13.8201 16.2396C13.9861 16.2396 14.0691 16.2811 14.1521 16.4471ZM13.8618 15.9075L13.9033 14.1229L14.3183 13.7079L14.5673 14.2474L14.0693 15.949L13.8618 15.9075ZM18.7588 25.1209H18.3437L18.6758 24.1249C18.7173 24.0004 18.4683 23.7929 18.3437 23.6269C18.5098 23.7099 18.9248 23.9589 19.1323 24.0419C19.0908 24.0834 18.7588 25.1209 18.7588 25.1209ZM19.7963 23.9589L19.5888 25.0794C19.4643 25.0794 19.2983 25.1209 19.1738 25.1209L19.3813 24.0419C19.4643 23.7099 18.5928 23.6269 18.1777 23.0044C17.9702 23.2534 17.5967 23.2949 17.1817 23.2949C16.8082 23.2949 16.4762 23.2534 16.2687 23.2119H16.1027C15.9781 23.2119 15.8536 23.2534 15.7706 23.3779L15.6876 23.5024L14.5256 23.1704L14.2351 23.6684C14.1936 23.7514 14.1936 23.7929 14.2766 23.8759L14.3596 23.9589C14.3181 24.1249 14.0691 24.3739 14.0691 24.3739L13.9031 24.1664C13.7786 24.0004 13.7786 23.7099 13.9446 23.4609L14.4011 22.6723L15.3971 22.7968L15.2311 22.4648C15.0236 22.0083 15.3556 21.4273 15.3556 21.0538C15.3556 21.1368 15.2311 21.1783 15.1481 21.1783H14.7746L14.5256 21.3443L14.3181 21.1368C14.2766 21.0953 14.2766 21.0123 14.3596 20.9708L14.8576 20.4312L14.2766 19.7672L15.1066 20.1822L15.3556 19.8917C15.4386 19.9747 15.3971 20.1407 15.3971 20.1407C15.6461 20.1407 16.3517 20.5558 16.3932 21.4688V21.5933C16.4347 21.6763 16.6007 21.8423 16.7667 21.8423L17.8872 21.9668C18.0117 21.9668 18.2607 21.8423 18.5513 21.8423C18.7173 21.8423 18.9248 21.8838 19.1323 22.0083C19.1323 22.0083 19.2153 21.9253 19.3813 21.9253H19.4228C19.9208 21.9253 20.1283 22.3818 20.4188 22.7553C20.6263 23.0459 20.8754 23.4609 20.8754 23.4609C20.7923 23.5854 20.6678 23.6269 20.5433 23.6269H20.4188C19.8793 23.5439 19.7963 22.4233 19.5058 22.3403H19.4643C19.3813 22.3403 19.3398 22.4233 19.3398 22.4233C19.4643 22.7968 19.3813 22.9629 19.5473 23.2534C19.6718 23.4609 19.8793 23.6269 19.9623 23.7514C19.8378 23.6684 19.7963 23.8344 19.7963 23.9589ZM13.7371 22.9214L13.7786 23.0459C13.7371 23.1704 13.3635 23.3364 13.3635 23.3364L13.2805 23.1289C13.1975 22.9214 13.1975 22.5893 13.488 22.3818L14.1106 22.0083L14.7746 22.1328C14.7746 22.3403 14.8991 22.5063 14.8991 22.5063L14.1936 22.3818L13.7786 22.6723C13.7371 22.7138 13.7371 22.8383 13.7371 22.9214ZM19.8793 25.0379L20.0868 24.0419C20.0868 24.0004 20.1283 23.9174 20.1283 23.8759C20.1698 23.9174 20.2528 23.9174 20.2943 23.9174H20.5018C20.7923 23.9174 20.9584 23.7514 21.0829 23.6269L21.2489 23.4609L21.1244 23.2534C21.1244 23.2534 20.8339 22.7968 20.6263 22.5063C20.5848 22.4648 20.5433 22.3818 20.5018 22.3403C20.2528 22.0083 19.9623 21.5518 19.3813 21.5518H19.3398C19.2568 21.5518 19.1738 21.5933 19.0908 21.5933C18.9248 21.5103 18.7173 21.4688 18.5098 21.4688C18.2607 21.4688 18.0532 21.5518 17.9287 21.5933C17.8872 21.6348 17.8457 21.6348 17.8042 21.6348L16.7252 21.5103C16.7252 21.5103 16.6837 21.4688 16.6007 21.4273L16.8497 21.3443C16.7667 20.5558 16.0196 20.0577 15.6046 19.8917C15.6046 19.8087 15.5631 19.7257 15.4801 19.6842L15.2311 19.4767L15.0236 19.7257L14.9406 19.8087L13.405 19.1862L14.4011 20.4312L14.0276 21.0123C13.9031 21.1783 14.0276 21.3028 14.0276 21.3028L14.4426 21.5933L14.8576 21.4273H14.8991C14.8991 21.5103 14.8576 21.7593 14.8161 21.8008L14.1106 21.7178L13.322 22.1328C12.907 22.4233 12.8655 22.9214 13.0315 23.2119L13.239 23.6269L13.488 23.5024C13.405 23.7929 13.4465 24.1249 13.6125 24.2909L13.7786 24.4984L13.9861 24.7889L14.2351 24.5399C14.3181 24.4569 14.5256 24.2079 14.6086 24.0004L14.6501 23.8344L14.5256 23.7099V23.6684L14.6501 23.4609L15.6046 23.6684L15.8121 23.7099L15.9366 23.5024L15.9781 23.4194C15.9781 23.3779 15.9781 23.3779 16.0196 23.3779H16.1442C16.5177 23.4609 16.8497 23.4609 17.1402 23.4609C17.4307 23.4609 17.5967 23.4609 17.8042 23.3779C17.8042 23.3779 18.3022 23.9589 18.3437 24.0004L18.0117 24.9549V24.9964C17.4307 25.0379 17.1402 25.1624 16.7667 25.536C16.2687 25.0379 15.8951 24.9964 14.5256 24.9964C12.907 24.9964 11.7865 24.0419 11.7865 22.5063V18.7712H21.7469V22.5063C21.7469 23.8759 21.0414 24.7474 19.8793 25.0379ZM22.0374 12.8364C21.8714 13.2514 21.7469 13.6665 21.7469 14.123V16.9036C21.1659 16.8206 21.0829 16.1566 21.0829 16.1566V16.0321H20.9584C20.7093 15.9906 20.5433 15.9076 20.3773 15.7831C20.0868 15.4925 20.0868 15.036 20.0868 15.036C20.0868 15.0775 19.7548 15.4925 20.1283 15.9906C20.2943 16.1981 20.5018 16.3226 20.7923 16.3641C20.8754 16.6961 21.1244 17.1941 21.7469 17.2771V18.6467H20.0038C19.2153 18.1902 19.5473 17.4431 19.5473 17.4016L19.6303 17.2356L19.5058 17.1111C18.6343 16.7791 18.8833 15.9491 18.8833 15.9076L18.9248 15.7831L18.8003 15.7416C18.0947 15.4095 18.1777 14.538 18.1777 14.4965C17.9702 14.6625 17.8872 15.036 18.0117 15.4095C17.9287 15.4925 17.8042 15.617 17.7212 15.7416C17.0157 15.534 17.0157 14.8285 17.0157 14.8285V14.704L16.9327 14.6625C16.6422 14.538 16.4347 14.4135 16.3517 14.1645C16.2272 13.9155 16.2687 13.6665 16.3102 13.542C16.3932 13.542 16.4762 13.5835 16.5592 13.5835H17.0572C17.5137 13.542 18.0119 13.3344 18.5515 12.7949L22.0374 12.7949V12.8364ZM19.3398 10.0143L20.0038 10.4293L20.1698 10.5123C19.7963 10.6368 19.5058 10.8028 19.2568 11.0519L19.2153 11.0934C19.1738 11.1349 19.0908 11.2179 19.0493 11.3009C19.0493 11.3009 19.0493 11.3424 19.0078 11.3424C18.9663 11.4254 18.9248 11.4669 18.8418 11.5499C18.8418 11.5499 18.8418 11.5914 18.8003 11.5914C18.7588 11.6744 18.6758 11.7574 18.6343 11.8404C18.1362 12.6704 17.3892 13.1684 16.6837 13.1684C15.9781 13.1684 15.2311 12.6704 14.7331 11.8404C14.6916 11.7574 14.6086 11.6744 14.5671 11.5914L14.5256 11.5499C14.4841 11.4669 14.4426 11.4254 14.4011 11.3424L14.3596 11.3009C14.3181 11.2179 14.2351 11.1764 14.1936 11.0934L14.1521 11.0519C13.9031 10.8028 13.6125 10.5953 13.239 10.5123L13.405 10.4293L14.0691 10.0143L14.7746 9.59929L16.6422 10.6368L18.5098 9.59929L19.3398 10.0143ZM18.4268 9.18428L16.9327 9.97281V6.77718L18.9663 6.07165L18.4268 9.18428ZM16.7667 6.44524L14.5671 5.57371C14.7746 5.11719 15.6047 4.74367 16.7667 4.74367C17.9287 4.74367 18.8003 5.11719 18.9663 5.57371L16.7667 6.44524Z" fill="black"/>
</svg>
