<svg width="110" height="20" viewBox="0 0 110 20" fill="none" xmlns="http://www.w3.org/2000/svg">
<path fill-rule="evenodd" clip-rule="evenodd" d="M8.10515 14.9516H5.29947L3.19555 6.83615C3.09569 6.46285 2.88365 6.13282 2.57176 5.97727C1.79339 5.58638 0.935683 5.27529 0 5.11839V4.80595H4.51973C5.14352 4.80595 5.61136 5.27529 5.68933 5.82038L6.78096 11.6743L9.58528 4.80595H12.313L8.10515 14.9516ZM13.8846 14.9516H11.2423L13.4181 4.80595H16.0604L13.8846 14.9516ZM19.4225 7.3802C19.5005 6.82235 19.9685 6.50338 20.5145 6.50338C21.3726 6.42329 22.3072 6.58346 23.0873 6.98114L23.5553 4.75112C22.7752 4.43215 21.9172 4.27197 21.1385 4.27197C18.5658 4.27197 16.6937 5.70664 16.6937 7.69779C16.6937 9.21254 18.0198 10.0079 18.9558 10.487C19.9685 10.9648 20.3585 11.2838 20.2805 11.7615C20.2805 12.4782 19.5005 12.7972 18.7218 12.7972C17.7858 12.7972 16.8498 12.5583 15.9931 12.1592L15.5251 14.3906C16.4611 14.7883 17.4738 14.9485 18.4098 14.9485C21.2946 15.0272 23.0873 13.5939 23.0873 11.4426C23.0873 8.7334 19.4225 8.57461 19.4225 7.3802ZM32.1208 14.9516L29.9528 4.80595H27.6241C27.142 4.80595 26.6599 5.11839 26.4992 5.58638L22.4846 14.9516H25.2954L25.8564 13.4691H29.31L29.6314 14.9516H32.1208ZM27.9538 6.94187L28.9087 11.7477H26.232L27.9538 6.94187Z" fill="#172B85"/>
<path d="M55.1341 17.1693H46.7031V2.05619H55.1341V17.1693Z" fill="#FF5F00"/>
<path d="M47.243 9.61163C47.243 6.54585 48.6821 3.81495 50.9232 2.05505C49.2843 0.768123 47.2161 0 44.9683 0C39.6469 0 35.3333 4.3032 35.3333 9.61163C35.3333 14.92 39.6469 19.2233 44.9683 19.2233C47.2161 19.2233 49.2843 18.4551 50.9232 17.1682C48.6821 15.4083 47.243 12.6774 47.243 9.61163Z" fill="#EB001B"/>
<path d="M66.5053 9.61168C66.5053 14.9201 62.1917 19.2233 56.8703 19.2233C54.6225 19.2233 52.5542 18.4552 50.9148 17.1683C53.1564 15.4084 54.5955 12.6775 54.5955 9.61168C54.5955 6.54591 53.1564 3.815 50.9148 2.0551C52.5542 0.768176 54.6225 5.28299e-05 56.8703 5.28299e-05C62.1917 5.28299e-05 66.5053 4.30325 66.5053 9.61168Z" fill="#F79E1B"/>
<path d="M42.7272 9.67246C42.7272 9.25263 43.003 8.90772 43.4537 8.90772C43.8844 8.90772 44.1751 9.23776 44.1751 9.67246C44.1751 10.1072 43.8844 10.4372 43.4537 10.4372C43.003 10.4372 42.7272 10.0923 42.7272 9.67246ZM44.666 8.47817H44.1453V8.76816C43.9802 8.5531 43.7296 8.41811 43.3889 8.41811C42.7174 8.41811 42.191 8.94319 42.191 9.67246C42.191 10.4023 42.7174 10.9268 43.3889 10.9268C43.7296 10.9268 43.9802 10.7918 44.1453 10.5768V10.8668H44.666V8.47817ZM62.2616 9.67246C62.2616 9.25263 62.5374 8.90772 62.9882 8.90772C63.4194 8.90772 63.7095 9.23776 63.7095 9.67246C63.7095 10.1072 63.4194 10.4372 62.9882 10.4372C62.5374 10.4372 62.2616 10.0923 62.2616 9.67246ZM64.201 7.51896H63.6797V8.76816C63.5146 8.5531 63.264 8.41811 62.9233 8.41811C62.2518 8.41811 61.7254 8.94319 61.7254 9.67246C61.7254 10.4023 62.2518 10.9268 62.9233 10.9268C63.264 10.9268 63.5146 10.7918 63.6797 10.5768V10.8668H64.201V7.51896ZM51.1293 8.88313C51.4648 8.88313 51.6804 9.09305 51.7354 9.46254H50.4928C50.5484 9.11764 50.7583 8.88313 51.1293 8.88313ZM51.1396 8.41811C50.4377 8.41811 49.9469 8.92774 49.9469 9.67246C49.9469 10.432 50.4578 10.9268 51.1746 10.9268C51.5353 10.9268 51.8656 10.837 52.1563 10.5922L51.9012 10.2073C51.7005 10.3668 51.4447 10.4572 51.2044 10.4572C50.869 10.4572 50.5633 10.3022 50.4882 9.87208H52.2664C52.2716 9.80745 52.2768 9.74224 52.2768 9.67246C52.2716 8.92774 51.8106 8.41811 51.1396 8.41811ZM57.4269 9.67246C57.4269 9.25263 57.7027 8.90772 58.1534 8.90772C58.5841 8.90772 58.8748 9.23776 58.8748 9.67246C58.8748 10.1072 58.5841 10.4372 58.1534 10.4372C57.7027 10.4372 57.4269 10.0923 57.4269 9.67246ZM59.3657 8.47817H58.845V8.76816C58.6793 8.5531 58.4293 8.41811 58.0886 8.41811C57.4171 8.41811 56.8907 8.94319 56.8907 9.67246C56.8907 10.4023 57.4171 10.9268 58.0886 10.9268C58.4293 10.9268 58.6793 10.7918 58.845 10.5768V10.8668H59.3657V8.47817ZM54.4863 9.67246C54.4863 10.3972 54.992 10.9268 55.7639 10.9268C56.1246 10.9268 56.3649 10.8467 56.6252 10.642L56.3752 10.2221C56.1796 10.3623 55.9743 10.4372 55.7484 10.4372C55.3327 10.432 55.027 10.1323 55.027 9.67246C55.027 9.21259 55.3327 8.91287 55.7484 8.90772C55.9743 8.90772 56.1796 8.98265 56.3752 9.12279L56.6252 8.70295C56.3649 8.49819 56.1246 8.41811 55.7639 8.41811C54.992 8.41811 54.4863 8.94776 54.4863 9.67246ZM61.1996 8.41811C60.8991 8.41811 60.7035 8.55824 60.5682 8.76816V8.47817H60.0521V10.8668H60.5734V9.52775C60.5734 9.13251 60.7437 8.91287 61.0843 8.91287C61.1898 8.91287 61.2999 8.92774 61.41 8.97293L61.5706 8.48331C61.4553 8.43813 61.3051 8.41811 61.1996 8.41811ZM47.2413 8.66806C46.9908 8.50333 46.6455 8.41811 46.2648 8.41811C45.6581 8.41811 45.2675 8.7081 45.2675 9.18285C45.2675 9.57236 45.5583 9.8126 46.0939 9.88752L46.3399 9.92241C46.6255 9.96245 46.7602 10.0374 46.7602 10.1724C46.7602 10.3571 46.5698 10.4624 46.2143 10.4624C45.8536 10.4624 45.5933 10.3474 45.4178 10.2124L45.1724 10.6168C45.4579 10.8267 45.8186 10.9268 46.2091 10.9268C46.9007 10.9268 47.3016 10.6019 47.3016 10.1472C47.3016 9.72737 46.9862 9.50773 46.4649 9.4328L46.2195 9.39734C45.9941 9.36759 45.8135 9.32298 45.8135 9.16283C45.8135 8.9878 45.9838 8.88313 46.2694 8.88313C46.575 8.88313 46.8709 8.9981 47.016 9.0879L47.2413 8.66806ZM53.9598 8.41811C53.6593 8.41811 53.4638 8.55824 53.329 8.76816V8.47817H52.8129V10.8668H53.3336V9.52775C53.3336 9.13251 53.5039 8.91287 53.8446 8.91287C53.9501 8.91287 54.0602 8.92774 54.1703 8.97293L54.3308 8.48331C54.2156 8.43813 54.0653 8.41811 53.9598 8.41811ZM49.5162 8.47817H48.6646V7.75347H48.1382V8.47817H47.6525V8.95291H48.1382V10.0425C48.1382 10.5968 48.3538 10.9268 48.9697 10.9268C49.1956 10.9268 49.456 10.857 49.6211 10.7421L49.4709 10.2971C49.3155 10.3869 49.1452 10.432 49.0099 10.432C48.7495 10.432 48.6646 10.2719 48.6646 10.0322V8.95291H49.5162V8.47817ZM41.7305 10.8668V9.3676C41.7305 8.80305 41.3698 8.42326 40.7884 8.41811C40.4827 8.41296 40.1673 8.50791 39.9466 8.84309C39.7814 8.57826 39.5211 8.41811 39.1552 8.41811C38.8994 8.41811 38.6494 8.49304 38.4539 8.77274V8.47817H37.9326V10.8668H38.4585V9.54262C38.4585 9.12794 38.689 8.90772 39.0451 8.90772C39.3909 8.90772 39.5658 9.13251 39.5658 9.53747V10.8668H40.0922V9.54262C40.0922 9.12794 40.3325 8.90772 40.6783 8.90772C41.0338 8.90772 41.2041 9.13251 41.2041 9.53747V10.8668H41.7305Z" fill="white"/>
<path fill-rule="evenodd" clip-rule="evenodd" d="M74.5141 4.11803C74.8634 4.11594 75.9016 4.0223 76.3413 5.50863C76.6376 6.50984 77.1094 8.14987 77.7569 10.4287H78.0206C78.7151 8.0262 79.1921 6.38617 79.4517 5.50863C79.896 4.00682 81.0069 4.11806 81.4512 4.11806L84.8794 4.11807V14.7976H81.3853V8.50398H81.151L79.2032 14.7976H76.5744L74.6266 8.49932H74.3923V14.7976H70.8982V4.11807L74.5141 4.11803ZM89.8968 4.11807V10.4164H90.1756L92.5449 5.23732C93.0048 4.20668 93.985 4.11807 93.985 4.11807H97.3663V14.7976H93.7992V8.49932H93.5205L91.1976 13.6784C90.7377 14.7044 89.711 14.7976 89.711 14.7976H86.3298V4.11807H89.8968ZM109.696 9.19307C109.198 10.6051 107.636 11.6164 105.906 11.6164H102.165V14.7976H98.7727V9.19307H109.696Z" fill="#0F754E"/>
<path fill-rule="evenodd" clip-rule="evenodd" d="M106.069 4.11807H98.5948C98.7727 6.4957 100.817 8.53112 102.934 8.53112H109.931C110.335 6.55502 108.945 4.11807 106.069 4.11807Z" fill="url(#paint0_linear_1436_7722)"/>
<defs>
<linearGradient id="paint0_linear_1436_7722" x1="110" y1="10.8353" x2="70.8982" y2="10.8353" gradientUnits="userSpaceOnUse">
<stop stop-color="#1F5CD7"/>
<stop offset="1" stop-color="#02AEFF"/>
</linearGradient>
</defs>
</svg>
