<svg width="204" height="36" viewBox="0 0 204 36" fill="none" xmlns="http://www.w3.org/2000/svg">
<path fill-rule="evenodd" clip-rule="evenodd" d="M15.0311 27.903H9.82785L5.92603 12.8526C5.74083 12.1603 5.34761 11.5482 4.76918 11.2597C3.32566 10.5348 1.735 9.95788 -0.000274658 9.6669V9.08746H8.3818C9.53864 9.08746 10.4063 9.95788 10.5509 10.9688L12.5754 21.8251L17.7761 9.08746H22.8348L15.0311 27.903ZM25.7495 27.903H20.8491L24.8842 9.08746H29.7846L25.7495 27.903ZM36.0197 13.8615C36.1644 12.827 37.0323 12.2354 38.0449 12.2354C39.6362 12.0869 41.3696 12.3839 42.8162 13.1215L43.6842 8.98577C42.2376 8.39422 40.6463 8.09717 39.2022 8.09717C34.431 8.09717 30.9591 10.7578 30.9591 14.4505C30.9591 17.2597 33.4183 18.7347 35.1543 19.6233C37.0323 20.5094 37.7556 21.1009 37.611 21.9869C37.611 23.316 36.1644 23.9075 34.7203 23.9075C32.9844 23.9075 31.2484 23.4645 29.6597 22.7245L28.7917 26.8627C30.5277 27.6002 32.4057 27.8973 34.1417 27.8973C39.4916 28.0432 42.8162 25.3851 42.8162 21.3954C42.8162 16.3711 36.0197 16.0766 36.0197 13.8615ZM59.5694 27.903L55.5487 9.08746H51.23C50.3359 9.08746 49.4419 9.6669 49.1439 10.5348L41.6985 27.903H46.9113L47.9518 25.1538H54.3566L54.9527 27.903H59.5694ZM51.8415 13.0486L53.6125 21.9612H48.6483L51.8415 13.0486Z" fill="#172B85"/>
<path d="M102.249 32.0162H86.6131V3.98811H102.249V32.0162Z" fill="#FF5F00"/>
<path d="M87.6144 18C87.6144 12.3144 90.2832 7.24982 94.4394 3.986C91.4001 1.59933 87.5644 0.174805 83.3957 0.174805C73.5269 0.174805 65.5271 8.15531 65.5271 18C65.5271 27.8448 73.5269 35.8253 83.3957 35.8253C87.5644 35.8253 91.4001 34.4008 94.4394 32.0141C90.2832 28.7503 87.6144 23.6857 87.6144 18Z" fill="#EB001B"/>
<path d="M123.337 18.0001C123.337 27.8449 115.337 35.8254 105.469 35.8254C101.3 35.8254 97.4642 34.4009 94.4238 32.0142C98.5811 28.7504 101.25 23.6858 101.25 18.0001C101.25 12.3145 98.5811 7.24992 94.4238 3.9861C97.4642 1.59943 101.3 0.174903 105.469 0.174903C115.337 0.174903 123.337 8.15541 123.337 18.0001Z" fill="#F79E1B"/>
<path d="M79.2395 18.1129C79.2395 17.3343 79.7511 16.6946 80.587 16.6946C81.3856 16.6946 81.9248 17.3067 81.9248 18.1129C81.9248 18.9191 81.3856 19.5311 80.587 19.5311C79.7511 19.5311 79.2395 18.8915 79.2395 18.1129ZM82.8352 15.898H81.8695V16.4358C81.5632 16.037 81.0985 15.7866 80.4668 15.7866C79.2214 15.7866 78.2452 16.7604 78.2452 18.1129C78.2452 19.4664 79.2214 20.4391 80.4668 20.4391C81.0985 20.4391 81.5632 20.1888 81.8695 19.7899V20.3277H82.8352V15.898ZM115.467 18.1129C115.467 17.3343 115.979 16.6946 116.815 16.6946C117.614 16.6946 118.152 17.3067 118.152 18.1129C118.152 18.9191 117.614 19.5311 116.815 19.5311C115.979 19.5311 115.467 18.8915 115.467 18.1129ZM119.064 14.1191H118.097V16.4358C117.791 16.037 117.326 15.7866 116.694 15.7866C115.449 15.7866 114.473 16.7604 114.473 18.1129C114.473 19.4664 115.449 20.4391 116.694 20.4391C117.326 20.4391 117.791 20.1888 118.097 19.7899V20.3277H119.064V14.1191ZM94.8217 16.649C95.4438 16.649 95.8437 17.0383 95.9458 17.7236H93.6412C93.7444 17.0839 94.1336 16.649 94.8217 16.649ZM94.8408 15.7866C93.5391 15.7866 92.6288 16.7318 92.6288 18.1129C92.6288 19.5216 93.5763 20.4391 94.9057 20.4391C95.5746 20.4391 96.1872 20.2726 96.7264 19.8186L96.2531 19.1047C95.8809 19.4006 95.4066 19.5682 94.961 19.5682C94.3389 19.5682 93.772 19.2808 93.6327 18.4831H96.9306C96.9401 18.3632 96.9497 18.2423 96.9497 18.1129C96.9401 16.7318 96.0851 15.7866 94.8408 15.7866ZM106.501 18.1129C106.501 17.3343 107.012 16.6946 107.848 16.6946C108.647 16.6946 109.186 17.3067 109.186 18.1129C109.186 18.9191 108.647 19.5311 107.848 19.5311C107.012 19.5311 106.501 18.8915 106.501 18.1129ZM110.096 15.898H109.131V16.4358C108.823 16.037 108.36 15.7866 107.728 15.7866C106.483 15.7866 105.506 16.7604 105.506 18.1129C105.506 19.4664 106.483 20.4391 107.728 20.4391C108.36 20.4391 108.823 20.1888 109.131 19.7899V20.3277H110.096V15.898ZM101.047 18.1129C101.047 19.4569 101.985 20.4391 103.417 20.4391C104.086 20.4391 104.531 20.2906 105.014 19.9109L104.55 19.1323C104.188 19.3922 103.807 19.5311 103.388 19.5311C102.617 19.5216 102.05 18.9657 102.05 18.1129C102.05 17.26 102.617 16.7042 103.388 16.6946C103.807 16.6946 104.188 16.8336 104.55 17.0935L105.014 16.3149C104.531 15.9351 104.086 15.7866 103.417 15.7866C101.985 15.7866 101.047 16.7689 101.047 18.1129ZM113.497 15.7866C112.94 15.7866 112.578 16.0465 112.327 16.4358V15.898H111.369V20.3277H112.336V17.8445C112.336 17.1115 112.652 16.7042 113.284 16.7042C113.479 16.7042 113.684 16.7318 113.888 16.8156L114.186 15.9075C113.972 15.8237 113.693 15.7866 113.497 15.7866ZM87.6113 16.2502C87.1465 15.9447 86.5063 15.7866 85.8002 15.7866C84.675 15.7866 83.9508 16.3244 83.9508 17.2049C83.9508 17.9272 84.4899 18.3728 85.4832 18.5117L85.9395 18.5764C86.4691 18.6507 86.719 18.7896 86.719 19.04C86.719 19.3826 86.3659 19.5778 85.7066 19.5778C85.0376 19.5778 84.5548 19.3646 84.2294 19.1142L83.7742 19.8642C84.3038 20.2535 84.9728 20.4391 85.697 20.4391C86.9796 20.4391 87.7229 19.8366 87.7229 18.9933C87.7229 18.2147 87.138 17.8074 86.1713 17.6684L85.7161 17.6026C85.2982 17.5475 84.9632 17.4647 84.9632 17.1677C84.9632 16.8431 85.279 16.649 85.8087 16.649C86.3755 16.649 86.9243 16.8622 87.1933 17.0288L87.6113 16.2502ZM100.071 15.7866C99.5138 15.7866 99.1511 16.0465 98.9012 16.4358V15.898H97.9441V20.3277H98.9097V17.8445C98.9097 17.1115 99.2256 16.7042 99.8573 16.7042C100.053 16.7042 100.257 16.7318 100.461 16.8156L100.759 15.9075C100.545 15.8237 100.267 15.7866 100.071 15.7866ZM91.8301 15.898H90.2508V14.554H89.2746V15.898H88.3738V16.7784H89.2746V18.7992C89.2746 19.8271 89.6744 20.4391 90.8166 20.4391C91.2356 20.4391 91.7184 20.3097 92.0247 20.0965L91.7461 19.2712C91.4579 19.4378 91.142 19.5216 90.891 19.5216C90.4082 19.5216 90.2508 19.2246 90.2508 18.7801V16.7784H91.8301V15.898ZM77.3912 20.3277V17.5475C77.3912 16.5005 76.7223 15.7962 75.6439 15.7866C75.0771 15.7771 74.4921 15.9532 74.0827 16.5748C73.7764 16.0836 73.2936 15.7866 72.6151 15.7866C72.1408 15.7866 71.6771 15.9256 71.3145 16.4443V15.898H70.3477V20.3277H71.323V17.8721C71.323 17.103 71.7505 16.6946 72.4109 16.6946C73.0522 16.6946 73.3765 17.1115 73.3765 17.8625V20.3277H74.3528V17.8721C74.3528 17.103 74.7984 16.6946 75.4397 16.6946C76.0991 16.6946 76.4149 17.1115 76.4149 17.8625V20.3277H77.3912Z" fill="white"/>
<path fill-rule="evenodd" clip-rule="evenodd" d="M138.19 7.81197C138.838 7.80809 140.763 7.63443 141.579 10.3909C142.128 12.2477 143.003 15.2892 144.204 19.5155H144.693C145.981 15.0599 146.866 12.0183 147.347 10.3909C148.171 7.60572 150.231 7.81203 151.055 7.81203L157.413 7.81204V27.6178H150.933V15.9459H150.498L146.886 27.6178H142.011L138.399 15.9373H137.964V27.6178H131.484V7.81204L138.19 7.81197ZM166.718 7.81204V19.4926H167.235L171.629 9.88775C172.482 7.97636 174.3 7.81204 174.3 7.81204H180.571V27.6178H173.955V15.9373H173.438L169.13 25.5421C168.278 27.4449 166.373 27.6178 166.373 27.6178H160.103V7.81204H166.718ZM203.436 17.2239C202.513 19.8426 199.615 21.718 196.407 21.718H189.47V27.6178H183.179V17.2239H203.436Z" fill="#0F754E"/>
<path fill-rule="evenodd" clip-rule="evenodd" d="M196.71 7.81204H182.849C183.179 12.2215 186.971 15.9963 190.896 15.9963H203.873C204.622 12.3315 202.044 7.81204 196.71 7.81204Z" fill="url(#paint0_linear_818_10259)"/>
<defs>
<linearGradient id="paint0_linear_818_10259" x1="204" y1="20.2695" x2="131.484" y2="20.2695" gradientUnits="userSpaceOnUse">
<stop stop-color="#1F5CD7"/>
<stop offset="1" stop-color="#02AEFF"/>
</linearGradient>
</defs>
</svg>
