<svg width="101" height="19" viewBox="0 0 101 19" fill="none" xmlns="http://www.w3.org/2000/svg">
<path d="M4.86362 10.0359L2.05315 16.275H0L3.08814 9.60385C2.36449 9.23831 1.78389 8.7066 1.33791 8.00044C0.891943 7.29427 0.673165 6.33887 0.673165 5.11762C0.673165 4.27022 0.799383 3.52252 1.05182 2.87451C1.30426 2.2265 1.64925 1.6948 2.08681 1.2711C2.52437 0.847398 3.03766 0.523393 3.61826 0.315697C4.19886 0.0996939 4.82154 0 5.46105 0H8.11163V16.2833H6.33616V10.0442H4.86362V10.0359ZM6.33616 1.45387H5.39373C5.04032 1.45387 4.69532 1.52033 4.35874 1.64495C4.02216 1.77788 3.71923 1.97726 3.45838 2.25973C3.19753 2.5422 2.98717 2.91605 2.82729 3.38129C2.66741 3.84652 2.58327 4.41976 2.58327 5.10931C2.58327 5.76563 2.659 6.31395 2.80205 6.75426C2.9451 7.19458 3.14704 7.55182 3.39948 7.82597C3.65192 8.10013 3.95484 8.29121 4.29984 8.40752C4.64484 8.52383 5.00666 8.58199 5.39373 8.58199H6.33616V1.45387Z" fill="#EE2E24"/>
<path d="M16.6692 4.80193V16.275H14.8938V11.1325H12.2179V16.275H10.4172V4.80193H12.2179V9.67862H14.8938V4.80193H16.6692ZM25.9168 18.5265H24.3013V16.275H19.3198V18.5265H17.7042V14.8129H18.4195C18.6803 14.2064 18.8907 13.5335 19.0422 12.7941C19.1936 12.0547 19.3114 11.2986 19.3956 10.5177C19.4797 9.73677 19.5302 8.93922 19.5554 8.12506C19.5807 7.31089 19.5891 6.52995 19.5891 5.76563V4.80193H24.9828V14.8212H25.9084V18.5265H25.9168ZM23.2158 6.25579H21.2131V6.46349C21.2131 7.06996 21.2047 7.73459 21.1795 8.44906C21.1542 9.17184 21.1037 9.90293 21.028 10.6423C20.9523 11.3817 20.8429 12.1128 20.7082 12.8356C20.5736 13.5584 20.3801 14.2147 20.1276 14.8212H23.2158V6.25579ZM33.734 15.5024C33.3637 15.7932 32.943 16.0175 32.4634 16.1836C31.9837 16.3498 31.4536 16.4329 30.873 16.4329C29.6697 16.4329 28.7273 15.976 28.0373 15.0538C27.3473 14.1316 27.0023 12.7857 27.0023 11.0162C27.0023 10.094 27.0696 9.2383 27.1959 8.46568C27.3305 7.69305 27.5324 7.02011 27.8185 6.44687C28.1046 5.87363 28.4665 5.43332 28.9124 5.11762C29.3584 4.80192 29.8885 4.63577 30.5028 4.63577C30.9824 4.63577 31.42 4.72715 31.8155 4.91823C32.2109 5.10931 32.5559 5.4167 32.8336 5.8404C33.1113 6.2641 33.3217 6.81242 33.4815 7.49366C33.633 8.16659 33.7087 8.98907 33.7087 9.96109V10.9414H28.8619C28.8619 12.2457 29.0387 13.2344 29.4005 13.899C29.7623 14.5636 30.3008 14.9042 31.0245 14.9042C31.5294 14.9042 31.9837 14.8212 32.3708 14.6384C32.7663 14.4639 33.0776 14.2895 33.3048 14.1233L33.734 15.5024ZM30.5028 6.09795C29.9474 6.09795 29.5604 6.40534 29.3247 7.02011C29.0891 7.63489 28.9461 8.45737 28.8872 9.48754H31.8659C31.8659 9.00568 31.8407 8.54875 31.7986 8.13336C31.7566 7.71797 31.6808 7.35243 31.5798 7.05335C31.4789 6.74596 31.3442 6.51334 31.1675 6.34718C30.9908 6.18102 30.7636 6.09795 30.5028 6.09795ZM37.3522 10.5592V16.275H35.5515V4.80193H37.3522V10.1106L40.1459 4.80193H41.9718L39.0856 10.202L42.3841 16.2833H40.4235L37.3522 10.5592ZM46.5998 16.4329C45.3545 16.4329 44.3784 15.9427 43.6716 14.9624C42.9647 13.9821 42.6113 12.5033 42.6113 10.5343C42.6113 9.63708 42.6955 8.82291 42.8806 8.10013C43.0573 7.36904 43.3182 6.75426 43.6632 6.24749C44.0082 5.74071 44.4373 5.34193 44.9506 5.05947C45.4639 4.777 46.0613 4.63577 46.7345 4.63577C47.2562 4.63577 47.6769 4.69392 48.0051 4.81023C48.3248 4.92654 48.6193 5.06778 48.8802 5.23393L48.6277 6.92042C48.3837 6.70442 48.0892 6.51334 47.7611 6.34718C47.4329 6.18102 47.0795 6.09795 46.7092 6.09795C46.0613 6.09795 45.5312 6.45518 45.1189 7.17796C44.7066 7.89244 44.4962 8.98907 44.4962 10.4512C44.4962 11.8968 44.6729 13.0184 45.0179 13.8076C45.3629 14.5969 45.9098 14.9873 46.6419 14.9873C47.0879 14.9873 47.475 14.9126 47.7947 14.763C48.1145 14.6135 48.3837 14.4473 48.6025 14.2562L49.0148 15.5772C48.7035 15.8347 48.3585 16.0424 47.9798 16.2003C47.6012 16.3581 47.1384 16.4329 46.5998 16.4329Z" fill="black"/>
<path d="M61.2496 16.275H54.1898L54.0299 18.9834H53.1295V15.3695H53.6176C54.0131 15.0372 54.3244 14.439 54.5432 13.5916C54.762 12.7442 54.9302 11.7307 55.0481 10.5592C55.1743 9.34631 55.2584 7.8509 55.3005 6.08133C55.3426 4.31176 55.3846 2.28465 55.4183 0.00830776H61.1823V15.3778H62.3098V19H61.4095L61.2496 16.275ZM56.4449 0.905553C56.4112 2.99082 56.3691 4.82685 56.3102 6.39703C56.2513 7.97551 56.1756 9.35461 56.083 10.5426C55.9737 11.7805 55.8222 12.7941 55.6371 13.5916C55.4435 14.3892 55.1911 14.979 54.8882 15.3612H60.0295V0.905553H56.4449Z" fill="black"/>
<path d="M64.5229 10.7171C64.5565 12.3039 64.7753 13.5085 65.1876 14.3393C65.5999 15.1701 66.231 15.5855 67.0809 15.5855C67.468 15.5855 67.8046 15.5273 68.0991 15.4027C68.3936 15.2781 68.6376 15.1286 68.8395 14.9624C69.0667 14.7962 69.2687 14.5802 69.437 14.3393L69.782 15.2033C69.5968 15.4609 69.3781 15.6852 69.1172 15.8596C68.89 16.0258 68.6039 16.1753 68.2673 16.3C67.9308 16.4246 67.5269 16.491 67.0641 16.491C65.8355 16.491 64.9268 15.9676 64.3462 14.9209C63.7656 13.8741 63.4711 12.4119 63.4711 10.526C63.4711 9.58723 63.5552 8.74814 63.7235 8.00875C63.8918 7.26935 64.1274 6.64626 64.4303 6.13118C64.7332 5.61609 65.0866 5.22562 65.499 4.95977C65.9113 4.69392 66.3657 4.561 66.8621 4.561C67.367 4.561 67.8214 4.69392 68.2253 4.95147C68.6208 5.20901 68.9573 5.59948 69.2182 6.11456C69.479 6.62965 69.6642 7.26935 69.7736 8.04198C69.8829 8.8063 69.8913 9.70354 69.7988 10.7171H64.5229ZM66.8537 5.48317C66.2394 5.48317 65.7093 5.85702 65.2718 6.60472C64.8342 7.35243 64.5902 8.44075 64.5481 9.87801H68.7722C68.8648 8.34937 68.7133 7.23612 68.3262 6.53826C67.9392 5.8404 67.4343 5.48317 66.8537 5.48317Z" fill="black"/>
<path d="M76.8839 10.7919H72.9206V16.2833H71.8351V4.80193H72.9206V9.87801H76.8839V4.80193H77.9693V16.275H76.8839V10.7919Z" fill="black"/>
<path d="M80.5274 4.80193H81.6128V9.05553H82.4627C83.5734 9.05553 84.457 9.35462 85.1133 9.94447C85.7781 10.5343 86.1062 11.4316 86.1062 12.6279C86.1062 13.8408 85.7612 14.7547 85.0712 15.3612C84.3812 15.9676 83.4893 16.275 82.3954 16.275H80.5274V4.80193ZM81.6128 9.90293V15.4359H82.3028C83.1191 15.4359 83.7754 15.2199 84.2887 14.7879C84.802 14.3559 85.046 13.6498 85.046 12.6611C85.046 11.6891 84.8188 10.9913 84.356 10.5509C83.8932 10.1189 83.2453 9.90293 82.4206 9.90293H81.6128Z" fill="black"/>
<path d="M89.0345 5.70748V16.275H87.9743V4.80193H92.8884V5.71579H89.0345V5.70748Z" fill="black"/>
<path d="M99.965 8.2829C99.965 7.97551 99.9734 7.70136 99.9902 7.45212C100.007 7.20289 100.032 6.95365 100.058 6.71273H99.9902C99.9145 6.97027 99.822 7.2195 99.7126 7.45212C99.6032 7.68474 99.4854 7.93398 99.3676 8.19152L95.5894 16.275H94.6638V4.80193H95.682V12.7691C95.682 13.0765 95.6736 13.3507 95.6568 13.6082C95.6399 13.8658 95.6147 14.1233 95.5894 14.3809H95.6568C95.7325 14.1233 95.825 13.8658 95.9344 13.6165C96.0438 13.3673 96.1532 13.1098 96.2794 12.8522L100.058 4.79362H101V16.2667H99.965V8.2829Z" fill="black"/>
</svg>
