<svg width="175" height="34" viewBox="0 0 175 34" fill="none" xmlns="http://www.w3.org/2000/svg">
<path d="M8.42706 17.9307L3.55744 28.7672H0L5.35074 17.1804C4.09689 16.5455 3.09089 15.622 2.31817 14.3955C1.54545 13.169 1.16637 11.5096 1.16637 9.3885C1.16637 7.9167 1.38507 6.61806 1.82246 5.49257C2.25985 4.36707 2.85762 3.44359 3.61576 2.7077C4.3739 1.9718 5.26326 1.40905 6.26926 1.04832C7.27526 0.673153 8.35416 0.5 9.46221 0.5H14.0548V28.7816H10.9785V17.9451H8.42706V17.9307ZM10.9785 3.02514H9.34558C8.73323 3.02514 8.13546 3.14058 7.55227 3.35702C6.96909 3.58789 6.44422 3.93419 5.99225 4.42479C5.54028 4.91539 5.17579 5.56471 4.89877 6.37276C4.62176 7.1808 4.47596 8.17643 4.47596 9.37407C4.47596 10.514 4.60718 11.4663 4.85503 12.2311C5.10289 12.9958 5.4528 13.6163 5.89019 14.0925C6.32758 14.5686 6.85245 14.9005 7.45022 15.1025C8.04798 15.3045 8.67491 15.4056 9.34558 15.4056H10.9785V3.02514Z" fill="#EE2E24"/>
<path d="M28.8824 8.84019V28.7672H25.806V19.8354H21.1697V28.7672H18.0497V8.84019H21.1697V17.3102H25.806V8.84019H28.8824ZM44.9054 32.6775H42.1061V28.7672H33.475V32.6775H30.6757V26.2276H31.9149C32.3669 25.1742 32.7314 24.0055 32.9938 22.7213C33.2563 21.437 33.4604 20.124 33.6062 18.7676C33.752 17.4112 33.8395 16.026 33.8832 14.6119C33.9269 13.1979 33.9415 11.8415 33.9415 10.514V8.84019H43.2871V26.242H44.8909V32.6775H44.9054ZM40.2254 11.3653H36.7554V11.7261C36.7554 12.7794 36.7408 13.9338 36.6971 15.1747C36.6533 16.43 36.5659 17.6998 36.4346 18.984C36.3034 20.2683 36.1139 21.538 35.8806 22.7934C35.6473 24.0488 35.312 25.1887 34.8746 26.242H40.2254V11.3653ZM58.45 27.4252C57.8085 27.9303 57.0795 28.3199 56.2484 28.6084C55.4174 28.897 54.4989 29.0413 53.4929 29.0413C51.408 29.0413 49.775 28.2477 48.5795 26.646C47.384 25.0444 46.7862 22.7068 46.7862 19.6334C46.7862 18.0317 46.9028 16.5455 47.1215 15.2035C47.3548 13.8616 47.7047 12.6928 48.2004 11.6972C48.6962 10.7016 49.3231 9.93682 50.0958 9.3885C50.8685 8.84019 51.787 8.5516 52.8514 8.5516C53.6824 8.5516 54.4405 8.71032 55.1258 9.0422C55.811 9.37407 56.4088 9.90796 56.8899 10.6439C57.3711 11.3798 57.7356 12.3321 58.0126 13.5153C58.275 14.6841 58.4062 16.1126 58.4062 17.8008V19.5035H50.0083C50.0083 21.7689 50.3145 23.486 50.9414 24.6404C51.5684 25.7947 52.5014 26.3863 53.7553 26.3863C54.6301 26.3863 55.4174 26.242 56.0881 25.9246C56.7733 25.6216 57.3127 25.3185 57.7064 25.03L58.45 27.4252ZM52.8514 11.0912C51.8891 11.0912 51.2184 11.6251 50.8102 12.6928C50.402 13.7606 50.1541 15.1891 50.0521 16.9784H55.2133C55.2133 16.1415 55.1695 15.3478 55.0966 14.6264C55.0237 13.9049 54.8925 13.27 54.7176 12.7505C54.5426 12.2167 54.3093 11.8126 54.0032 11.5241C53.697 11.2355 53.3033 11.0912 52.8514 11.0912ZM64.7192 18.8398V28.7672H61.5992V8.84019H64.7192V18.0606L69.5597 8.84019H72.7235L67.7226 18.2193L73.4379 28.7816H70.0408L64.7192 18.8398ZM80.7423 29.0413C78.5845 29.0413 76.8933 28.19 75.6686 26.4873C74.4439 24.7847 73.8315 22.2162 73.8315 18.7965C73.8315 17.2381 73.9773 15.824 74.2981 14.5687C74.6043 13.2989 75.0562 12.2311 75.654 11.3509C76.2518 10.4707 76.9953 9.7781 77.8847 9.2875C78.774 8.7969 79.8092 8.5516 80.9756 8.5516C81.8795 8.5516 82.6085 8.6526 83.1771 8.85461C83.7311 9.05663 84.2414 9.30192 84.6934 9.59051L84.256 12.5197C83.8332 12.1445 83.3229 11.8126 82.7543 11.5241C82.1857 11.2355 81.5733 11.0912 80.9318 11.0912C79.8092 11.0912 78.8907 11.7116 78.1763 12.967C77.4619 14.2079 77.0974 16.1126 77.0974 18.6522C77.0974 21.1629 77.4035 23.1108 78.0013 24.4816C78.5991 25.8524 79.5468 26.5306 80.8152 26.5306C81.5879 26.5306 82.2586 26.4007 82.8126 26.141C83.3666 25.8813 83.8332 25.5927 84.2123 25.2608L84.9267 27.5551C84.3872 28.0024 83.7895 28.3631 83.1334 28.6373C82.4773 28.9115 81.6754 29.0413 80.7423 29.0413Z" fill="black"/>
<path d="M106.126 28.7672H93.8932L93.6161 33.4711H92.0561V27.1944H92.9017C93.587 26.6172 94.1264 25.5783 94.5055 24.1065C94.8846 22.6347 95.1762 20.8743 95.3803 18.8397C95.599 16.7331 95.7448 14.1358 95.8177 11.0623C95.8906 7.98885 95.9635 4.46808 96.0218 0.514429H106.009V27.2088H107.963V33.5H106.403L106.126 28.7672ZM97.8005 2.0728C97.7422 5.69458 97.6693 8.88347 97.5673 11.6106C97.4652 14.3522 97.334 16.7475 97.1736 18.8109C96.9841 20.9609 96.7216 22.7212 96.4009 24.1065C96.0655 25.4917 95.6282 26.5162 95.1033 27.1799H104.011V2.0728H97.8005Z" fill="black"/>
<path d="M111.797 19.1139C111.855 21.8699 112.234 23.9622 112.949 25.4051C113.663 26.8481 114.757 27.5695 116.229 27.5695C116.9 27.5695 117.483 27.4685 117.993 27.2521C118.504 27.0356 118.927 26.7759 119.276 26.4873C119.67 26.1987 120.02 25.8236 120.312 25.4051L120.909 26.9058C120.589 27.3531 120.21 27.7427 119.758 28.0457C119.364 28.3343 118.868 28.594 118.285 28.8105C117.702 29.0269 117.002 29.1423 116.2 29.1423C114.071 29.1423 112.497 28.2333 111.491 26.4152C110.485 24.5971 109.975 22.0575 109.975 18.782C109.975 17.1515 110.12 15.6941 110.412 14.4099C110.704 13.1257 111.112 12.0435 111.637 11.1489C112.162 10.2543 112.774 9.57608 113.488 9.11434C114.203 8.6526 114.99 8.42173 115.85 8.42173C116.725 8.42173 117.512 8.6526 118.212 9.09991C118.897 9.54722 119.481 10.2254 119.933 11.12C120.384 12.0147 120.705 13.1257 120.895 14.4676C121.084 15.7951 121.099 17.3535 120.938 19.1139H111.797ZM115.836 10.0234C114.771 10.0234 113.853 10.6727 113.095 11.9714C112.337 13.27 111.914 15.1603 111.841 17.6565H119.16C119.32 15.0015 119.058 13.068 118.387 11.8559C117.716 10.6439 116.842 10.0234 115.836 10.0234Z" fill="black"/>
<path d="M133.215 19.2438H126.348V28.7816H124.467V8.84019H126.348V17.6565H133.215V8.84019H135.095V28.7672H133.215V19.2438Z" fill="black"/>
<path d="M139.528 8.84019H141.408V16.228H142.881C144.805 16.228 146.336 16.7475 147.474 17.772C148.625 18.7965 149.194 20.3548 149.194 22.4327C149.194 24.5394 148.596 26.1266 147.401 27.1799C146.205 28.2333 144.66 28.7672 142.764 28.7672H139.528V8.84019ZM141.408 17.6998V27.3098H142.604C144.018 27.3098 145.155 26.9346 146.045 26.1843C146.934 25.434 147.357 24.2075 147.357 22.4904C147.357 20.8021 146.963 19.5901 146.161 18.8253C145.359 18.075 144.237 17.6998 142.808 17.6998H141.408Z" fill="black"/>
<path d="M154.268 10.413V28.7672H152.431V8.84019H160.945V10.4274H154.268V10.413Z" fill="black"/>
<path d="M173.207 14.8861C173.207 14.3522 173.221 13.876 173.25 13.4432C173.28 13.0103 173.323 12.5774 173.367 12.1589H173.25C173.119 12.6063 172.959 13.0391 172.769 13.4432C172.58 13.8472 172.376 14.2801 172.172 14.7274L165.625 28.7672H164.021V8.84019H165.786V22.678C165.786 23.2119 165.771 23.688 165.742 24.1353C165.713 24.5826 165.669 25.03 165.625 25.4773H165.742C165.873 25.03 166.033 24.5826 166.223 24.1498C166.413 23.7169 166.602 23.2696 166.821 22.8223L173.367 8.82576H175V28.7527H173.207V14.8861Z" fill="black"/>
</svg>
