<svg width="22" height="23" viewBox="0 0 22 23" fill="none" xmlns="http://www.w3.org/2000/svg">
<rect y="0.5" width="22" height="22" rx="11" fill="#70AAF8"/>
<rect y="0.5" width="22" height="22" rx="11" fill="url(#paint0_linear_853_6771)" fill-opacity="0.5"/>
<path d="M6.69658 11.2825C6.30033 10.8978 5.66723 10.9072 5.28252 11.3034C4.89781 11.6997 4.90717 12.3328 5.30342 12.7175L6.69658 11.2825ZM9.60502 15.5L8.90844 16.2175C9.1025 16.4059 9.36461 16.5077 9.63497 16.4996C9.90533 16.4914 10.1609 16.3742 10.3433 16.1745L9.60502 15.5ZM16.7383 9.17448C17.1108 8.76673 17.0822 8.13421 16.6745 7.76171C16.2667 7.3892 15.6342 7.41777 15.2617 7.82552L16.7383 9.17448ZM5.30342 12.7175L8.90844 16.2175L10.3016 14.7825L6.69658 11.2825L5.30342 12.7175ZM10.3433 16.1745L16.7383 9.17448L15.2617 7.82552L8.86672 14.8255L10.3433 16.1745Z" fill="white"/>
<defs>
<linearGradient id="paint0_linear_853_6771" x1="0" y1="0.5" x2="22.3811" y2="0.894784" gradientUnits="userSpaceOnUse">
<stop stop-color="#8785FF"/>
<stop offset="0.505238" stop-color="#747FE2"/>
<stop offset="1" stop-color="#5ECDDA"/>
</linearGradient>
</defs>
</svg>
