<svg width="22" height="22" viewBox="0 0 22 22" fill="none" xmlns="http://www.w3.org/2000/svg">
<rect width="22" height="22" rx="11" fill="url(#paint0_linear_1613_2541)"/>
<path d="M12.6818 3.5V8.5C12.6818 9.19697 12.6402 9.89015 12.5568 10.5795C12.4735 11.2614 12.3636 11.9583 12.2273 12.6705H9.84091C9.70455 11.9583 9.5947 11.2614 9.51136 10.5795C9.42803 9.89015 9.38636 9.19697 9.38636 8.5V3.5H12.6818ZM9 16.7727C9 16.5 9.04924 16.2462 9.14773 16.0114C9.25379 15.7765 9.39394 15.572 9.56818 15.3977C9.75 15.2235 9.96212 15.0871 10.2045 14.9886C10.447 14.8826 10.7121 14.8295 11 14.8295C11.2803 14.8295 11.5417 14.8826 11.7841 14.9886C12.0265 15.0871 12.2386 15.2235 12.4205 15.3977C12.6023 15.572 12.7424 15.7765 12.8409 16.0114C12.947 16.2462 13 16.5 13 16.7727C13 17.0455 12.947 17.303 12.8409 17.5455C12.7424 17.7803 12.6023 17.9848 12.4205 18.1591C12.2386 18.3333 12.0265 18.4697 11.7841 18.5682C11.5417 18.6667 11.2803 18.7159 11 18.7159C10.7121 18.7159 10.447 18.6667 10.2045 18.5682C9.96212 18.4697 9.75 18.3333 9.56818 18.1591C9.39394 17.9848 9.25379 17.7803 9.14773 17.5455C9.04924 17.303 9 17.0455 9 16.7727Z" fill="white"/>
<defs>
<linearGradient id="paint0_linear_1613_2541" x1="-0.538775" y1="7.92" x2="22.4677" y2="11.5798" gradientUnits="userSpaceOnUse">
<stop stop-color="#FF6060"/>
<stop offset="0.541667" stop-color="#FF689F"/>
<stop offset="1" stop-color="#FF9473"/>
</linearGradient>
</defs>
</svg>
