<svg width="24" height="24" viewBox="0 0 24 24" fill="none" xmlns="http://www.w3.org/2000/svg">
<path d="M14 6.5C14.2652 6.5 14.5196 6.39464 14.7071 6.20711C14.8946 6.01957 15 5.76522 15 5.5V3H18V5.5C18 5.76522 18.1054 6.01957 18.2929 6.20711C18.4804 6.39464 18.7348 6.5 19 6.5C19.2652 6.5 19.5196 6.39464 19.7071 6.20711C19.8946 6.01957 20 5.76522 20 5.5V3C20 2.46957 19.7893 1.96086 19.4142 1.58579C19.0391 1.21071 18.5304 1 18 1H15C14.4696 1 13.9609 1.21071 13.5858 1.58579C13.2107 1.96086 13 2.46957 13 3V5.5C13 5.76522 13.1054 6.01957 13.2929 6.20711C13.4804 6.39464 13.7348 6.5 14 6.5Z" fill="white"/>
<path d="M8 20.625H15.78L14.835 18.625H8.585L8 20.625ZM4.21 18.625H2V13.41C1.99951 13.158 2.09415 12.9152 2.265 12.73L7.64 6.945C7.73324 6.84446 7.84616 6.76418 7.97174 6.70913C8.09732 6.65408 8.23288 6.62544 8.37 6.625H21C21.2652 6.625 21.5196 6.73036 21.7071 6.91789C21.8946 7.10543 22 7.35978 22 7.625V18.625H19.5L19.4 20.625H22C22.5304 20.625 23.0391 20.4143 23.4142 20.0392C23.7893 19.6641 24 19.1554 24 18.625V7.625C24 6.82935 23.6839 6.06629 23.1213 5.50368C22.5587 4.94107 21.7956 4.625 21 4.625H8.37C7.95696 4.62495 7.54837 4.71019 7.1698 4.87538C6.79124 5.04057 6.45086 5.28216 6.17 5.585L0.799999 11.37C0.285646 11.9248 -9.91821e-05 12.6535 0 13.41V18.625C0 19.1554 0.210714 19.6641 0.585787 20.0392C0.960859 20.4143 1.46957 20.625 2 20.625H4.6L4.21 18.625Z" fill="white"/>
<path d="M17.5 22.5C18.1922 22.5 18.8689 22.2947 19.4445 21.9101C20.0201 21.5256 20.4687 20.9789 20.7336 20.3394C20.9985 19.6999 21.0678 18.9961 20.9327 18.3172C20.7977 17.6383 20.4644 17.0146 19.9749 16.5251C19.4854 16.0356 18.8617 15.7023 18.1828 15.5673C17.5039 15.4322 16.8001 15.5015 16.1606 15.7664C15.5211 16.0313 14.9744 16.4799 14.5899 17.0555C14.2053 17.6311 14 18.3078 14 19C14 19.9283 14.3687 20.8185 15.0251 21.4749C15.6815 22.1313 16.5717 22.5 17.5 22.5ZM17.5 17.5C17.7967 17.5 18.0867 17.588 18.3334 17.7528C18.58 17.9176 18.7723 18.1519 18.8858 18.426C18.9993 18.7001 19.0291 19.0017 18.9712 19.2926C18.9133 19.5836 18.7704 19.8509 18.5607 20.0607C18.3509 20.2704 18.0836 20.4133 17.7926 20.4712C17.5017 20.5291 17.2001 20.4994 16.926 20.3858C16.6519 20.2723 16.4176 20.08 16.2528 19.8334C16.088 19.5867 16 19.2967 16 19C16 18.6022 16.158 18.2206 16.4393 17.9393C16.7206 17.658 17.1022 17.5 17.5 17.5Z" fill="white"/>
<path d="M6.5 22.5C7.19223 22.5 7.86892 22.2947 8.44449 21.9101C9.02007 21.5256 9.46867 20.9789 9.73358 20.3394C9.99848 19.6999 10.0678 18.9961 9.93275 18.3172C9.7977 17.6383 9.46436 17.0146 8.97487 16.5251C8.48539 16.0356 7.86175 15.7023 7.18281 15.5673C6.50388 15.4322 5.80015 15.5015 5.16061 15.7664C4.52106 16.0313 3.97444 16.4799 3.58986 17.0555C3.20527 17.6311 3 18.3078 3 19C3 19.9283 3.36875 20.8185 4.02512 21.4749C4.6815 22.1313 5.57174 22.5 6.5 22.5ZM6.5 17.5C6.79667 17.5 7.08668 17.588 7.33335 17.7528C7.58003 17.9176 7.77229 18.1519 7.88582 18.426C7.99935 18.7001 8.02905 19.0017 7.97118 19.2926C7.9133 19.5836 7.77044 19.8509 7.56066 20.0607C7.35088 20.2704 7.0836 20.4133 6.79263 20.4712C6.50166 20.5291 6.20006 20.4994 5.92597 20.3858C5.65188 20.2723 5.41762 20.08 5.25279 19.8334C5.08797 19.5867 5 19.2967 5 19C5 18.6022 5.15803 18.2206 5.43934 17.9393C5.72064 17.658 6.10217 17.5 6.5 17.5Z" fill="white"/>
<path d="M19.5 10V12H14.5V10H19.5Z" fill="white"/>
<path d="M18 13.5H16V8.5H18V13.5Z" fill="white"/>
</svg>
