<svg width="24" height="24" viewBox="0 0 24 24" fill="none" xmlns="http://www.w3.org/2000/svg">
<path d="M10.2824 13.3079C10.2824 12.0303 9.243 10.9909 7.96544 10.9909C6.68787 10.9909 5.64846 12.0303 5.64846 13.3079H7.05471C7.05471 12.8057 7.46328 12.3972 7.96544 12.3972C8.4676 12.3972 8.87612 12.8057 8.87612 13.3079H10.2824Z" fill="url(#paint0_linear_889_6647)"/>
<path d="M16.0357 10.9907C14.7581 10.9907 13.7188 12.0301 13.7188 13.3076H15.125C15.125 12.8055 15.5335 12.397 16.0357 12.397C16.5378 12.397 16.9464 12.8055 16.9464 13.3076H18.3527C18.3527 12.0301 17.3133 10.9907 16.0357 10.9907Z" fill="url(#paint1_linear_889_6647)"/>
<path d="M11.9999 17.7558C12.889 17.7558 13.8359 17.9769 14.2889 18.7444L15.5 17.5001C14.7954 16.306 13.3843 16.0001 12 16.0001C10.6157 16.0001 9.31789 16.3058 8.61325 17.4999L9.82437 18.7443C10.2772 17.9768 11.1109 17.7558 11.9999 17.7558Z" fill="url(#paint2_linear_889_6647)"/>
<path d="M23.04 11.1238C22.6101 10.7058 22.186 10.4936 21.6 10.3854C20.3344 6.57877 16.149 3.37726 12 3.37726H11.52C10.4332 3.37726 10.08 3.0578 10.08 2L8.22645 2.00027C8.22645 2.71809 8.46837 3.38175 8.87659 3.91874H8.44888C7.36208 3.91874 7.2 3.0578 7.2 2L5.1279 2.00027C5.1279 3.42798 5.39855 4.3518 6.72 4.77861C4.63003 5.897 3.16315 8.08961 2.4 10.3851C1.81398 10.4933 1.3903 10.7054 0.96 11.1238C0.393874 11.6754 0 12.4339 0 13.2133C0 13.983 0.405986 14.9754 0.96 15.5244C1.39298 15.9535 1.90464 16.3901 2.5 16.5C3.76548 20.3066 7.85093 23 12 23C16.149 23 20.3345 20.2657 21.6 16.4591C22.1954 16.3492 22.607 15.9537 23.04 15.5247C23.594 14.9757 24 13.9584 24 13.1886C24 12.4093 23.6066 11.6759 23.04 11.1238ZM20.5539 14.8173L20.1796 15.0486L20.0473 15.5247C19.0837 18.9932 15.6966 21.1937 12 21.1937C8.30331 21.1937 5.04853 18.9932 4.08489 15.5247L3.95262 15.0486L3.44609 14.8173C2.55494 14.8009 1.82995 14.0814 1.82995 13.2133C1.82995 12.7846 2.00148 12.3815 2.31238 12.0785C2.6156 11.7837 3.01821 11.617 3.44596 11.6092L3.95262 11.5999L4.08489 11.1238C5.04858 7.65528 8.30336 5.2328 12 5.2328C13.2201 5.2328 13.92 6.19895 13.92 7.38652C13.92 8.57409 13.22 8.98348 12 8.98348C10.7799 8.98348 10.08 8.57409 10.08 7.38652H8.22645C8.22645 9.29865 10.0355 10.8543 12 10.8543C13.9645 10.8543 15.84 9.29865 15.84 7.38652C15.84 6.84235 15.4329 6.32734 15.2024 5.86854C17.4666 6.80596 19.2449 8.7118 19.9151 11.1238L20.0473 11.6L20.554 11.6092C20.9818 11.617 21.3844 11.7837 21.6871 12.078C21.9985 12.3815 22.17 12.7847 22.17 13.2133C22.17 14.0814 21.445 14.801 20.5539 14.8173Z" fill="url(#paint3_linear_889_6647)"/>
<defs>
<linearGradient id="paint0_linear_889_6647" x1="-0.587755" y1="9.56" x2="24.322" y2="14.0886" gradientUnits="userSpaceOnUse">
<stop stop-color="#FF6060"/>
<stop offset="0.541667" stop-color="#FF689F"/>
<stop offset="1" stop-color="#FF9473"/>
</linearGradient>
<linearGradient id="paint1_linear_889_6647" x1="-0.587755" y1="9.56" x2="24.322" y2="14.0886" gradientUnits="userSpaceOnUse">
<stop stop-color="#FF6060"/>
<stop offset="0.541667" stop-color="#FF689F"/>
<stop offset="1" stop-color="#FF9473"/>
</linearGradient>
<linearGradient id="paint2_linear_889_6647" x1="-0.587755" y1="9.56" x2="24.322" y2="14.0886" gradientUnits="userSpaceOnUse">
<stop stop-color="#FF6060"/>
<stop offset="0.541667" stop-color="#FF689F"/>
<stop offset="1" stop-color="#FF9473"/>
</linearGradient>
<linearGradient id="paint3_linear_889_6647" x1="-0.587755" y1="9.56" x2="24.322" y2="14.0886" gradientUnits="userSpaceOnUse">
<stop stop-color="#FF6060"/>
<stop offset="0.541667" stop-color="#FF689F"/>
<stop offset="1" stop-color="#FF9473"/>
</linearGradient>
</defs>
</svg>
