<svg width="25" height="24" viewBox="0 0 25 24" fill="none" xmlns="http://www.w3.org/2000/svg">
<path d="M16.8959 2.0965C15.5637 0.773441 13.4743 0.64967 12.0004 1.7249C11.3575 1.25426 10.5833 1 9.76962 1C8.76271 1 7.81612 1.38944 7.10413 2.0965C6.39214 2.80359 6 3.74373 6 4.74371C6 5.74369 6.39214 6.68382 7.10413 7.39088L11.5649 11.821C11.6803 11.9356 11.8368 12 12 12C12.1632 12 12.3198 11.9356 12.4351 11.821L16.8959 7.39088C17.6079 6.68378 18 5.74365 18 4.74367C18 3.74369 17.6079 2.80359 16.8959 2.0965V2.0965Z" stroke="white" stroke-width="1.5"/>
<path d="M3.75171 18.8651L5.82031 19.9251V22.5596C5.82031 22.8028 6.01273 23 6.25 23H10.8047C11.042 23 11.2344 22.8028 11.2344 22.5596V16.5457C11.2344 15.1964 10.2468 14.0774 8.94023 13.9432C8.93516 13.9417 7.12265 13.6517 6.28175 12.7898L5.31676 11.8011C4.99209 11.4683 4.56051 11.285 4.10156 11.285V7.76166C4.10156 6.79028 3.33053 6 2.38281 6C1.43509 6 0.664062 6.79028 0.664062 7.76166V13.7442C0.664062 15.9116 1.85851 17.8947 3.75171 18.8651ZM1.52344 7.76166C1.52344 7.27597 1.90895 6.88083 2.38281 6.88083C2.85667 6.88083 3.24219 7.27597 3.24219 7.76166V11.5211C2.71814 11.8317 2.38281 12.4107 2.38281 13.0466C2.38281 13.517 2.56165 13.9593 2.88636 14.2921L5.08679 16.5479C5.2545 16.7199 5.52662 16.72 5.69446 16.548C5.86225 16.376 5.86229 16.0972 5.6945 15.9251L3.49407 13.6693C3.33165 13.5029 3.24219 13.2817 3.24219 13.0466C3.24219 12.6739 3.47237 12.34 3.81505 12.216C3.81517 12.2159 3.8153 12.2158 3.81543 12.2158H3.81548C4.11179 12.1082 4.46332 12.172 4.70918 12.424L5.67417 13.4127C6.67045 14.4338 8.84712 14.8181 8.85145 14.8193C9.72002 14.9085 10.375 15.6508 10.375 16.5457V22.1192H6.67969V19.6528C6.67969 19.486 6.58769 19.3335 6.44215 19.2589L4.13607 18.0773C2.52457 17.2512 1.52344 15.5909 1.52344 13.7442V7.76166Z" stroke="white"/>
<path d="M20.5764 18.8651L18.5078 19.9251V22.5596C18.5078 22.8028 18.3154 23 18.0781 23H13.5234C13.2862 23 13.0938 22.8028 13.0938 22.5596V16.5457C13.0938 15.1964 14.0813 14.0774 15.3879 13.9432C15.393 13.9417 17.2055 13.6517 18.0464 12.7898L19.0114 11.8011C19.336 11.4683 19.7676 11.285 20.2266 11.285V7.76166C20.2266 6.79028 20.9976 6 21.9453 6C22.893 6 23.6641 6.79028 23.6641 7.76166V13.7442C23.6641 15.9116 22.4696 17.8947 20.5764 18.8651ZM22.8047 7.76166C22.8047 7.27597 22.4192 6.88083 21.9453 6.88083C21.4715 6.88083 21.0859 7.27597 21.0859 7.76166V11.5211C21.61 11.8317 21.9453 12.4107 21.9453 13.0466C21.9453 13.517 21.7665 13.9593 21.4418 14.2921L19.2413 16.5479C19.0736 16.7199 18.8015 16.72 18.6337 16.548C18.4659 16.376 18.4658 16.0972 18.6336 15.9251L20.8341 13.6693C20.9965 13.5029 21.0859 13.2817 21.0859 13.0466C21.0859 12.6739 20.8558 12.34 20.5131 12.216C20.513 12.2159 20.5128 12.2158 20.5127 12.2158H20.5126C20.2163 12.1082 19.8648 12.172 19.6189 12.424L18.654 13.4127C17.6577 14.4338 15.481 14.8181 15.4767 14.8193C14.6081 14.9085 13.9531 15.6508 13.9531 16.5457V22.1192H17.6484V19.6528C17.6484 19.486 17.7404 19.3335 17.886 19.2589L20.1921 18.0773C21.8036 17.2512 22.8047 15.5909 22.8047 13.7442V7.76166Z" stroke="white"/>
</svg>
