<svg width="314" height="52" viewBox="0 0 314 52" fill="none" xmlns="http://www.w3.org/2000/svg">
<g clip-path="url(#clip0_1220_6234)">
<path d="M31.504 23.0093C31.9183 22.5718 32.4548 22.2692 33.0435 22.1409L46.2785 19.2564C48.156 18.8472 49.9288 20.2841 49.9173 22.2056L49.8777 28.8002C49.8662 30.7212 48.0773 32.1365 46.2052 31.7059L32.8496 28.6336C32.2455 28.4946 31.6992 28.1719 31.2859 27.7098L31.0704 27.4687C30.0302 26.3055 30.0553 24.5392 31.1283 23.4061L31.504 23.0093Z" fill="#7042D1"/>
<path d="M31.0585 28.5032C31.6565 28.547 32.2276 28.769 32.6981 29.1405L43.2049 37.4349C44.7393 38.6463 44.7238 40.9781 43.1733 42.1689L37.8222 46.2785C36.3132 47.4374 34.1204 46.9169 33.2933 45.2034L27.4686 33.1374C27.1916 32.5637 27.1045 31.9168 27.2198 31.2903L27.2901 30.9084C27.5671 29.4029 28.9331 28.3474 30.4598 28.4593L31.0585 28.5032Z" fill="#69C0FF"/>
<path d="M26.339 31.4336C26.6937 31.943 26.8817 32.55 26.8769 33.1708L26.7743 46.565C26.7595 48.486 24.9683 49.8983 23.0969 49.4645L16.4422 47.9219C14.5475 47.4827 13.5651 45.3845 14.4412 43.648L20.447 31.7446C20.7274 31.1888 21.1737 30.7341 21.7241 30.4433L22.2472 30.167C23.5872 29.4591 25.2446 29.8617 26.1105 31.1054L26.339 31.4336Z" fill="#5ECDDA"/>
<path d="M21.1823 29.7556C20.9971 30.345 20.6343 30.8628 20.1437 31.2383L9.16679 39.6393C7.65578 40.7957 5.46375 40.2714 4.63955 38.5564L1.76383 32.5727C0.921677 30.8204 1.94318 28.7421 3.84502 28.3386L17.2956 25.4843C17.8916 25.3578 18.512 25.4158 19.0743 25.6506L19.5512 25.8497C20.9826 26.4474 21.7223 28.0379 21.2571 29.5178L21.1823 29.7556Z" fill="#A1DB6F"/>
<path d="M19.1251 24.8698C18.5645 25.0852 17.9523 25.1274 17.3675 24.9909L3.94997 21.8602C2.05581 21.4183 1.0765 19.3184 1.95531 17.5832L4.95678 11.657C5.81632 9.95985 8.01814 9.48105 9.50484 10.668L20.2859 19.275C20.7752 19.6657 21.13 20.1997 21.3006 20.8021L21.3797 21.0814C21.8024 22.5741 21.0173 24.1429 19.5691 24.6992L19.1251 24.8698Z" fill="#FAE3A5"/>
<path d="M20.9877 19.6904C20.9919 19.7046 20.9718 19.7123 20.9653 19.6991L13.8007 5.06536C13.3982 4.24322 13.8722 3.26128 14.7662 3.06495L23.4125 1.16641C25.2893 0.754298 27.0643 2.18822 27.0559 4.10974L26.9965 17.6863C26.9937 18.3245 26.7874 18.9453 26.4076 19.4583L25.3722 20.8566C24.9882 21.3753 24.2777 21.5264 23.7159 21.2088L21.0053 19.6765C20.9958 19.6711 20.9847 19.68 20.9877 19.6904Z" fill="#F2A73B"/>
<path d="M27.2133 18.3708L33.4019 5.87224C34.2472 4.16515 36.4488 3.66788 37.9457 4.84595L43.205 8.98491C44.7521 10.2025 44.7269 12.5551 43.154 13.7392L32.4662 21.7851C31.983 22.1488 31.4011 22.358 30.7969 22.3853L28.9616 22.468C28.3367 22.4962 27.7911 22.0491 27.6957 21.4309L27.2243 18.3733C27.2234 18.3678 27.2164 18.3662 27.2133 18.3708Z" fill="#EE7D5F"/>
<path d="M78.2166 18.6879H73.5479L70.1509 14.269C68.8418 12.5768 68.118 11.6491 67.9926 11.4923C67.8672 11.3355 67.6846 11.183 67.4513 11.0458C67.2247 10.9064 66.9717 10.8106 66.7121 10.7627C66.4459 10.7126 66.1203 10.6908 65.7286 10.6908V18.6879H61.9994V0.333054H65.7286V7.62227C67.2005 7.53951 68.5624 6.28944 69.8099 3.87639C70.5645 2.41942 71.372 1.40455 72.2235 0.836134C73.0815 0.267718 74.1442 -0.0175781 75.4225 -0.0175781C76.0605 -0.0175781 76.6105 0.0194454 77.0704 0.0934915V3.32322C76.7998 3.30362 76.3619 3.29491 75.7613 3.29491C75.1782 3.29491 74.6766 3.43865 74.252 3.71959C73.8318 4.00489 73.4269 4.53192 73.0441 5.29634C72.109 7.18888 70.8594 8.38669 69.3017 8.88977C70.0673 9.06182 71.1014 9.94602 72.4017 11.5533L78.2166 18.6879ZM83.4222 7.23026C84.5795 5.99325 86.1922 5.37474 88.2559 5.37474C90.3196 5.37474 91.9851 6.03027 93.248 7.33698C94.5065 8.6415 95.1401 10.2705 95.1401 12.2175C95.1401 14.0992 94.4735 15.7086 93.149 17.0458C91.8267 18.3851 90.1656 19.0537 88.1723 19.0537C86.4056 19.0537 84.9843 18.5964 83.8996 17.6882V23.4443L80.4586 24.4461V5.76676L83.4222 7.23026ZM87.7675 16.2813C88.9225 16.2813 89.8444 15.9068 90.544 15.1554C91.2393 14.4041 91.5891 13.4393 91.5891 12.2676C91.5891 11.0829 91.2437 10.0941 90.5484 9.31445C89.8598 8.53478 88.9313 8.14713 87.7675 8.14713C86.6014 8.14713 85.6685 8.52607 84.9711 9.28178C84.2758 10.0397 83.926 11.0262 83.926 12.2436C83.926 13.4567 84.267 14.4367 84.9513 15.1728C85.6311 15.9111 86.5728 16.2813 87.7675 16.2813ZM112.121 17.8908L109.69 19.0537C108.999 18.4113 108.653 17.7753 108.653 17.1351C107.369 18.4113 105.71 19.0537 103.668 19.0537C101.668 19.0537 100.022 18.4113 98.7418 17.1351C97.4547 15.8567 96.8167 14.2146 96.8167 12.2175C96.8167 10.3293 97.4877 8.7199 98.8342 7.38271C100.181 6.04552 101.831 5.37474 103.78 5.37474C105.815 5.37474 107.424 5.98454 108.598 7.20195L111.412 5.76676V14.7307C111.412 15.763 111.47 16.4839 111.591 16.8846C111.707 17.2875 111.883 17.6229 112.121 17.8908ZM104.205 16.2813C105.36 16.2813 106.286 15.9024 106.986 15.1423C107.69 14.3801 108.04 13.411 108.04 12.2436C108.04 10.9979 107.703 10.007 107.028 9.26436C106.356 8.51736 105.43 8.14713 104.255 8.14713C103.067 8.14713 102.121 8.52172 101.426 9.27307C100.726 10.031 100.376 10.9892 100.376 12.1609C100.376 13.3413 100.722 14.3257 101.413 15.1097C102.097 15.8937 103.03 16.2813 104.205 16.2813ZM127.374 18.6879H123.944V11.7144L116 19.0537H114.88V5.76676H118.321V12.7424L126.266 5.37474H127.374V18.6879ZM125.757 -0.0175781C125.32 2.58058 123.782 3.87639 121.144 3.87639C118.488 3.87639 116.941 2.58058 116.501 -0.0175781H118.822C118.996 0.498569 119.302 0.918891 119.747 1.25646C120.184 1.58749 120.655 1.75518 121.144 1.75518C122.327 1.75518 123.093 1.16281 123.436 -0.0175781H125.757ZM87.081 32.9309C89.2482 32.9309 91.0105 33.5908 92.3702 34.9106C93.732 36.2325 94.4119 37.8615 94.4119 39.7998C94.4119 41.7098 93.7365 43.3192 92.3812 44.6346C91.0237 45.9544 89.2592 46.6077 87.081 46.6077C84.9051 46.6077 83.1384 45.9478 81.7831 44.6302C80.4278 43.3105 79.7501 41.6989 79.7501 39.7998C79.7501 37.8855 80.4168 36.2652 81.7545 34.9323C83.0966 33.5995 84.8677 32.9309 87.081 32.9309ZM87.081 43.8353C88.2273 43.8353 89.1426 43.452 89.8268 42.6833C90.5066 41.9123 90.8521 40.9519 90.8521 39.7998C90.8521 38.6085 90.5066 37.6263 89.8268 36.8554C89.1426 36.0866 88.2273 35.7033 87.081 35.7033C85.9347 35.7033 85.0217 36.0866 84.3374 36.8554C83.6554 37.6263 83.3122 38.6085 83.3122 39.7998C83.3122 40.9432 83.6554 41.9036 84.3462 42.6789C85.0305 43.4477 85.9435 43.8353 87.081 43.8353ZM100.163 34.12C101.329 33.3273 102.634 32.9309 104.082 32.9309C106.064 32.9309 107.694 33.5951 108.966 34.9236C110.244 36.2521 110.878 37.8768 110.878 39.7998C110.878 41.7098 110.202 43.3192 108.845 44.6346C107.49 45.9544 105.723 46.6077 103.547 46.6077C101.318 46.6077 99.5382 45.9217 98.2159 44.541C96.8915 43.1624 96.2292 41.1457 96.2292 38.4996C96.2292 35.2743 96.8959 32.7044 98.2247 30.7945C99.5536 28.8845 101.525 27.6954 104.134 27.2293C105.993 26.8961 107.373 26.4453 108.273 25.8769L109.566 28.3357C108.515 29.013 107.047 29.54 105.173 29.919C102.317 30.4765 100.643 31.879 100.163 34.12ZM103.547 43.8353C104.693 43.8353 105.611 43.452 106.301 42.6833C106.986 41.9123 107.331 40.9519 107.331 39.7998C107.331 38.6085 106.986 37.6263 106.301 36.8554C105.611 36.0866 104.693 35.7033 103.547 35.7033C102.409 35.7033 101.496 36.0866 100.81 36.8554C100.121 37.6263 99.7802 38.6085 99.7802 39.7998C99.7802 40.9432 100.121 41.9036 100.801 42.6789C101.488 43.4477 102.401 43.8353 103.547 43.8353ZM116.409 34.7842C117.564 33.5494 119.177 32.9309 121.243 32.9309C123.306 32.9309 124.97 33.5864 126.233 34.891C127.491 36.1977 128.125 37.8245 128.125 39.7715C128.125 41.6531 127.458 43.2647 126.136 44.6019C124.811 45.9391 123.152 46.6077 121.159 46.6077C119.392 46.6077 117.971 46.1526 116.884 45.2422V51.0004L113.445 52V33.3229L116.409 34.7842ZM120.752 43.8353C121.909 43.8353 122.831 43.4629 123.531 42.7094C124.224 41.958 124.574 40.9933 124.574 39.8216C124.574 38.6368 124.228 37.6503 123.535 36.8706C122.844 36.091 121.918 35.7033 120.752 35.7033C119.588 35.7033 118.655 36.0822 117.956 36.8379C117.263 37.5937 116.913 38.5824 116.913 39.7998C116.913 41.0129 117.254 41.9907 117.938 42.729C118.618 43.4673 119.56 43.8353 120.752 43.8353ZM145.108 45.4448L142.674 46.6077C141.986 45.9674 141.64 45.3293 141.64 44.689C140.353 45.9674 138.694 46.6077 136.655 46.6077C134.655 46.6077 133.009 45.9674 131.729 44.689C130.441 43.4107 129.803 41.7686 129.803 39.7715C129.803 37.8855 130.474 36.2739 131.821 34.9367C133.167 33.5995 134.818 32.9309 136.765 32.9309C138.802 32.9309 140.41 33.5385 141.585 34.7581L144.399 33.3229V42.2847C144.399 43.3192 144.454 44.0379 144.575 44.4408C144.692 44.8415 144.87 45.1791 145.108 45.4448ZM137.189 43.8353C138.344 43.8353 139.273 43.4586 139.972 42.6963C140.676 41.9363 141.024 40.9671 141.024 39.7998C141.024 38.5541 140.69 37.5632 140.014 36.8183C139.343 36.0713 138.415 35.7033 137.24 35.7033C136.052 35.7033 135.106 36.0757 134.413 36.8292C133.713 37.5849 133.363 38.5454 133.363 39.717C133.363 40.8974 133.709 41.8796 134.397 42.6637C135.084 43.4477 136.014 43.8353 137.189 43.8353Z" fill="white"/>
<path d="M69.4973 46.243H64.3279L63.193 50.15H60.6508V43.0285C61.472 42.9174 62.0885 42.6822 62.5002 42.3207C62.9163 41.9614 63.1886 41.5236 63.3128 41.0075C63.4413 40.4848 63.5023 39.8445 63.5023 39.0779V27.8882H75.4945V39.0779C75.4945 39.8445 75.5533 40.4848 75.684 41.0075C75.8082 41.5236 76.0805 41.9614 76.4944 42.3207C76.9061 42.6822 77.5248 42.9174 78.346 43.0285V50.15H75.8038L74.6689 46.243H69.4973ZM69.4973 31.107H66.9072V38.2939C66.9072 39.5766 66.8375 40.5262 66.6937 41.1447C66.5477 41.7675 66.234 42.3948 65.7439 43.0285H73.2507C72.7628 42.3948 72.4491 41.7675 72.3009 41.1447C72.1572 40.5262 72.0896 39.5766 72.0896 38.2939V31.107H69.4973Z" fill="white"/>
<path d="M158.654 29.3507C159.143 29.015 159.692 28.8503 160.303 28.8503C161.139 28.8503 161.823 29.131 162.36 29.6925C162.897 30.26 163.166 30.9496 163.166 31.7674C163.166 32.5791 162.879 33.2626 162.311 33.8241C161.737 34.3855 160.992 34.6663 160.077 34.6663C159.143 34.6663 158.392 34.3733 157.836 33.7875C157.275 33.1955 157 32.3411 157 31.2121C157 29.845 157.281 28.7526 157.836 27.9409C158.398 27.1293 159.228 26.6227 160.327 26.4213C161.108 26.281 161.688 26.0918 162.067 25.8477L162.616 26.8912C162.17 27.1842 161.554 27.4039 160.766 27.5687C159.558 27.8067 158.856 28.3986 158.654 29.3507ZM160.077 33.4823C160.559 33.4823 160.95 33.3236 161.237 32.9941C161.53 32.6645 161.67 32.2618 161.67 31.7674C161.67 31.2609 161.53 30.8459 161.237 30.5163C160.95 30.1868 160.559 30.0281 160.077 30.0281C159.601 30.0281 159.216 30.1868 158.929 30.5163C158.636 30.8459 158.496 31.2609 158.496 31.7674C158.496 32.2556 158.636 32.6645 158.923 32.9941C159.21 33.3175 159.594 33.4823 160.077 33.4823Z" fill="white"/>
<path d="M169.793 34.5097H168.346V30.1888H166.154V32.7581C166.154 33.7834 165.562 34.4181 164.39 34.6683L163.749 33.698C164.152 33.582 164.415 33.4356 164.531 33.2525C164.647 33.0755 164.701 32.8314 164.701 32.5201V29.0171H169.793V34.5097Z" fill="white"/>
<path d="M177.317 34.1737L176.297 34.6681C176.004 34.3934 175.858 34.1249 175.858 33.8503C175.321 34.3934 174.619 34.6681 173.758 34.6681C172.915 34.6681 172.226 34.3934 171.688 33.8503C171.145 33.3071 170.877 32.6053 170.877 31.757C170.877 30.9575 171.157 30.274 171.725 29.7003C172.293 29.1328 172.989 28.8521 173.807 28.8521C174.667 28.8521 175.339 29.1084 175.833 29.6271L177.024 29.0168V32.825C177.024 33.2644 177.042 33.5757 177.097 33.7404C177.146 33.9113 177.219 34.0578 177.317 34.1737ZM173.984 33.4841C174.472 33.4841 174.863 33.3254 175.156 33.002C175.455 32.6785 175.601 32.2635 175.601 31.7692C175.601 31.2383 175.461 30.8172 175.174 30.4998C174.893 30.1825 174.503 30.0299 174.008 30.0299C173.508 30.0299 173.111 30.1886 172.818 30.5059C172.525 30.8294 172.372 31.2383 172.372 31.7326C172.372 32.2391 172.519 32.6541 172.812 32.9898C173.099 33.3193 173.489 33.4841 173.984 33.4841Z" fill="white"/>
<path d="M182.265 29.0171L181.667 30.2865H179.927V34.5097H178.48V29.0171H182.265Z" fill="white"/>
<path d="M185.52 28.8525C186.436 28.8525 187.175 29.1272 187.748 29.6886C188.322 30.2562 188.609 30.9458 188.609 31.7697C188.609 32.5814 188.322 33.2649 187.755 33.8264C187.181 34.3878 186.436 34.6686 185.52 34.6686C184.605 34.6686 183.86 34.3878 183.292 33.8264C182.718 33.2649 182.438 32.5814 182.438 31.7697C182.438 30.958 182.718 30.2684 183.28 29.7008C183.842 29.1333 184.592 28.8525 185.52 28.8525ZM185.52 33.4846C186.003 33.4846 186.387 33.3259 186.68 32.9964C186.961 32.6668 187.107 32.264 187.107 31.7697C187.107 31.2632 186.961 30.8482 186.68 30.5186C186.387 30.1891 186.003 30.0304 185.52 30.0304C185.038 30.0304 184.653 30.1891 184.367 30.5186C184.08 30.8482 183.933 31.2632 183.933 31.7697C183.933 32.2579 184.08 32.6668 184.373 32.9964C184.66 33.3198 185.044 33.4846 185.52 33.4846Z" fill="white"/>
<path d="M194.33 29.0171L193.677 30.2865H192.218V34.5097H190.771V30.2865H189.086V29.0171H194.33Z" fill="white"/>
<path d="M198.821 31.5803C199.181 31.6535 199.468 31.8061 199.675 32.0319C199.883 32.2577 199.986 32.5201 199.986 32.8131C199.986 33.3501 199.84 33.7407 199.535 33.9848C199.23 34.235 198.882 34.3815 198.479 34.4303C198.082 34.4852 197.478 34.5097 196.672 34.5097H194.81V29.0171H197.27C198.039 29.0171 198.631 29.133 199.034 29.3711C199.443 29.6091 199.651 29.963 199.651 30.4268C199.651 30.97 199.37 31.3545 198.821 31.5803ZM196.257 31.1409H197.398C197.917 31.1409 198.18 30.9639 198.18 30.6038C198.18 30.4452 198.1 30.3109 197.941 30.2071C197.783 30.1034 197.569 30.0546 197.307 30.0546H196.257V31.1409ZM196.257 33.4783H197.374C198.118 33.4783 198.491 33.2525 198.491 32.8009C198.491 32.3859 198.167 32.1784 197.514 32.1784H196.257V33.4783Z" fill="white"/>
<path d="M203.781 28.8521C204.691 28.8521 205.436 29.1267 206.003 29.6881C206.577 30.2557 206.864 30.9453 206.864 31.7692C206.864 32.5809 206.583 33.2644 206.01 33.8259C205.442 34.3873 204.697 34.6681 203.781 34.6681C202.866 34.6681 202.121 34.3873 201.547 33.8259C200.979 33.2644 200.693 32.5809 200.693 31.7692C200.693 30.9575 200.973 30.2679 201.535 29.7003C202.103 29.1328 202.847 28.8521 203.781 28.8521ZM203.781 33.4841C204.264 33.4841 204.648 33.3254 204.935 32.9959C205.222 32.6663 205.369 32.2635 205.369 31.7692C205.369 31.2627 205.222 30.8477 204.935 30.5181C204.648 30.1886 204.264 30.0299 203.781 30.0299C203.299 30.0299 202.915 30.1886 202.622 30.5181C202.335 30.8477 202.194 31.2627 202.194 31.7692C202.194 32.2574 202.335 32.6663 202.628 32.9959C202.915 33.3193 203.299 33.4841 203.781 33.4841Z" fill="white"/>
<path d="M209.2 29.6393C209.682 29.1145 210.366 28.8521 211.232 28.8521C212.099 28.8521 212.801 29.1267 213.332 29.682C213.863 30.2374 214.132 30.9331 214.132 31.757C214.132 32.5565 213.851 33.2461 213.296 33.8137C212.734 34.3812 212.038 34.6681 211.196 34.6681C210.451 34.6681 209.853 34.4728 209.401 34.0822V36.5356L207.948 36.9567V29.0168L209.2 29.6393ZM211.025 33.4841C211.513 33.4841 211.904 33.3254 212.197 33.0081C212.49 32.6907 212.636 32.2758 212.636 31.7814C212.636 31.2749 212.49 30.8538 212.197 30.5242C211.91 30.1947 211.519 30.0299 211.025 30.0299C210.536 30.0299 210.146 30.1886 209.847 30.512C209.56 30.8294 209.407 31.2505 209.407 31.7692C209.407 32.288 209.554 32.703 209.841 33.0142C210.127 33.3316 210.524 33.4841 211.025 33.4841Z" fill="white"/>
<path d="M220.475 34.5099H219.034V31.5439L215.689 34.6686H215.219V29.0173H216.666V31.9833L220.011 28.8525H220.475V34.5099Z" fill="white"/>
<path d="M226.733 29.0171L226.08 30.2865H224.621V34.5097H223.174V30.2865H221.489V29.0171H226.733Z" fill="white"/>
<path d="M232.643 31.5129L228.382 32.3063C228.474 32.7213 228.663 33.0264 228.956 33.2278C229.249 33.4292 229.634 33.5329 230.122 33.5329C230.635 33.5329 231.148 33.3926 231.666 33.1057L232.265 34.1615C231.544 34.4972 230.781 34.6681 229.969 34.6681C229.023 34.6681 228.266 34.3995 227.692 33.8625C227.125 33.3254 226.838 32.648 226.838 31.8241C226.838 30.9514 227.119 30.2374 227.692 29.682C228.26 29.1267 228.974 28.8521 229.829 28.8521C230.623 28.8521 231.276 29.084 231.795 29.56C232.307 30.0299 232.588 30.6829 232.643 31.5129ZM231.111 30.7439C230.989 30.4937 230.818 30.3045 230.604 30.1764C230.391 30.0482 230.128 29.9811 229.817 29.9811C229.438 29.9811 229.109 30.097 228.84 30.3289C228.571 30.5547 228.407 30.866 228.346 31.2505L231.111 30.7439Z" fill="white"/>
<path d="M239.27 34.5097H237.824V30.1888H235.632V32.7581C235.632 33.7834 235.046 34.4181 233.868 34.6683L233.233 33.698C233.63 33.582 233.892 33.4356 234.008 33.2525C234.124 33.0755 234.185 32.8314 234.185 32.5201V29.0171H239.27V34.5097Z" fill="white"/>
<path d="M242.183 31.1409H243.324C244.209 31.1409 244.856 31.2751 245.278 31.5437C245.699 31.8122 245.912 32.2333 245.912 32.8009C245.912 33.3928 245.693 33.82 245.259 34.0947C244.82 34.3754 244.051 34.5097 242.958 34.5097H240.73V29.0171H242.183V31.1409ZM242.183 33.4783H243.275C243.709 33.4783 244.008 33.4233 244.173 33.3135C244.337 33.2036 244.417 33.0389 244.417 32.8253C244.417 32.392 244.069 32.1784 243.373 32.1784H242.183V33.4783Z" fill="white"/>
<path d="M252.228 34.5097H250.781V32.2272H248.413V34.5097H246.966V29.0171H248.413V31.1653H250.781V29.0171H252.228V34.5097Z" fill="white"/>
<path d="M255.138 31.1406H256.285C257.164 31.1406 257.818 31.2749 258.239 31.5434C258.66 31.8119 258.868 32.233 258.868 32.8006C258.868 33.3926 258.648 33.8198 258.214 34.0944C257.775 34.3751 257.012 34.5094 255.913 34.5094H253.691V29.0168H255.138V31.1406ZM255.138 33.478H256.23C256.67 33.478 256.969 33.4231 257.134 33.3132C257.293 33.2034 257.378 33.0386 257.378 32.825C257.378 32.3917 257.024 32.1781 256.328 32.1781H255.138V33.478ZM261.132 34.5094H259.686V29.2121L261.132 28.8521V34.5094Z" fill="white"/>
<path d="M267.844 34.5072H266.403V31.5412L263.058 34.6658H262.588V29.0146H264.035V31.9806L267.38 28.8498H267.844V34.5072ZM267.166 26.5552C266.983 27.6598 266.336 28.209 265.225 28.209C264.102 28.209 263.455 27.6598 263.266 26.5552H264.249C264.316 26.7749 264.45 26.9519 264.633 27.0983C264.816 27.2387 265.018 27.3058 265.225 27.3058C265.72 27.3058 266.043 27.0556 266.19 26.5552H267.166Z" fill="white"/>
<path d="M275.96 28.894C276.808 29.0099 277.474 29.3395 277.962 29.8765C278.45 30.4136 278.688 31.0422 278.688 31.7562C278.688 32.4702 278.45 33.0988 277.962 33.6359C277.474 34.179 276.808 34.5025 275.96 34.6123V36.5408L274.55 36.9558V34.6123C273.701 34.5025 273.036 34.179 272.547 33.6359C272.059 33.0988 271.815 32.4702 271.815 31.7562C271.815 31.0422 272.059 30.4136 272.547 29.8765C273.036 29.3395 273.701 29.0099 274.55 28.894V26.2453L275.96 25.8364V28.894ZM275.96 33.4528C276.356 33.3429 276.668 33.1354 276.9 32.8181C277.132 32.5007 277.248 32.1468 277.248 31.7562C277.248 31.3656 277.132 31.0116 276.9 30.6943C276.662 30.3769 276.35 30.1633 275.96 30.0596V33.4528ZM274.55 33.4528V30.0596C274.165 30.1572 273.854 30.3647 273.616 30.6882C273.384 31.0116 273.261 31.3656 273.261 31.7562C273.261 32.1407 273.384 32.5007 273.616 32.8181C273.854 33.1415 274.165 33.3551 274.55 33.4528Z" fill="white"/>
<path d="M282.483 28.8521C283.392 28.8521 284.137 29.1267 284.711 29.6881C285.279 30.2557 285.565 30.9453 285.565 31.7692C285.565 32.5809 285.285 33.2644 284.711 33.8259C284.143 34.3873 283.398 34.6681 282.483 34.6681C281.567 34.6681 280.822 34.3873 280.248 33.8259C279.681 33.2644 279.394 32.5809 279.394 31.7692C279.394 30.9575 279.675 30.2679 280.236 29.7003C280.804 29.1328 281.549 28.8521 282.483 28.8521ZM282.483 33.4841C282.965 33.4841 283.35 33.3254 283.636 32.9959C283.923 32.6663 284.07 32.2635 284.07 31.7692C284.07 31.2627 283.923 30.8477 283.636 30.5181C283.35 30.1886 282.965 30.0299 282.483 30.0299C282 30.0299 281.616 30.1886 281.323 30.5181C281.042 30.8477 280.896 31.2627 280.896 31.7692C280.896 32.2574 281.042 32.6663 281.329 32.9959C281.616 33.3193 282 33.4841 282.483 33.4841Z" fill="white"/>
<path d="M291.909 34.5097H290.468V32.2272H288.099V34.5097H286.653V29.0171H288.099V31.1653H290.468V29.0171H291.909V34.5097Z" fill="white"/>
<path d="M298.984 33.3318L297.586 36.0476H296.408L296.866 34.5097H294.241L293.783 36.0476H292.782V33.3318H293.002C293.49 33.2525 293.735 32.8131 293.735 32.0075V29.0171H298.41V33.3318H298.984ZM296.964 33.3318V30.1888H295.114V31.922C295.114 32.5567 295.029 33.0267 294.852 33.3318H296.964Z" fill="white"/>
<path d="M162.573 47.0273H161.133V42.7064H158.764V47.0273H157.317V41.5347H162.573V47.0273Z" fill="white"/>
<path d="M166.743 41.3696C167.653 41.3696 168.398 41.6504 168.972 42.2118C169.545 42.7733 169.832 43.4629 169.832 44.2868C169.832 45.0985 169.545 45.7881 168.972 46.3435C168.404 46.9049 167.659 47.1856 166.743 47.1856C165.828 47.1856 165.083 46.9049 164.509 46.3435C163.941 45.782 163.655 45.0985 163.655 44.2868C163.655 43.4751 163.935 42.7855 164.497 42.2179C165.065 41.6504 165.809 41.3696 166.743 41.3696ZM166.743 46.0078C167.226 46.0078 167.61 45.843 167.897 45.5135C168.184 45.1839 168.331 44.7811 168.331 44.2868C168.331 43.7803 168.184 43.3653 167.897 43.0357C167.61 42.7123 167.226 42.5475 166.743 42.5475C166.261 42.5475 165.877 42.7123 165.59 43.0357C165.303 43.3653 165.156 43.7803 165.156 44.2868C165.156 44.775 165.303 45.1839 165.59 45.5135C165.877 45.843 166.261 46.0078 166.743 46.0078Z" fill="white"/>
<path d="M177.332 47.027H175.91L175.501 44.2746L173.957 47.1856H173.462L172.089 44.2624L171.625 47.027H170.294L171.448 41.3696H171.991L173.816 45.0069L175.727 41.3696H176.252L177.332 47.027Z" fill="white"/>
<path d="M180.892 41.3696C181.807 41.3696 182.546 41.6504 183.12 42.2118C183.694 42.7733 183.98 43.4629 183.98 44.2868C183.98 45.0985 183.694 45.7881 183.126 46.3435C182.552 46.9049 181.807 47.1856 180.892 47.1856C179.976 47.1856 179.231 46.9049 178.663 46.3435C178.09 45.782 177.809 45.0985 177.809 44.2868C177.809 43.4751 178.09 42.7855 178.651 42.2179C179.213 41.6504 179.964 41.3696 180.892 41.3696ZM180.892 46.0078C181.374 46.0078 181.758 45.843 182.051 45.5135C182.338 45.1839 182.479 44.7811 182.479 44.2868C182.479 43.7803 182.338 43.3653 182.051 43.0357C181.758 42.7123 181.374 42.5475 180.892 42.5475C180.409 42.5475 180.025 42.7123 179.738 43.0357C179.451 43.3653 179.304 43.7803 179.304 44.2868C179.304 44.775 179.451 45.1839 179.744 45.5135C180.031 45.843 180.415 46.0078 180.892 46.0078Z" fill="white"/>
<path d="M194.404 45.8494L193 48.5713H191.828L192.286 47.0273H185.058V41.5347H186.505V45.8494H188.721V41.5347H190.168V45.8494H192.378V41.5347H193.831V45.8494H194.404Z" fill="white"/>
<path d="M200.554 47.027H199.107V44.061L195.762 47.1856H195.292V41.5344H196.739V44.5004L200.084 41.3696H200.554V47.027Z" fill="white"/>
<path d="M210.519 45.8494L209.115 48.5713H207.937L208.395 47.0273H205.776L205.318 48.5713H204.317V45.8494H204.537C205.019 45.7762 205.263 45.3307 205.263 44.5251V41.5347H209.946V45.8494H210.519ZM208.493 45.8494V42.7064H206.643V44.4396C206.643 45.0743 206.558 45.5504 206.387 45.8494H208.493Z" fill="white"/>
<path d="M216.823 44.0305L212.562 44.8299C212.654 45.2388 212.849 45.544 213.142 45.7454C213.429 45.9468 213.82 46.0505 214.302 46.0505C214.815 46.0505 215.327 45.9102 215.846 45.6233L216.451 46.6791C215.73 47.0148 214.961 47.1856 214.149 47.1856C213.209 47.1856 212.452 46.9171 211.878 46.3801C211.304 45.843 211.018 45.1656 211.018 44.3478C211.018 43.469 211.304 42.755 211.872 42.1996C212.446 41.6443 213.16 41.3696 214.015 41.3696C214.802 41.3696 215.462 41.6076 215.974 42.0776C216.487 42.5475 216.774 43.2005 216.823 44.0305ZM215.291 43.2615C215.175 43.0113 215.004 42.8221 214.79 42.6939C214.577 42.5658 214.308 42.4987 214.003 42.4987C213.618 42.4987 213.295 42.6146 213.026 42.8465C212.757 43.0723 212.593 43.3836 212.532 43.7681L215.291 43.2615Z" fill="white"/>
<path d="M222.702 41.5347L222.055 42.8041H220.596V47.0273H219.143V42.8041H217.465V41.5347H222.702Z" fill="white"/>
<path d="M227.276 47.0273H225.823V45.0987H225.39L224.071 47.0273H222.398L224.022 44.8729C223.668 44.7692 223.387 44.5739 223.167 44.2932C222.954 44.0063 222.85 43.6768 222.85 43.3106C222.85 42.7613 223.07 42.3219 223.509 42.0107C223.949 41.6933 224.572 41.5347 225.377 41.5347H227.276V47.0273ZM225.823 44.0613V42.5722H225.377C224.706 42.5722 224.364 42.8224 224.364 43.335C224.364 43.8171 224.706 44.0613 225.377 44.0613H225.823Z" fill="white"/>
<path d="M235.161 47.027H233.732L233.323 44.2746L231.779 47.1856H231.284L229.911 44.2624L229.453 47.027H228.116L229.27 41.3696H229.813L231.639 45.0069L233.549 41.3696H234.08L235.161 47.027Z" fill="white"/>
</g>
<defs>
<clipPath id="clip0_1220_6234">
<rect width="314" height="52" fill="white"/>
</clipPath>
</defs>
</svg>
