<svg width="226" height="111" viewBox="0 0 226 111" fill="none" xmlns="http://www.w3.org/2000/svg">
<g clip-path="url(#clip0_650_9558)">
<path d="M50.0751 37.0171C50.4888 36.5675 51.0299 36.2551 51.626 36.1214L75.0333 30.8727C76.9154 30.4506 78.7009 31.8887 78.6897 33.8175L78.6007 49.0779C78.5895 51.0069 76.7869 52.424 74.9098 51.9798L51.306 46.3933C50.6949 46.2486 50.1446 45.9159 49.7327 45.442L47.8932 43.3256C46.8908 42.1724 46.9153 40.4501 47.95 39.3259L50.0751 37.0171Z" fill="#7042D1"/>
<path d="M49.5159 46.3444C50.1258 46.3904 50.7071 46.6217 51.1818 47.0073L69.9674 62.2655C71.4583 63.4765 71.443 65.7571 69.9359 66.948L58.0161 76.3667C56.4992 77.5653 54.2614 77.0373 53.4402 75.2872L43.0966 53.2414C42.833 52.6796 42.7501 52.0498 42.8593 51.4389L43.3699 48.584C43.6408 47.0692 45.0141 46.005 46.5486 46.1207L49.5159 46.3444Z" fill="#4295D1"/>
<path d="M41.9234 51.5438C42.2636 52.0465 42.4433 52.6406 42.4388 53.2475L42.2556 77.8302C42.2413 79.7593 40.4362 81.1736 38.5598 80.726L23.8136 77.2091C21.9429 76.763 20.9692 74.6967 21.816 72.9701L32.5763 51.0273C32.8501 50.4689 33.2908 50.0094 33.8372 49.7123L36.4513 48.2916C37.808 47.5541 39.503 47.9671 40.3684 49.2461L41.9234 51.5438Z" fill="#5ECDDA"/>
<path d="M33.3004 48.8991C33.1216 49.4843 32.7681 50.0009 32.2873 50.3795L12.9363 65.617C11.4174 66.813 9.18043 66.2812 8.36226 64.5296L1.91243 50.7216C1.09843 48.979 2.11149 46.9313 3.9906 46.521L27.8591 41.3097C28.4705 41.1763 29.1083 41.2373 29.6832 41.4843L32.4128 42.657C33.8188 43.261 34.5448 44.8265 34.0976 46.29L33.3004 48.8991Z" fill="#A1DB6F"/>
<path d="M29.7659 40.6118C29.1922 40.8385 28.5626 40.8829 27.9628 40.739L4.16005 35.0248C2.29004 34.5759 1.31942 32.5082 2.16877 30.7828L8.89895 17.1107C9.75286 15.376 12.0006 14.8902 13.4947 16.1174L32.5117 31.738C32.9904 32.1312 33.3356 32.6629 33.5 33.2602L34.2439 35.9631C34.6504 37.44 33.8789 38.986 32.4543 39.5491L29.7659 40.6118Z" fill="#FAE3A5"/>
<path d="M33.1667 32.041C33.1731 32.0636 33.1411 32.0756 33.131 32.0544L21.818 8.28038C21.2025 6.98701 21.946 5.45673 23.3431 5.14109L39.0615 1.59001C40.9429 1.16496 42.7308 2.60023 42.7226 4.52903L42.6166 29.4278C42.6139 30.0523 42.4164 30.6604 42.0517 31.1673L40.0669 33.9254C39.4652 34.7615 38.327 35.0042 37.4366 34.4863L33.1948 32.0192C33.1799 32.0106 33.162 32.0244 33.1667 32.041Z" fill="#F2A73B"/>
<path d="M42.957 29.9072L53.6278 7.73449C54.4673 5.9902 56.7145 5.48576 58.2189 6.70392L69.9878 16.2332C71.4914 17.4507 71.4665 19.7519 69.937 20.9365L50.8038 35.7561C50.3156 36.1342 49.7226 36.3525 49.1057 36.3811L45.7296 36.5376C44.7354 36.5837 43.8675 35.8705 43.7199 34.8863L42.9743 29.911C42.973 29.9024 42.9618 29.8999 42.957 29.9072Z" fill="#EE7D5F"/>
<path d="M122.539 29.6593H115.234L109.919 22.69C107.87 20.0212 106.738 18.558 106.542 18.3107C106.345 18.0634 106.06 17.8229 105.695 17.6065C105.34 17.3867 104.944 17.2356 104.538 17.16C104.121 17.081 103.612 17.0467 102.999 17.0467V29.6593H97.1641V0.710719H102.999V12.207C105.302 12.0765 107.433 10.1049 109.385 6.29915C110.566 4.00126 111.829 2.40064 113.162 1.50416C114.504 0.607674 116.167 0.157715 118.167 0.157715C119.165 0.157715 120.026 0.216107 120.745 0.33289V5.42671C120.322 5.39579 119.637 5.38205 118.697 5.38205C117.785 5.38205 117 5.60875 116.336 6.05184C115.678 6.5018 115.045 7.33302 114.446 8.53864C112.983 11.5235 111.027 13.4126 108.59 14.2061C109.788 14.4774 111.406 15.872 113.44 18.4068L122.539 29.6593ZM130.684 11.5887C132.495 9.63778 135.018 8.66229 138.247 8.66229C141.476 8.66229 144.082 9.69617 146.058 11.7571C148.028 13.8145 149.019 16.3837 149.019 19.4545C149.019 22.4221 147.976 24.9604 145.903 27.0694C143.835 29.1818 141.235 30.2363 138.116 30.2363C135.352 30.2363 133.128 29.515 131.431 28.0827V37.1609L126.047 38.7409V9.28056L130.684 11.5887ZM137.483 25.8638C139.29 25.8638 140.733 25.273 141.828 24.088C142.915 22.903 143.463 21.3814 143.463 19.5335C143.463 17.6649 142.922 16.1055 141.834 14.8759C140.757 13.6462 139.304 13.0348 137.483 13.0348C135.659 13.0348 134.199 13.6325 133.108 14.8243C132.02 16.0196 131.472 17.5756 131.472 19.4957C131.472 21.4089 132.006 22.9545 133.077 24.1155C134.14 25.2799 135.614 25.8638 137.483 25.8638ZM175.588 28.4021L171.784 30.2363C170.704 29.223 170.163 28.2201 170.163 27.2102C168.153 29.223 165.557 30.2363 162.362 30.2363C159.233 30.2363 156.658 29.223 154.654 27.2102C152.641 25.194 151.642 22.6042 151.642 19.4545C151.642 16.4765 152.692 13.9382 154.799 11.8292C156.906 9.72021 159.488 8.66229 162.538 8.66229C165.722 8.66229 168.239 9.62404 170.077 11.5441L174.48 9.28056V23.4182C174.48 25.0463 174.569 26.1832 174.759 26.8152C174.941 27.4507 175.217 27.9796 175.588 28.4021ZM163.202 25.8638C165.01 25.8638 166.459 25.2661 167.554 24.0674C168.655 22.8652 169.203 21.3367 169.203 19.4957C169.203 17.531 168.676 15.9681 167.619 14.7969C166.569 13.6187 165.12 13.0348 163.281 13.0348C161.422 13.0348 159.942 13.6256 158.854 14.8106C157.76 16.0059 157.212 17.5172 157.212 19.3651C157.212 21.2268 157.753 22.7793 158.834 24.0159C159.904 25.2524 161.364 25.8638 163.202 25.8638ZM199.456 29.6593H194.089V18.661L181.658 30.2363H179.905V9.28056H185.29V20.2822L197.721 8.66229H199.456V29.6593ZM196.925 0.157715C196.24 4.25544 193.834 6.29915 189.706 6.29915C185.551 6.29915 183.131 4.25544 182.443 0.157715H186.074C186.346 0.971764 186.825 1.63468 187.52 2.16708C188.205 2.68917 188.942 2.95365 189.706 2.95365C191.558 2.95365 192.756 2.01938 193.293 0.157715H196.925ZM136.409 52.1229C139.8 52.1229 142.557 53.1636 144.685 55.2451C146.816 57.3301 147.88 59.8993 147.88 62.9563C147.88 65.9686 146.823 68.5069 144.702 70.5815C142.578 72.663 139.817 73.6935 136.409 73.6935C133.004 73.6935 130.24 72.6527 128.119 70.5747C125.999 68.4932 124.938 65.9514 124.938 62.9563C124.938 59.9371 125.982 57.3816 128.075 55.2795C130.175 53.1774 132.946 52.1229 136.409 52.1229ZM136.409 69.321C138.203 69.321 139.635 68.7164 140.705 67.504C141.769 66.288 142.309 64.7733 142.309 62.9563C142.309 61.0774 141.769 59.5283 140.705 58.3124C139.635 57.0999 138.203 56.4954 136.409 56.4954C134.615 56.4954 133.187 57.0999 132.116 58.3124C131.049 59.5283 130.512 61.0774 130.512 62.9563C130.512 64.7595 131.049 66.2743 132.13 67.4971C133.201 68.7096 134.629 69.321 136.409 69.321ZM156.878 53.9983C158.703 52.748 160.744 52.1229 163.009 52.1229C166.111 52.1229 168.662 53.1705 170.652 55.2657C172.652 57.361 173.643 59.9233 173.643 62.9563C173.643 65.9686 172.587 68.5069 170.463 70.5815C168.342 72.663 165.578 73.6935 162.173 73.6935C158.686 73.6935 155.901 72.6115 153.832 70.4338C151.759 68.2596 150.723 65.079 150.723 60.9057C150.723 55.8187 151.766 51.7657 153.845 48.7533C155.925 45.741 159.009 43.8656 163.092 43.1306C166.001 42.605 168.159 41.894 169.567 40.9976L171.592 44.8755C169.946 45.9437 167.65 46.7749 164.717 47.3726C160.249 48.2519 157.629 50.4639 156.878 53.9983ZM162.173 69.321C163.966 69.321 165.402 68.7164 166.483 67.504C167.554 66.288 168.094 64.7733 168.094 62.9563C168.094 61.0774 167.554 59.5283 166.483 58.3124C165.402 57.0999 163.966 56.4954 162.173 56.4954C160.393 56.4954 158.964 57.0999 157.89 58.3124C156.813 59.5283 156.279 61.0774 156.279 62.9563C156.279 64.7595 156.813 66.2743 157.877 67.4971C158.951 68.7096 160.379 69.321 162.173 69.321ZM182.298 55.0459C184.105 53.0984 186.629 52.1229 189.861 52.1229C193.09 52.1229 195.693 53.1568 197.669 55.2142C199.638 57.2751 200.629 59.8409 200.629 62.9116C200.629 65.8793 199.586 68.421 197.517 70.53C195.445 72.639 192.849 73.6935 189.73 73.6935C186.966 73.6935 184.742 72.9756 183.042 71.5398V80.6215L177.661 82.1981V52.7412L182.298 55.0459ZM189.094 69.321C190.904 69.321 192.347 68.7336 193.441 67.5452C194.526 66.3602 195.073 64.8385 195.073 62.9906C195.073 61.1221 194.533 59.5661 193.448 58.3365C192.367 57.1068 190.918 56.4954 189.094 56.4954C187.272 56.4954 185.813 57.0931 184.718 58.2849C183.634 59.4768 183.086 61.0362 183.086 62.9563C183.086 64.8695 183.62 66.4117 184.691 67.5761C185.754 68.7405 187.228 69.321 189.094 69.321ZM227.202 71.8593L223.395 73.6935C222.317 72.6836 221.777 71.6772 221.777 70.6674C219.763 72.6836 217.167 73.6935 213.976 73.6935C210.847 73.6935 208.272 72.6836 206.268 70.6674C204.254 68.6512 203.256 66.0613 203.256 62.9116C203.256 59.9371 204.306 57.3953 206.413 55.2864C208.52 53.1774 211.102 52.1229 214.148 52.1229C217.336 52.1229 219.853 53.0812 221.691 55.0047L226.094 52.7412V66.8754C226.094 68.5069 226.18 69.6404 226.369 70.2758C226.552 70.9078 226.831 71.4402 227.202 71.8593ZM214.813 69.321C216.62 69.321 218.073 68.7267 219.168 67.5246C220.269 66.3258 220.813 64.7973 220.813 62.9563C220.813 60.9916 220.29 59.4287 219.233 58.254C218.183 57.0759 216.73 56.4954 214.892 56.4954C213.033 56.4954 211.553 57.0828 210.468 58.2712C209.374 59.4631 208.826 60.9778 208.826 62.8257C208.826 64.6874 209.367 66.2365 210.444 67.473C211.518 68.7096 212.974 69.321 214.813 69.321Z" fill="white"/>
<path d="M108.893 73.1204H100.804L99.0286 79.2825H95.0508V68.0506C96.3358 67.8755 97.3004 67.5045 97.9446 66.9343C98.5957 66.3676 99.0217 65.6772 99.216 64.8631C99.4171 64.0388 99.5126 63.029 99.5126 61.8199V44.1719H118.277V61.8199C118.277 63.029 118.369 64.0388 118.573 64.8631C118.767 65.6772 119.193 66.3676 119.841 66.9343C120.485 67.5045 121.453 67.8755 122.738 68.0506V79.2825H118.761L116.985 73.1204H108.893ZM108.893 49.2485H104.84V60.5834C104.84 62.6065 104.731 64.1041 104.506 65.0795C104.278 66.0619 103.787 67.0511 103.02 68.0506H114.766C114.002 67.0511 113.511 66.0619 113.28 65.0795C113.055 64.1041 112.949 62.6065 112.949 60.5834V49.2485H108.893Z" fill="white"/>
<path d="M96.6099 91.1779C97.0851 90.8734 97.6198 90.7239 98.2139 90.7239C99.0277 90.7239 99.6931 90.9785 100.216 91.4879C100.739 92.0028 101 92.6284 101 93.3702C101 94.1066 100.721 94.7266 100.168 95.236C99.6099 95.7453 98.8851 96 97.9941 96C97.0851 96 96.3545 95.7343 95.8139 95.2028C95.2673 94.6657 95 93.8907 95 92.8664C95 91.6263 95.2733 90.6353 95.8139 89.899C96.3604 89.1626 97.1683 88.7031 98.2376 88.5204C98.998 88.3931 99.5624 88.2215 99.9307 88L100.465 88.9467C100.032 89.2125 99.4317 89.4118 98.6653 89.5612C97.4891 89.7772 96.8059 90.3142 96.6099 91.1779ZM97.9941 94.926C98.4634 94.926 98.8436 94.782 99.1228 94.483C99.4079 94.1841 99.5446 93.8187 99.5446 93.3702C99.5446 92.9107 99.4079 92.5343 99.1228 92.2353C98.8436 91.9363 98.4634 91.7924 97.9941 91.7924C97.5307 91.7924 97.1564 91.9363 96.8772 92.2353C96.5921 92.5343 96.4554 92.9107 96.4554 93.3702C96.4554 93.8131 96.5921 94.1841 96.8713 94.483C97.1505 94.7765 97.5248 94.926 97.9941 94.926Z" fill="white"/>
<path d="M107 95.8596H105.803V92.0367H103.99V94.3099C103.99 95.2171 103.5 95.7786 102.53 96L102 95.1415C102.333 95.0389 102.551 94.9093 102.646 94.7473C102.742 94.5907 102.788 94.3747 102.788 94.0994V91H107V95.8596Z" fill="white"/>
<path d="M114 95.575L113.05 96C112.777 95.7639 112.641 95.5331 112.641 95.297C112.14 95.7639 111.486 96 110.684 96C109.9 96 109.257 95.7639 108.756 95.297C108.25 94.83 108 94.2267 108 93.4974C108 92.8101 108.262 92.2225 108.791 91.7293C109.319 91.2413 109.968 91 110.73 91C111.532 91 112.157 91.2204 112.618 91.6663L113.727 91.1417V94.4155C113.727 94.7933 113.744 95.0609 113.795 95.2025C113.841 95.3494 113.909 95.4753 114 95.575ZM110.895 94.9822C111.35 94.9822 111.714 94.8458 111.987 94.5677C112.265 94.2896 112.402 93.9328 112.402 93.5079C112.402 93.0514 112.271 92.6894 112.004 92.4166C111.742 92.1438 111.378 92.0126 110.918 92.0126C110.451 92.0126 110.082 92.149 109.809 92.4218C109.536 92.6999 109.393 93.0514 109.393 93.4764C109.393 93.9119 109.53 94.2686 109.803 94.5572C110.07 94.8405 110.434 94.9822 110.895 94.9822Z" fill="white"/>
<path d="M119 91L118.368 92.1556H116.529V96H115V91H119Z" fill="white"/>
<path d="M121.997 91C122.887 91 123.605 91.2361 124.163 91.7188C124.721 92.2067 125 92.7996 125 93.5079C125 94.2057 124.721 94.7933 124.169 95.276C123.611 95.7587 122.887 96 121.997 96C121.107 96 120.383 95.7587 119.831 95.276C119.273 94.7933 119 94.2057 119 93.5079C119 92.8101 119.273 92.2172 119.819 91.7293C120.365 91.2413 121.095 91 121.997 91ZM121.997 94.9822C122.466 94.9822 122.84 94.8457 123.125 94.5624C123.398 94.2791 123.54 93.9328 123.54 93.5079C123.54 93.0724 123.398 92.7156 123.125 92.4323C122.84 92.149 122.466 92.0126 121.997 92.0126C121.528 92.0126 121.154 92.149 120.875 92.4323C120.596 92.7156 120.454 93.0724 120.454 93.5079C120.454 93.9276 120.596 94.2791 120.881 94.5624C121.16 94.8405 121.534 94.9822 121.997 94.9822Z" fill="white"/>
<path d="M130 91L129.377 92.1556H127.986V96H126.607V92.1556H125V91H130Z" fill="white"/>
<path d="M133.874 93.3333C134.222 93.4 134.499 93.5389 134.699 93.7444C134.9 93.95 135 94.1889 135 94.4556C135 94.9444 134.858 95.3 134.564 95.5222C134.269 95.75 133.933 95.8833 133.544 95.9278C133.16 95.9778 132.577 96 131.798 96H130V91H132.376C133.119 91 133.691 91.1056 134.08 91.3222C134.475 91.5389 134.676 91.8611 134.676 92.2833C134.676 92.7778 134.404 93.1278 133.874 93.3333ZM131.397 92.9333H132.5C133.001 92.9333 133.255 92.7722 133.255 92.4444C133.255 92.3 133.178 92.1778 133.025 92.0833C132.871 91.9889 132.665 91.9444 132.412 91.9444H131.397V92.9333ZM131.397 95.0611H132.476C133.196 95.0611 133.555 94.8556 133.555 94.4444C133.555 94.0667 133.243 93.8778 132.612 93.8778H131.397V95.0611Z" fill="white"/>
<path d="M139.003 91C139.887 91 140.611 91.2361 141.163 91.7188C141.721 92.2067 142 92.7996 142 93.5079C142 94.2057 141.727 94.7933 141.169 95.276C140.617 95.7587 139.893 96 139.003 96C138.113 96 137.389 95.7587 136.831 95.276C136.279 94.7933 136 94.2057 136 93.5079C136 92.8101 136.273 92.2172 136.819 91.7293C137.371 91.2413 138.095 91 139.003 91ZM139.003 94.9822C139.472 94.9822 139.846 94.8457 140.125 94.5624C140.404 94.2791 140.546 93.9328 140.546 93.5079C140.546 93.0724 140.404 92.7156 140.125 92.4323C139.846 92.149 139.472 92.0126 139.003 92.0126C138.534 92.0126 138.16 92.149 137.875 92.4323C137.596 92.7156 137.46 93.0724 137.46 93.5079C137.46 93.9276 137.596 94.2791 137.881 94.5624C138.16 94.8405 138.534 94.9822 139.003 94.9822Z" fill="white"/>
<path d="M144.012 91.68C144.402 91.2267 144.955 91 145.655 91C146.356 91 146.924 91.2372 147.353 91.7169C147.783 92.1965 148 92.7974 148 93.509C148 94.1995 147.773 94.7952 147.324 95.2854C146.87 95.7756 146.307 96.0233 145.626 96.0233C145.024 96.0233 144.54 95.8547 144.175 95.5173V97.6363L143 98V91.1423L144.012 91.68ZM145.488 95.0008C145.883 95.0008 146.198 94.8637 146.435 94.5896C146.672 94.3155 146.791 93.9571 146.791 93.5301C146.791 93.0926 146.672 92.7289 146.435 92.4443C146.203 92.1596 145.887 92.0173 145.488 92.0173C145.093 92.0173 144.777 92.1544 144.535 92.4337C144.303 92.7078 144.18 93.0715 144.18 93.5196C144.18 93.9676 144.298 94.3261 144.53 94.5949C144.762 94.869 145.083 95.0008 145.488 95.0008Z" fill="white"/>
<path d="M154 95.8636H152.63V93.3137L149.447 96H149V91.1417H150.376V93.6915L153.559 91H154V95.8636Z" fill="white"/>
<path d="M160 91L159.377 92.1556H157.986V96H156.607V92.1556H155V91H160Z" fill="white"/>
<path d="M166 93.2875L161.596 93.9696C161.691 94.3263 161.886 94.5887 162.189 94.7618C162.492 94.9349 162.89 95.0241 163.394 95.0241C163.924 95.0241 164.454 94.9035 164.991 94.6569L165.609 95.5645C164.864 95.8531 164.076 96 163.237 96C162.259 96 161.476 95.7692 160.883 95.3075C160.297 94.8458 160 94.2634 160 93.5551C160 92.8048 160.29 92.191 160.883 91.7135C161.47 91.2361 162.208 91 163.091 91C163.912 91 164.587 91.1994 165.123 91.6086C165.653 92.0126 165.943 92.574 166 93.2875ZM164.416 92.6264C164.29 92.4113 164.114 92.2487 163.893 92.1385C163.672 92.0283 163.401 91.9706 163.079 91.9706C162.688 91.9706 162.347 92.0703 162.069 92.2697C161.792 92.4638 161.621 92.7314 161.558 93.0619L164.416 92.6264Z" fill="white"/>
<path d="M172 95.8596H170.562V92.0367H168.384V94.3099C168.384 95.2171 167.802 95.7786 166.631 96L166 95.1415C166.394 95.0389 166.655 94.9093 166.77 94.7473C166.886 94.5907 166.946 94.3747 166.946 94.0994V91H172V95.8596Z" fill="white"/>
<path d="M174.402 92.9333H175.503C176.357 92.9333 176.981 93.0556 177.388 93.3C177.794 93.5444 178 93.9278 178 94.4444C178 94.9833 177.788 95.3722 177.37 95.6222C176.946 95.8778 176.204 96 175.15 96H173V91H174.402V92.9333ZM174.402 95.0611H175.456C175.874 95.0611 176.163 95.0111 176.322 94.9111C176.481 94.8111 176.557 94.6611 176.557 94.4667C176.557 94.0722 176.221 93.8778 175.55 93.8778H174.402V95.0611Z" fill="white"/>
<path d="M184 96H182.625V93.9222H180.375V96H179V91H180.375V92.9556H182.625V91H184V96Z" fill="white"/>
<path d="M186.361 93.0227H187.441C188.267 93.0227 188.882 93.1413 189.278 93.3786C189.674 93.616 189.87 93.9881 189.87 94.4898C189.87 95.0129 189.663 95.3905 189.255 95.6332C188.842 95.8813 188.124 96 187.09 96H185V91.1456H186.361V93.0227ZM186.361 95.0885H187.389C187.802 95.0885 188.084 95.0399 188.239 94.9428C188.388 94.8457 188.468 94.7001 188.468 94.5113C188.468 94.1284 188.135 93.9396 187.481 93.9396H186.361V95.0885ZM192 96H190.639V91.3182L192 91V96Z" fill="white"/>
<path d="M198 95.8435H196.63V92.918L193.447 96H193V90.4259H194.376V93.3514L197.559 90.2634H198V95.8435ZM197.355 88C197.181 89.0895 196.566 89.6313 195.509 89.6313C194.44 89.6313 193.825 89.0895 193.645 88H194.58C194.643 88.2167 194.771 88.3913 194.945 88.5357C195.12 88.6742 195.311 88.7404 195.509 88.7404C195.979 88.7404 196.287 88.4936 196.426 88H197.355Z" fill="white"/>
<path d="M205.618 90.7497C206.359 90.854 206.94 91.1504 207.366 91.6334C207.792 92.1164 208 92.6817 208 93.3238C208 93.966 207.792 94.5313 207.366 95.0143C206.94 95.5027 206.359 95.7936 205.618 95.8924V97.6268L204.387 98V95.8924C203.647 95.7936 203.066 95.5027 202.639 95.0143C202.213 94.5313 202 93.966 202 93.3238C202 92.6817 202.213 92.1164 202.639 91.6334C203.066 91.1504 203.647 90.854 204.387 90.7497V88.3677L205.618 88V90.7497ZM205.618 94.8496C205.964 94.7508 206.236 94.5642 206.439 94.2788C206.641 93.9934 206.742 93.6751 206.742 93.3238C206.742 92.9726 206.641 92.6542 206.439 92.3688C206.231 92.0834 205.959 91.8913 205.618 91.798V94.8496ZM204.387 94.8496V91.798C204.052 91.8858 203.78 92.0724 203.572 92.3633C203.369 92.6542 203.263 92.9726 203.263 93.3238C203.263 93.6696 203.369 93.9934 203.572 94.2788C203.78 94.5697 204.052 94.7618 204.387 94.8496Z" fill="white"/>
<path d="M212.003 91C212.887 91 213.611 91.2361 214.169 91.7188C214.721 92.2067 215 92.7996 215 93.5079C215 94.2057 214.727 94.7933 214.169 95.276C213.617 95.7587 212.893 96 212.003 96C211.113 96 210.389 95.7587 209.831 95.276C209.279 94.7933 209 94.2057 209 93.5079C209 92.8101 209.273 92.2172 209.819 91.7293C210.371 91.2413 211.095 91 212.003 91ZM212.003 94.9822C212.472 94.9822 212.846 94.8457 213.125 94.5624C213.404 94.2791 213.546 93.9328 213.546 93.5079C213.546 93.0724 213.404 92.7156 213.125 92.4323C212.846 92.149 212.472 92.0126 212.003 92.0126C211.534 92.0126 211.16 92.149 210.875 92.4323C210.602 92.7156 210.46 93.0724 210.46 93.5079C210.46 93.9276 210.602 94.2791 210.881 94.5624C211.16 94.8405 211.534 94.9822 212.003 94.9822Z" fill="white"/>
<path d="M221 96H219.63V93.9222H217.376V96H216V91H217.376V92.9556H219.63V91H221V96Z" fill="white"/>
<path d="M227 94.6823L225.648 97H224.508L224.951 95.6875H222.411L221.969 97H221V94.6823H221.213C221.685 94.6146 221.921 94.2396 221.921 93.5521V91H226.445V94.6823H227ZM225.045 94.6823V92H223.256V93.4792C223.256 94.0208 223.173 94.4219 223.002 94.6823H225.045Z" fill="white"/>
<path d="M101 110H99.6295V105.28H97.3763V110H96V104H101V110Z" fill="white"/>
<path d="M104.5 104C105.236 104 105.839 104.29 106.303 104.869C106.768 105.448 107 106.159 107 107.009C107 107.847 106.768 108.558 106.303 109.131C105.844 109.71 105.241 110 104.5 110C103.759 110 103.156 109.71 102.692 109.131C102.232 108.552 102 107.847 102 107.009C102 106.172 102.227 105.461 102.682 104.875C103.141 104.29 103.744 104 104.5 104ZM104.5 108.785C104.89 108.785 105.202 108.615 105.434 108.275C105.666 107.935 105.785 107.519 105.785 107.009C105.785 106.487 105.666 106.059 105.434 105.719C105.202 105.385 104.89 105.215 104.5 105.215C104.11 105.215 103.798 105.385 103.566 105.719C103.334 106.059 103.215 106.487 103.215 107.009C103.215 107.513 103.334 107.935 103.566 108.275C103.798 108.615 104.11 108.785 104.5 108.785Z" fill="white"/>
<path d="M114 109.836H112.788L112.439 106.997L111.122 110H110.701L109.53 106.984L109.134 109.836H108L108.984 104H109.447L111.003 107.752L112.631 104H113.079L114 109.836Z" fill="white"/>
<path d="M117.498 104C118.239 104 118.838 104.29 119.303 104.869C119.768 105.448 120 106.159 120 107.009C120 107.847 119.768 108.558 119.308 109.131C118.843 109.71 118.239 110 117.498 110C116.756 110 116.152 109.71 115.692 109.131C115.227 108.552 115 107.847 115 107.009C115 106.172 115.227 105.461 115.682 104.875C116.137 104.29 116.746 104 117.498 104ZM117.498 108.785C117.888 108.785 118.2 108.615 118.437 108.275C118.67 107.935 118.783 107.519 118.783 107.009C118.783 106.487 118.67 106.059 118.437 105.719C118.2 105.385 117.888 105.215 117.498 105.215C117.107 105.215 116.795 105.385 116.563 105.719C116.33 106.059 116.212 106.487 116.212 107.009C116.212 107.513 116.33 107.935 116.568 108.275C116.8 108.615 117.112 108.785 117.498 108.785Z" fill="white"/>
<path d="M130 108.292L128.648 111H127.519L127.96 109.464H121V104H122.393V108.292H124.527V104H125.92V108.292H128.048V104H129.447V108.292H130Z" fill="white"/>
<path d="M136 109.836H134.625V106.776L131.447 110H131V104.17H132.375V107.23L135.553 104H136V109.836Z" fill="white"/>
<path d="M145 108.292L143.642 111H142.502L142.945 109.464H140.411L139.969 111H139V108.292H139.213C139.679 108.219 139.915 107.776 139.915 106.975V104H144.445V108.292H145ZM143.039 108.292V105.166H141.25V106.89C141.25 107.521 141.167 107.995 141.002 108.292H143.039Z" fill="white"/>
<path d="M151 106.745L147.33 107.57C147.409 107.992 147.577 108.306 147.83 108.514C148.077 108.722 148.413 108.829 148.829 108.829C149.27 108.829 149.712 108.684 150.159 108.388L150.679 109.477C150.059 109.824 149.396 110 148.697 110C147.887 110 147.236 109.723 146.741 109.169C146.247 108.615 146 107.916 146 107.072C146 106.166 146.247 105.429 146.736 104.856C147.23 104.283 147.845 104 148.581 104C149.26 104 149.828 104.246 150.269 104.73C150.711 105.215 150.958 105.889 151 106.745ZM149.68 105.952C149.58 105.694 149.433 105.498 149.249 105.366C149.065 105.234 148.834 105.165 148.571 105.165C148.24 105.165 147.961 105.284 147.73 105.524C147.498 105.757 147.356 106.078 147.304 106.474L149.68 105.952Z" fill="white"/>
<path d="M156 104L155.506 105.387H154.392V110H153.282V105.387H152V104H156Z" fill="white"/>
<path d="M161 110H159.511V107.893H159.066L157.715 110H156L157.665 107.647C157.302 107.533 157.014 107.32 156.788 107.013C156.569 106.7 156.463 106.34 156.463 105.94C156.463 105.34 156.688 104.86 157.139 104.52C157.589 104.173 158.228 104 159.054 104H161V110ZM159.511 106.76V105.133H159.054C158.365 105.133 158.015 105.407 158.015 105.967C158.015 106.493 158.365 106.76 159.054 106.76H159.511Z" fill="white"/>
<path d="M168 109.836H166.581L166.174 106.997L164.64 110H164.148L162.783 106.984L162.328 109.836H161L162.146 104H162.686L164.5 107.752L166.399 104H166.926L168 109.836Z" fill="white"/>
</g>
<defs>
<clipPath id="clip0_650_9558">
<rect width="226" height="111" fill="white"/>
</clipPath>
</defs>
</svg>
