<svg width="28" height="28" viewBox="0 0 28 28" fill="none" xmlns="http://www.w3.org/2000/svg">
<path d="M14 15L13.4265 15.8192C13.7709 16.0603 14.2291 16.0603 14.5735 15.8192L14 15ZM6 7H22V5H6V7ZM22 7C22.5477 7 23 7.45228 23 8H25C25 6.34772 23.6523 5 22 5V7ZM23 8V20H25V8H23ZM23 20C23 20.5477 22.5477 21 22 21V23C23.6523 23 25 21.6523 25 20H23ZM22 21H6V23H22V21ZM6 21C5.45228 21 5 20.5477 5 20H3C3 21.6523 4.34772 23 6 23V21ZM5 20V8H3V20H5ZM5 8C5 7.45228 5.45228 7 6 7V5C4.34772 5 3 6.34772 3 8H5ZM23.4265 7.18077L13.4265 14.1808L14.5735 15.8192L24.5735 8.81923L23.4265 7.18077ZM14.5735 14.1808L4.57346 7.18077L3.42654 8.81923L13.4265 15.8192L14.5735 14.1808Z" fill="#719AED"/>
</svg>
