<svg width="28" height="28" viewBox="0 0 28 28" fill="none" xmlns="http://www.w3.org/2000/svg">
<path d="M23.9994 18.9738L22.9997 18.949C22.9995 18.9573 22.9994 18.9656 22.9994 18.9738H23.9994ZM23.9994 21.9846H22.9994L22.9994 21.9887L23.9994 21.9846ZM21.8072 23.9919L21.6994 24.986C21.7054 24.9867 21.7114 24.9873 21.7174 24.9878L21.8072 23.9919ZM13.1289 20.9108L13.6723 20.0712L13.6645 20.0663L13.1289 20.9108ZM7.09534 14.8892L7.9389 14.3521L7.93412 14.3447L7.09534 14.8892ZM4.00816 6.18795L3.01224 6.27813C3.01271 6.28334 3.01322 6.28855 3.01378 6.29376L4.00816 6.18795ZM6.0093 4.0001V3.0001L6.00836 3.0001L6.0093 4.0001ZM9.02608 4.0001V5.00015L9.0359 5.00005L9.02608 4.0001ZM11.0373 5.72629L12.0287 5.59527L12.0274 5.58607L11.0373 5.72629ZM11.7412 8.54641L10.8045 8.89663L10.8054 8.89889L11.7412 8.54641ZM11.2887 10.664L11.9951 11.3718L11.999 11.3679L11.2887 10.664ZM10.0116 11.9386L9.30516 11.2308C8.98604 11.5493 8.9195 12.0419 9.14269 12.4336L10.0116 11.9386ZM16.0451 17.9602L15.5516 18.8299C15.9425 19.0518 16.4334 18.9855 16.7515 18.668L16.0451 17.9602ZM17.3222 16.6856L16.6198 15.9739L16.6158 15.9778L17.3222 16.6856ZM19.444 16.234L19.0928 17.1703L19.095 17.1711L19.444 16.234ZM22.2698 16.9365L22.4092 15.9463L22.4003 15.9451L22.2698 16.9365ZM22.9994 18.9738V21.9846H24.9994V18.9738H22.9994ZM22.9994 21.9887C23 22.1287 22.9712 22.2673 22.915 22.3956L24.7469 23.1982C24.9151 22.8144 25.0011 22.3996 24.9994 21.9806L22.9994 21.9887ZM22.915 22.3956C22.8588 22.524 22.7762 22.6394 22.6725 22.7343L24.0231 24.2094C24.3322 23.9264 24.5788 23.582 24.7469 23.1982L22.915 22.3956ZM22.6725 22.7343C22.5688 22.8292 22.4463 22.9016 22.3127 22.9467L22.9523 24.8417C23.3493 24.7077 23.7141 24.4924 24.0231 24.2094L22.6725 22.7343ZM22.3127 22.9467C22.1791 22.9918 22.0375 23.0086 21.897 22.9959L21.7174 24.9878C22.1347 25.0254 22.5553 24.9757 22.9523 24.8417L22.3127 22.9467ZM21.915 22.9977C18.9758 22.6789 16.1526 21.6766 13.6722 20.0713L12.5856 21.7503C15.3283 23.5254 18.4498 24.6336 21.6994 24.986L21.915 22.9977ZM13.6645 20.0663C11.3586 18.604 9.40388 16.653 7.93887 14.3521L6.25181 15.4263C7.87465 17.9751 10.0398 20.1359 12.5933 21.7553L13.6645 20.0663ZM7.93412 14.3447C6.32024 11.8584 5.31597 9.02776 5.00255 6.08214L3.01378 6.29376C3.36051 9.5524 4.47148 12.6836 6.25655 15.4336L7.93412 14.3447ZM5.00409 6.09777C4.9915 5.9588 5.00805 5.8187 5.0527 5.68638L3.1577 5.04687C3.02411 5.44272 2.97456 5.86205 3.01224 6.27813L5.00409 6.09777ZM5.0527 5.68638C5.09736 5.55406 5.16918 5.43233 5.2637 5.32898L3.78792 3.97915C3.50595 4.28742 3.29129 4.65103 3.1577 5.04687L5.0527 5.68638ZM5.2637 5.32898C5.35823 5.22563 5.4734 5.14294 5.60195 5.08627L4.7952 3.2562C4.41294 3.42471 4.06987 3.67088 3.78792 3.97915L5.2637 5.32898ZM5.60195 5.08627C5.73051 5.0296 5.86956 5.00023 6.01024 5.0001L6.00836 3.0001C5.59061 3.00049 5.17746 3.08769 4.7952 3.2562L5.60195 5.08627ZM6.0093 5.0001H9.02608V3.0001H6.0093V5.0001ZM9.0359 5.00005C9.28184 4.99763 9.51997 5.08457 9.70595 5.2442L11.0085 3.72655C10.4545 3.25098 9.74636 2.99297 9.01626 3.00015L9.0359 5.00005ZM9.70595 5.2442C9.89188 5.40378 10.0129 5.62503 10.0471 5.86652L12.0274 5.58607C11.925 4.86298 11.5627 4.20215 11.0085 3.72655L9.70595 5.2442ZM10.0459 5.85731C10.1831 6.89575 10.4376 7.91534 10.8045 8.89663L12.6779 8.1962C12.3639 7.35641 12.1461 6.48389 12.0286 5.59528L10.0459 5.85731ZM10.8054 8.89889C10.8732 9.07888 10.8878 9.27439 10.8476 9.46236L12.8035 9.88031C12.9237 9.31765 12.8798 8.73238 12.677 8.19394L10.8054 8.89889ZM10.8476 9.46236C10.8075 9.65033 10.7141 9.82313 10.5783 9.96017L11.999 11.3679C12.404 10.9592 12.6832 10.443 12.8035 9.88031L10.8476 9.46236ZM10.5823 9.95621L9.30516 11.2308L10.718 12.6464L11.9951 11.3718L10.5823 9.95621ZM9.14269 12.4336C10.6634 15.1028 12.8776 17.3125 15.5516 18.8299L16.5387 17.0905C14.1775 15.7505 12.2228 13.7996 10.8804 11.4436L9.14269 12.4336ZM16.7515 18.668L18.0286 17.3934L16.6158 15.9778L15.3387 17.2524L16.7515 18.668ZM18.0247 17.3974C18.162 17.2618 18.3356 17.1682 18.5251 17.1279L18.1087 15.1717C17.546 15.2915 17.0293 15.5698 16.6198 15.9739L18.0247 17.3974ZM18.5251 17.1279C18.7145 17.0876 18.9116 17.1023 19.0928 17.1703L19.7953 15.2977C19.2567 15.0957 18.6714 15.0519 18.1087 15.1717L18.5251 17.1279ZM19.095 17.1711C20.078 17.5372 21.0992 17.7911 22.1393 17.928L22.4003 15.9451C21.5095 15.8278 20.6348 15.6104 19.793 15.2969L19.095 17.1711ZM22.1303 17.9268C22.3765 17.9614 22.6008 18.0851 22.7609 18.2737L24.2856 16.9793C23.8079 16.4166 23.14 16.0492 22.4092 15.9463L22.1303 17.9268ZM22.7609 18.2737C22.921 18.4622 23.0058 18.7026 22.9997 18.949L24.9991 18.9987C25.0174 18.2607 24.7633 17.542 24.2856 16.9793L22.7609 18.2737Z" fill="#719AED"/>
</svg>
