<svg width="60" height="60" viewBox="0 0 60 60" fill="none" xmlns="http://www.w3.org/2000/svg">
<path d="M0 0H2.06897V2.06897H0V0ZM2.06897 0H4.13793V2.06897H2.06897V0ZM4.13793 0H6.2069V2.06897H4.13793V0ZM6.2069 0H8.27586V2.06897H6.2069V0ZM8.27586 0H10.3448V2.06897H8.27586V0ZM10.3448 0H12.4138V2.06897H10.3448V0ZM12.4138 0H14.4828V2.06897H12.4138V0ZM20.6897 0H22.7586V2.06897H20.6897V0ZM24.8276 0H26.8966V2.06897H24.8276V0ZM39.3103 0H41.3793V2.06897H39.3103V0ZM41.3793 0H43.4483V2.06897H41.3793V0ZM45.5172 0H47.5862V2.06897H45.5172V0ZM47.5862 0H49.6552V2.06897H47.5862V0ZM49.6552 0H51.7241V2.06897H49.6552V0ZM51.7241 0H53.7931V2.06897H51.7241V0ZM53.7931 0H55.8621V2.06897H53.7931V0ZM55.8621 0H57.931V2.06897H55.8621V0ZM57.931 0H60V2.06897H57.931V0ZM0 2.06897H2.06897V4.13793H0V2.06897ZM12.4138 2.06897H14.4828V4.13793H12.4138V2.06897ZM16.5517 2.06897H18.6207V4.13793H16.5517V2.06897ZM20.6897 2.06897H22.7586V4.13793H20.6897V2.06897ZM31.0345 2.06897H33.1034V4.13793H31.0345V2.06897ZM35.1724 2.06897H37.2414V4.13793H35.1724V2.06897ZM37.2414 2.06897H39.3103V4.13793H37.2414V2.06897ZM45.5172 2.06897H47.5862V4.13793H45.5172V2.06897ZM57.931 2.06897H60V4.13793H57.931V2.06897ZM0 4.13793H2.06897V6.2069H0V4.13793ZM4.13793 4.13793H6.2069V6.2069H4.13793V4.13793ZM6.2069 4.13793H8.27586V6.2069H6.2069V4.13793ZM8.27586 4.13793H10.3448V6.2069H8.27586V4.13793ZM12.4138 4.13793H14.4828V6.2069H12.4138V4.13793ZM24.8276 4.13793H26.8966V6.2069H24.8276V4.13793ZM31.0345 4.13793H33.1034V6.2069H31.0345V4.13793ZM33.1034 4.13793H35.1724V6.2069H33.1034V4.13793ZM37.2414 4.13793H39.3103V6.2069H37.2414V4.13793ZM39.3103 4.13793H41.3793V6.2069H39.3103V4.13793ZM41.3793 4.13793H43.4483V6.2069H41.3793V4.13793ZM45.5172 4.13793H47.5862V6.2069H45.5172V4.13793ZM49.6552 4.13793H51.7241V6.2069H49.6552V4.13793ZM51.7241 4.13793H53.7931V6.2069H51.7241V4.13793ZM53.7931 4.13793H55.8621V6.2069H53.7931V4.13793ZM57.931 4.13793H60V6.2069H57.931V4.13793ZM0 6.2069H2.06897V8.27586H0V6.2069ZM4.13793 6.2069H6.2069V8.27586H4.13793V6.2069ZM6.2069 6.2069H8.27586V8.27586H6.2069V6.2069ZM8.27586 6.2069H10.3448V8.27586H8.27586V6.2069ZM12.4138 6.2069H14.4828V8.27586H12.4138V6.2069ZM16.5517 6.2069H18.6207V8.27586H16.5517V6.2069ZM18.6207 6.2069H20.6897V8.27586H18.6207V6.2069ZM20.6897 6.2069H22.7586V8.27586H20.6897V6.2069ZM24.8276 6.2069H26.8966V8.27586H24.8276V6.2069ZM26.8966 6.2069H28.9655V8.27586H26.8966V6.2069ZM28.9655 6.2069H31.0345V8.27586H28.9655V6.2069ZM31.0345 6.2069H33.1034V8.27586H31.0345V6.2069ZM35.1724 6.2069H37.2414V8.27586H35.1724V6.2069ZM39.3103 6.2069H41.3793V8.27586H39.3103V6.2069ZM45.5172 6.2069H47.5862V8.27586H45.5172V6.2069ZM49.6552 6.2069H51.7241V8.27586H49.6552V6.2069ZM51.7241 6.2069H53.7931V8.27586H51.7241V6.2069ZM53.7931 6.2069H55.8621V8.27586H53.7931V6.2069ZM57.931 6.2069H60V8.27586H57.931V6.2069ZM0 8.27586H2.06897V10.3448H0V8.27586ZM4.13793 8.27586H6.2069V10.3448H4.13793V8.27586ZM6.2069 8.27586H8.27586V10.3448H6.2069V8.27586ZM8.27586 8.27586H10.3448V10.3448H8.27586V8.27586ZM12.4138 8.27586H14.4828V10.3448H12.4138V8.27586ZM18.6207 8.27586H20.6897V10.3448H18.6207V8.27586ZM28.9655 8.27586H31.0345V10.3448H28.9655V8.27586ZM33.1034 8.27586H35.1724V10.3448H33.1034V8.27586ZM39.3103 8.27586H41.3793V10.3448H39.3103V8.27586ZM45.5172 8.27586H47.5862V10.3448H45.5172V8.27586ZM49.6552 8.27586H51.7241V10.3448H49.6552V8.27586ZM51.7241 8.27586H53.7931V10.3448H51.7241V8.27586ZM53.7931 8.27586H55.8621V10.3448H53.7931V8.27586ZM57.931 8.27586H60V10.3448H57.931V8.27586ZM0 10.3448H2.06897V12.4138H0V10.3448ZM12.4138 10.3448H14.4828V12.4138H12.4138V10.3448ZM16.5517 10.3448H18.6207V12.4138H16.5517V10.3448ZM18.6207 10.3448H20.6897V12.4138H18.6207V10.3448ZM22.7586 10.3448H24.8276V12.4138H22.7586V10.3448ZM24.8276 10.3448H26.8966V12.4138H24.8276V10.3448ZM26.8966 10.3448H28.9655V12.4138H26.8966V10.3448ZM28.9655 10.3448H31.0345V12.4138H28.9655V10.3448ZM31.0345 10.3448H33.1034V12.4138H31.0345V10.3448ZM33.1034 10.3448H35.1724V12.4138H33.1034V10.3448ZM45.5172 10.3448H47.5862V12.4138H45.5172V10.3448ZM57.931 10.3448H60V12.4138H57.931V10.3448ZM0 12.4138H2.06897V14.4828H0V12.4138ZM2.06897 12.4138H4.13793V14.4828H2.06897V12.4138ZM4.13793 12.4138H6.2069V14.4828H4.13793V12.4138ZM6.2069 12.4138H8.27586V14.4828H6.2069V12.4138ZM8.27586 12.4138H10.3448V14.4828H8.27586V12.4138ZM10.3448 12.4138H12.4138V14.4828H10.3448V12.4138ZM12.4138 12.4138H14.4828V14.4828H12.4138V12.4138ZM16.5517 12.4138H18.6207V14.4828H16.5517V12.4138ZM20.6897 12.4138H22.7586V14.4828H20.6897V12.4138ZM24.8276 12.4138H26.8966V14.4828H24.8276V12.4138ZM28.9655 12.4138H31.0345V14.4828H28.9655V12.4138ZM33.1034 12.4138H35.1724V14.4828H33.1034V12.4138ZM37.2414 12.4138H39.3103V14.4828H37.2414V12.4138ZM41.3793 12.4138H43.4483V14.4828H41.3793V12.4138ZM45.5172 12.4138H47.5862V14.4828H45.5172V12.4138ZM47.5862 12.4138H49.6552V14.4828H47.5862V12.4138ZM49.6552 12.4138H51.7241V14.4828H49.6552V12.4138ZM51.7241 12.4138H53.7931V14.4828H51.7241V12.4138ZM53.7931 12.4138H55.8621V14.4828H53.7931V12.4138ZM55.8621 12.4138H57.931V14.4828H55.8621V12.4138ZM57.931 12.4138H60V14.4828H57.931V12.4138ZM18.6207 14.4828H20.6897V16.5517H18.6207V14.4828ZM20.6897 14.4828H22.7586V16.5517H20.6897V14.4828ZM22.7586 14.4828H24.8276V16.5517H22.7586V14.4828ZM26.8966 14.4828H28.9655V16.5517H26.8966V14.4828ZM28.9655 14.4828H31.0345V16.5517H28.9655V14.4828ZM33.1034 14.4828H35.1724V16.5517H33.1034V14.4828ZM39.3103 14.4828H41.3793V16.5517H39.3103V14.4828ZM41.3793 14.4828H43.4483V16.5517H41.3793V14.4828ZM0 16.5517H2.06897V18.6207H0V16.5517ZM2.06897 16.5517H4.13793V18.6207H2.06897V16.5517ZM4.13793 16.5517H6.2069V18.6207H4.13793V16.5517ZM6.2069 16.5517H8.27586V18.6207H6.2069V16.5517ZM8.27586 16.5517H10.3448V18.6207H8.27586V16.5517ZM12.4138 16.5517H14.4828V18.6207H12.4138V16.5517ZM14.4828 16.5517H16.5517V18.6207H14.4828V16.5517ZM16.5517 16.5517H18.6207V18.6207H16.5517V16.5517ZM18.6207 16.5517H20.6897V18.6207H18.6207V16.5517ZM22.7586 16.5517H24.8276V18.6207H22.7586V16.5517ZM24.8276 16.5517H26.8966V18.6207H24.8276V16.5517ZM35.1724 16.5517H37.2414V18.6207H35.1724V16.5517ZM37.2414 16.5517H39.3103V18.6207H37.2414V16.5517ZM41.3793 16.5517H43.4483V18.6207H41.3793V16.5517ZM43.4483 16.5517H45.5172V18.6207H43.4483V16.5517ZM47.5862 16.5517H49.6552V18.6207H47.5862V16.5517ZM51.7241 16.5517H53.7931V18.6207H51.7241V16.5517ZM55.8621 16.5517H57.931V18.6207H55.8621V16.5517ZM6.2069 18.6207H8.27586V20.6897H6.2069V18.6207ZM14.4828 18.6207H16.5517V20.6897H14.4828V18.6207ZM20.6897 18.6207H22.7586V20.6897H20.6897V18.6207ZM24.8276 18.6207H26.8966V20.6897H24.8276V18.6207ZM28.9655 18.6207H31.0345V20.6897H28.9655V18.6207ZM33.1034 18.6207H35.1724V20.6897H33.1034V18.6207ZM35.1724 18.6207H37.2414V20.6897H35.1724V18.6207ZM37.2414 18.6207H39.3103V20.6897H37.2414V18.6207ZM39.3103 18.6207H41.3793V20.6897H39.3103V18.6207ZM41.3793 18.6207H43.4483V20.6897H41.3793V18.6207ZM45.5172 18.6207H47.5862V20.6897H45.5172V18.6207ZM47.5862 18.6207H49.6552V20.6897H47.5862V18.6207ZM49.6552 18.6207H51.7241V20.6897H49.6552V18.6207ZM57.931 18.6207H60V20.6897H57.931V18.6207ZM2.06897 20.6897H4.13793V22.7586H2.06897V20.6897ZM10.3448 20.6897H12.4138V22.7586H10.3448V20.6897ZM12.4138 20.6897H14.4828V22.7586H12.4138V20.6897ZM14.4828 20.6897H16.5517V22.7586H14.4828V20.6897ZM16.5517 20.6897H18.6207V22.7586H16.5517V20.6897ZM20.6897 20.6897H22.7586V22.7586H20.6897V20.6897ZM24.8276 20.6897H26.8966V22.7586H24.8276V20.6897ZM31.0345 20.6897H33.1034V22.7586H31.0345V20.6897ZM33.1034 20.6897H35.1724V22.7586H33.1034V20.6897ZM35.1724 20.6897H37.2414V22.7586H35.1724V20.6897ZM41.3793 20.6897H43.4483V22.7586H41.3793V20.6897ZM43.4483 20.6897H45.5172V22.7586H43.4483V20.6897ZM47.5862 20.6897H49.6552V22.7586H47.5862V20.6897ZM49.6552 20.6897H51.7241V22.7586H49.6552V20.6897ZM0 22.7586H2.06897V24.8276H0V22.7586ZM2.06897 22.7586H4.13793V24.8276H2.06897V22.7586ZM4.13793 22.7586H6.2069V24.8276H4.13793V22.7586ZM8.27586 22.7586H10.3448V24.8276H8.27586V22.7586ZM14.4828 22.7586H16.5517V24.8276H14.4828V22.7586ZM16.5517 22.7586H18.6207V24.8276H16.5517V22.7586ZM24.8276 22.7586H26.8966V24.8276H24.8276V22.7586ZM28.9655 22.7586H31.0345V24.8276H28.9655V22.7586ZM39.3103 22.7586H41.3793V24.8276H39.3103V22.7586ZM41.3793 22.7586H43.4483V24.8276H41.3793V22.7586ZM43.4483 22.7586H45.5172V24.8276H43.4483V22.7586ZM49.6552 22.7586H51.7241V24.8276H49.6552V22.7586ZM55.8621 22.7586H57.931V24.8276H55.8621V22.7586ZM0 24.8276H2.06897V26.8966H0V24.8276ZM2.06897 24.8276H4.13793V26.8966H2.06897V24.8276ZM4.13793 24.8276H6.2069V26.8966H4.13793V24.8276ZM8.27586 24.8276H10.3448V26.8966H8.27586V24.8276ZM10.3448 24.8276H12.4138V26.8966H10.3448V24.8276ZM12.4138 24.8276H14.4828V26.8966H12.4138V24.8276ZM18.6207 24.8276H20.6897V26.8966H18.6207V24.8276ZM20.6897 24.8276H22.7586V26.8966H20.6897V24.8276ZM24.8276 24.8276H26.8966V26.8966H24.8276V24.8276ZM35.1724 24.8276H37.2414V26.8966H35.1724V24.8276ZM39.3103 24.8276H41.3793V26.8966H39.3103V24.8276ZM51.7241 24.8276H53.7931V26.8966H51.7241V24.8276ZM53.7931 24.8276H55.8621V26.8966H53.7931V24.8276ZM2.06897 26.8966H4.13793V28.9655H2.06897V26.8966ZM4.13793 26.8966H6.2069V28.9655H4.13793V26.8966ZM8.27586 26.8966H10.3448V28.9655H8.27586V26.8966ZM14.4828 26.8966H16.5517V28.9655H14.4828V26.8966ZM24.8276 26.8966H26.8966V28.9655H24.8276V26.8966ZM33.1034 26.8966H35.1724V28.9655H33.1034V26.8966ZM37.2414 26.8966H39.3103V28.9655H37.2414V26.8966ZM39.3103 26.8966H41.3793V28.9655H39.3103V26.8966ZM41.3793 26.8966H43.4483V28.9655H41.3793V26.8966ZM45.5172 26.8966H47.5862V28.9655H45.5172V26.8966ZM47.5862 26.8966H49.6552V28.9655H47.5862V26.8966ZM49.6552 26.8966H51.7241V28.9655H49.6552V26.8966ZM53.7931 26.8966H55.8621V28.9655H53.7931V26.8966ZM57.931 26.8966H60V28.9655H57.931V26.8966ZM2.06897 28.9655H4.13793V31.0345H2.06897V28.9655ZM6.2069 28.9655H8.27586V31.0345H6.2069V28.9655ZM10.3448 28.9655H12.4138V31.0345H10.3448V28.9655ZM12.4138 28.9655H14.4828V31.0345H12.4138V28.9655ZM16.5517 28.9655H18.6207V31.0345H16.5517V28.9655ZM18.6207 28.9655H20.6897V31.0345H18.6207V28.9655ZM24.8276 28.9655H26.8966V31.0345H24.8276V28.9655ZM31.0345 28.9655H33.1034V31.0345H31.0345V28.9655ZM33.1034 28.9655H35.1724V31.0345H33.1034V28.9655ZM35.1724 28.9655H37.2414V31.0345H35.1724V28.9655ZM37.2414 28.9655H39.3103V31.0345H37.2414V28.9655ZM41.3793 28.9655H43.4483V31.0345H41.3793V28.9655ZM43.4483 28.9655H45.5172V31.0345H43.4483V28.9655ZM53.7931 28.9655H55.8621V31.0345H53.7931V28.9655ZM2.06897 31.0345H4.13793V33.1034H2.06897V31.0345ZM14.4828 31.0345H16.5517V33.1034H14.4828V31.0345ZM18.6207 31.0345H20.6897V33.1034H18.6207V31.0345ZM24.8276 31.0345H26.8966V33.1034H24.8276V31.0345ZM33.1034 31.0345H35.1724V33.1034H33.1034V31.0345ZM37.2414 31.0345H39.3103V33.1034H37.2414V31.0345ZM41.3793 31.0345H43.4483V33.1034H41.3793V31.0345ZM45.5172 31.0345H47.5862V33.1034H45.5172V31.0345ZM47.5862 31.0345H49.6552V33.1034H47.5862V31.0345ZM55.8621 31.0345H57.931V33.1034H55.8621V31.0345ZM4.13793 33.1034H6.2069V35.1724H4.13793V33.1034ZM12.4138 33.1034H14.4828V35.1724H12.4138V33.1034ZM16.5517 33.1034H18.6207V35.1724H16.5517V33.1034ZM22.7586 33.1034H24.8276V35.1724H22.7586V33.1034ZM26.8966 33.1034H28.9655V35.1724H26.8966V33.1034ZM33.1034 33.1034H35.1724V35.1724H33.1034V33.1034ZM35.1724 33.1034H37.2414V35.1724H35.1724V33.1034ZM39.3103 33.1034H41.3793V35.1724H39.3103V33.1034ZM53.7931 33.1034H55.8621V35.1724H53.7931V33.1034ZM0 35.1724H2.06897V37.2414H0V35.1724ZM2.06897 35.1724H4.13793V37.2414H2.06897V35.1724ZM4.13793 35.1724H6.2069V37.2414H4.13793V35.1724ZM8.27586 35.1724H10.3448V37.2414H8.27586V35.1724ZM16.5517 35.1724H18.6207V37.2414H16.5517V35.1724ZM24.8276 35.1724H26.8966V37.2414H24.8276V35.1724ZM31.0345 35.1724H33.1034V37.2414H31.0345V35.1724ZM33.1034 35.1724H35.1724V37.2414H33.1034V35.1724ZM35.1724 35.1724H37.2414V37.2414H35.1724V35.1724ZM37.2414 35.1724H39.3103V37.2414H37.2414V35.1724ZM39.3103 35.1724H41.3793V37.2414H39.3103V35.1724ZM41.3793 35.1724H43.4483V37.2414H41.3793V35.1724ZM43.4483 35.1724H45.5172V37.2414H43.4483V35.1724ZM45.5172 35.1724H47.5862V37.2414H45.5172V35.1724ZM49.6552 35.1724H51.7241V37.2414H49.6552V35.1724ZM51.7241 35.1724H53.7931V37.2414H51.7241V35.1724ZM53.7931 35.1724H55.8621V37.2414H53.7931V35.1724ZM57.931 35.1724H60V37.2414H57.931V35.1724ZM0 37.2414H2.06897V39.3103H0V37.2414ZM8.27586 37.2414H10.3448V39.3103H8.27586V37.2414ZM12.4138 37.2414H14.4828V39.3103H12.4138V37.2414ZM18.6207 37.2414H20.6897V39.3103H18.6207V37.2414ZM24.8276 37.2414H26.8966V39.3103H24.8276V37.2414ZM26.8966 37.2414H28.9655V39.3103H26.8966V37.2414ZM31.0345 37.2414H33.1034V39.3103H31.0345V37.2414ZM41.3793 37.2414H43.4483V39.3103H41.3793V37.2414ZM45.5172 37.2414H47.5862V39.3103H45.5172V37.2414ZM47.5862 37.2414H49.6552V39.3103H47.5862V37.2414ZM51.7241 37.2414H53.7931V39.3103H51.7241V37.2414ZM53.7931 37.2414H55.8621V39.3103H53.7931V37.2414ZM0 39.3103H2.06897V41.3793H0V39.3103ZM6.2069 39.3103H8.27586V41.3793H6.2069V39.3103ZM8.27586 39.3103H10.3448V41.3793H8.27586V39.3103ZM10.3448 39.3103H12.4138V41.3793H10.3448V39.3103ZM16.5517 39.3103H18.6207V41.3793H16.5517V39.3103ZM18.6207 39.3103H20.6897V41.3793H18.6207V39.3103ZM22.7586 39.3103H24.8276V41.3793H22.7586V39.3103ZM24.8276 39.3103H26.8966V41.3793H24.8276V39.3103ZM37.2414 39.3103H39.3103V41.3793H37.2414V39.3103ZM45.5172 39.3103H47.5862V41.3793H45.5172V39.3103ZM47.5862 39.3103H49.6552V41.3793H47.5862V39.3103ZM49.6552 39.3103H51.7241V41.3793H49.6552V39.3103ZM55.8621 39.3103H57.931V41.3793H55.8621V39.3103ZM0 41.3793H2.06897V43.4483H0V41.3793ZM6.2069 41.3793H8.27586V43.4483H6.2069V41.3793ZM10.3448 41.3793H12.4138V43.4483H10.3448V41.3793ZM12.4138 41.3793H14.4828V43.4483H12.4138V41.3793ZM14.4828 41.3793H16.5517V43.4483H14.4828V41.3793ZM16.5517 41.3793H18.6207V43.4483H16.5517V41.3793ZM24.8276 41.3793H26.8966V43.4483H24.8276V41.3793ZM31.0345 41.3793H33.1034V43.4483H31.0345V41.3793ZM33.1034 41.3793H35.1724V43.4483H33.1034V41.3793ZM35.1724 41.3793H37.2414V43.4483H35.1724V41.3793ZM41.3793 41.3793H43.4483V43.4483H41.3793V41.3793ZM43.4483 41.3793H45.5172V43.4483H43.4483V41.3793ZM45.5172 41.3793H47.5862V43.4483H45.5172V41.3793ZM47.5862 41.3793H49.6552V43.4483H47.5862V41.3793ZM49.6552 41.3793H51.7241V43.4483H49.6552V41.3793ZM53.7931 41.3793H55.8621V43.4483H53.7931V41.3793ZM55.8621 41.3793H57.931V43.4483H55.8621V41.3793ZM57.931 41.3793H60V43.4483H57.931V41.3793ZM16.5517 43.4483H18.6207V45.5172H16.5517V43.4483ZM18.6207 43.4483H20.6897V45.5172H18.6207V43.4483ZM22.7586 43.4483H24.8276V45.5172H22.7586V43.4483ZM24.8276 43.4483H26.8966V45.5172H24.8276V43.4483ZM26.8966 43.4483H28.9655V45.5172H26.8966V43.4483ZM33.1034 43.4483H35.1724V45.5172H33.1034V43.4483ZM35.1724 43.4483H37.2414V45.5172H35.1724V43.4483ZM37.2414 43.4483H39.3103V45.5172H37.2414V43.4483ZM41.3793 43.4483H43.4483V45.5172H41.3793V43.4483ZM49.6552 43.4483H51.7241V45.5172H49.6552V43.4483ZM51.7241 43.4483H53.7931V45.5172H51.7241V43.4483ZM53.7931 43.4483H55.8621V45.5172H53.7931V43.4483ZM55.8621 43.4483H57.931V45.5172H55.8621V43.4483ZM57.931 43.4483H60V45.5172H57.931V43.4483ZM0 45.5172H2.06897V47.5862H0V45.5172ZM2.06897 45.5172H4.13793V47.5862H2.06897V45.5172ZM4.13793 45.5172H6.2069V47.5862H4.13793V45.5172ZM6.2069 45.5172H8.27586V47.5862H6.2069V45.5172ZM8.27586 45.5172H10.3448V47.5862H8.27586V45.5172ZM10.3448 45.5172H12.4138V47.5862H10.3448V45.5172ZM12.4138 45.5172H14.4828V47.5862H12.4138V45.5172ZM16.5517 45.5172H18.6207V47.5862H16.5517V45.5172ZM28.9655 45.5172H31.0345V47.5862H28.9655V45.5172ZM31.0345 45.5172H33.1034V47.5862H31.0345V45.5172ZM33.1034 45.5172H35.1724V47.5862H33.1034V45.5172ZM35.1724 45.5172H37.2414V47.5862H35.1724V45.5172ZM39.3103 45.5172H41.3793V47.5862H39.3103V45.5172ZM41.3793 45.5172H43.4483V47.5862H41.3793V45.5172ZM45.5172 45.5172H47.5862V47.5862H45.5172V45.5172ZM49.6552 45.5172H51.7241V47.5862H49.6552V45.5172ZM51.7241 45.5172H53.7931V47.5862H51.7241V45.5172ZM53.7931 45.5172H55.8621V47.5862H53.7931V45.5172ZM0 47.5862H2.06897V49.6552H0V47.5862ZM12.4138 47.5862H14.4828V49.6552H12.4138V47.5862ZM18.6207 47.5862H20.6897V49.6552H18.6207V47.5862ZM22.7586 47.5862H24.8276V49.6552H22.7586V47.5862ZM24.8276 47.5862H26.8966V49.6552H24.8276V47.5862ZM31.0345 47.5862H33.1034V49.6552H31.0345V47.5862ZM39.3103 47.5862H41.3793V49.6552H39.3103V47.5862ZM41.3793 47.5862H43.4483V49.6552H41.3793V47.5862ZM49.6552 47.5862H51.7241V49.6552H49.6552V47.5862ZM51.7241 47.5862H53.7931V49.6552H51.7241V47.5862ZM55.8621 47.5862H57.931V49.6552H55.8621V47.5862ZM0 49.6552H2.06897V51.7241H0V49.6552ZM4.13793 49.6552H6.2069V51.7241H4.13793V49.6552ZM6.2069 49.6552H8.27586V51.7241H6.2069V49.6552ZM8.27586 49.6552H10.3448V51.7241H8.27586V49.6552ZM12.4138 49.6552H14.4828V51.7241H12.4138V49.6552ZM16.5517 49.6552H18.6207V51.7241H16.5517V49.6552ZM18.6207 49.6552H20.6897V51.7241H18.6207V49.6552ZM20.6897 49.6552H22.7586V51.7241H20.6897V49.6552ZM31.0345 49.6552H33.1034V51.7241H31.0345V49.6552ZM33.1034 49.6552H35.1724V51.7241H33.1034V49.6552ZM35.1724 49.6552H37.2414V51.7241H35.1724V49.6552ZM41.3793 49.6552H43.4483V51.7241H41.3793V49.6552ZM43.4483 49.6552H45.5172V51.7241H43.4483V49.6552ZM45.5172 49.6552H47.5862V51.7241H45.5172V49.6552ZM47.5862 49.6552H49.6552V51.7241H47.5862V49.6552ZM49.6552 49.6552H51.7241V51.7241H49.6552V49.6552ZM51.7241 49.6552H53.7931V51.7241H51.7241V49.6552ZM53.7931 49.6552H55.8621V51.7241H53.7931V49.6552ZM0 51.7241H2.06897V53.7931H0V51.7241ZM4.13793 51.7241H6.2069V53.7931H4.13793V51.7241ZM6.2069 51.7241H8.27586V53.7931H6.2069V51.7241ZM8.27586 51.7241H10.3448V53.7931H8.27586V51.7241ZM12.4138 51.7241H14.4828V53.7931H12.4138V51.7241ZM16.5517 51.7241H18.6207V53.7931H16.5517V51.7241ZM18.6207 51.7241H20.6897V53.7931H18.6207V51.7241ZM28.9655 51.7241H31.0345V53.7931H28.9655V51.7241ZM33.1034 51.7241H35.1724V53.7931H33.1034V51.7241ZM37.2414 51.7241H39.3103V53.7931H37.2414V51.7241ZM39.3103 51.7241H41.3793V53.7931H39.3103V51.7241ZM47.5862 51.7241H49.6552V53.7931H47.5862V51.7241ZM51.7241 51.7241H53.7931V53.7931H51.7241V51.7241ZM55.8621 51.7241H57.931V53.7931H55.8621V51.7241ZM57.931 51.7241H60V53.7931H57.931V51.7241ZM0 53.7931H2.06897V55.8621H0V53.7931ZM4.13793 53.7931H6.2069V55.8621H4.13793V53.7931ZM6.2069 53.7931H8.27586V55.8621H6.2069V53.7931ZM8.27586 53.7931H10.3448V55.8621H8.27586V53.7931ZM12.4138 53.7931H14.4828V55.8621H12.4138V53.7931ZM16.5517 53.7931H18.6207V55.8621H16.5517V53.7931ZM18.6207 53.7931H20.6897V55.8621H18.6207V53.7931ZM20.6897 53.7931H22.7586V55.8621H20.6897V53.7931ZM26.8966 53.7931H28.9655V55.8621H26.8966V53.7931ZM28.9655 53.7931H31.0345V55.8621H28.9655V53.7931ZM31.0345 53.7931H33.1034V55.8621H31.0345V53.7931ZM33.1034 53.7931H35.1724V55.8621H33.1034V53.7931ZM35.1724 53.7931H37.2414V55.8621H35.1724V53.7931ZM41.3793 53.7931H43.4483V55.8621H41.3793V53.7931ZM43.4483 53.7931H45.5172V55.8621H43.4483V53.7931ZM45.5172 53.7931H47.5862V55.8621H45.5172V53.7931ZM47.5862 53.7931H49.6552V55.8621H47.5862V53.7931ZM49.6552 53.7931H51.7241V55.8621H49.6552V53.7931ZM51.7241 53.7931H53.7931V55.8621H51.7241V53.7931ZM53.7931 53.7931H55.8621V55.8621H53.7931V53.7931ZM55.8621 53.7931H57.931V55.8621H55.8621V53.7931ZM0 55.8621H2.06897V57.931H0V55.8621ZM12.4138 55.8621H14.4828V57.931H12.4138V55.8621ZM16.5517 55.8621H18.6207V57.931H16.5517V55.8621ZM20.6897 55.8621H22.7586V57.931H20.6897V55.8621ZM22.7586 55.8621H24.8276V57.931H22.7586V55.8621ZM24.8276 55.8621H26.8966V57.931H24.8276V55.8621ZM26.8966 55.8621H28.9655V57.931H26.8966V55.8621ZM28.9655 55.8621H31.0345V57.931H28.9655V55.8621ZM33.1034 55.8621H35.1724V57.931H33.1034V55.8621ZM39.3103 55.8621H41.3793V57.931H39.3103V55.8621ZM41.3793 55.8621H43.4483V57.931H41.3793V55.8621ZM45.5172 55.8621H47.5862V57.931H45.5172V55.8621ZM47.5862 55.8621H49.6552V57.931H47.5862V55.8621ZM51.7241 55.8621H53.7931V57.931H51.7241V55.8621ZM55.8621 55.8621H57.931V57.931H55.8621V55.8621ZM0 57.931H2.06897V60H0V57.931ZM2.06897 57.931H4.13793V60H2.06897V57.931ZM4.13793 57.931H6.2069V60H4.13793V57.931ZM6.2069 57.931H8.27586V60H6.2069V57.931ZM8.27586 57.931H10.3448V60H8.27586V57.931ZM10.3448 57.931H12.4138V60H10.3448V57.931ZM12.4138 57.931H14.4828V60H12.4138V57.931ZM16.5517 57.931H18.6207V60H16.5517V57.931ZM26.8966 57.931H28.9655V60H26.8966V57.931ZM28.9655 57.931H31.0345V60H28.9655V57.931ZM35.1724 57.931H37.2414V60H35.1724V57.931ZM37.2414 57.931H39.3103V60H37.2414V57.931ZM39.3103 57.931H41.3793V60H39.3103V57.931ZM43.4483 57.931H45.5172V60H43.4483V57.931ZM47.5862 57.931H49.6552V60H47.5862V57.931ZM49.6552 57.931H51.7241V60H49.6552V57.931ZM51.7241 57.931H53.7931V60H51.7241V57.931ZM53.7931 57.931H55.8621V60H53.7931V57.931Z" fill="white"/>
</svg>
