<svg width="112" height="38" viewBox="0 0 112 38" fill="none" xmlns="http://www.w3.org/2000/svg">
<path d="M12.6436 -3.26251e-07C15.3236 -3.26251e-07 16.1657 1.85479 16.8722 3.70668C17.169 4.49307 24.1333 22.8956 24.3427 23.448C24.3985 23.6021 24.3608 23.855 24.1152 23.9466C23.8682 24.0367 20.2497 25.3944 20.0493 25.4671C19.849 25.5412 19.6245 25.4336 19.5522 25.2403C19.4769 25.0499 17.975 21.0379 17.8062 20.5902H7.48404C7.32134 21.0379 5.80134 25.0586 5.73355 25.2403C5.66425 25.4249 5.44883 25.5499 5.23491 25.4671C5.021 25.3857 1.38895 24.028 1.17202 23.9466C0.964128 23.8681 0.869221 23.6399 0.94153 23.448C1.19763 22.759 8.05649 4.65152 8.40599 3.70668C9.0869 1.88241 9.95763 -3.26251e-07 12.6436 -3.26251e-07ZM0.39017 32.9284C0.173241 32.9284 0 33.1028 0 33.315V37.6162C0 37.8285 0.173241 38 0.39017 38H24.8865C25.108 38 25.2812 37.8285 25.2812 37.6162V33.315C25.2812 33.1028 25.108 32.9284 24.8865 32.9284H0.39017ZM12.6195 6.00918L9.13059 16.119H16.1657L12.6647 6.00918H12.6195ZM64.9732 22.586C64.4595 22.7532 64.1205 22.7939 63.7168 22.7939C62.8822 22.7939 62.4197 22.4756 62.4197 21.6499C62.4197 20.7894 63.0073 20.5016 64.1612 20.5016C64.4429 20.5016 64.7201 20.5408 64.8496 20.5844V21.2007C64.8496 21.865 64.8873 22.3011 64.9732 22.586ZM67.9394 23.5716C67.3232 22.6689 67.162 22.1369 67.162 20.9987V18.6875C67.162 17.4432 67.0114 16.994 66.6709 16.5405C66.1964 15.898 65.4055 15.6189 63.9518 15.6189C62.9229 15.6189 61.9241 15.7265 60.957 15.9649L61.3065 17.6075C61.9603 17.5188 62.6457 17.4432 63.1293 17.4432C64.6734 17.4432 64.8496 17.6583 64.8496 18.7761V19.1933C64.5062 19.1047 64.1205 19.0407 63.6731 19.0407C61.3486 19.0407 60.1209 20.1382 60.1209 21.9552C60.1209 23.6588 61.433 24.5876 63.0314 24.5876C63.6279 24.5876 64.2516 24.4815 64.7457 24.2867C65.044 24.1617 65.1735 24.0876 65.5592 23.8463C65.7912 24.1719 66.2567 24.5048 66.4465 24.5673L67.9394 23.5716ZM90.9323 22.586C90.4156 22.7532 90.0827 22.7939 89.6759 22.7939C88.8383 22.7939 88.3698 22.4756 88.3698 21.6499C88.3698 20.7894 88.9649 20.5016 90.1218 20.5016C90.4035 20.5016 90.6822 20.5408 90.8088 20.5844V21.2007C90.8088 21.865 90.8449 22.3011 90.9323 22.586ZM93.9015 23.5716C93.2809 22.6689 93.1227 22.1369 93.1227 20.9987V18.6875C93.1227 17.4432 92.969 16.994 92.6256 16.5405C92.1571 15.898 91.3647 15.6189 89.9064 15.6189C88.879 15.6189 87.8742 15.7265 86.9071 15.9649L87.2521 17.6075C87.9074 17.5188 88.5943 17.4432 89.0914 17.4432C90.6265 17.4432 90.8088 17.6583 90.8088 18.7761V19.1933C90.4653 19.1047 90.0827 19.0407 89.6262 19.0407C87.2988 19.0407 86.0665 20.1382 86.0665 21.9552C86.0665 23.6588 87.3816 24.5876 88.9875 24.5876C89.5916 24.5876 90.2092 24.4815 90.6988 24.2867C91.0016 24.1617 91.1266 24.0876 91.5123 23.8463C91.7473 24.1719 92.2128 24.5048 92.4041 24.5673L93.9015 23.5716ZM112 24.3943C112 24.3943 110.726 21.7735 110.414 21.1775C110.063 20.5059 109.737 20.0422 109.02 19.8751V19.8373C109.501 19.7486 109.883 19.4681 110.302 18.6104C110.698 17.7746 110.816 17.5944 111.049 17.3952C111.278 17.1975 111.592 17.2688 111.592 17.2688L111.709 15.7236C111.376 15.68 111.007 15.6785 110.626 15.6989C109.993 15.7352 109.667 15.9111 109.355 16.2134C109.111 16.4446 108.945 16.7905 108.74 17.1874C108.523 17.6205 108.351 17.9694 108.125 18.4098C107.901 18.8619 107.796 19.0654 107.191 19.0654H106.798V12.2204H104.471V24.3943H106.798V20.894L107.116 20.8882C107.783 20.8882 107.901 21.0496 108.253 21.7284C108.666 22.5381 109.457 24.3943 109.457 24.3943H112ZM46.4333 24.3943H49.1193L45.0564 12.4239C44.6286 12.2858 44.0998 12.2001 43.5349 12.2001C42.9187 12.2001 42.6988 12.2786 42.2167 12.4239L37.9173 24.3943H40.4949C40.4949 24.3943 40.8429 23.3448 41.2526 22.0438H45.7057C46.1034 23.3434 46.4333 24.3943 46.4333 24.3943ZM41.9064 20.0364C41.9064 20.0364 42.6506 17.6336 42.7666 17.26C43.0619 16.2919 43.5108 14.754 43.5108 14.754H43.5846C43.5846 14.754 44.0004 16.3472 44.2715 17.2426C44.374 17.5987 45.085 20.0364 45.085 20.0364H41.9064ZM71.9043 18.6671C71.0833 18.6671 70.416 19.314 70.416 20.1062C70.416 20.9042 71.0833 21.5467 71.9043 21.5467C72.7269 21.5467 73.3912 20.9042 73.3912 20.1062C73.3912 19.314 72.7269 18.6671 71.9043 18.6671ZM52.3084 12.2204H49.975V24.3929H52.3084V12.2204ZM98.6694 17.5537C99.959 17.5798 100.119 17.8371 100.119 18.8808V24.3943H102.431V18.6875C102.431 17.4432 102.28 16.994 101.937 16.5405C101.462 15.898 100.53 15.6189 98.9526 15.6189C97.392 15.6189 96.3977 15.7788 95.1187 16.1466V24.3943H97.4552V17.6583C98.0684 17.5726 98.1768 17.5537 98.6694 17.5537ZM58.0797 12.0038C56.6214 12.0038 55.8275 12.2829 55.3605 12.924C55.017 13.3789 54.8649 13.8383 54.8649 15.0855V16.1466H53.7064V17.9665H54.8649V24.3943H57.1788L57.1728 17.9665H59.4792V16.1466H57.1728L57.1788 15.1712C57.1788 14.0549 57.3551 13.8383 58.9007 13.8383C59.0679 13.8383 59.2562 13.847 59.4566 13.8615L59.8211 12.1128C59.2502 12.0402 58.6657 12.0038 58.0797 12.0038ZM76.6451 12.1172C77.439 12.0721 79.2136 12.0082 80.3269 12.0082C80.5303 12.0082 80.7412 12.0096 80.9521 12.0198C83.141 12.0198 84.3958 13.5577 84.3958 15.3631C84.3958 16.5914 83.8128 17.4069 82.4465 17.8924C84.0539 18.2354 84.896 19.4463 84.896 20.9275C84.896 22.0148 84.5781 22.8782 83.9951 23.4669C83.2389 24.185 82.094 24.5876 80.5694 24.5876C79.2136 24.5876 77.5114 24.5469 76.6451 24.4975V12.1172ZM80.3269 14.1115C79.9413 14.1115 79.4637 14.1188 78.9907 14.1348V17.058H80.3284C80.8587 17.058 81.285 16.9155 81.5758 16.6408C81.8529 16.3821 81.9976 16.0158 81.9976 15.5811C81.9976 14.6465 81.4733 14.1174 80.4986 14.1115H80.3269ZM80.3751 22.4886H80.476C81.6917 22.4886 82.4359 21.865 82.445 20.6091C82.4329 20.1585 82.2537 19.7428 81.9328 19.4419C81.5818 19.1018 81.0846 18.9244 80.5016 18.9244H78.9907V22.4756C79.417 22.4843 79.887 22.4857 80.3751 22.4886Z" fill="#EE2A23"/>
</svg>
