<svg width="59" height="37" viewBox="0 0 59 37" fill="none" xmlns="http://www.w3.org/2000/svg">
<path d="M36.9876 32.1557H21.2391V3.85284H36.9876V32.1557Z" fill="#FF5F00"/>
<path d="M22.2468 18.0021C22.2468 12.2607 24.935 7.14643 29.1211 3.85061C26.0599 1.44054 22.1964 0.00205206 17.9977 0.00205206C8.0576 0.00205206 0 8.0608 0 18.0021C0 27.9433 8.0576 36.0021 17.9977 36.0021C22.1964 36.0021 26.0599 34.5636 29.1211 32.1535C24.935 28.8577 22.2468 23.7434 22.2468 18.0021Z" fill="#EB001B"/>
<path d="M58.2262 18.002C58.2262 27.9432 50.1686 36.002 40.2285 36.002C36.0297 36.002 32.1663 34.5635 29.1039 32.1534C33.2912 28.8576 35.9794 23.7433 35.9794 18.002C35.9794 12.2606 33.2912 7.14634 29.1039 3.85051C32.1663 1.44044 36.0297 0.00195312 40.2285 0.00195312C50.1686 0.00195312 58.2262 8.0607 58.2262 18.002Z" fill="#F79E1B"/>
<path d="M13.813 18.1159C13.813 17.3296 14.3283 16.6837 15.1702 16.6837C15.9746 16.6837 16.5177 17.3018 16.5177 18.1159C16.5177 18.93 15.9746 19.548 15.1702 19.548C14.3283 19.548 13.813 18.9021 13.813 18.1159ZM17.4347 15.8793H16.462V16.4224C16.1535 16.0196 15.6854 15.7668 15.0492 15.7668C13.7948 15.7668 12.8115 16.7501 12.8115 18.1159C12.8115 19.4827 13.7948 20.4649 15.0492 20.4649C15.6854 20.4649 16.1535 20.2122 16.462 19.8094V20.3525H17.4347V15.8793ZM50.3023 18.1159C50.3023 17.3296 50.8175 16.6837 51.6594 16.6837C52.465 16.6837 53.007 17.3018 53.007 18.1159C53.007 18.93 52.465 19.548 51.6594 19.548C50.8175 19.548 50.3023 18.9021 50.3023 18.1159ZM53.9249 14.0829H52.9513V16.4224C52.6428 16.0196 52.1747 15.7668 51.5384 15.7668C50.2841 15.7668 49.3007 16.7501 49.3007 18.1159C49.3007 19.4827 50.2841 20.4649 51.5384 20.4649C52.1747 20.4649 52.6428 20.2122 52.9513 19.8094V20.3525H53.9249V14.0829ZM29.5077 16.6377C30.1344 16.6377 30.5371 17.0308 30.64 17.7228H28.3188C28.4227 17.0769 28.8147 16.6377 29.5077 16.6377ZM29.527 15.7668C28.2159 15.7668 27.299 16.7212 27.299 18.1159C27.299 19.5384 28.2534 20.4649 29.5924 20.4649C30.2661 20.4649 30.8831 20.2968 31.4262 19.8383L30.9495 19.1174C30.5746 19.4163 30.0969 19.5855 29.6481 19.5855C29.0214 19.5855 28.4505 19.2952 28.3102 18.4897H31.6319C31.6415 18.3687 31.6511 18.2466 31.6511 18.1159C31.6415 16.7212 30.7803 15.7668 29.527 15.7668ZM41.2713 18.1159C41.2713 17.3296 41.7865 16.6837 42.6284 16.6837C43.4329 16.6837 43.976 17.3018 43.976 18.1159C43.976 18.93 43.4329 19.548 42.6284 19.548C41.7865 19.548 41.2713 18.9021 41.2713 18.1159ZM44.8929 15.8793H43.9203V16.4224C43.6107 16.0196 43.1437 15.7668 42.5074 15.7668C41.2531 15.7668 40.2697 16.7501 40.2697 18.1159C40.2697 19.4827 41.2531 20.4649 42.5074 20.4649C43.1437 20.4649 43.6107 20.2122 43.9203 19.8094V20.3525H44.8929V15.8793ZM35.7783 18.1159C35.7783 19.473 36.7231 20.4649 38.1649 20.4649C38.8387 20.4649 39.2875 20.315 39.7738 19.9315L39.3068 19.1453C38.9415 19.4077 38.558 19.548 38.136 19.548C37.3594 19.5384 36.7885 18.9771 36.7885 18.1159C36.7885 17.2547 37.3594 16.6934 38.136 16.6837C38.558 16.6837 38.9415 16.8241 39.3068 17.0865L39.7738 16.3003C39.2875 15.9168 38.8387 15.7668 38.1649 15.7668C36.7231 15.7668 35.7783 16.7587 35.7783 18.1159ZM48.3185 15.7668C47.7572 15.7668 47.3919 16.0293 47.1391 16.4224V15.8793H46.1751V20.3525H47.1488V17.8449C47.1488 17.1047 47.4669 16.6934 48.1032 16.6934C48.3003 16.6934 48.5059 16.7212 48.7116 16.8058L49.0115 15.8889C48.7962 15.8043 48.5156 15.7668 48.3185 15.7668ZM22.2453 16.2349C21.7772 15.9264 21.1323 15.7668 20.4211 15.7668C19.2878 15.7668 18.5583 16.3099 18.5583 17.199C18.5583 17.9284 19.1014 18.3783 20.1018 18.5186L20.5614 18.584C21.0948 18.659 21.3465 18.7993 21.3465 19.0521C21.3465 19.3981 20.9909 19.5952 20.3268 19.5952C19.653 19.5952 19.1667 19.3799 18.8389 19.1271L18.3805 19.8844C18.9139 20.2775 19.5877 20.4649 20.3172 20.4649C21.609 20.4649 22.3577 19.8565 22.3577 19.0049C22.3577 18.2187 21.7686 17.8074 20.7949 17.6671L20.3364 17.6007C19.9155 17.545 19.5781 17.4614 19.5781 17.1615C19.5781 16.8337 19.8962 16.6377 20.4296 16.6377C21.0006 16.6377 21.5533 16.853 21.8243 17.0212L22.2453 16.2349ZM34.795 15.7668C34.2337 15.7668 33.8685 16.0293 33.6167 16.4224V15.8793H32.6527V20.3525H33.6253V17.8449C33.6253 17.1047 33.9434 16.6934 34.5797 16.6934C34.7768 16.6934 34.9825 16.7212 35.1881 16.8058L35.4881 15.8889C35.2728 15.8043 34.9921 15.7668 34.795 15.7668ZM26.4946 15.8793H24.9039V14.5221H23.9206V15.8793H23.0133V16.7684H23.9206V18.8089C23.9206 19.8469 24.3233 20.4649 25.4737 20.4649C25.8958 20.4649 26.3821 20.3343 26.6906 20.119L26.4099 19.2856C26.1197 19.4538 25.8015 19.5384 25.5487 19.5384C25.0624 19.5384 24.9039 19.2385 24.9039 18.7896V16.7684H26.4946V15.8793ZM11.9514 20.3525V17.545C11.9514 16.4877 11.2776 15.7765 10.1914 15.7668C9.6205 15.7572 9.03136 15.935 8.61896 16.5627C8.31047 16.0667 7.82416 15.7668 7.14076 15.7668C6.66302 15.7668 6.19599 15.9071 5.83072 16.4309V15.8793H4.85703V20.3525H5.83929V17.8727C5.83929 17.0961 6.2699 16.6837 6.93509 16.6837C7.581 16.6837 7.90771 17.1047 7.90771 17.8631V20.3525H8.89104V17.8727C8.89104 17.0961 9.33985 16.6837 9.98577 16.6837C10.6499 16.6837 10.968 17.1047 10.968 17.8631V20.3525H11.9514Z" fill="white"/>
</svg>
