<svg width="112" height="17" viewBox="0 0 112 17" fill="none" xmlns="http://www.w3.org/2000/svg">
<path d="M15.545 3.30285C15.9572 3.8249 16.3062 4.39207 16.5849 4.99296L8.67976 10.7008L5.37599 8.67225V6.23183L8.67976 8.26036L15.545 3.30285Z" fill="#21A038"/>
<path d="M2.00491 8.5C2.00491 8.3905 2.00763 8.28172 2.01309 8.17356L0.0109042 8.07746C0.00408946 8.21763 2.41955e-06 8.35916 2.41955e-06 8.50198C-0.000849453 9.61795 0.223252 10.7231 0.659458 11.754C1.09566 12.7849 1.73538 13.7213 2.54191 14.5095L3.96211 13.1191C3.34127 12.5134 2.84875 11.7936 2.51287 11.0009C2.17698 10.2082 2.00436 9.35824 2.00491 8.5Z" fill="url(#paint0_linear_1613_100)"/>
<path d="M8.67879 1.96327C8.79054 1.96327 8.90158 1.96728 9.01198 1.97261L9.11217 0.0108289C8.96864 0.00415385 8.82415 0.000816753 8.67879 0.000816753C7.5389 -0.000544786 6.41004 0.218644 5.35693 0.645798C4.30381 1.07295 3.34722 1.69966 2.54206 2.48993L3.96226 3.881C4.58062 3.27269 5.31565 2.7901 6.12509 2.46099C6.93452 2.13188 7.80235 1.96273 8.67879 1.96327Z" fill="url(#paint1_linear_1613_100)"/>
<path d="M8.67964 15.0369C8.56789 15.0369 8.45679 15.0369 8.34574 15.0282L8.24556 16.9893C8.38957 16.9964 8.53428 17 8.67964 17C9.81904 17.0011 10.9474 16.7818 11.9999 16.3545C13.0525 15.9273 14.0084 15.3005 14.813 14.5102L13.3955 13.1198C12.777 13.7278 12.0421 14.2101 11.2328 14.5391C10.4235 14.8681 9.55586 15.0373 8.67964 15.0369Z" fill="url(#paint2_linear_1613_100)"/>
<path d="M12.4401 3.10389L14.1274 1.8857C12.5852 0.66248 10.66 -0.00339553 8.67555 1.30212e-05V1.96313C10.0193 1.9615 11.332 2.35927 12.4401 3.10389Z" fill="url(#paint3_linear_1613_100)"/>
<path d="M17.3564 8.50012C17.3574 7.98943 17.3118 7.47962 17.22 6.97688L15.3521 8.32523C15.3521 8.38334 15.3521 8.44139 15.3521 8.50012C15.3526 9.41345 15.1571 10.3167 14.7785 11.1513C14.3997 11.9859 13.8461 12.7332 13.1537 13.3448L14.501 14.8034C15.4012 14.0073 16.1206 13.0348 16.6125 11.949C17.1045 10.8631 17.3579 9.68808 17.3564 8.50012Z" fill="#21A038"/>
<path d="M8.67872 15.0368C7.74619 15.0371 6.82399 14.8456 5.97181 14.4747C5.11967 14.1037 4.35654 13.5616 3.73186 12.8834L2.24352 14.2024C3.05615 15.0844 4.04896 15.7891 5.15757 16.2711C6.26618 16.753 7.46581 17.0013 8.67872 16.9999V15.0368Z" fill="url(#paint4_linear_1613_100)"/>
<path d="M4.20336 3.65535L2.85676 2.19686C1.95623 2.99277 1.23656 3.96519 0.744418 5.05106C0.252279 6.13692 -0.00134174 7.31199 5.33811e-06 8.50006L2.00491 8.5C2.00449 7.58673 2.19999 6.68353 2.5787 5.84894C2.95743 5.01438 3.51093 4.26703 4.20336 3.65535Z" fill="url(#paint5_linear_1613_100)"/>
<path d="M50.0806 4.861L52.5637 3.08943H44.2533V13.7351H52.5637V11.9635H46.6246V9.23659H51.6909V7.46502H46.6246V4.861H50.0806Z" fill="#21A038"/>
<path d="M38.6606 7.23674H35.7754V4.86044H40.3801L42.8617 3.08349H33.4055V13.7291H38.3554C41.1306 13.7291 42.7233 12.5111 42.7233 10.3868C42.7233 8.35459 41.2807 7.23674 38.6606 7.23674ZM38.2487 11.957H35.7754V9.00722H38.2487C39.7497 9.00722 40.4534 9.50154 40.4534 10.4821C40.4534 11.4627 39.7046 11.957 38.2487 11.957Z" fill="#21A038"/>
<path d="M58.6711 3.08808H54.1475V13.7337H56.5185V10.718H58.6711C61.5573 10.718 63.3426 9.24726 63.3426 6.89733C63.3426 4.54747 61.5573 3.08808 58.6711 3.08808ZM58.6211 8.94503H56.5185V4.861H58.6211C60.1392 4.861 60.9771 5.58666 60.9771 6.90383C60.9771 8.22099 60.1392 8.94503 58.6211 8.94503Z" fill="#21A038"/>
<path d="M29.8481 11.2213C29.2356 11.5425 28.5494 11.7088 27.8529 11.7049C25.7683 11.7049 24.2561 10.2637 24.2561 8.27918C24.2561 6.29463 25.7683 4.85033 27.8529 4.85033C28.6046 4.83797 29.3408 5.05871 29.9538 5.48036L31.6123 4.29749L31.5002 4.22032C30.5327 3.39658 29.24 2.9603 27.7603 2.9603C26.1553 2.9603 24.7 3.4832 23.661 4.43452C23.1356 4.92434 22.7201 5.51378 22.4403 6.16604C22.1606 6.81831 22.0225 7.51938 22.035 8.2256C22.0238 8.93899 22.1612 9.64723 22.4389 10.3081C22.7166 10.9689 23.1289 11.5687 23.6512 12.0718C24.6951 13.061 26.1472 13.6059 27.7407 13.6059C29.4058 13.6059 30.8611 13.0436 31.8465 12.0199L30.3619 10.9489L29.8481 11.2213Z" fill="#21A038"/>
<path d="M72.7461 7.23674H69.8621V4.86044H76.0598V3.08349H67.4906V13.7291H72.4342C75.209 13.7291 76.8019 12.5111 76.8019 10.3868C76.8083 8.35459 75.3661 7.23674 72.7461 7.23674ZM72.3342 11.957H69.8621V9.00722H72.3342C73.8351 9.00722 74.5384 9.50154 74.5384 10.4821C74.5384 11.4627 73.7963 11.957 72.3342 11.957Z" fill="#21A038"/>
<path d="M103.759 13.7137H101.355V3.06809H103.759V7.53931H105.067L108.6 3.06809H111.325L107.134 8.13233L112 13.7137H108.811L105.234 9.52688H103.759V13.7137Z" fill="#21A038"/>
<path d="M85.5335 11.6907H80.4485L79.5864 13.758H77.0283L81.7977 3.11239H84.3553L89.0472 13.758H86.3955L85.5335 11.6907ZM84.7371 9.76185L83.006 5.62731L81.2653 9.76185H84.7371Z" fill="#21A038"/>
<path d="M92.284 3.11239V7.55781H97.2583V3.11239H99.7368V13.758H97.2583V9.56326H92.284V13.758H89.8055V3.11239H92.284Z" fill="#21A038"/>
<defs>
<linearGradient id="paint0_linear_1613_100" x1="83.3162" y1="16.3526" x2="82.7354" y2="-1.98189" gradientUnits="userSpaceOnUse">
<stop offset="0.14" stop-color="#F1E813"/>
<stop offset="0.3" stop-color="#E6E418"/>
<stop offset="0.58" stop-color="#C9DA26"/>
<stop offset="0.89" stop-color="#A2CC39"/>
</linearGradient>
<linearGradient id="paint1_linear_1613_100" x1="9.7583" y1="12.4261" x2="43.2204" y2="-38.2293" gradientUnits="userSpaceOnUse">
<stop offset="0.06" stop-color="#0FA7DF"/>
<stop offset="0.54" stop-color="#0098F8"/>
<stop offset="0.92" stop-color="#0290EA"/>
</linearGradient>
<linearGradient id="paint2_linear_1613_100" x1="-2.2542" y1="11.8089" x2="61.0663" y2="-45.038" gradientUnits="userSpaceOnUse">
<stop offset="0.12" stop-color="#A2CC39"/>
<stop offset="0.28" stop-color="#86C239"/>
<stop offset="0.87" stop-color="#219F38"/>
</linearGradient>
<linearGradient id="paint3_linear_1613_100" x1="-8.56729" y1="3.60113" x2="42.6429" y2="64.1185" gradientUnits="userSpaceOnUse">
<stop offset="0.06" stop-color="#0290EA"/>
<stop offset="0.79" stop-color="#0C89CA"/>
</linearGradient>
<linearGradient id="paint4_linear_1613_100" x1="8.75309" y1="4.46018" x2="41.5948" y2="57.2708" gradientUnits="userSpaceOnUse">
<stop offset="0.13" stop-color="#F1E813"/>
<stop offset="0.3" stop-color="#EAE616"/>
<stop offset="0.53" stop-color="#D8DF1F"/>
<stop offset="0.8" stop-color="#BAD52D"/>
<stop offset="0.98" stop-color="#A2CC39"/>
</linearGradient>
<linearGradient id="paint5_linear_1613_100" x1="19.9015" y1="17.6409" x2="20.6169" y2="-1.12905" gradientUnits="userSpaceOnUse">
<stop offset="0.07" stop-color="#A2CC39"/>
<stop offset="0.26" stop-color="#81C45E"/>
<stop offset="0.92" stop-color="#0FA7DF"/>
</linearGradient>
</defs>
</svg>
