<svg width="55" height="19" viewBox="0 0 55 19" fill="none" xmlns="http://www.w3.org/2000/svg">
<path fill-rule="evenodd" clip-rule="evenodd" d="M13.882 17.8734H9.22938L5.74051 3.92184C5.57491 3.28007 5.2233 2.71271 4.70609 2.44531C3.41534 1.77331 1.99303 1.2385 0.441406 0.968774V0.431641H7.93637C8.97078 0.431641 9.74659 1.2385 9.87589 2.17558L11.6861 12.2393L16.3364 0.431641H20.8597L13.882 17.8734ZM23.4448 17.8734H19.0508L22.669 0.431641H27.0629L23.4448 17.8734ZM32.7496 5.26344C32.8789 4.32404 33.6547 3.7869 34.5598 3.7869C35.9822 3.65204 37.5315 3.92177 38.8245 4.59144L39.6003 0.836159C38.3073 0.299026 36.885 0.0292969 35.5942 0.0292969C31.3296 0.0292969 28.2263 2.44523 28.2263 5.79825C28.2263 8.34905 30.4244 9.68839 31.9761 10.4953C33.6547 11.2998 34.3012 11.8369 34.1719 12.6415C34.1719 13.8483 32.8789 14.3854 31.5882 14.3854C30.0365 14.3854 28.4849 13.9831 27.0649 13.3111L26.2891 17.0687C27.8407 17.7384 29.5193 18.0081 31.071 18.0081C35.8528 18.1407 38.8245 15.7271 38.8245 12.1043C38.8245 7.54218 32.7496 7.27478 32.7496 5.26344ZM54.2024 17.8734L50.7136 0.431641H46.9661C46.1903 0.431641 45.4145 0.968774 45.1559 1.77331L38.6953 17.8734H43.2186L44.1214 15.3249H49.6791L50.1964 17.8734H54.2024ZM47.6126 5.12891L48.9033 11.7024H45.2852L47.6126 5.12891Z" fill="#172B85"/>
</svg>
