<svg width="112" height="23" viewBox="0 0 112 23" fill="none" xmlns="http://www.w3.org/2000/svg">
<path d="M5.39332 12.1487L2.27676 19.7014H0L3.42447 11.6257C2.62201 11.1832 1.97817 10.5396 1.48363 9.68474C0.989085 8.82991 0.74648 7.67337 0.74648 6.19502C0.74648 5.16922 0.886445 4.2641 1.16637 3.47967C1.4463 2.69523 1.82888 2.0516 2.31409 1.5387C2.7993 1.0258 3.36849 0.633581 4.01233 0.38216C4.65617 0.120682 5.34666 0 6.05582 0H8.99508V19.7114H7.02624V12.1587H5.39332V12.1487ZM7.02624 1.75995H5.98117C5.58927 1.75995 5.2067 1.8404 4.83346 1.99126C4.46022 2.15216 4.1243 2.39353 3.83504 2.73546C3.54578 3.07739 3.3125 3.52995 3.13521 4.09314C2.95793 4.65632 2.86462 5.35024 2.86462 6.18496C2.86462 6.97945 2.94859 7.6432 3.10722 8.17622C3.26585 8.70923 3.48979 9.14167 3.76972 9.47355C4.04965 9.80542 4.38557 10.0367 4.76814 10.1775C5.15071 10.3183 5.55194 10.3887 5.98117 10.3887H7.02624V1.75995Z" fill="#EE2E24"/>
<path d="M18.4847 5.81286V19.7014H16.5159V13.4762H13.5486V19.7014H11.5518V5.81286H13.5486V11.7162H16.5159V5.81286H18.4847ZM28.7395 22.4268H26.9479V19.7014H21.424V22.4268H19.6324V17.9314H20.4256C20.7148 17.1972 20.9481 16.3826 21.1161 15.4875C21.284 14.5925 21.4146 13.6773 21.508 12.732C21.6013 11.7866 21.6572 10.8212 21.6852 9.8356C21.7132 8.85002 21.7226 7.90468 21.7226 6.97945V5.81286H27.7037V17.9414H28.7301V22.4268H28.7395ZM25.7442 7.5728H23.5234V7.82423C23.5234 8.55838 23.5141 9.36292 23.4861 10.2278C23.4581 11.1028 23.4021 11.9878 23.3182 12.8828C23.2342 13.7779 23.1129 14.6629 22.9636 15.5378C22.8143 16.4128 22.5997 17.2073 22.3197 17.9414H25.7442V7.5728ZM37.408 18.7661C36.9974 19.1181 36.5309 19.3896 35.999 19.5907C35.4671 19.7919 34.8793 19.8924 34.2354 19.8924C32.9011 19.8924 31.856 19.3393 31.0909 18.223C30.3257 17.1067 29.9432 15.4775 29.9432 13.3354C29.9432 12.2191 30.0178 11.1832 30.1578 10.2479C30.3071 9.31264 30.531 8.49803 30.8483 7.80411C31.1655 7.11019 31.5668 6.57718 32.0613 6.19502C32.5559 5.81286 33.1437 5.61172 33.8249 5.61172C34.3567 5.61172 34.8419 5.72234 35.2805 5.95365C35.7191 6.18496 36.1016 6.55706 36.4096 7.06996C36.7175 7.58286 36.9508 8.24661 37.128 9.07127C37.296 9.88588 37.38 10.8815 37.38 12.0582V13.2449H32.0053C32.0053 14.8238 32.2013 16.0206 32.6025 16.8251C33.0037 17.6297 33.6009 18.042 34.4034 18.042C34.9633 18.042 35.4671 17.9414 35.8964 17.7202C36.3349 17.509 36.6802 17.2978 36.9321 17.0966L37.408 18.7661ZM33.8249 7.38172C33.209 7.38172 32.7798 7.75383 32.5185 8.49803C32.2573 9.24224 32.0986 10.2379 32.0333 11.4849H35.3365C35.3365 10.9016 35.3085 10.3485 35.2618 9.84565C35.2152 9.34281 35.1312 8.90031 35.0192 8.53826C34.9073 8.16616 34.758 7.88457 34.562 7.68343C34.3661 7.48229 34.1141 7.38172 33.8249 7.38172ZM41.4203 12.7823V19.7014H39.4235V5.81286H41.4203V12.2392L44.5182 5.81286H46.543L43.3425 12.3498L47.0002 19.7114H44.8261L41.4203 12.7823ZM51.6751 19.8924C50.2941 19.8924 49.2117 19.2991 48.4279 18.1124C47.6441 16.9257 47.2522 15.1356 47.2522 12.7521C47.2522 11.6659 47.3455 10.6804 47.5508 9.80542C47.7467 8.92042 48.036 8.17622 48.4186 7.56275C48.8011 6.94928 49.277 6.46655 49.8462 6.12462C50.4154 5.78269 51.0779 5.61172 51.8244 5.61172C52.4029 5.61172 52.8694 5.68212 53.2333 5.82291C53.5879 5.96371 53.9145 6.13468 54.2038 6.33581L53.9238 8.37735C53.6532 8.11587 53.3267 7.88457 52.9627 7.68343C52.5988 7.48229 52.2069 7.38172 51.7964 7.38172C51.0779 7.38172 50.49 7.81417 50.0328 8.68911C49.5756 9.554 49.3423 10.8815 49.3423 12.6515C49.3423 14.4014 49.5383 15.7591 49.9208 16.7145C50.3034 17.6699 50.9099 18.1425 51.7217 18.1425C52.2163 18.1425 52.6455 18.052 53.0001 17.871C53.3546 17.69 53.6532 17.4889 53.8958 17.2575L54.3531 18.8566C54.0078 19.1683 53.6252 19.4198 53.2053 19.6108C52.7855 19.8019 52.2723 19.8924 51.6751 19.8924Z" fill="black"/>
<path d="M67.9203 19.7014H60.0916L59.9143 22.9799H58.9159V18.6052H59.4571C59.8957 18.2029 60.2409 17.4788 60.4835 16.453C60.7261 15.4272 60.9128 14.2003 61.0434 12.7822C61.1833 11.3139 61.2767 9.50372 61.3233 7.36161C61.37 5.2195 61.4166 2.76563 61.454 0.0100568H67.8457V18.6152H69.0961V23H68.0976L67.9203 19.7014ZM62.5923 1.0962C62.555 3.62046 62.5084 5.84303 62.443 7.74377C62.3777 9.65457 62.2937 11.324 62.1911 12.7621C62.0698 14.2606 61.9018 15.4875 61.6966 16.453C61.4819 17.4185 61.202 18.1325 60.8661 18.5951H66.5674V1.0962H62.5923Z" fill="black"/>
<path d="M71.5501 12.9733C71.5874 14.8942 71.83 16.3524 72.2873 17.3581C72.7445 18.3638 73.4443 18.8666 74.3867 18.8666C74.816 18.8666 75.1892 18.7962 75.5158 18.6454C75.8424 18.4945 76.113 18.3135 76.3369 18.1124C76.5889 17.9112 76.8128 17.6498 76.9994 17.3581L77.382 18.404C77.1767 18.7158 76.9341 18.9873 76.6448 19.1985C76.3929 19.3997 76.0756 19.5807 75.7024 19.7315C75.3292 19.8824 74.8813 19.9628 74.3681 19.9628C73.0057 19.9628 71.998 19.3293 71.3542 18.0621C70.7103 16.7949 70.3837 15.0249 70.3837 12.742C70.3837 11.6056 70.4771 10.5899 70.6637 9.6948C70.8503 8.79974 71.1116 8.04548 71.4475 7.42195C71.7834 6.79843 72.1753 6.32576 72.6325 6.00394C73.0897 5.68212 73.5936 5.52121 74.1441 5.52121C74.704 5.52121 75.2079 5.68212 75.6558 5.99388C76.0943 6.30564 76.4675 6.77831 76.7568 7.40184C77.0461 8.02536 77.2514 8.79974 77.3727 9.73503C77.4939 10.6603 77.5033 11.7464 77.4006 12.9733H71.5501ZM74.1348 6.63752C73.4536 6.63752 72.8658 7.09008 72.3806 7.99519C71.8954 8.90031 71.6248 10.2178 71.5781 11.9576H76.2623C76.3649 10.1071 76.1969 8.75951 75.7677 7.91474C75.3385 7.06996 74.7786 6.63752 74.1348 6.63752Z" fill="black"/>
<path d="M85.2574 13.0638H80.8624V19.7114H79.6588V5.81286H80.8624V11.9576H85.2574V5.81286H86.4611V19.7014H85.2574V13.0638Z" fill="black"/>
<path d="M89.2977 5.81286H90.5014V10.962H91.4438C92.6755 10.962 93.6553 11.324 94.3831 12.038C95.1202 12.7521 95.4841 13.8382 95.4841 15.2864C95.4841 16.7547 95.1016 17.861 94.3364 18.5951C93.5713 19.3293 92.5822 19.7014 91.3692 19.7014H89.2977V5.81286ZM90.5014 11.9878V18.6856H91.2665C92.1716 18.6856 92.8994 18.4241 93.4686 17.9012C94.0378 17.3782 94.3084 16.5234 94.3084 15.3266C94.3084 14.15 94.0565 13.3052 93.5433 12.7722C93.0301 12.2492 92.3116 11.9878 91.3971 11.9878H90.5014Z" fill="black"/>
<path d="M98.7313 6.90906V19.7014H97.5556V5.81286H103.005V6.91911H98.7313V6.90906Z" fill="black"/>
<path d="M110.852 10.0267C110.852 9.65457 110.862 9.3227 110.88 9.02099C110.899 8.71929 110.927 8.41758 110.955 8.12593H110.88C110.796 8.43769 110.694 8.7394 110.572 9.02099C110.451 9.30258 110.32 9.60429 110.19 9.91605L106 19.7014H104.974V5.81286H106.103V15.4574C106.103 15.8295 106.093 16.1614 106.075 16.4731C106.056 16.7849 106.028 17.0966 106 17.4084H106.075C106.159 17.0966 106.261 16.7849 106.383 16.4832C106.504 16.1815 106.625 15.8697 106.765 15.5579L110.955 5.8028H112V19.6913H110.852V10.0267Z" fill="black"/>
</svg>
