<svg width="182" height="30" viewBox="0 0 182 30" fill="none" xmlns="http://www.w3.org/2000/svg">
<path d="M2.11794 4.81772C2.74317 4.38524 3.44655 4.17294 4.22807 4.17294C5.29877 4.17294 6.17408 4.53465 6.86183 5.25807C7.54957 5.98935 7.89345 6.8779 7.89345 7.93158C7.89345 8.9774 7.52613 9.85809 6.79931 10.5815C6.06467 11.3049 5.1112 11.6666 3.93891 11.6666C2.74317 11.6666 1.78189 11.2892 1.0707 10.5343C0.351688 9.77159 0 8.67073 0 7.21603C0 5.45465 0.359503 4.04712 1.0707 3.00131C1.7897 1.95549 2.85258 1.30284 4.25934 1.04335C5.25969 0.862492 6.00215 0.618731 6.48669 0.304199L7.19007 1.64882C6.61956 2.02626 5.83021 2.30934 4.82204 2.52165C3.27461 2.82831 2.37585 3.59105 2.11794 4.81772ZM3.93891 10.1412C4.55632 10.1412 5.0565 9.93672 5.42381 9.5121C5.79895 9.08749 5.9787 8.56851 5.9787 7.93158C5.9787 7.27893 5.79895 6.74423 5.42381 6.31961C5.0565 5.89499 4.55632 5.69055 3.93891 5.69055C3.32932 5.69055 2.83695 5.89499 2.46963 6.31961C2.0945 6.74423 1.91475 7.27893 1.91475 7.93158C1.91475 8.56065 2.0945 9.08749 2.46182 9.5121C2.82914 9.92886 3.3215 10.1412 3.93891 10.1412Z" fill="#414449"/>
<path d="M16.3778 11.4647H14.5256V5.89745H11.7199V9.20789C11.7199 10.5289 10.9618 11.3467 9.46123 11.6691L8.64062 10.4188C9.15644 10.2694 9.49249 10.0807 9.64099 9.84482C9.78948 9.61678 9.85982 9.30225 9.85982 8.90122V4.3877H16.3778V11.4647Z" fill="#414449"/>
<path d="M26.0108 11.0321L24.7056 11.669C24.3305 11.3152 24.1429 10.9692 24.1429 10.6153C23.4552 11.3152 22.5564 11.669 21.4545 11.669C20.3759 11.669 19.4928 11.3152 18.8051 10.6153C18.1095 9.91549 17.7656 9.01121 17.7656 7.91822C17.7656 6.88813 18.1251 6.00744 18.852 5.26829C19.5788 4.537 20.4697 4.17529 21.517 4.17529C22.6189 4.17529 23.4786 4.50555 24.1117 5.17393L25.6357 4.3876V9.29429C25.6357 9.86045 25.6591 10.2615 25.7295 10.4738C25.792 10.694 25.8858 10.8827 26.0108 11.0321ZM21.7436 10.1435C22.3689 10.1435 22.869 9.93908 23.2442 9.52233C23.6271 9.10557 23.8147 8.57087 23.8147 7.93394C23.8147 7.24984 23.6349 6.70727 23.2676 6.29838C22.9081 5.88949 22.4079 5.69291 21.7749 5.69291C21.134 5.69291 20.626 5.89735 20.2509 6.30624C19.8758 6.723 19.6804 7.24984 19.6804 7.88676C19.6804 8.53942 19.868 9.07412 20.2431 9.5066C20.6104 9.93122 21.1106 10.1435 21.7436 10.1435Z" fill="#414449"/>
<path d="M32.3455 4.3877L31.5796 6.02326H29.3522V11.4646H27.5V4.3877H32.3455Z" fill="#414449"/>
<path d="M36.5132 4.17529C37.6855 4.17529 38.6311 4.52914 39.3658 5.25256C40.1004 5.98385 40.4677 6.8724 40.4677 7.93394C40.4677 8.97976 40.1004 9.86045 39.3736 10.5839C38.6389 11.3073 37.6855 11.669 36.5132 11.669C35.3409 11.669 34.3874 11.3073 33.6606 10.5839C32.9259 9.86045 32.5664 8.97976 32.5664 7.93394C32.5664 6.88813 32.9259 5.99957 33.6449 5.26829C34.3639 4.537 35.3252 4.17529 36.5132 4.17529ZM36.5132 10.1435C37.1306 10.1435 37.6229 9.93908 37.9981 9.51446C38.3576 9.08985 38.5452 8.57087 38.5452 7.93394C38.5452 7.28129 38.3576 6.74659 37.9981 6.32197C37.6229 5.89735 37.1306 5.69291 36.5132 5.69291C35.8958 5.69291 35.4034 5.89735 35.0361 6.32197C34.6687 6.74659 34.4812 7.28129 34.4812 7.93394C34.4812 8.56301 34.6687 9.08985 35.0439 9.51446C35.4112 9.93122 35.9036 10.1435 36.5132 10.1435Z" fill="#414449"/>
<path d="M47.7915 4.3877L46.9552 6.02326H45.0874V11.4646H43.2352V6.02326H41.0781V4.3877H47.7915Z" fill="#414449"/>
<path d="M53.541 7.69027C54.0021 7.78463 54.3694 7.98121 54.6351 8.27216C54.9008 8.5631 55.0337 8.90122 55.0337 9.27866C55.0337 9.97063 54.8461 10.4739 54.4554 10.7884C54.0646 11.1108 53.6191 11.2995 53.1033 11.3624C52.5953 11.4332 51.8216 11.4646 50.7899 11.4646H48.4062V4.3877H51.5558C52.5406 4.3877 53.2987 4.5371 53.8145 4.84377C54.3381 5.15043 54.6038 5.6065 54.6038 6.20411C54.6038 6.90395 54.2443 7.39933 53.541 7.69027ZM50.2585 7.12412H51.72C52.3843 7.12412 52.7203 6.89608 52.7203 6.43215C52.7203 6.2277 52.6187 6.05471 52.4155 5.92104C52.2123 5.78736 51.9388 5.72445 51.6027 5.72445H50.2585V7.12412ZM50.2585 10.1358H51.6887C52.6422 10.1358 53.1189 9.84481 53.1189 9.26293C53.1189 8.72823 52.7047 8.46088 51.8685 8.46088H50.2585V10.1358Z" fill="#414449"/>
<path d="M59.892 4.17529C61.0565 4.17529 62.01 4.52914 62.7368 5.25256C63.4715 5.98385 63.8388 6.8724 63.8388 7.93394C63.8388 8.97976 63.4793 9.86045 62.7446 10.5839C62.0178 11.3073 61.0643 11.669 59.892 11.669C58.7198 11.669 57.7663 11.3073 57.0316 10.5839C56.3048 9.86045 55.9375 8.97976 55.9375 7.93394C55.9375 6.88813 56.297 5.99957 57.016 5.26829C57.7428 4.537 58.6963 4.17529 59.892 4.17529ZM59.892 10.1435C60.5095 10.1435 61.0018 9.93908 61.3691 9.51446C61.7365 9.08985 61.924 8.57087 61.924 7.93394C61.924 7.28129 61.7365 6.74659 61.3691 6.32197C61.0018 5.89735 60.5095 5.69291 59.892 5.69291C59.2746 5.69291 58.7823 5.89735 58.4071 6.32197C58.0398 6.74659 57.8601 7.28129 57.8601 7.93394C57.8601 8.56301 58.0398 9.08985 58.415 9.51446C58.7823 9.93122 59.2746 10.1435 59.892 10.1435Z" fill="#414449"/>
<path d="M66.8287 5.18966C67.4461 4.51341 68.3214 4.17529 69.4312 4.17529C70.541 4.17529 71.4398 4.52914 72.1197 5.2447C72.7996 5.96026 73.1435 6.85668 73.1435 7.91823C73.1435 8.94832 72.784 9.83687 72.0728 10.5682C71.3538 11.2994 70.4628 11.669 69.3843 11.669C68.4308 11.669 67.6649 11.4174 67.0866 10.9141V14.0752L65.2266 14.6178V4.3876L66.8287 5.18966ZM69.1655 10.1435C69.7907 10.1435 70.2909 9.93909 70.666 9.5302C71.0412 9.12131 71.2287 8.58661 71.2287 7.94968C71.2287 7.29702 71.0412 6.75446 70.666 6.32984C70.2987 5.90522 69.7985 5.69291 69.1655 5.69291C68.5403 5.69291 68.0401 5.89736 67.6571 6.31411C67.2898 6.723 67.0944 7.26557 67.0944 7.93395C67.0944 8.60233 67.282 9.13704 67.6493 9.53807C68.0166 9.94696 68.5246 10.1435 69.1655 10.1435Z" fill="#414449"/>
<path d="M81.2641 11.4646H79.4197V7.643L75.1369 11.669H74.5352V4.3876H76.3874V8.20916L80.6701 4.17529H81.2641V11.4646Z" fill="#414449"/>
<path d="M89.2759 4.3877L88.4397 6.02326H86.5718V11.4646H84.7196V6.02326H82.5625V4.3877H89.2759Z" fill="#414449"/>
<path d="M96.8425 7.60368L91.3874 8.62591C91.5047 9.16061 91.7469 9.55378 92.1221 9.81327C92.4972 10.0728 92.9896 10.2064 93.6148 10.2064C94.2713 10.2064 94.9278 10.0256 95.5921 9.656L96.358 11.0164C95.4358 11.4488 94.4589 11.669 93.4194 11.669C92.208 11.669 91.2389 11.323 90.5043 10.631C89.7775 9.93908 89.4102 9.06626 89.4102 8.00471C89.4102 6.88026 89.7697 5.96026 90.5043 5.2447C91.2311 4.52914 92.1455 4.17529 93.2397 4.17529C94.2557 4.17529 95.0919 4.4741 95.7562 5.08743C96.4127 5.69291 96.7722 6.53428 96.8425 7.60368ZM94.8809 6.61291C94.7246 6.29051 94.5057 6.04675 94.2322 5.88163C93.9587 5.7165 93.6226 5.63 93.224 5.63C92.7395 5.63 92.3175 5.7794 91.9736 6.07821C91.6297 6.36915 91.4187 6.77018 91.3405 7.26556L94.8809 6.61291Z" fill="#414449"/>
<path d="M105.327 11.4647H103.475V5.89745H100.669V9.20789C100.669 10.5289 99.9188 11.3467 98.4104 11.6691L97.5977 10.4188C98.1057 10.2694 98.4417 10.0807 98.5902 9.84482C98.7387 9.61678 98.8168 9.30225 98.8168 8.90122V4.3877H105.327V11.4647Z" fill="#414449"/>
<path d="M109.055 7.12412H110.517C111.65 7.12412 112.478 7.29711 113.018 7.64309C113.557 7.98908 113.83 8.53165 113.83 9.26293C113.83 10.0257 113.549 10.5761 112.994 10.9299C112.432 11.2917 111.447 11.4646 110.048 11.4646H107.195V4.3877H109.055V7.12412ZM109.055 10.1358H110.454C111.009 10.1358 111.392 10.065 111.603 9.92345C111.814 9.78191 111.916 9.5696 111.916 9.29438C111.916 8.73609 111.47 8.46088 110.579 8.46088H109.055V10.1358Z" fill="#414449"/>
<path d="M121.916 11.4646H120.064V8.52378H117.032V11.4646H115.18V4.3877H117.032V7.15557H120.064V4.3877H121.916V11.4646Z" fill="#414449"/>
<path d="M125.641 7.12402H127.111C128.236 7.12402 129.072 7.29701 129.611 7.64299C130.151 7.98897 130.416 8.53154 130.416 9.26282C130.416 10.0256 130.135 10.576 129.58 10.9298C129.018 11.2915 128.041 11.4645 126.634 11.4645H123.789V4.3876H125.641V7.12402ZM125.641 10.1356H127.04C127.603 10.1356 127.986 10.0649 128.197 9.92334C128.4 9.7818 128.51 9.56949 128.51 9.29428C128.51 8.73599 128.056 8.46077 127.165 8.46077H125.641V10.1356ZM133.316 11.4645H131.464V4.63923L133.316 4.17529V11.4645Z" fill="#414449"/>
<path d="M141.909 11.4617H140.064V7.64012L135.781 11.6661H135.18V4.38472H137.032V8.20627L141.315 4.17241H141.909V11.4617ZM141.041 1.21582C140.807 2.63907 139.978 3.34677 138.556 3.34677C137.118 3.34677 136.289 2.63907 136.047 1.21582H137.305C137.391 1.4989 137.563 1.72693 137.798 1.91565C138.032 2.09651 138.29 2.183 138.556 2.183C139.189 2.183 139.603 1.86061 139.791 1.21582H141.041Z" fill="#414449"/>
<path d="M152.299 4.22906C153.385 4.37846 154.237 4.80308 154.862 5.49504C155.487 6.18701 155.792 6.99693 155.792 7.91694C155.792 8.83694 155.487 9.64686 154.862 10.3388C154.237 11.0387 153.385 11.4554 152.299 11.597V14.0818L150.493 14.6165V11.597C149.407 11.4554 148.555 11.0387 147.93 10.3388C147.305 9.64686 146.992 8.83694 146.992 7.91694C146.992 6.99693 147.305 6.18701 147.93 5.49504C148.555 4.80308 149.407 4.37846 150.493 4.22906V0.816391L152.299 0.289551V4.22906ZM152.299 10.1029C152.807 9.96139 153.205 9.69404 153.502 9.28515C153.799 8.87626 153.948 8.42019 153.948 7.91694C153.948 7.41369 153.799 6.95762 153.502 6.54873C153.198 6.13983 152.799 5.86462 152.299 5.73094V10.1029ZM150.493 10.1029V5.73094C150.001 5.85676 149.602 6.12411 149.298 6.54086C149.001 6.95762 148.844 7.41369 148.844 7.91694C148.844 8.41232 149.001 8.87626 149.298 9.28515C149.602 9.7019 150.001 9.97712 150.493 10.1029Z" fill="#414449"/>
<path d="M160.65 4.17529C161.814 4.17529 162.768 4.52914 163.502 5.25256C164.229 5.98385 164.597 6.8724 164.597 7.93394C164.597 8.97976 164.237 9.86045 163.502 10.5839C162.776 11.3073 161.822 11.669 160.65 11.669C159.478 11.669 158.524 11.3073 157.789 10.5839C157.063 9.86045 156.695 8.97976 156.695 7.93394C156.695 6.88813 157.055 5.99957 157.774 5.26829C158.501 4.537 159.454 4.17529 160.65 4.17529ZM160.65 10.1435C161.267 10.1435 161.76 9.93908 162.127 9.51446C162.494 9.08985 162.682 8.57087 162.682 7.93394C162.682 7.28129 162.494 6.74659 162.127 6.32197C161.76 5.89735 161.267 5.69291 160.65 5.69291C160.032 5.69291 159.54 5.89735 159.165 6.32197C158.805 6.74659 158.618 7.28129 158.618 7.93394C158.618 8.56301 158.805 9.08985 159.173 9.51446C159.54 9.93122 160.032 10.1435 160.65 10.1435Z" fill="#414449"/>
<path d="M172.717 11.4646H170.873V8.52378H167.84V11.4646H165.988V4.3877H167.84V7.15557H170.873V4.3877H172.717V11.4646Z" fill="#414449"/>
<path d="M181.776 9.94704L179.987 13.4462H178.478L179.064 11.4647H175.704L175.118 13.4462H173.836V9.94704H174.117C174.743 9.84482 175.055 9.27866 175.055 8.24071V4.3877H181.042V9.94704H181.776ZM179.189 9.94704V5.89745H176.821V8.13062C176.821 8.9484 176.712 9.55388 176.485 9.94704H179.189Z" fill="#414449"/>
<path d="M7.13519 27.5931H5.29079V22.0259H2.25847V27.5931H0.40625V20.5161H7.13519V27.5931Z" fill="#414449"/>
<path d="M12.474 20.3037C13.6385 20.3037 14.592 20.6654 15.3266 21.3888C16.0612 22.1123 16.4285 23.0008 16.4285 24.0624C16.4285 25.1082 16.0612 25.9967 15.3266 26.7123C14.5998 27.4357 13.6463 27.7974 12.474 27.7974C11.3018 27.7974 10.3483 27.4357 9.61366 26.7123C8.88685 25.9889 8.51953 25.1082 8.51953 24.0624C8.51953 23.0165 8.87903 22.128 9.59803 21.3967C10.3248 20.6654 11.2783 20.3037 12.474 20.3037ZM12.474 26.2798C13.0914 26.2798 13.5838 26.0675 13.9511 25.6429C14.3184 25.2183 14.506 24.6993 14.506 24.0624C14.506 23.4097 14.3184 22.875 13.9511 22.4504C13.5838 22.0336 13.0914 21.8213 12.474 21.8213C11.8566 21.8213 11.3643 22.0336 10.997 22.4504C10.6296 22.875 10.4421 23.4097 10.4421 24.0624C10.4421 24.6914 10.6296 25.2183 10.997 25.6429C11.3643 26.0675 11.8566 26.2798 12.474 26.2798Z" fill="#414449"/>
<path d="M26.0306 27.593H24.2096L23.686 24.0466L21.7087 27.7974H21.0757L19.3172 24.0309L18.7233 27.593H17.0195L18.4966 20.3037H19.1922L21.529 24.9902L23.9751 20.3037H24.6473L26.0306 27.593Z" fill="#414449"/>
<path d="M30.5873 20.3037C31.7596 20.3037 32.7053 20.6654 33.4399 21.3888C34.1746 22.1123 34.5419 23.0008 34.5419 24.0624C34.5419 25.1082 34.1746 25.9967 33.4477 26.7123C32.7131 27.4357 31.7596 27.7974 30.5873 27.7974C29.415 27.7974 28.4616 27.4357 27.7348 26.7123C27.0001 25.9889 26.6406 25.1082 26.6406 24.0624C26.6406 23.0165 27.0001 22.128 27.7191 21.3967C28.4381 20.6654 29.3994 20.3037 30.5873 20.3037ZM30.5873 26.2798C31.2047 26.2798 31.6971 26.0675 32.0722 25.6429C32.4396 25.2183 32.6193 24.6993 32.6193 24.0624C32.6193 23.4097 32.4396 22.875 32.0722 22.4504C31.6971 22.0336 31.2047 21.8213 30.5873 21.8213C29.9699 21.8213 29.4776 22.0336 29.1103 22.4504C28.7429 22.875 28.5554 23.4097 28.5554 24.0624C28.5554 24.6914 28.7429 25.2183 29.1181 25.6429C29.4854 26.0675 29.9777 26.2798 30.5873 26.2798Z" fill="#414449"/>
<path d="M47.8871 26.0755L46.0896 29.5825H44.589L45.1752 27.5931H35.9219V20.5161H37.7741V26.0755H40.6111V20.5161H42.4633V26.0755H45.2924V20.5161H47.1525V26.0755H47.8871Z" fill="#414449"/>
<path d="M55.7602 27.593H53.908V23.7714L49.6252 27.7974H49.0234V20.516H50.8757V24.3376L55.1584 20.3037H55.7602V27.593Z" fill="#414449"/>
<path d="M68.5185 26.0755L66.721 29.5825H65.2126L65.7988 27.5931H62.446L61.8598 29.5825H60.5781V26.0755H60.8595C61.4769 25.9811 61.7895 25.4071 61.7895 24.3691V20.5161H67.7839V26.0755H68.5185ZM65.9238 26.0755V22.0259H63.5558V24.2591C63.5558 25.0768 63.4464 25.6902 63.2275 26.0755H65.9238Z" fill="#414449"/>
<path d="M76.5887 23.7321L71.1335 24.7622C71.2508 25.289 71.5009 25.6822 71.876 25.9417C72.2433 26.2012 72.7435 26.3349 73.3609 26.3349C74.0174 26.3349 74.6739 26.154 75.3382 25.7844L76.1119 27.1448C75.1897 27.5773 74.205 27.7974 73.1655 27.7974C71.962 27.7974 70.9929 27.4514 70.2582 26.7595C69.5236 26.0675 69.1562 25.1947 69.1562 24.141C69.1562 23.0087 69.5236 22.0887 70.2504 21.3731C70.985 20.6576 71.8994 20.3037 72.9936 20.3037C74.0018 20.3037 74.8459 20.6104 75.5023 21.2159C76.1588 21.8213 76.5262 22.6627 76.5887 23.7321ZM74.627 22.7413C74.4785 22.4189 74.2597 22.1752 73.9862 22.01C73.7126 21.8449 73.3687 21.7584 72.978 21.7584C72.4856 21.7584 72.0714 21.9078 71.7275 22.2066C71.3836 22.4976 71.1726 22.8986 71.0945 23.394L74.627 22.7413Z" fill="#414449"/>
<path d="M84.1157 20.5161L83.2873 22.1517H81.4194V27.5931H79.5594V22.1517H77.4102V20.5161H84.1157Z" fill="#414449"/>
<path d="M89.971 27.5931H88.111V25.1083H87.5561L85.868 27.5931H83.7266L85.8054 24.8174C85.3522 24.6837 84.9926 24.432 84.7113 24.0703C84.4378 23.7008 84.3049 23.2761 84.3049 22.8043C84.3049 22.0966 84.5862 21.5305 85.149 21.1295C85.7117 20.7206 86.5088 20.5161 87.5404 20.5161H89.971V27.5931ZM88.111 23.7715V21.8529H87.5404C86.6808 21.8529 86.2431 22.1753 86.2431 22.8358C86.2431 23.457 86.6808 23.7715 87.5404 23.7715H88.111Z" fill="#414449"/>
<path d="M100.066 27.593H98.237L97.7134 24.0466L95.7361 27.7974H95.103L93.3446 24.0309L92.7584 27.593H91.0469L92.524 20.3037H93.2195L95.5563 24.9902L98.0025 20.3037H98.6825L100.066 27.593Z" fill="#414449"/>
</svg>
