<svg width="282" height="65" viewBox="0 0 282 65" fill="none" xmlns="http://www.w3.org/2000/svg">
<path d="M40.5115 28.9896C40.9257 28.5493 41.4632 28.2445 42.0536 28.115L60.2706 24.1193C62.1491 23.7073 63.9247 25.1444 63.9133 27.0675L63.8498 37.7152C63.8384 39.638 62.0465 41.0537 60.1732 40.62L41.7983 36.366C41.1925 36.2258 40.6453 35.9008 40.2323 35.436L39.244 34.3238C38.2124 33.1628 38.2374 31.4064 39.3017 30.2753L40.5115 28.9896Z" fill="#7042D1"/>
<path d="M40.0156 36.2762C40.6163 36.3205 41.1896 36.5446 41.6612 36.9192L56.1874 48.4603C57.7121 49.6717 57.6965 51.992 56.1558 53.1828L47.612 59.7866C46.1011 60.9544 43.8982 60.4321 43.0724 58.7104L35.0425 41.9696C34.7686 41.3986 34.6824 40.7555 34.7963 40.1326L35.0769 38.5982C35.3525 37.0906 36.7202 36.0332 38.2486 36.1459L40.0156 36.2762Z" fill="#69C0FF"/>
<path d="M33.8787 40.2619C34.2301 40.7698 34.4162 41.3739 34.4115 41.9915L34.2697 60.6046C34.2551 62.5273 32.4608 63.9401 30.5882 63.5033L19.9907 61.0309C18.1014 60.5902 17.121 58.4992 17.9904 56.7649L26.3004 40.1888C26.5794 39.6324 27.0244 39.1765 27.574 38.8843L29.1298 38.0572C30.4736 37.3428 32.1394 37.7477 33.0052 38.9993L33.8787 40.2619Z" fill="#5ECDDA"/>
<path d="M27.0367 38.1341C26.8529 38.7226 26.4922 39.2401 26.0038 39.6163L10.9246 51.2309C9.41175 52.3962 7.20967 51.8702 6.38679 50.147L1.77961 40.4991C0.943844 38.7489 1.96348 36.6775 3.86022 36.2725L22.3937 32.3143C22.9932 32.1863 23.6174 32.245 24.1825 32.4825L25.7515 33.1418C27.1773 33.741 27.9139 35.3258 27.4528 36.802L27.0367 38.1341Z" fill="#A1DB6F"/>
<path d="M24.2486 31.6679C23.6851 31.8857 23.069 31.9284 22.4809 31.7903L3.99758 27.45C2.10885 27.0065 1.13146 24.9139 2.0036 23.1809L6.81164 13.6267C7.66994 11.9212 9.88204 11.4408 11.3705 12.6367L26.1856 24.5403C26.6726 24.9315 27.0253 25.465 27.1945 26.0664L27.5878 27.4643C28.0068 28.9535 27.2248 30.5171 25.7819 31.075L24.2486 31.6679Z" fill="#FAE3A5"/>
<path d="M26.8696 24.9027C26.8749 24.921 26.8491 24.9309 26.8408 24.9138L17.6605 6.0428C17.1484 4.99021 17.7549 3.73569 18.8978 3.48311L30.9958 0.809616C32.8736 0.394637 34.6515 1.82887 34.6431 3.752L34.561 22.609C34.5583 23.2442 34.354 23.8621 33.9776 24.3737L32.4834 26.4048C31.9922 27.0726 31.0788 27.2669 30.3583 26.8569L26.8921 24.885C26.88 24.8781 26.8657 24.8894 26.8696 24.9027V24.9027Z" fill="#F2A73B"/>
<path d="M34.8398 23.2029L43.2214 6.16706C44.0654 4.45162 46.2772 3.95271 47.7759 5.13972L56.1986 11.8107C57.7359 13.0284 57.7108 15.3694 56.1476 16.5537L41.359 27.7581C40.8746 28.1251 40.2903 28.3363 39.6832 28.3639L37.0822 28.4818C36.2802 28.5182 35.5798 27.944 35.4583 27.1505L34.8539 23.2061C34.8529 23.1991 34.8438 23.197 34.8398 23.2029V23.2029Z" fill="#EE7D5F"/>
<path d="M206.909 24.6215C209.683 24.6215 211.939 25.4718 213.68 27.1722C215.424 28.8755 216.294 30.9745 216.294 33.4718C216.294 35.9328 215.429 38.0064 213.694 39.7013C211.956 41.4018 209.697 42.2436 206.909 42.2436C204.123 42.2436 201.861 41.3934 200.126 39.6957C198.391 37.9952 197.523 35.9187 197.523 33.4718C197.523 31.0053 198.377 28.9176 200.089 27.2003C201.808 25.483 204.075 24.6215 206.909 24.6215ZM206.909 38.6715C208.376 38.6715 209.548 38.1776 210.424 37.1871C211.294 36.1937 211.737 34.9563 211.737 33.4718C211.737 31.9369 211.294 30.6714 210.424 29.6781C209.548 28.6875 208.376 28.1937 206.909 28.1937C205.441 28.1937 204.272 28.6875 203.396 29.6781C202.523 30.6714 202.084 31.9369 202.084 33.4718C202.084 34.945 202.523 36.1825 203.408 37.1815C204.284 38.172 205.452 38.6715 206.909 38.6715ZM223.657 26.1536C225.15 25.1322 226.82 24.6215 228.674 24.6215C231.212 24.6215 233.299 25.4774 234.927 27.1891C236.563 28.9008 237.375 30.9941 237.375 33.4718C237.375 35.9328 236.51 38.0064 234.772 39.7013C233.037 41.4018 230.775 42.2436 227.989 42.2436C225.136 42.2436 222.857 41.3597 221.164 39.5806C219.469 37.8044 218.621 35.206 218.621 31.7966C218.621 27.6409 219.474 24.3297 221.176 21.8688C222.877 19.4079 225.401 17.8758 228.741 17.2753C231.121 16.846 232.888 16.2651 234.04 15.5327L235.696 18.7008C234.349 19.5734 232.471 20.2525 230.071 20.7408C226.415 21.4591 224.271 23.2662 223.657 26.1536ZM227.989 38.6715C229.457 38.6715 230.631 38.1776 231.516 37.1871C232.392 36.1937 232.834 34.9563 232.834 33.4718C232.834 31.9369 232.392 30.6714 231.516 29.6781C230.631 28.6875 229.457 28.1937 227.989 28.1937C226.533 28.1937 225.364 28.6875 224.485 29.6781C223.604 30.6714 223.167 31.9369 223.167 33.4718C223.167 34.945 223.604 36.1825 224.474 37.1815C225.353 38.172 226.522 38.6715 227.989 38.6715ZM244.456 27.0095C245.935 25.4185 247.999 24.6215 250.644 24.6215C253.286 24.6215 255.416 25.4662 257.033 27.147C258.644 28.8306 259.455 30.9268 259.455 33.4354C259.455 35.8598 258.602 37.9363 256.909 39.6592C255.213 41.3821 253.089 42.2436 250.537 42.2436C248.275 42.2436 246.456 41.6571 245.064 40.4842V47.9034L240.662 49.1914V25.1266L244.456 27.0095ZM250.016 38.6715C251.498 38.6715 252.678 38.1916 253.574 37.2207C254.461 36.2527 254.909 35.0096 254.909 33.4999C254.909 31.9734 254.467 30.7023 253.579 29.6977C252.695 28.6931 251.509 28.1937 250.016 28.1937C248.526 28.1937 247.332 28.6819 246.436 29.6556C245.549 30.6293 245.101 31.9033 245.101 33.4718C245.101 35.0348 245.538 36.2947 246.414 37.246C247.284 38.1973 248.489 38.6715 250.016 38.6715ZM281.197 40.7452L278.082 42.2436C277.201 41.4186 276.758 40.5964 276.758 39.7715C275.111 41.4186 272.987 42.2436 270.376 42.2436C267.815 42.2436 265.708 41.4186 264.069 39.7715C262.421 38.1243 261.604 36.0085 261.604 33.4354C261.604 31.0053 262.463 28.9288 264.187 27.2059C265.911 25.483 268.024 24.6215 270.516 24.6215C273.125 24.6215 275.184 25.4044 276.688 26.9758L280.29 25.1266V36.6736C280.29 38.0064 280.361 38.9324 280.516 39.4516C280.665 39.9679 280.893 40.4028 281.197 40.7452ZM271.06 38.6715C272.539 38.6715 273.727 38.186 274.623 37.2039C275.525 36.2246 275.97 34.9759 275.97 33.4718C275.97 31.8668 275.541 30.59 274.677 29.6304C273.818 28.6679 272.629 28.1937 271.125 28.1937C269.604 28.1937 268.393 28.6735 267.505 29.6444C266.61 30.6181 266.162 31.8556 266.162 33.3652C266.162 34.8861 266.604 36.1516 267.486 37.1618C268.364 38.172 269.556 38.6715 271.06 38.6715Z" fill="#414449"/>
<path d="M177.779 41.7737L176.326 46.8078H173.071V37.632C174.123 37.4889 174.912 37.1858 175.439 36.72C175.972 36.257 176.32 35.693 176.479 35.028C176.644 34.3545 176.722 33.5295 176.722 32.5418V18.1242H192.075V32.5418C192.075 33.5295 192.15 34.3545 192.318 35.028C192.477 35.693 192.825 36.257 193.355 36.72C193.882 37.1858 194.674 37.4889 195.726 37.632V46.8078H192.471L191.018 41.7737H177.779ZM181.081 22.2716V31.5316C181.081 33.1844 180.992 34.4078 180.808 35.2047C180.621 36.0073 180.219 36.8154 179.592 37.632H189.202C188.578 36.8154 188.176 36.0073 187.986 35.2047C187.802 34.4078 187.716 33.1844 187.716 31.5316V22.2716H181.081Z" fill="#414449"/>
<path d="M100.137 41.734H94.1601L89.811 36.0406C88.1351 33.8602 87.2084 32.6649 87.0478 32.4628C86.8873 32.2608 86.6535 32.0644 86.3549 31.8876C86.0648 31.708 85.7408 31.5845 85.4085 31.5228C85.0676 31.4583 84.6508 31.4302 84.1494 31.4302V41.734H79.375V18.0846H84.1494V27.4765C86.0338 27.3698 87.7773 25.7592 89.3744 22.65C90.3406 20.7728 91.3743 19.4652 92.4644 18.7328C93.5629 18.0004 94.9234 17.6328 96.5599 17.6328C97.3768 17.6328 98.081 17.6805 98.6697 17.7759V21.9373C98.3232 21.9121 97.7627 21.9008 96.9937 21.9008C96.2473 21.9008 95.6051 22.086 95.0614 22.448C94.5234 22.8156 94.0052 23.4947 93.515 24.4796C92.3179 26.9181 90.718 28.4614 88.7238 29.1096C89.704 29.3313 91.0279 30.4705 92.6926 32.5414L100.137 41.734ZM106.802 26.9714C108.283 25.3775 110.348 24.5806 112.99 24.5806C115.632 24.5806 117.764 25.4252 119.381 27.1089C120.992 28.7897 121.804 30.8886 121.804 33.3972C121.804 35.8217 120.95 37.8954 119.254 39.6183C117.562 41.344 115.435 42.2055 112.883 42.2055C110.621 42.2055 108.802 41.6162 107.413 40.4461V47.8625L103.007 49.1533V25.0857L106.802 26.9714ZM112.365 38.6334C113.843 38.6334 115.024 38.1507 115.919 37.1826C116.81 36.2145 117.257 34.9714 117.257 33.4618C117.257 31.9353 116.815 30.6613 115.925 29.6568C115.043 28.6522 113.855 28.1527 112.365 28.1527C110.872 28.1527 109.678 28.641 108.785 29.6147C107.895 30.5912 107.447 31.8623 107.447 33.4309C107.447 34.9939 107.883 36.2566 108.759 37.2051C109.63 38.1563 110.835 38.6334 112.365 38.6334ZM143.543 40.707L140.431 42.2055C139.546 41.3777 139.104 40.5583 139.104 39.7333C137.459 41.3777 135.335 42.2055 132.721 42.2055C130.161 42.2055 128.054 41.3777 126.415 39.7333C124.767 38.0862 123.95 35.9704 123.95 33.3972C123.95 30.9644 124.809 28.8907 126.533 27.1678C128.257 25.4449 130.369 24.5806 132.865 24.5806C135.47 24.5806 137.529 25.3663 139.034 26.9349L142.636 25.0857V36.6354C142.636 37.9655 142.709 38.8943 142.864 39.4106C143.014 39.9298 143.239 40.3619 143.543 40.707ZM133.409 38.6334C134.887 38.6334 136.073 38.1451 136.969 37.1658C137.87 36.1837 138.318 34.935 138.318 33.4309C138.318 31.8259 137.887 30.5491 137.022 29.5922C136.163 28.6298 134.978 28.1527 133.473 28.1527C131.952 28.1527 130.741 28.6354 129.851 29.6035C128.955 30.58 128.507 31.8146 128.507 33.3243C128.507 34.8452 128.95 36.1135 129.834 37.1237C130.71 38.1339 131.904 38.6334 133.409 38.6334ZM163.072 41.734H158.68V32.7491L148.509 42.2055H147.075V25.0857H151.481V34.0735L161.652 24.5806H163.072V41.734ZM161.001 17.6328C160.441 20.9804 158.472 22.65 155.095 22.65C151.695 22.65 149.715 20.9804 149.151 17.6328H152.123C152.346 18.2978 152.737 18.8394 153.306 19.2744C153.867 19.7009 154.469 19.9169 155.095 19.9169C156.61 19.9169 157.59 19.1537 158.03 17.6328H161.001Z" fill="#414449"/>
</svg>
