<svg width="107" height="67" viewBox="0 0 107 67" fill="none" xmlns="http://www.w3.org/2000/svg">
<path d="M21.1372 24.0788H15.1601L10.811 18.3853C9.13507 16.205 8.20836 15.0096 8.04781 14.8076C7.88725 14.6055 7.65346 14.4091 7.35489 14.2323C7.06476 14.0527 6.74084 13.9293 6.40846 13.8675C6.06764 13.803 5.65076 13.7749 5.14938 13.7749V24.0788H0.375V0.429314H5.14938V9.82119C7.03378 9.71456 8.77734 8.10389 10.3744 4.99477C11.3406 3.11752 12.3743 1.8099 13.4644 1.07751C14.5629 0.345132 15.9234 -0.0224609 17.5599 -0.0224609C18.3768 -0.0224609 19.081 0.0252424 19.6697 0.120648V4.28203C19.3232 4.25678 18.7627 4.24555 17.9937 4.24555C17.2473 4.24555 16.6051 4.43075 16.0614 4.79274C15.5234 5.16033 15.0052 5.8394 14.515 6.82432C13.3179 9.26279 11.718 10.8061 9.72377 11.4543C10.704 11.676 12.0279 12.8153 13.6926 14.8861L21.1372 24.0788ZM27.8016 9.3161C29.2832 7.72226 31.3479 6.92534 33.99 6.92534C36.6321 6.92534 38.7644 7.76996 40.3812 9.4536C41.9924 11.1344 42.8036 13.2334 42.8036 15.742C42.8036 18.1664 41.9501 20.2401 40.2544 21.963C38.5616 23.6887 36.4349 24.5502 33.883 24.5502C31.6211 24.5502 29.8015 23.9609 28.4129 22.7908V30.2072L24.0075 31.498V7.43043L27.8016 9.3161ZM33.3647 20.9781C34.8435 20.9781 36.0237 20.4954 36.9194 19.5273C37.8095 18.5593 38.2574 17.3162 38.2574 15.8065C38.2574 14.28 37.8151 13.0061 36.9251 12.0015C36.0434 10.9969 34.8548 10.4975 33.3647 10.4975C31.8718 10.4975 30.6775 10.9857 29.7846 11.9594C28.8945 12.9359 28.4467 14.2071 28.4467 15.7756C28.4467 17.3386 28.8833 18.6014 29.7593 19.5498C30.6296 20.5011 31.8352 20.9781 33.3647 20.9781ZM64.5432 23.0518L61.4307 24.5502C60.5463 23.7224 60.104 22.903 60.104 22.0781C58.4591 23.7224 56.3352 24.5502 53.7213 24.5502C51.1609 24.5502 49.0539 23.7224 47.4146 22.0781C45.7668 20.4309 44.95 18.3151 44.95 15.742C44.95 13.3091 45.8091 11.2354 47.5329 9.51253C49.2568 7.78961 51.3693 6.92534 53.8649 6.92534C56.4704 6.92534 58.5295 7.71104 60.0336 9.27962L63.6362 7.43043V18.9802C63.6362 20.3102 63.7095 21.239 63.8644 21.7554C64.0137 22.2745 64.239 22.7066 64.5432 23.0518ZM54.4086 20.9781C55.8874 20.9781 57.0732 20.4898 57.9689 19.5105C58.8703 18.5284 59.3182 17.2797 59.3182 15.7756C59.3182 14.1706 58.8872 12.8938 58.0225 11.937C57.1633 10.9745 55.9775 10.4975 54.4734 10.4975C52.9523 10.4975 51.7411 10.9801 50.851 11.9482C49.9553 12.9247 49.5074 14.1594 49.5074 15.669C49.5074 17.1899 49.9497 18.4582 50.8341 19.4684C51.7101 20.4786 52.9044 20.9781 54.4086 20.9781ZM84.0717 24.0788H79.6804V15.0938L69.5091 24.5502H68.0754V7.43043H72.4808V16.4182L82.6521 6.92534H84.0717V24.0788ZM82.0014 -0.0224609C81.4409 3.32517 79.472 4.99477 76.0947 4.99477C72.6949 4.99477 70.7147 3.32517 70.1514 -0.0224609H73.123C73.3455 0.642575 73.7371 1.18414 74.306 1.61908C74.8666 2.0456 75.4694 2.26167 76.0947 2.26167C77.6101 2.26167 78.5903 1.49842 79.0297 -0.0224609H82.0014ZM32.4859 42.4304C35.2604 42.4304 37.5166 43.2806 39.2573 44.9811C41.0009 46.6844 41.8713 48.7833 41.8713 51.2807C41.8713 53.7416 41.0065 55.8153 39.2714 57.5102C37.5335 59.2106 35.2744 60.0524 32.4859 60.0524C29.7001 60.0524 27.4383 59.2022 25.7032 57.5045C23.968 55.8041 23.1005 53.7276 23.1005 51.2807C23.1005 48.8142 23.954 46.7265 25.6665 45.0092C27.3847 43.2919 29.6522 42.4304 32.4859 42.4304ZM32.4859 56.4803C33.9534 56.4803 35.1252 55.9865 36.0012 54.9959C36.8715 54.0026 37.3138 52.7651 37.3138 51.2807C37.3138 49.7458 36.8715 48.4803 36.0012 47.4869C35.1252 46.4964 33.9534 46.0025 32.4859 46.0025C31.0183 46.0025 29.8494 46.4964 28.9734 47.4869C28.1002 48.4803 27.6608 49.7458 27.6608 51.2807C27.6608 52.7539 28.1002 53.9914 28.9847 54.9903C29.8607 55.9809 31.0296 56.4803 32.4859 56.4803ZM49.2342 43.9625C50.7271 42.9411 52.3974 42.4304 54.2508 42.4304C56.7887 42.4304 58.8759 43.2862 60.504 44.9979C62.1405 46.7096 62.9518 48.803 62.9518 51.2807C62.9518 53.7416 62.087 55.8153 60.3491 57.5102C58.614 59.2106 56.3521 60.0524 53.5664 60.0524C50.713 60.0524 48.4343 59.1685 46.7414 57.3895C45.0457 55.6133 44.1979 53.0149 44.1979 49.6055C44.1979 45.4497 45.0514 42.1386 46.7527 39.6777C48.454 37.2167 50.9778 35.6846 54.3184 35.0841C56.6986 34.6548 58.4647 34.074 59.6167 33.3416L61.273 36.5096C59.9266 37.3823 58.0478 38.0614 55.6479 38.5496C51.9918 39.268 49.8483 41.0751 49.2342 43.9625ZM53.5664 56.4803C55.0339 56.4803 56.2085 55.9865 57.0929 54.9959C57.9689 54.0026 58.4112 52.7651 58.4112 51.2807C58.4112 49.7458 57.9689 48.4803 57.0929 47.4869C56.2085 46.4964 55.0339 46.0025 53.5664 46.0025C52.1101 46.0025 50.9412 46.4964 50.0623 47.4869C49.1807 48.4803 48.7441 49.7458 48.7441 51.2807C48.7441 52.7539 49.1807 53.9914 50.0511 54.9903C50.9299 55.9809 52.0989 56.4803 53.5664 56.4803ZM70.0331 44.8184C71.5118 43.2273 73.5765 42.4304 76.2214 42.4304C78.8635 42.4304 80.993 43.275 82.6098 44.9559C84.221 46.6395 85.0322 48.7356 85.0322 51.2442C85.0322 53.6687 84.1787 55.7451 82.4859 57.4681C80.7902 59.191 78.6664 60.0524 76.1144 60.0524C73.8526 60.0524 72.0329 59.466 70.6415 58.293V65.7123L66.2389 67.0002V42.9355L70.0331 44.8184ZM75.5933 56.4803C77.0749 56.4803 78.2551 56.0005 79.1508 55.0296C80.0381 54.0615 80.486 52.8184 80.486 51.3088C80.486 49.7823 80.0438 48.5111 79.1565 47.5066C78.272 46.502 77.0862 46.0025 75.5933 46.0025C74.1032 46.0025 72.9089 46.4908 72.0132 47.4645C71.1259 48.4382 70.6781 49.7121 70.6781 51.2807C70.6781 52.8437 71.1147 54.1036 71.9907 55.0549C72.8611 56.0061 74.0666 56.4803 75.5933 56.4803ZM106.775 58.554L103.659 60.0524C102.778 59.2275 102.335 58.4053 102.335 57.5803C100.688 59.2275 98.5638 60.0524 95.9527 60.0524C93.3923 60.0524 91.2854 59.2275 89.646 57.5803C87.9982 55.9332 87.1814 53.8174 87.1814 51.2442C87.1814 48.8142 88.0405 46.7377 89.7643 45.0148C91.4882 43.2919 93.6007 42.4304 96.0936 42.4304C98.7019 42.4304 100.761 43.2133 102.265 44.7847L105.868 42.9355V54.4824C105.868 55.8153 105.938 56.7413 106.093 57.2604C106.242 57.7767 106.47 58.2117 106.775 58.554ZM96.6372 56.4803C98.116 56.4803 99.3046 55.9949 100.2 55.0128C101.102 54.0334 101.547 52.7848 101.547 51.2807C101.547 49.6756 101.119 48.3989 100.254 47.4392C99.3948 46.4767 98.2061 46.0025 96.702 46.0025C95.1809 46.0025 93.9697 46.4823 93.0825 47.4532C92.1867 48.4269 91.7389 49.6644 91.7389 51.1741C91.7389 52.695 92.1811 53.9605 93.0627 54.9707C93.9416 55.9809 95.133 56.4803 96.6372 56.4803Z" fill="#414449"/>
</svg>
