<svg width="64" height="65" viewBox="0 0 64 65" fill="none" xmlns="http://www.w3.org/2000/svg">
<path d="M40.5115 29.4568C40.9257 29.0166 41.4632 28.7118 42.0536 28.5823L60.2706 24.5866C62.1491 24.1746 63.9247 25.6117 63.9133 27.5348L63.8498 38.1825C63.8384 40.1052 62.0465 41.521 60.1732 41.0873L41.7983 36.8333C41.1925 36.6931 40.6453 36.3681 40.2323 35.9033L39.244 34.7911C38.2124 33.6301 38.2374 31.8737 39.3017 30.7426L40.5115 29.4568Z" fill="#7042D1"/>
<path d="M40.0156 36.7435C40.6163 36.7878 41.1896 37.0119 41.6612 37.3865L56.1874 48.9276C57.712 50.1389 57.6965 52.4593 56.1558 53.6501L47.612 60.2539C46.1011 61.4216 43.8982 60.8994 43.0724 59.1777L35.0425 42.4369C34.7686 41.8659 34.6824 41.2228 34.7963 40.5999L35.0769 39.0655C35.3525 37.5579 36.7202 36.5005 38.2486 36.6132L40.0156 36.7435Z" fill="#69C0FF"/>
<path d="M33.8787 40.7292C34.2301 41.2371 34.4162 41.8412 34.4115 42.4588L34.2697 61.0718C34.2551 62.9946 32.4608 64.4074 30.5882 63.9705L19.9907 61.4982C18.1014 61.0574 17.121 58.9665 17.9904 57.2322L26.3004 40.656C26.5794 40.0997 27.0244 39.6438 27.574 39.3516L29.1298 38.5245C30.4736 37.8101 32.1394 38.215 33.0052 39.4666L33.8787 40.7292Z" fill="#5ECDDA"/>
<path d="M27.0367 38.6014C26.8529 39.1899 26.4922 39.7074 26.0038 40.0836L10.9246 51.6982C9.41175 52.8635 7.20967 52.3375 6.38679 50.6143L1.77961 40.9663C0.943844 39.2161 1.96348 37.1448 3.86022 36.7397L22.3937 32.7816C22.9932 32.6536 23.6174 32.7123 24.1825 32.9497L25.7515 33.6091C27.1773 34.2082 27.9139 35.7931 27.4528 37.2693L27.0367 38.6014Z" fill="#A1DB6F"/>
<path d="M24.2486 32.1352C23.6851 32.353 23.069 32.3957 22.4809 32.2576L3.99758 27.9173C2.10885 27.4738 1.13146 25.3812 2.0036 23.6482L6.81164 14.094C7.66994 12.3885 9.88204 11.9081 11.3705 13.104L26.1856 25.0076C26.6726 25.3988 27.0253 25.9323 27.1945 26.5336L27.5878 27.9316C28.0068 29.4208 27.2248 30.9844 25.7819 31.5423L24.2486 32.1352Z" fill="#FAE3A5"/>
<path d="M26.8696 25.37C26.8749 25.3882 26.8491 25.3982 26.8408 25.3811L17.6605 6.51009C17.1484 5.45749 17.7549 4.20298 18.8978 3.9504L30.9958 1.2769C32.8736 0.861922 34.6515 2.29615 34.6431 4.21928L34.561 23.0763C34.5583 23.7115 34.354 24.3294 33.9776 24.841L32.4834 26.8721C31.9922 27.5398 31.0788 27.7342 30.3583 27.3242L26.8921 25.3523C26.88 25.3454 26.8657 25.3567 26.8696 25.37Z" fill="#F2A73B"/>
<path d="M34.8398 23.6702L43.2214 6.63435C44.0654 4.9189 46.2772 4.42 47.7759 5.60701L56.1986 12.278C57.7359 13.4956 57.7108 15.8367 56.1476 17.021L41.359 28.2254C40.8746 28.5924 40.2903 28.8036 39.6832 28.8311L37.0822 28.9491C36.2802 28.9855 35.5798 28.4113 35.4583 27.6177L34.8539 23.6733C34.8529 23.6664 34.8438 23.6643 34.8398 23.6702Z" fill="#EE7D5F"/>
</svg>
