<svg width="111" height="40" viewBox="0 0 111 40" fill="none" xmlns="http://www.w3.org/2000/svg">
<path d="M23.9115 17.7874C24.2775 17.3983 24.7526 17.1289 25.2744 17.0144L34.4087 15.0109C36.2872 14.5989 38.0629 16.036 38.0514 17.9591L38.0315 21.2887C38.0201 23.2115 36.2282 24.6272 34.355 24.1935L25.0854 22.0475C24.5785 21.9302 24.1205 21.6582 23.7749 21.2692V21.2692C22.9116 20.2976 22.9325 18.8277 23.8232 17.8811L23.9115 17.7874Z" fill="#7042D1"/>
<path d="M23.5283 21.9225C24.0623 21.9619 24.572 22.1611 24.9912 22.4941L32.2407 28.2538C33.7653 29.4652 33.7498 31.7855 32.2091 32.9764L29.5147 35.059C28.0038 36.2267 25.8009 35.7045 24.9751 33.9828L20.9365 25.5632C20.7036 25.0775 20.6303 24.5306 20.7272 24.0007V24.0007C20.9616 22.7184 22.1249 21.819 23.4249 21.9149L23.5283 21.9225Z" fill="#69C0FF"/>
<path d="M19.9981 24.1233C20.2968 24.555 20.455 25.0685 20.451 25.5935L20.3797 34.9494C20.3651 36.8721 18.5708 38.2849 16.6982 37.8481L13.3403 37.0647C11.451 36.6239 10.4706 34.5329 11.34 32.7987L15.4877 24.5253C15.735 24.0319 16.1297 23.6276 16.6171 23.3685L16.7038 23.3224C17.846 22.7151 19.2621 23.0594 19.9981 24.1233V24.1233Z" fill="#5ECDDA"/>
<path d="M16.1159 22.8462C15.9646 23.3308 15.6676 23.757 15.2654 24.0668L7.62103 29.9547C6.10818 31.12 3.9061 30.594 3.08322 28.8708L1.63899 25.8464C0.803217 24.0962 1.82286 22.0249 3.71959 21.6198L13.026 19.6323C13.5497 19.5204 14.0951 19.5717 14.5888 19.7791L14.715 19.8322C15.8891 20.3255 16.4957 21.6306 16.1159 22.8462V22.8462Z" fill="#A1DB6F"/>
<path d="M14.6209 19.1023C14.1334 19.2908 13.6004 19.3277 13.0915 19.2083L3.79642 17.0256C1.90768 16.582 0.930291 14.4894 1.80243 12.7564L3.30996 9.76077C4.16826 8.05521 6.38036 7.57481 7.86879 8.77072L15.369 14.7969C15.774 15.1223 16.0673 15.5661 16.2081 16.0662V16.0662C16.5566 17.3049 15.9061 18.6054 14.7059 19.0695L14.6209 19.1023Z" fill="#FAE3A5"/>
<path d="M15.9529 15.1545C15.956 15.1654 15.9406 15.1713 15.9357 15.1611L10.4568 3.89866C10.1512 3.27045 10.5131 2.52174 11.1952 2.371L16.9383 1.10185C18.8161 0.686874 20.594 2.1211 20.5856 4.04423L20.5441 13.5764C20.5419 14.0914 20.3763 14.5924 20.0711 15.0073L19.3033 16.0509C19.0101 16.4495 18.465 16.5655 18.035 16.3208L15.9663 15.1439C15.9591 15.1398 15.9506 15.1465 15.9529 15.1545V15.1545Z" fill="#F2A73B"/>
<path d="M20.709 14.14L25.0497 5.31745C25.8937 3.60201 28.1054 3.1031 29.6041 4.29011L32.2322 6.37162C33.7695 7.58924 33.7444 9.93026 32.1812 11.1146L24.7611 16.7364C24.3669 17.035 23.8913 17.2069 23.3973 17.2293L22.0473 17.2905C21.5686 17.3123 21.1506 16.9696 21.0781 16.496L20.7174 14.1419C20.7168 14.1377 20.7113 14.1365 20.709 14.14V14.14Z" fill="#EE7D5F"/>
<path d="M59.6794 14.3839H56.1121L53.5166 10.986C52.5163 9.68474 51.9632 8.97132 51.8674 8.85074C51.7716 8.73017 51.6321 8.61294 51.4539 8.50743C51.2807 8.40025 51.0874 8.32656 50.889 8.28972C50.6856 8.2512 50.4368 8.23446 50.1376 8.23446V14.3839H47.2882V0.269625H50.1376V5.87482C51.2622 5.81118 52.3028 4.84991 53.256 2.99435C53.8326 1.87398 54.4495 1.09357 55.1001 0.656479C55.7557 0.219384 56.5677 0 57.5444 0C58.0319 0 58.4522 0.02847 58.8035 0.0854093V2.56898C58.5967 2.5539 58.2622 2.54721 57.8033 2.54721C57.3578 2.54721 56.9745 2.65773 56.6501 2.87377C56.329 3.09315 56.0197 3.49843 55.7272 4.08625C55.0127 5.54155 54.0579 6.46263 52.8677 6.84949C53.4527 6.98179 54.2428 7.66171 55.2363 8.89763L59.6794 14.3839ZM63.6568 5.57337C64.541 4.62215 65.7732 4.14654 67.3501 4.14654C68.9269 4.14654 70.1995 4.65062 71.1644 5.65543C72.126 6.65857 72.6101 7.91124 72.6101 9.40841C72.6101 10.8553 72.1008 12.0929 71.0888 13.1212C70.0784 14.1511 68.8092 14.6653 67.2862 14.6653C65.9363 14.6653 64.8503 14.3136 64.0215 13.6152V18.0414L61.3924 18.8118V4.44798L63.6568 5.57337ZM66.9769 12.5334C67.8594 12.5334 68.5638 12.2453 69.0984 11.6676C69.6296 11.0898 69.8969 10.3479 69.8969 9.44693C69.8969 8.5359 69.633 7.77559 69.1017 7.17605C68.5756 6.57651 67.8662 6.27842 66.9769 6.27842C66.0859 6.27842 65.3731 6.56981 64.8402 7.15093C64.309 7.73372 64.0417 8.49236 64.0417 9.42851C64.0417 10.3613 64.3023 11.1149 64.8251 11.681C65.3446 12.2487 66.064 12.5334 66.9769 12.5334ZM85.5846 13.771L83.727 14.6653C83.1992 14.1712 82.9352 13.6822 82.9352 13.1899C81.9535 14.1712 80.686 14.6653 79.1259 14.6653C77.5979 14.6653 76.3404 14.1712 75.362 13.1899C74.3786 12.2068 73.8911 10.9441 73.8911 9.40841C73.8911 7.95646 74.4038 6.71886 75.4326 5.6906C76.4614 4.66234 77.7223 4.14654 79.2117 4.14654C80.7667 4.14654 81.9955 4.61545 82.8932 5.5516L85.0433 4.44798V11.341C85.0433 12.1348 85.087 12.6891 85.1795 12.9973C85.2686 13.3071 85.403 13.565 85.5846 13.771ZM79.5361 12.5334C80.4187 12.5334 81.1264 12.242 81.661 11.6575C82.1989 11.0714 82.4662 10.3261 82.4662 9.42851C82.4662 8.47059 82.209 7.7086 81.6929 7.13753C81.1802 6.56311 80.4725 6.27842 79.5748 6.27842C78.667 6.27842 77.9442 6.56646 77.4129 7.14423C76.8784 7.72703 76.6111 8.46389 76.6111 9.36487C76.6111 10.2726 76.875 11.0295 77.4028 11.6324C77.9257 12.2353 78.6384 12.5334 79.5361 12.5334ZM97.2394 14.3839H94.6187V9.02156L88.5483 14.6653H87.6927V4.44798H90.3219V9.81202L96.3922 4.14654H97.2394V14.3839ZM96.0039 0C95.6693 1.99791 94.4943 2.99435 92.4787 2.99435C90.4496 2.99435 89.2678 1.99791 88.9316 0H90.7051C90.8379 0.396902 91.0716 0.720117 91.4112 0.979694C91.7457 1.23425 92.1055 1.3632 92.4787 1.3632C93.3831 1.3632 93.9681 0.907682 94.2303 0H96.0039ZM66.4524 25.3364C68.1082 25.3364 69.4548 25.8438 70.4937 26.8587C71.5342 27.8752 72.0537 29.1279 72.0537 30.6184C72.0537 32.0871 71.5376 33.3247 70.5021 34.3362C69.4648 35.3511 68.1166 35.8535 66.4524 35.8535C64.7898 35.8535 63.4399 35.346 62.4044 34.3328C61.3688 33.318 60.8511 32.0787 60.8511 30.6184C60.8511 29.1463 61.3604 27.9004 62.3825 26.8754C63.408 25.8505 64.7612 25.3364 66.4524 25.3364ZM66.4524 33.7216C67.3282 33.7216 68.0275 33.4268 68.5503 32.8357C69.0698 32.2428 69.3337 31.5043 69.3337 30.6184C69.3337 29.7023 69.0698 28.947 68.5503 28.3542C68.0275 27.763 67.3282 27.4683 66.4524 27.4683C65.5765 27.4683 64.8789 27.763 64.3561 28.3542C63.8349 28.947 63.5727 29.7023 63.5727 30.6184C63.5727 31.4976 63.8349 32.2361 64.3628 32.8323C64.8856 33.4235 65.5833 33.7216 66.4524 33.7216ZM76.448 26.2508C77.339 25.6412 78.3358 25.3364 79.442 25.3364C80.9566 25.3364 82.2023 25.8472 83.174 26.8687C84.1507 27.8903 84.6348 29.1396 84.6348 30.6184C84.6348 32.0871 84.1187 33.3247 83.0815 34.3362C82.046 35.3511 80.6961 35.8535 79.0335 35.8535C77.3306 35.8535 75.9706 35.3259 74.9603 34.2642C73.9483 33.2041 73.4423 31.6533 73.4423 29.6186C73.4423 27.1384 73.9516 25.1622 74.967 23.6935C75.9823 22.2248 77.4886 21.3104 79.4823 20.9521C80.9028 20.6958 81.9569 20.3492 82.6444 19.9121L83.6329 21.8028C82.8293 22.3236 81.7081 22.7289 80.2758 23.0203C78.0938 23.449 76.8145 24.5275 76.448 26.2508ZM79.0335 33.7216C79.9093 33.7216 80.6103 33.4268 81.1382 32.8357C81.661 32.2428 81.9249 31.5043 81.9249 30.6184C81.9249 29.7023 81.661 28.947 81.1382 28.3542C80.6103 27.763 79.9093 27.4683 79.0335 27.4683C78.1644 27.4683 77.4667 27.763 76.9422 28.3542C76.4161 28.947 76.1555 29.7023 76.1555 30.6184C76.1555 31.4976 76.4161 32.2361 76.9355 32.8323C77.46 33.4235 78.1576 33.7216 79.0335 33.7216ZM88.861 26.7616C89.7436 25.812 90.9758 25.3364 92.5543 25.3364C94.1312 25.3364 95.402 25.8405 96.367 26.8436C97.3285 27.8484 97.8127 29.0994 97.8127 30.5966C97.8127 32.0435 97.3033 33.2828 96.293 34.3111C95.281 35.3393 94.0135 35.8535 92.4904 35.8535C91.1405 35.8535 90.0546 35.5035 89.2241 34.8034V39.2313L86.5966 40V25.6378L88.861 26.7616ZM92.1794 33.7216C93.0637 33.7216 93.768 33.4352 94.3026 32.8558C94.8322 32.278 95.0994 31.5361 95.0994 30.6351C95.0994 29.7241 94.8355 28.9655 94.306 28.3659C93.7781 27.7664 93.0704 27.4683 92.1794 27.4683C91.2902 27.4683 90.5774 27.7597 90.0428 28.3408C89.5133 28.9219 89.246 29.6822 89.246 30.6184C89.246 31.5512 89.5065 32.3031 90.0293 32.8708C90.5488 33.4386 91.2683 33.7216 92.1794 33.7216ZM110.789 34.9592L108.93 35.8535C108.403 35.3611 108.139 34.8704 108.139 34.3781C107.156 35.3611 105.889 35.8535 104.33 35.8535C102.802 35.8535 101.545 35.3611 100.566 34.3781C99.5829 33.395 99.0953 32.1323 99.0953 30.5966C99.0953 29.1463 99.6081 27.9071 100.637 26.8788C101.666 25.8505 102.927 25.3364 104.414 25.3364C105.971 25.3364 107.2 25.8036 108.097 26.7415L110.248 25.6378V32.5292C110.248 33.3247 110.29 33.8773 110.382 34.1871C110.471 34.4953 110.607 34.7549 110.789 34.9592ZM104.739 33.7216C105.621 33.7216 106.331 33.4319 106.865 32.8457C107.403 32.2613 107.669 31.516 107.669 30.6184C107.669 29.6605 107.413 28.8985 106.897 28.3257C106.384 27.7513 105.675 27.4683 104.777 27.4683C103.87 27.4683 103.147 27.7547 102.617 28.3341C102.083 28.9152 101.815 29.6538 101.815 30.5547C101.815 31.4624 102.079 32.2177 102.605 32.8206C103.13 33.4235 103.841 33.7216 104.739 33.7216Z" fill="#414449"/>
<path d="M49.0674 35.573L48.2002 38.5774H46.2578V33.1012C46.8853 33.0158 47.3564 32.8349 47.6709 32.5569C47.9889 32.2806 48.1969 31.944 48.2918 31.5471C48.39 31.1452 48.4366 30.6528 48.4366 30.0633V21.4587H57.5995V30.0633C57.5995 30.6528 57.6444 31.1452 57.7443 31.5471C57.8392 31.944 58.0472 32.2806 58.3635 32.5569C58.6781 32.8349 59.1508 33.0158 59.7783 33.1012V38.5774H57.8358L56.9687 35.573H49.0674ZM51.0382 23.9339V29.4604C51.0382 30.4468 50.9849 31.177 50.875 31.6526C50.7635 32.1315 50.5238 32.6139 50.1493 33.1012H55.8851C55.5123 32.6139 55.2726 32.1315 55.1594 31.6526C55.0495 31.177 54.9979 30.4468 54.9979 29.4604V23.9339H51.0382Z" fill="#414449"/>
</svg>
