<svg width="24" height="30" viewBox="0 0 24 30" fill="none" xmlns="http://www.w3.org/2000/svg">
<path d="M11.9743 24.5826H5.35615L3.90312 29.6167H0.648438V20.4408C1.69986 20.2977 2.48913 19.9947 3.01624 19.5289C3.54892 19.0659 3.89754 18.5018 4.05651 17.8368C4.22105 17.1634 4.29914 16.3384 4.29914 15.3506V0.933105H19.6522V15.3506C19.6522 16.3384 19.7275 17.1634 19.8948 17.8368C20.0538 18.5018 20.4024 19.0659 20.9323 19.5289C21.4594 19.9947 22.2515 20.2977 23.3029 20.4408V29.6167H20.0482L18.5952 24.5826H11.9743ZM11.9743 5.08046H8.65824V14.3405C8.65824 15.9932 8.56899 17.2167 8.38492 18.0136C8.19807 18.8161 7.79646 19.6243 7.16895 20.4408H16.7796C16.1549 19.6243 15.7533 18.8161 15.5636 18.0136C15.3796 17.2167 15.2931 15.9932 15.2931 14.3405V5.08046H11.9743Z" fill="#414449"/>
</svg>
