<svg width="789" height="789" viewBox="0 0 789 789" fill="none" xmlns="http://www.w3.org/2000/svg">
<path d="M782.961 388.991C786.003 603.532 614.55 779.918 400.009 782.96C185.467 786.003 9.08145 614.549 6.0393 400.008C2.99715 185.467 174.451 9.08073 388.992 6.03858C603.533 2.99643 779.919 174.45 782.961 388.991Z" fill="white"/>
<mask id="mask0_1643_8975" style="mask-type:alpha" maskUnits="userSpaceOnUse" x="5" y="5" width="779" height="779">
<path d="M782.961 388.991C786.003 603.532 614.55 779.918 400.009 782.96C185.467 786.003 9.08145 614.549 6.0393 400.008C2.99715 185.467 174.451 9.08073 388.992 6.03858C603.533 2.99643 779.919 174.45 782.961 388.991Z" fill="white"/>
</mask>
<g mask="url(#mask0_1643_8975)">
<path d="M753.173 611.319L807.974 346.826L671.838 449.063C665.703 453.67 664.034 462.165 667.97 468.752L753.173 611.319Z" fill="#EE7D5F"/>
<path d="M452.086 812.877L692.662 690.064L527.719 647.886C520.285 645.985 512.615 650 509.942 657.193L452.086 812.877Z" fill="#7042D1"/>
<path d="M104.874 701.57L350.29 814.399L281.256 658.773C278.145 651.759 270.242 648.224 262.939 650.58L104.874 701.57Z" fill="#4295D1"/>
<path d="M-23.3074 362.795L42.0151 624.888L120.346 473.728C123.877 466.915 121.696 458.537 115.293 454.309L-23.3074 362.795Z" fill="#5ECDDA"/>
<path d="M163.466 49.9272L-2.20361 263.266L165.042 231.421C172.58 229.986 177.819 223.093 177.185 215.447L163.466 49.9272Z" fill="#A1DB6F"/>
<path d="M400.466 115.511L521.116 1.36914L251.035 5.3419L380.406 116.013C386.237 121.001 394.892 120.784 400.466 115.511Z" fill="#FAE3A5"/>
<path d="M784.889 253.476L614.436 43.9395L607.721 214.057C607.418 221.724 612.951 228.384 620.543 229.492L784.889 253.476Z" fill="#F2A73B"/>
</g>
</svg>
