<svg width="129" height="47" viewBox="0 0 129 47" fill="none" xmlns="http://www.w3.org/2000/svg">
<path d="M27.0768 20.765C27.4238 20.3961 27.8728 20.141 28.3654 20.0329L40.5196 17.3662C42.0918 17.0212 43.5757 18.2355 43.566 19.859L43.5279 26.2582C43.5182 27.8812 42.0209 29.0772 40.4533 28.7142L28.1899 25.8742C27.6844 25.7571 27.2271 25.4851 26.881 25.0953L26.5447 24.7168C25.6709 23.7331 25.692 22.2372 26.5933 21.279L27.0768 20.765Z" fill="#7042D1"/>
<path d="M26.6923 25.7738C27.1923 25.8107 27.6699 25.9977 28.0638 26.3107L37.7106 33.9775C38.9988 35.0012 38.9857 36.9756 37.6841 37.9819L32.528 41.9684C31.2648 42.9451 29.4313 42.5057 28.7381 41.0601L23.3899 29.9067C23.157 29.421 23.0837 28.8731 23.1807 28.3425L23.2823 27.7869C23.5147 26.5152 24.6583 25.6238 25.9364 25.7181L26.6923 25.7738Z" fill="#69C0FF"/>
<path d="M22.4346 28.4624C22.7327 28.8934 22.8907 29.4073 22.8867 29.9329L22.7924 42.3097C22.7801 43.9326 21.2808 45.1261 19.7138 44.7605L13.3028 43.2644C11.7143 42.8937 10.891 41.1181 11.6268 39.6499L17.1405 28.6482C17.3758 28.1787 17.75 27.7947 18.2112 27.5494L18.8749 27.1965C19.996 26.6003 21.3816 26.9398 22.1068 27.9884L22.4346 28.4624Z" fill="#5ECDDA"/>
<path d="M17.757 26.9537C17.6014 27.4521 17.2969 27.8897 16.8854 28.2068L6.81062 35.9692C5.54566 36.9438 3.71284 36.5012 3.02214 35.0544L0.250516 29.2485C-0.456788 27.7669 0.399335 26.0083 1.99377 25.6677L14.3415 23.0298C14.8397 22.9234 15.3581 22.9722 15.8282 23.1698L16.457 23.4342C17.6577 23.9389 18.2781 25.2848 17.8872 26.5366L17.757 26.9537Z" fill="#A1DB6F"/>
<path d="M15.8718 22.507C15.4032 22.6883 14.8916 22.7238 14.4029 22.609L2.08695 19.716C0.498849 19.343 -0.321942 17.5661 0.416158 16.0989L3.30895 10.3488C4.02921 8.91714 5.87018 8.51298 7.1148 9.5133L17.0106 17.4668C17.4212 17.7967 17.719 18.2482 17.8624 18.7577L17.9909 19.2147C18.3461 20.4773 17.6876 21.8048 16.473 22.2745L15.8718 22.507Z" fill="#FAE3A5"/>
<path d="M17.5989 17.807C17.6026 17.8198 17.5846 17.8269 17.5788 17.8149L11.1505 4.59688C10.7885 3.85233 11.2139 2.96233 12.0168 2.78486L19.9958 1.02105C21.5674 0.673637 23.0532 1.88542 23.0461 3.50888L22.9915 16.052C22.9892 16.5924 22.8158 17.1179 22.4966 17.5518L21.5339 18.8609C21.1891 19.3297 20.5524 19.4663 20.0485 19.1795L17.6146 17.7944C17.6062 17.7896 17.5962 17.7976 17.5989 17.807Z" fill="#F2A73B"/>
<path d="M23.1852 16.6151L28.8383 5.12155C29.5466 3.6814 31.3874 3.26165 32.6406 4.25452L37.7133 8.27349C39.0121 9.3025 38.9909 11.2944 37.6706 12.295L27.8547 19.7342C27.4503 20.0406 26.9638 20.2168 26.4586 20.2397L24.7533 20.3171C24.1931 20.3425 23.7037 19.9381 23.6181 19.3788L23.1951 16.6173C23.1944 16.6124 23.188 16.6109 23.1852 16.6151Z" fill="#EE7D5F"/>
<path d="M68.9648 16.9011H64.7746L61.7258 12.9085C60.5508 11.3796 59.9012 10.5413 59.7886 10.3996C59.6761 10.2579 59.5122 10.1202 59.3029 9.99623C59.0995 9.87029 58.8724 9.78371 58.6394 9.74042C58.4005 9.69516 58.1082 9.67549 57.7567 9.67549V16.9011H54.4097V0.31681H57.7567V6.90291C59.0778 6.82814 60.3001 5.69864 61.4197 3.51836C62.097 2.20193 62.8217 1.28495 63.5859 0.771363C64.356 0.257776 65.3097 0 66.457 0C67.0297 0 67.5233 0.0334522 67.936 0.100356V3.01855C67.6931 3.00084 67.3002 2.99297 66.7611 2.99297C66.2378 2.99297 65.7876 3.12284 65.4065 3.37668C65.0293 3.63446 64.666 4.11065 64.3224 4.80134C63.4832 6.51132 62.3616 7.59359 60.9636 8.04815C61.6507 8.2036 62.5788 9.00251 63.7458 10.4547L68.9648 16.9011ZM73.6368 6.54871C74.6755 5.43102 76.1229 4.87218 77.9751 4.87218C79.8273 4.87218 81.3222 5.46448 82.4556 6.64513C83.5851 7.82382 84.1538 9.29571 84.1538 11.0549C84.1538 12.755 83.5555 14.2092 82.3667 15.4174C81.18 16.6276 79.6891 17.2317 77.9001 17.2317C76.3145 17.2317 75.0388 16.8185 74.0653 15.9979V21.1987L70.977 22.1039V5.22638L73.6368 6.54871ZM77.5368 14.7267C78.5734 14.7267 79.4008 14.3883 80.0288 13.7094C80.6527 13.0305 80.9667 12.1588 80.9667 11.1001C80.9667 10.0297 80.6567 9.13632 80.0327 8.43186C79.4146 7.7274 78.5813 7.37714 77.5368 7.37714C76.4902 7.37714 75.6529 7.71953 75.027 8.40234C74.403 9.08712 74.089 9.97852 74.089 11.0785C74.089 12.1745 74.3951 13.06 75.0092 13.7251C75.6194 14.3922 76.4645 14.7267 77.5368 14.7267ZM99.3941 16.1809L97.2121 17.2317C96.5921 16.6512 96.2821 16.0766 96.2821 15.4981C95.1289 16.6512 93.64 17.2317 91.8075 17.2317C90.0126 17.2317 88.5355 16.6512 87.3863 15.4981C86.2311 14.343 85.6585 12.8593 85.6585 11.0549C85.6585 9.34884 86.2607 7.89466 87.4692 6.68646C88.6777 5.47825 90.1587 4.87218 91.9082 4.87218C93.7348 4.87218 95.1782 5.42315 96.2327 6.52313L98.7583 5.22638V13.3257C98.7583 14.2584 98.8096 14.9097 98.9182 15.2718C99.0229 15.6358 99.1809 15.9389 99.3941 16.1809ZM92.2893 14.7267C93.326 14.7267 94.1574 14.3843 94.7853 13.6976C95.4172 13.0089 95.7311 12.1332 95.7311 11.0785C95.7311 9.95294 95.429 9.05761 94.8228 8.3866C94.2206 7.71166 93.3892 7.37714 92.3348 7.37714C91.2684 7.37714 90.4193 7.7156 89.7954 8.39447C89.1674 9.07926 88.8535 9.94507 88.8535 11.0037C88.8535 12.0703 89.1635 12.9597 89.7835 13.6681C90.3976 14.3765 91.2349 14.7267 92.2893 14.7267ZM113.084 16.9011H110.006V10.6003L102.875 17.2317H101.87V5.22638H104.959V11.5291L112.089 4.87218H113.084V16.9011ZM111.633 0C111.24 2.34754 109.86 3.51836 107.492 3.51836C105.109 3.51836 103.721 2.34754 103.326 0H105.409C105.565 0.466359 105.839 0.846138 106.238 1.15114C106.631 1.45024 107.054 1.60176 107.492 1.60176C108.555 1.60176 109.242 1.06653 109.55 0H111.633ZM76.9207 29.7703C78.8657 29.7703 80.4474 30.3665 81.6677 31.559C82.89 32.7534 83.5002 34.2253 83.5002 35.9766C83.5002 37.7023 82.894 39.1565 81.6776 40.345C80.4592 41.5375 78.8756 42.1278 76.9207 42.1278C74.9677 42.1278 73.3821 41.5316 72.1657 40.3411C70.9493 39.1486 70.3411 37.6925 70.3411 35.9766C70.3411 34.2469 70.9395 32.7829 72.1401 31.5786C73.3446 30.3744 74.9342 29.7703 76.9207 29.7703ZM76.9207 39.6229C77.9495 39.6229 78.7709 39.2765 79.385 38.5819C79.9952 37.8853 80.3052 37.0175 80.3052 35.9766C80.3052 34.9002 79.9952 34.0128 79.385 33.3162C78.7709 32.6216 77.9495 32.2752 76.9207 32.2752C75.8919 32.2752 75.0724 32.6216 74.4583 33.3162C73.8461 34.0128 73.5381 34.9002 73.5381 35.9766C73.5381 37.0097 73.8461 37.8775 74.4662 38.578C75.0803 39.2726 75.8998 39.6229 76.9207 39.6229ZM88.6619 30.8447C89.7085 30.1284 90.8794 29.7703 92.1788 29.7703C93.9579 29.7703 95.4211 30.3704 96.5625 31.5708C97.7097 32.7711 98.2784 34.2391 98.2784 35.9766C98.2784 37.7023 97.6722 39.1565 96.4539 40.345C95.2375 41.5375 93.6518 42.1278 91.6989 42.1278C89.6986 42.1278 88.1011 41.508 86.9144 40.2604C85.7256 39.0148 85.1312 37.1927 85.1312 34.8018C85.1312 31.8876 85.7296 29.5656 86.9223 27.8399C88.1149 26.1142 89.8842 25.0398 92.2262 24.6187C93.8947 24.3176 95.1328 23.9103 95.9405 23.3967L97.1016 25.6183C96.1577 26.2303 94.8406 26.7065 93.1582 27.0489C90.5951 27.5526 89.0924 28.8198 88.6619 30.8447ZM91.6989 39.6229C92.7277 39.6229 93.5511 39.2765 94.1712 38.5819C94.7853 37.8853 95.0953 37.0175 95.0953 35.9766C95.0953 34.9002 94.7853 34.0128 94.1712 33.3162C93.5511 32.6216 92.7277 32.2752 91.6989 32.2752C90.678 32.2752 89.8586 32.6216 89.2425 33.3162C88.6244 34.0128 88.3183 34.9002 88.3183 35.9766C88.3183 37.0097 88.6244 37.8775 89.2346 38.578C89.8507 39.2726 90.6701 39.6229 91.6989 39.6229ZM103.243 31.4448C104.279 30.3291 105.727 29.7703 107.581 29.7703C109.433 29.7703 110.926 30.3626 112.06 31.5413C113.189 32.7219 113.758 34.1918 113.758 35.951C113.758 37.6512 113.159 39.1073 111.973 40.3155C110.784 41.5237 109.295 42.1278 107.506 42.1278C105.92 42.1278 104.645 41.7166 103.669 40.894V46.0968L100.583 47V30.1245L103.243 31.4448ZM107.141 39.6229C108.179 39.6229 109.007 39.2864 109.635 38.6055C110.257 37.9266 110.571 37.0549 110.571 35.9963C110.571 34.9258 110.261 34.0344 109.639 33.33C109.019 32.6255 108.187 32.2752 107.141 32.2752C106.096 32.2752 105.259 32.6176 104.631 33.3004C104.009 33.9833 103.695 34.8766 103.695 35.9766C103.695 37.0726 104.001 37.9562 104.615 38.6232C105.225 39.2903 106.07 39.6229 107.141 39.6229ZM129 41.077L126.816 42.1278C126.198 41.5493 125.888 40.9727 125.888 40.3942C124.733 41.5493 123.244 42.1278 121.413 42.1278C119.618 42.1278 118.141 41.5493 116.992 40.3942C115.837 39.2391 115.264 37.7555 115.264 35.951C115.264 34.2469 115.867 32.7908 117.075 31.5826C118.284 30.3744 119.765 29.7703 121.512 29.7703C123.341 29.7703 124.784 30.3193 125.839 31.4212L128.364 30.1245V38.2218C128.364 39.1565 128.414 39.8059 128.522 40.1699C128.627 40.532 128.787 40.837 129 41.077ZM121.893 39.6229C122.93 39.6229 123.763 39.2824 124.391 38.5937C125.023 37.907 125.335 37.0313 125.335 35.9766C125.335 34.851 125.035 33.9557 124.429 33.2827C123.826 32.6078 122.993 32.2752 121.939 32.2752C120.872 32.2752 120.023 32.6117 119.401 33.2926C118.773 33.9754 118.459 34.8432 118.459 35.9018C118.459 36.9683 118.769 37.8558 119.387 38.5642C120.004 39.2726 120.839 39.6229 121.893 39.6229Z" fill="#1E2443"/>
<path d="M56.0447 41.3597L55.0261 44.8899H52.7444V38.4553C53.4815 38.3549 54.0348 38.1424 54.4044 37.8158C54.7778 37.4911 55.0222 37.0955 55.1336 36.6292C55.249 36.1569 55.3037 35.5784 55.3037 34.8857V24.7754H66.0668V34.8857C66.0668 35.5784 66.1196 36.1569 66.2369 36.6292C66.3484 37.0955 66.5927 37.4911 66.9642 37.8158C67.3337 38.1424 67.889 38.3549 68.6261 38.4553V44.8899H66.3444L65.3258 41.3597H56.0447ZM58.3596 27.6837V34.1774C58.3596 35.3364 58.2971 36.1943 58.168 36.7532C58.037 37.3159 57.7555 37.8827 57.3156 38.4553H64.053C63.6151 37.8827 63.3335 37.3159 63.2006 36.7532C63.0715 36.1943 63.0109 35.3364 63.0109 34.1774V27.6837H58.3596Z" fill="#1E2443"/>
</svg>
