<svg width="8" height="16" viewBox="0 0 8 16" fill="none" xmlns="http://www.w3.org/2000/svg">
<path d="M6.25173 0.33661C6.61811 -0.0766504 7.25013 -0.114654 7.66339 0.251726C8.07665 0.618107 8.11465 1.25013 7.74827 1.66339L6.25173 0.33661ZM7.74827 14.3366C8.11465 14.7499 8.07665 15.3819 7.66339 15.7483C7.25013 16.1147 6.61811 16.0767 6.25173 15.6634L7.74827 14.3366ZM7 1C7.74827 1.66339 7.74826 1.66341 7.74822 1.66346C7.74817 1.6635 7.74811 1.66358 7.74802 1.66367C7.74785 1.66387 7.74758 1.66417 7.74723 1.66457C7.74651 1.66538 7.74544 1.66659 7.74401 1.6682C7.74116 1.67141 7.73689 1.67624 7.73124 1.68261C7.71995 1.69535 7.70317 1.71429 7.68127 1.73903C7.63746 1.7885 7.57315 1.86115 7.49127 1.95373C7.3275 2.1389 7.09349 2.40377 6.81265 2.72236C6.25085 3.35966 5.50218 4.21138 4.75384 5.06995C4.00472 5.92942 3.25908 6.79218 2.70202 7.45286C2.42254 7.78432 2.19617 8.05827 2.04193 8.25314C1.96345 8.3523 1.91254 8.41982 1.88466 8.45935C1.86935 8.48107 1.87215 8.47864 1.88273 8.46036C1.88743 8.45224 1.90504 8.42162 1.92435 8.3763C1.93014 8.3627 2 8.21043 2 8H0C0 7.78231 0.0727916 7.61959 0.0843496 7.59246C0.109424 7.5336 0.135642 7.48634 0.151694 7.45861C0.184977 7.40109 0.221473 7.34747 0.250102 7.30687C0.310121 7.22174 0.388115 7.12004 0.473697 7.01191C0.647583 6.79222 0.889956 6.49933 1.17298 6.16365C1.74092 5.49006 2.49528 4.61733 3.24616 3.75584C3.99782 2.89345 4.74915 2.03872 5.31235 1.39982C5.59401 1.0803 5.82875 0.814622 5.99311 0.628774C6.07529 0.535847 6.13989 0.462871 6.18397 0.413096C6.20601 0.388208 6.22292 0.36912 6.23433 0.356237C6.24004 0.349795 6.24437 0.344905 6.24729 0.341617C6.24875 0.339973 6.24985 0.338729 6.25059 0.337893C6.25096 0.337474 6.25124 0.337158 6.25143 0.336944C6.25153 0.336837 6.2516 0.336753 6.25165 0.3367C6.2517 0.336642 6.25173 0.33661 7 1ZM2 8C2 7.78957 1.93014 7.6373 1.92435 7.6237C1.90504 7.57838 1.88743 7.54776 1.88273 7.53964C1.87215 7.52136 1.86935 7.51893 1.88466 7.54065C1.91254 7.58018 1.96345 7.6477 2.04193 7.74686C2.19617 7.94173 2.42254 8.21568 2.70202 8.54714C3.25908 9.20782 4.00472 10.0706 4.75384 10.9301C5.50218 11.7886 6.25085 12.6403 6.81265 13.2776C7.09349 13.5962 7.3275 13.8611 7.49127 14.0463C7.57315 14.1388 7.63746 14.2115 7.68127 14.261C7.70317 14.2857 7.71995 14.3047 7.73124 14.3174C7.73689 14.3238 7.74116 14.3286 7.74401 14.3318C7.74544 14.3334 7.74651 14.3346 7.74723 14.3354C7.74758 14.3358 7.74785 14.3361 7.74802 14.3363C7.74811 14.3364 7.74817 14.3365 7.74822 14.3365C7.74826 14.3366 7.74827 14.3366 7 15C6.25173 15.6634 6.2517 15.6634 6.25165 15.6633C6.2516 15.6632 6.25153 15.6632 6.25143 15.6631C6.25124 15.6628 6.25096 15.6625 6.25059 15.6621C6.24985 15.6613 6.24875 15.66 6.24729 15.6584C6.24437 15.6551 6.24004 15.6502 6.23433 15.6438C6.22292 15.6309 6.20601 15.6118 6.18397 15.5869C6.13989 15.5371 6.07529 15.4642 5.99311 15.3712C5.82875 15.1854 5.59401 14.9197 5.31235 14.6002C4.74915 13.9613 3.99782 13.1065 3.24616 12.2442C2.49528 11.3827 1.74092 10.5099 1.17298 9.83635C0.889956 9.50067 0.647583 9.20778 0.473697 8.98809C0.388115 8.87996 0.310121 8.77826 0.250102 8.69313C0.221473 8.65253 0.184977 8.59891 0.151694 8.54139C0.135642 8.51366 0.109424 8.4664 0.0843496 8.40754C0.0727916 8.38041 0 8.21769 0 8H2Z" fill="#C9C9C9"/>
</svg>
